<?xml version="1.0" encoding="utf-8" standalone="no"?>
<!DOCTYPE svg PUBLIC "-//W3C//DTD SVG 1.1//EN"
  "http://www.w3.org/Graphics/SVG/1.1/DTD/svg11.dtd">
<svg xmlns:xlink="http://www.w3.org/1999/xlink" width="631.253125pt" height="508.306247pt" viewBox="0 0 631.253125 508.306247" xmlns="http://www.w3.org/2000/svg" version="1.1">
 <metadata>
  <rdf:RDF xmlns:dc="http://purl.org/dc/elements/1.1/" xmlns:cc="http://creativecommons.org/ns#" xmlns:rdf="http://www.w3.org/1999/02/22-rdf-syntax-ns#">
   <cc:Work>
    <dc:type rdf:resource="http://purl.org/dc/dcmitype/StillImage"/>
    <dc:date>2023-09-13T16:10:18.043623</dc:date>
    <dc:format>image/svg+xml</dc:format>
    <dc:creator>
     <cc:Agent>
      <dc:title>Matplotlib v3.7.3, https://matplotlib.org/</dc:title>
     </cc:Agent>
    </dc:creator>
   </cc:Work>
  </rdf:RDF>
 </metadata>
 <defs>
  <style type="text/css">*{stroke-linejoin: round; stroke-linecap: butt}</style>
 </defs>
 <g id="figure_1">
  <g id="patch_1">
   <path d="M 0 508.306247 
L 631.253125 508.306247 
L 631.253125 0 
L 0 0 
z
" style="fill: #ffffff"/>
  </g>
  <g id="axes_1">
   <g id="patch_2">
    <path d="M 66.053125 465.838125 
L 624.053125 465.838125 
L 624.053125 22.318125 
L 66.053125 22.318125 
z
" style="fill: #ffffff"/>
   </g>
   <g id="patch_3">
    <path d="M 91.416761 465.838125 
L 92.053039 465.838125 
L 92.053039 465.53822 
L 91.416761 465.53822 
z
" clip-path="url(#pf71a97f9c3)" style="fill: #1f77b4"/>
   </g>
   <g id="patch_4">
    <path d="M 92.212109 465.838125 
L 92.848387 465.838125 
L 92.848387 458.652893 
L 92.212109 458.652893 
z
" clip-path="url(#pf71a97f9c3)" style="fill: #1f77b4"/>
   </g>
   <g id="patch_5">
    <path d="M 93.007457 465.838125 
L 93.643735 465.838125 
L 93.643735 433.40253 
L 93.007457 433.40253 
z
" clip-path="url(#pf71a97f9c3)" style="fill: #1f77b4"/>
   </g>
   <g id="patch_6">
    <path d="M 93.802804 465.838125 
L 94.439082 465.838125 
L 94.439082 406.919223 
L 93.802804 406.919223 
z
" clip-path="url(#pf71a97f9c3)" style="fill: #1f77b4"/>
   </g>
   <g id="patch_7">
    <path d="M 94.598152 465.838125 
L 95.23443 465.838125 
L 95.23443 387.675298 
L 94.598152 387.675298 
z
" clip-path="url(#pf71a97f9c3)" style="fill: #1f77b4"/>
   </g>
   <g id="patch_8">
    <path d="M 95.3935 465.838125 
L 96.029778 465.838125 
L 96.029778 334.929447 
L 95.3935 334.929447 
z
" clip-path="url(#pf71a97f9c3)" style="fill: #1f77b4"/>
   </g>
   <g id="patch_9">
    <path d="M 96.188847 465.838125 
L 96.825125 465.838125 
L 96.825125 233.432319 
L 96.188847 233.432319 
z
" clip-path="url(#pf71a97f9c3)" style="fill: #1f77b4"/>
   </g>
   <g id="patch_10">
    <path d="M 96.984195 465.838125 
L 97.620473 465.838125 
L 97.620473 167.078264 
L 96.984195 167.078264 
z
" clip-path="url(#pf71a97f9c3)" style="fill: #1f77b4"/>
   </g>
   <g id="patch_11">
    <path d="M 97.779543 465.838125 
L 98.415821 465.838125 
L 98.415821 132.047655 
L 97.779543 132.047655 
z
" clip-path="url(#pf71a97f9c3)" style="fill: #1f77b4"/>
   </g>
   <g id="patch_12">
    <path d="M 98.57489 465.838125 
L 99.211168 465.838125 
L 99.211168 78.318781 
L 98.57489 78.318781 
z
" clip-path="url(#pf71a97f9c3)" style="fill: #1f77b4"/>
   </g>
   <g id="patch_13">
    <path d="M 99.370238 465.838125 
L 100.006516 465.838125 
L 100.006516 43.438125 
L 99.370238 43.438125 
z
" clip-path="url(#pf71a97f9c3)" style="fill: #1f77b4"/>
   </g>
   <g id="patch_14">
    <path d="M 100.165585 465.838125 
L 100.801864 465.838125 
L 100.801864 63.602593 
L 100.165585 63.602593 
z
" clip-path="url(#pf71a97f9c3)" style="fill: #1f77b4"/>
   </g>
   <g id="patch_15">
    <path d="M 100.960933 465.838125 
L 101.597211 465.838125 
L 101.597211 118.90597 
L 100.960933 118.90597 
z
" clip-path="url(#pf71a97f9c3)" style="fill: #1f77b4"/>
   </g>
   <g id="patch_16">
    <path d="M 101.756281 465.838125 
L 102.392559 465.838125 
L 102.392559 178.870375 
L 101.756281 178.870375 
z
" clip-path="url(#pf71a97f9c3)" style="fill: #1f77b4"/>
   </g>
   <g id="patch_17">
    <path d="M 102.551628 465.838125 
L 103.187906 465.838125 
L 103.187906 237.481041 
L 102.551628 237.481041 
z
" clip-path="url(#pf71a97f9c3)" style="fill: #1f77b4"/>
   </g>
   <g id="patch_18">
    <path d="M 103.346976 465.838125 
L 103.983254 465.838125 
L 103.983254 287.398617 
L 103.346976 287.398617 
z
" clip-path="url(#pf71a97f9c3)" style="fill: #1f77b4"/>
   </g>
   <g id="patch_19">
    <path d="M 104.142324 465.838125 
L 104.778602 465.838125 
L 104.778602 328.877191 
L 104.142324 328.877191 
z
" clip-path="url(#pf71a97f9c3)" style="fill: #1f77b4"/>
   </g>
   <g id="patch_20">
    <path d="M 104.937671 465.838125 
L 105.573949 465.838125 
L 105.573949 358.821905 
L 104.937671 358.821905 
z
" clip-path="url(#pf71a97f9c3)" style="fill: #1f77b4"/>
   </g>
   <g id="patch_21">
    <path d="M 105.733019 465.838125 
L 106.369297 465.838125 
L 106.369297 382.818497 
L 105.733019 382.818497 
z
" clip-path="url(#pf71a97f9c3)" style="fill: #1f77b4"/>
   </g>
   <g id="patch_22">
    <path d="M 106.528367 465.838125 
L 107.164645 465.838125 
L 107.164645 400.862802 
L 106.528367 400.862802 
z
" clip-path="url(#pf71a97f9c3)" style="fill: #1f77b4"/>
   </g>
   <g id="patch_23">
    <path d="M 107.323714 465.838125 
L 107.959992 465.838125 
L 107.959992 412.200889 
L 107.323714 412.200889 
z
" clip-path="url(#pf71a97f9c3)" style="fill: #1f77b4"/>
   </g>
   <g id="patch_24">
    <path d="M 108.119062 465.838125 
L 108.75534 465.838125 
L 108.75534 423.776402 
L 108.119062 423.776402 
z
" clip-path="url(#pf71a97f9c3)" style="fill: #1f77b4"/>
   </g>
   <g id="patch_25">
    <path d="M 108.91441 465.838125 
L 109.550688 465.838125 
L 109.550688 431.519791 
L 108.91441 431.519791 
z
" clip-path="url(#pf71a97f9c3)" style="fill: #1f77b4"/>
   </g>
   <g id="patch_26">
    <path d="M 109.709757 465.838125 
L 110.346035 465.838125 
L 110.346035 437.905276 
L 109.709757 437.905276 
z
" clip-path="url(#pf71a97f9c3)" style="fill: #1f77b4"/>
   </g>
   <g id="patch_27">
    <path d="M 110.505105 465.838125 
L 111.141383 465.838125 
L 111.141383 442.324714 
L 110.505105 442.324714 
z
" clip-path="url(#pf71a97f9c3)" style="fill: #1f77b4"/>
   </g>
   <g id="patch_28">
    <path d="M 111.300452 465.838125 
L 111.936731 465.838125 
L 111.936731 446.290129 
L 111.300452 446.290129 
z
" clip-path="url(#pf71a97f9c3)" style="fill: #1f77b4"/>
   </g>
   <g id="patch_29">
    <path d="M 112.0958 465.838125 
L 112.732078 465.838125 
L 112.732078 449.389151 
L 112.0958 449.389151 
z
" clip-path="url(#pf71a97f9c3)" style="fill: #1f77b4"/>
   </g>
   <g id="patch_30">
    <path d="M 112.891148 465.838125 
L 113.527426 465.838125 
L 113.527426 452.175771 
L 112.891148 452.175771 
z
" clip-path="url(#pf71a97f9c3)" style="fill: #1f77b4"/>
   </g>
   <g id="patch_31">
    <path d="M 113.686495 465.838125 
L 114.322774 465.838125 
L 114.322774 453.637809 
L 113.686495 453.637809 
z
" clip-path="url(#pf71a97f9c3)" style="fill: #1f77b4"/>
   </g>
   <g id="patch_32">
    <path d="M 114.481843 465.838125 
L 115.118121 465.838125 
L 115.118121 455.48306 
L 114.481843 455.48306 
z
" clip-path="url(#pf71a97f9c3)" style="fill: #1f77b4"/>
   </g>
   <g id="patch_33">
    <path d="M 115.277191 465.838125 
L 115.913469 465.838125 
L 115.913469 456.96176 
L 115.277191 456.96176 
z
" clip-path="url(#pf71a97f9c3)" style="fill: #1f77b4"/>
   </g>
   <g id="patch_34">
    <path d="M 116.072538 465.838125 
L 116.708816 465.838125 
L 116.708816 457.749012 
L 116.072538 457.749012 
z
" clip-path="url(#pf71a97f9c3)" style="fill: #1f77b4"/>
   </g>
   <g id="patch_35">
    <path d="M 116.867886 465.838125 
L 117.504164 465.838125 
L 117.504164 459.102751 
L 116.867886 459.102751 
z
" clip-path="url(#pf71a97f9c3)" style="fill: #1f77b4"/>
   </g>
   <g id="patch_36">
    <path d="M 117.663234 465.838125 
L 118.299512 465.838125 
L 118.299512 459.627585 
L 117.663234 459.627585 
z
" clip-path="url(#pf71a97f9c3)" style="fill: #1f77b4"/>
   </g>
   <g id="patch_37">
    <path d="M 118.458581 465.838125 
L 119.094859 465.838125 
L 119.094859 460.339861 
L 118.458581 460.339861 
z
" clip-path="url(#pf71a97f9c3)" style="fill: #1f77b4"/>
   </g>
   <g id="patch_38">
    <path d="M 119.253929 465.838125 
L 119.890207 465.838125 
L 119.890207 461.185427 
L 119.253929 461.185427 
z
" clip-path="url(#pf71a97f9c3)" style="fill: #1f77b4"/>
   </g>
   <g id="patch_39">
    <path d="M 120.049277 465.838125 
L 120.685555 465.838125 
L 120.685555 461.377033 
L 120.049277 461.377033 
z
" clip-path="url(#pf71a97f9c3)" style="fill: #1f77b4"/>
   </g>
   <g id="patch_40">
    <path d="M 120.844624 465.838125 
L 121.480902 465.838125 
L 121.480902 462.126797 
L 120.844624 462.126797 
z
" clip-path="url(#pf71a97f9c3)" style="fill: #1f77b4"/>
   </g>
   <g id="patch_41">
    <path d="M 121.639972 465.838125 
L 122.27625 465.838125 
L 122.27625 462.364222 
L 121.639972 462.364222 
z
" clip-path="url(#pf71a97f9c3)" style="fill: #1f77b4"/>
   </g>
   <g id="patch_42">
    <path d="M 122.435319 465.838125 
L 123.071598 465.838125 
L 123.071598 462.889056 
L 122.435319 462.889056 
z
" clip-path="url(#pf71a97f9c3)" style="fill: #1f77b4"/>
   </g>
   <g id="patch_43">
    <path d="M 123.230667 465.838125 
L 123.866945 465.838125 
L 123.866945 462.922379 
L 123.230667 462.922379 
z
" clip-path="url(#pf71a97f9c3)" style="fill: #1f77b4"/>
   </g>
   <g id="patch_44">
    <path d="M 124.026015 465.838125 
L 124.662293 465.838125 
L 124.662293 463.313922 
L 124.026015 463.313922 
z
" clip-path="url(#pf71a97f9c3)" style="fill: #1f77b4"/>
   </g>
   <g id="patch_45">
    <path d="M 124.821362 465.838125 
L 125.457641 465.838125 
L 125.457641 463.430552 
L 124.821362 463.430552 
z
" clip-path="url(#pf71a97f9c3)" style="fill: #1f77b4"/>
   </g>
   <g id="patch_46">
    <path d="M 125.61671 465.838125 
L 126.252988 465.838125 
L 126.252988 463.688803 
L 125.61671 463.688803 
z
" clip-path="url(#pf71a97f9c3)" style="fill: #1f77b4"/>
   </g>
   <g id="patch_47">
    <path d="M 126.412058 465.838125 
L 127.048336 465.838125 
L 127.048336 463.726292 
L 126.412058 463.726292 
z
" clip-path="url(#pf71a97f9c3)" style="fill: #1f77b4"/>
   </g>
   <g id="patch_48">
    <path d="M 127.207405 465.838125 
L 127.843683 465.838125 
L 127.843683 463.992874 
L 127.207405 463.992874 
z
" clip-path="url(#pf71a97f9c3)" style="fill: #1f77b4"/>
   </g>
   <g id="patch_49">
    <path d="M 128.002753 465.838125 
L 128.639031 465.838125 
L 128.639031 464.259457 
L 128.002753 464.259457 
z
" clip-path="url(#pf71a97f9c3)" style="fill: #1f77b4"/>
   </g>
   <g id="patch_50">
    <path d="M 128.798101 465.838125 
L 129.434379 465.838125 
L 129.434379 464.476055 
L 128.798101 464.476055 
z
" clip-path="url(#pf71a97f9c3)" style="fill: #1f77b4"/>
   </g>
   <g id="patch_51">
    <path d="M 129.593448 465.838125 
L 130.229726 465.838125 
L 130.229726 464.521874 
L 129.593448 464.521874 
z
" clip-path="url(#pf71a97f9c3)" style="fill: #1f77b4"/>
   </g>
   <g id="patch_52">
    <path d="M 130.388796 465.838125 
L 131.025074 465.838125 
L 131.025074 464.59685 
L 130.388796 464.59685 
z
" clip-path="url(#pf71a97f9c3)" style="fill: #1f77b4"/>
   </g>
   <g id="patch_53">
    <path d="M 131.184144 465.838125 
L 131.820422 465.838125 
L 131.820422 464.576023 
L 131.184144 464.576023 
z
" clip-path="url(#pf71a97f9c3)" style="fill: #1f77b4"/>
   </g>
   <g id="patch_54">
    <path d="M 131.979491 465.838125 
L 132.615769 465.838125 
L 132.615769 464.696819 
L 131.979491 464.696819 
z
" clip-path="url(#pf71a97f9c3)" style="fill: #1f77b4"/>
   </g>
   <g id="patch_55">
    <path d="M 132.774839 465.838125 
L 133.411117 465.838125 
L 133.411117 464.796787 
L 132.774839 464.796787 
z
" clip-path="url(#pf71a97f9c3)" style="fill: #1f77b4"/>
   </g>
   <g id="patch_56">
    <path d="M 133.570186 465.838125 
L 134.206465 465.838125 
L 134.206465 464.859267 
L 133.570186 464.859267 
z
" clip-path="url(#pf71a97f9c3)" style="fill: #1f77b4"/>
   </g>
   <g id="patch_57">
    <path d="M 134.365534 465.838125 
L 135.001812 465.838125 
L 135.001812 464.963401 
L 134.365534 464.963401 
z
" clip-path="url(#pf71a97f9c3)" style="fill: #1f77b4"/>
   </g>
   <g id="patch_58">
    <path d="M 135.160882 465.838125 
L 135.79716 465.838125 
L 135.79716 465.06337 
L 135.160882 465.06337 
z
" clip-path="url(#pf71a97f9c3)" style="fill: #1f77b4"/>
   </g>
   <g id="patch_59">
    <path d="M 135.956229 465.838125 
L 136.592508 465.838125 
L 136.592508 465.146677 
L 135.956229 465.146677 
z
" clip-path="url(#pf71a97f9c3)" style="fill: #1f77b4"/>
   </g>
   <g id="patch_60">
    <path d="M 136.751577 465.838125 
L 137.387855 465.838125 
L 137.387855 465.142511 
L 136.751577 465.142511 
z
" clip-path="url(#pf71a97f9c3)" style="fill: #1f77b4"/>
   </g>
   <g id="patch_61">
    <path d="M 137.546925 465.838125 
L 138.183203 465.838125 
L 138.183203 465.184165 
L 137.546925 465.184165 
z
" clip-path="url(#pf71a97f9c3)" style="fill: #1f77b4"/>
   </g>
   <g id="patch_62">
    <path d="M 138.342272 465.838125 
L 138.97855 465.838125 
L 138.97855 465.192495 
L 138.342272 465.192495 
z
" clip-path="url(#pf71a97f9c3)" style="fill: #1f77b4"/>
   </g>
   <g id="patch_63">
    <path d="M 139.13762 465.838125 
L 139.773898 465.838125 
L 139.773898 465.204992 
L 139.13762 465.204992 
z
" clip-path="url(#pf71a97f9c3)" style="fill: #1f77b4"/>
   </g>
   <g id="patch_64">
    <path d="M 139.932968 465.838125 
L 140.569246 465.838125 
L 140.569246 465.325787 
L 139.932968 465.325787 
z
" clip-path="url(#pf71a97f9c3)" style="fill: #1f77b4"/>
   </g>
   <g id="patch_65">
    <path d="M 140.728315 465.838125 
L 141.364593 465.838125 
L 141.364593 465.350779 
L 140.728315 465.350779 
z
" clip-path="url(#pf71a97f9c3)" style="fill: #1f77b4"/>
   </g>
   <g id="patch_66">
    <path d="M 141.523663 465.838125 
L 142.159941 465.838125 
L 142.159941 465.329952 
L 141.523663 465.329952 
z
" clip-path="url(#pf71a97f9c3)" style="fill: #1f77b4"/>
   </g>
   <g id="patch_67">
    <path d="M 142.319011 465.838125 
L 142.955289 465.838125 
L 142.955289 465.35911 
L 142.319011 465.35911 
z
" clip-path="url(#pf71a97f9c3)" style="fill: #1f77b4"/>
   </g>
   <g id="patch_68">
    <path d="M 143.114358 465.838125 
L 143.750636 465.838125 
L 143.750636 465.396598 
L 143.114358 465.396598 
z
" clip-path="url(#pf71a97f9c3)" style="fill: #1f77b4"/>
   </g>
   <g id="patch_69">
    <path d="M 143.909706 465.838125 
L 144.545984 465.838125 
L 144.545984 465.438251 
L 143.909706 465.438251 
z
" clip-path="url(#pf71a97f9c3)" style="fill: #1f77b4"/>
   </g>
   <g id="patch_70">
    <path d="M 144.705054 465.838125 
L 145.341332 465.838125 
L 145.341332 465.450747 
L 144.705054 465.450747 
z
" clip-path="url(#pf71a97f9c3)" style="fill: #1f77b4"/>
   </g>
   <g id="patch_71">
    <path d="M 145.500401 465.838125 
L 146.136679 465.838125 
L 146.136679 465.500732 
L 145.500401 465.500732 
z
" clip-path="url(#pf71a97f9c3)" style="fill: #1f77b4"/>
   </g>
   <g id="patch_72">
    <path d="M 146.295749 465.838125 
L 146.932027 465.838125 
L 146.932027 465.48407 
L 146.295749 465.48407 
z
" clip-path="url(#pf71a97f9c3)" style="fill: #1f77b4"/>
   </g>
   <g id="patch_73">
    <path d="M 147.091096 465.838125 
L 147.727375 465.838125 
L 147.727375 465.579873 
L 147.091096 465.579873 
z
" clip-path="url(#pf71a97f9c3)" style="fill: #1f77b4"/>
   </g>
   <g id="patch_74">
    <path d="M 147.886444 465.838125 
L 148.522722 465.838125 
L 148.522722 465.509062 
L 147.886444 465.509062 
z
" clip-path="url(#pf71a97f9c3)" style="fill: #1f77b4"/>
   </g>
   <g id="patch_75">
    <path d="M 148.681792 465.838125 
L 149.31807 465.838125 
L 149.31807 465.559046 
L 148.681792 465.559046 
z
" clip-path="url(#pf71a97f9c3)" style="fill: #1f77b4"/>
   </g>
   <g id="patch_76">
    <path d="M 149.477139 465.838125 
L 150.113417 465.838125 
L 150.113417 465.588204 
L 149.477139 465.588204 
z
" clip-path="url(#pf71a97f9c3)" style="fill: #1f77b4"/>
   </g>
   <g id="patch_77">
    <path d="M 150.272487 465.838125 
L 150.908765 465.838125 
L 150.908765 465.625692 
L 150.272487 465.625692 
z
" clip-path="url(#pf71a97f9c3)" style="fill: #1f77b4"/>
   </g>
   <g id="patch_78">
    <path d="M 151.067835 465.838125 
L 151.704113 465.838125 
L 151.704113 465.675676 
L 151.067835 465.675676 
z
" clip-path="url(#pf71a97f9c3)" style="fill: #1f77b4"/>
   </g>
   <g id="patch_79">
    <path d="M 151.863182 465.838125 
L 152.49946 465.838125 
L 152.49946 465.625692 
L 151.863182 465.625692 
z
" clip-path="url(#pf71a97f9c3)" style="fill: #1f77b4"/>
   </g>
   <g id="patch_80">
    <path d="M 152.65853 465.838125 
L 153.294808 465.838125 
L 153.294808 465.592369 
L 152.65853 465.592369 
z
" clip-path="url(#pf71a97f9c3)" style="fill: #1f77b4"/>
   </g>
   <g id="patch_81">
    <path d="M 153.453878 465.838125 
L 154.090156 465.838125 
L 154.090156 465.575708 
L 153.453878 465.575708 
z
" clip-path="url(#pf71a97f9c3)" style="fill: #1f77b4"/>
   </g>
   <g id="patch_82">
    <path d="M 154.249225 465.838125 
L 154.885503 465.838125 
L 154.885503 465.634023 
L 154.249225 465.634023 
z
" clip-path="url(#pf71a97f9c3)" style="fill: #1f77b4"/>
   </g>
   <g id="patch_83">
    <path d="M 155.044573 465.838125 
L 155.680851 465.838125 
L 155.680851 465.700668 
L 155.044573 465.700668 
z
" clip-path="url(#pf71a97f9c3)" style="fill: #1f77b4"/>
   </g>
   <g id="patch_84">
    <path d="M 155.839921 465.838125 
L 156.476199 465.838125 
L 156.476199 465.659015 
L 155.839921 465.659015 
z
" clip-path="url(#pf71a97f9c3)" style="fill: #1f77b4"/>
   </g>
   <g id="patch_85">
    <path d="M 156.635268 465.838125 
L 157.271546 465.838125 
L 157.271546 465.692338 
L 156.635268 465.692338 
z
" clip-path="url(#pf71a97f9c3)" style="fill: #1f77b4"/>
   </g>
   <g id="patch_86">
    <path d="M 157.430616 465.838125 
L 158.066894 465.838125 
L 158.066894 465.713164 
L 157.430616 465.713164 
z
" clip-path="url(#pf71a97f9c3)" style="fill: #1f77b4"/>
   </g>
   <g id="patch_87">
    <path d="M 158.225963 465.838125 
L 158.862242 465.838125 
L 158.862242 465.688172 
L 158.225963 465.688172 
z
" clip-path="url(#pf71a97f9c3)" style="fill: #1f77b4"/>
   </g>
   <g id="patch_88">
    <path d="M 159.021311 465.838125 
L 159.657589 465.838125 
L 159.657589 465.733991 
L 159.021311 465.733991 
z
" clip-path="url(#pf71a97f9c3)" style="fill: #1f77b4"/>
   </g>
   <g id="patch_89">
    <path d="M 159.816659 465.838125 
L 160.452937 465.838125 
L 160.452937 465.713164 
L 159.816659 465.713164 
z
" clip-path="url(#pf71a97f9c3)" style="fill: #1f77b4"/>
   </g>
   <g id="patch_90">
    <path d="M 160.612006 465.838125 
L 161.248284 465.838125 
L 161.248284 465.725661 
L 160.612006 465.725661 
z
" clip-path="url(#pf71a97f9c3)" style="fill: #1f77b4"/>
   </g>
   <g id="patch_91">
    <path d="M 161.407354 465.838125 
L 162.043632 465.838125 
L 162.043632 465.746487 
L 161.407354 465.746487 
z
" clip-path="url(#pf71a97f9c3)" style="fill: #1f77b4"/>
   </g>
   <g id="patch_92">
    <path d="M 162.202702 465.838125 
L 162.83898 465.838125 
L 162.83898 465.708999 
L 162.202702 465.708999 
z
" clip-path="url(#pf71a97f9c3)" style="fill: #1f77b4"/>
   </g>
   <g id="patch_93">
    <path d="M 162.998049 465.838125 
L 163.634327 465.838125 
L 163.634327 465.742322 
L 162.998049 465.742322 
z
" clip-path="url(#pf71a97f9c3)" style="fill: #1f77b4"/>
   </g>
   <g id="patch_94">
    <path d="M 163.793397 465.838125 
L 164.429675 465.838125 
L 164.429675 465.729826 
L 163.793397 465.729826 
z
" clip-path="url(#pf71a97f9c3)" style="fill: #1f77b4"/>
   </g>
   <g id="patch_95">
    <path d="M 164.588745 465.838125 
L 165.225023 465.838125 
L 165.225023 465.700668 
L 164.588745 465.700668 
z
" clip-path="url(#pf71a97f9c3)" style="fill: #1f77b4"/>
   </g>
   <g id="patch_96">
    <path d="M 165.384092 465.838125 
L 166.02037 465.838125 
L 166.02037 465.733991 
L 165.384092 465.733991 
z
" clip-path="url(#pf71a97f9c3)" style="fill: #1f77b4"/>
   </g>
   <g id="patch_97">
    <path d="M 166.17944 465.838125 
L 166.815718 465.838125 
L 166.815718 465.763149 
L 166.17944 465.763149 
z
" clip-path="url(#pf71a97f9c3)" style="fill: #1f77b4"/>
   </g>
   <g id="patch_98">
    <path d="M 166.974788 465.838125 
L 167.611066 465.838125 
L 167.611066 465.729826 
L 166.974788 465.729826 
z
" clip-path="url(#pf71a97f9c3)" style="fill: #1f77b4"/>
   </g>
   <g id="patch_99">
    <path d="M 167.770135 465.838125 
L 168.406413 465.838125 
L 168.406413 465.725661 
L 167.770135 465.725661 
z
" clip-path="url(#pf71a97f9c3)" style="fill: #1f77b4"/>
   </g>
   <g id="patch_100">
    <path d="M 168.565483 465.838125 
L 169.201761 465.838125 
L 169.201761 465.771479 
L 168.565483 465.771479 
z
" clip-path="url(#pf71a97f9c3)" style="fill: #1f77b4"/>
   </g>
   <g id="patch_101">
    <path d="M 169.36083 465.838125 
L 169.997109 465.838125 
L 169.997109 465.763149 
L 169.36083 465.763149 
z
" clip-path="url(#pf71a97f9c3)" style="fill: #1f77b4"/>
   </g>
   <g id="patch_102">
    <path d="M 170.156178 465.838125 
L 170.792456 465.838125 
L 170.792456 465.758983 
L 170.156178 465.758983 
z
" clip-path="url(#pf71a97f9c3)" style="fill: #1f77b4"/>
   </g>
   <g id="patch_103">
    <path d="M 170.951526 465.838125 
L 171.587804 465.838125 
L 171.587804 465.771479 
L 170.951526 465.771479 
z
" clip-path="url(#pf71a97f9c3)" style="fill: #1f77b4"/>
   </g>
   <g id="patch_104">
    <path d="M 171.746873 465.838125 
L 172.383152 465.838125 
L 172.383152 465.783975 
L 171.746873 465.783975 
z
" clip-path="url(#pf71a97f9c3)" style="fill: #1f77b4"/>
   </g>
   <g id="patch_105">
    <path d="M 172.542221 465.838125 
L 173.178499 465.838125 
L 173.178499 465.771479 
L 172.542221 465.771479 
z
" clip-path="url(#pf71a97f9c3)" style="fill: #1f77b4"/>
   </g>
   <g id="patch_106">
    <path d="M 173.337569 465.838125 
L 173.973847 465.838125 
L 173.973847 465.746487 
L 173.337569 465.746487 
z
" clip-path="url(#pf71a97f9c3)" style="fill: #1f77b4"/>
   </g>
   <g id="patch_107">
    <path d="M 174.132916 465.838125 
L 174.769194 465.838125 
L 174.769194 465.77981 
L 174.132916 465.77981 
z
" clip-path="url(#pf71a97f9c3)" style="fill: #1f77b4"/>
   </g>
   <g id="patch_108">
    <path d="M 174.928264 465.838125 
L 175.564542 465.838125 
L 175.564542 465.767314 
L 174.928264 465.767314 
z
" clip-path="url(#pf71a97f9c3)" style="fill: #1f77b4"/>
   </g>
   <g id="patch_109">
    <path d="M 175.723612 465.838125 
L 176.35989 465.838125 
L 176.35989 465.804802 
L 175.723612 465.804802 
z
" clip-path="url(#pf71a97f9c3)" style="fill: #1f77b4"/>
   </g>
   <g id="patch_110">
    <path d="M 176.518959 465.838125 
L 177.155237 465.838125 
L 177.155237 465.804802 
L 176.518959 465.804802 
z
" clip-path="url(#pf71a97f9c3)" style="fill: #1f77b4"/>
   </g>
   <g id="patch_111">
    <path d="M 177.314307 465.838125 
L 177.950585 465.838125 
L 177.950585 465.77981 
L 177.314307 465.77981 
z
" clip-path="url(#pf71a97f9c3)" style="fill: #1f77b4"/>
   </g>
   <g id="patch_112">
    <path d="M 178.109655 465.838125 
L 178.745933 465.838125 
L 178.745933 465.788141 
L 178.109655 465.788141 
z
" clip-path="url(#pf71a97f9c3)" style="fill: #1f77b4"/>
   </g>
   <g id="patch_113">
    <path d="M 178.905002 465.838125 
L 179.54128 465.838125 
L 179.54128 465.788141 
L 178.905002 465.788141 
z
" clip-path="url(#pf71a97f9c3)" style="fill: #1f77b4"/>
   </g>
   <g id="patch_114">
    <path d="M 179.70035 465.838125 
L 180.336628 465.838125 
L 180.336628 465.817298 
L 179.70035 465.817298 
z
" clip-path="url(#pf71a97f9c3)" style="fill: #1f77b4"/>
   </g>
   <g id="patch_115">
    <path d="M 180.495697 465.838125 
L 181.131976 465.838125 
L 181.131976 465.804802 
L 180.495697 465.804802 
z
" clip-path="url(#pf71a97f9c3)" style="fill: #1f77b4"/>
   </g>
   <g id="patch_116">
    <path d="M 181.291045 465.838125 
L 181.927323 465.838125 
L 181.927323 465.800637 
L 181.291045 465.800637 
z
" clip-path="url(#pf71a97f9c3)" style="fill: #1f77b4"/>
   </g>
   <g id="patch_117">
    <path d="M 182.086393 465.838125 
L 182.722671 465.838125 
L 182.722671 465.796471 
L 182.086393 465.796471 
z
" clip-path="url(#pf71a97f9c3)" style="fill: #1f77b4"/>
   </g>
   <g id="patch_118">
    <path d="M 182.88174 465.838125 
L 183.518019 465.838125 
L 183.518019 465.813133 
L 182.88174 465.813133 
z
" clip-path="url(#pf71a97f9c3)" style="fill: #1f77b4"/>
   </g>
   <g id="patch_119">
    <path d="M 183.677088 465.838125 
L 184.313366 465.838125 
L 184.313366 465.788141 
L 183.677088 465.788141 
z
" clip-path="url(#pf71a97f9c3)" style="fill: #1f77b4"/>
   </g>
   <g id="patch_120">
    <path d="M 184.472436 465.838125 
L 185.108714 465.838125 
L 185.108714 465.813133 
L 184.472436 465.813133 
z
" clip-path="url(#pf71a97f9c3)" style="fill: #1f77b4"/>
   </g>
   <g id="patch_121">
    <path d="M 185.267783 465.838125 
L 185.904061 465.838125 
L 185.904061 465.77981 
L 185.267783 465.77981 
z
" clip-path="url(#pf71a97f9c3)" style="fill: #1f77b4"/>
   </g>
   <g id="patch_122">
    <path d="M 186.063131 465.838125 
L 186.699409 465.838125 
L 186.699409 465.804802 
L 186.063131 465.804802 
z
" clip-path="url(#pf71a97f9c3)" style="fill: #1f77b4"/>
   </g>
   <g id="patch_123">
    <path d="M 186.858479 465.838125 
L 187.494757 465.838125 
L 187.494757 465.796471 
L 186.858479 465.796471 
z
" clip-path="url(#pf71a97f9c3)" style="fill: #1f77b4"/>
   </g>
   <g id="patch_124">
    <path d="M 187.653826 465.838125 
L 188.290104 465.838125 
L 188.290104 465.821464 
L 187.653826 465.821464 
z
" clip-path="url(#pf71a97f9c3)" style="fill: #1f77b4"/>
   </g>
   <g id="patch_125">
    <path d="M 188.449174 465.838125 
L 189.085452 465.838125 
L 189.085452 465.804802 
L 188.449174 465.804802 
z
" clip-path="url(#pf71a97f9c3)" style="fill: #1f77b4"/>
   </g>
   <g id="patch_126">
    <path d="M 189.244522 465.838125 
L 189.8808 465.838125 
L 189.8808 465.804802 
L 189.244522 465.804802 
z
" clip-path="url(#pf71a97f9c3)" style="fill: #1f77b4"/>
   </g>
   <g id="patch_127">
    <path d="M 190.039869 465.838125 
L 190.676147 465.838125 
L 190.676147 465.821464 
L 190.039869 465.821464 
z
" clip-path="url(#pf71a97f9c3)" style="fill: #1f77b4"/>
   </g>
   <g id="patch_128">
    <path d="M 190.835217 465.838125 
L 191.471495 465.838125 
L 191.471495 465.813133 
L 190.835217 465.813133 
z
" clip-path="url(#pf71a97f9c3)" style="fill: #1f77b4"/>
   </g>
   <g id="patch_129">
    <path d="M 191.630564 465.838125 
L 192.266843 465.838125 
L 192.266843 465.796471 
L 191.630564 465.796471 
z
" clip-path="url(#pf71a97f9c3)" style="fill: #1f77b4"/>
   </g>
   <g id="patch_130">
    <path d="M 192.425912 465.838125 
L 193.06219 465.838125 
L 193.06219 465.813133 
L 192.425912 465.813133 
z
" clip-path="url(#pf71a97f9c3)" style="fill: #1f77b4"/>
   </g>
   <g id="patch_131">
    <path d="M 193.22126 465.838125 
L 193.857538 465.838125 
L 193.857538 465.813133 
L 193.22126 465.813133 
z
" clip-path="url(#pf71a97f9c3)" style="fill: #1f77b4"/>
   </g>
   <g id="patch_132">
    <path d="M 194.016607 465.838125 
L 194.652886 465.838125 
L 194.652886 465.821464 
L 194.016607 465.821464 
z
" clip-path="url(#pf71a97f9c3)" style="fill: #1f77b4"/>
   </g>
   <g id="patch_133">
    <path d="M 194.811955 465.838125 
L 195.448233 465.838125 
L 195.448233 465.813133 
L 194.811955 465.813133 
z
" clip-path="url(#pf71a97f9c3)" style="fill: #1f77b4"/>
   </g>
   <g id="patch_134">
    <path d="M 195.607303 465.838125 
L 196.243581 465.838125 
L 196.243581 465.817298 
L 195.607303 465.817298 
z
" clip-path="url(#pf71a97f9c3)" style="fill: #1f77b4"/>
   </g>
   <g id="patch_135">
    <path d="M 196.40265 465.838125 
L 197.038928 465.838125 
L 197.038928 465.817298 
L 196.40265 465.817298 
z
" clip-path="url(#pf71a97f9c3)" style="fill: #1f77b4"/>
   </g>
   <g id="patch_136">
    <path d="M 197.197998 465.838125 
L 197.834276 465.838125 
L 197.834276 465.83396 
L 197.197998 465.83396 
z
" clip-path="url(#pf71a97f9c3)" style="fill: #1f77b4"/>
   </g>
   <g id="patch_137">
    <path d="M 197.993346 465.838125 
L 198.629624 465.838125 
L 198.629624 465.821464 
L 197.993346 465.821464 
z
" clip-path="url(#pf71a97f9c3)" style="fill: #1f77b4"/>
   </g>
   <g id="patch_138">
    <path d="M 198.788693 465.838125 
L 199.424971 465.838125 
L 199.424971 465.825629 
L 198.788693 465.825629 
z
" clip-path="url(#pf71a97f9c3)" style="fill: #1f77b4"/>
   </g>
   <g id="patch_139">
    <path d="M 199.584041 465.838125 
L 200.220319 465.838125 
L 200.220319 465.813133 
L 199.584041 465.813133 
z
" clip-path="url(#pf71a97f9c3)" style="fill: #1f77b4"/>
   </g>
   <g id="patch_140">
    <path d="M 200.379389 465.838125 
L 201.015667 465.838125 
L 201.015667 465.821464 
L 200.379389 465.821464 
z
" clip-path="url(#pf71a97f9c3)" style="fill: #1f77b4"/>
   </g>
   <g id="patch_141">
    <path d="M 201.174736 465.838125 
L 201.811014 465.838125 
L 201.811014 465.83396 
L 201.174736 465.83396 
z
" clip-path="url(#pf71a97f9c3)" style="fill: #1f77b4"/>
   </g>
   <g id="patch_142">
    <path d="M 201.970084 465.838125 
L 202.606362 465.838125 
L 202.606362 465.821464 
L 201.970084 465.821464 
z
" clip-path="url(#pf71a97f9c3)" style="fill: #1f77b4"/>
   </g>
   <g id="patch_143">
    <path d="M 202.765432 465.838125 
L 203.40171 465.838125 
L 203.40171 465.808968 
L 202.765432 465.808968 
z
" clip-path="url(#pf71a97f9c3)" style="fill: #1f77b4"/>
   </g>
   <g id="patch_144">
    <path d="M 203.560779 465.838125 
L 204.197057 465.838125 
L 204.197057 465.817298 
L 203.560779 465.817298 
z
" clip-path="url(#pf71a97f9c3)" style="fill: #1f77b4"/>
   </g>
   <g id="patch_145">
    <path d="M 204.356127 465.838125 
L 204.992405 465.838125 
L 204.992405 465.825629 
L 204.356127 465.825629 
z
" clip-path="url(#pf71a97f9c3)" style="fill: #1f77b4"/>
   </g>
   <g id="patch_146">
    <path d="M 205.151474 465.838125 
L 205.787753 465.838125 
L 205.787753 465.83396 
L 205.151474 465.83396 
z
" clip-path="url(#pf71a97f9c3)" style="fill: #1f77b4"/>
   </g>
   <g id="patch_147">
    <path d="M 205.946822 465.838125 
L 206.5831 465.838125 
L 206.5831 465.821464 
L 205.946822 465.821464 
z
" clip-path="url(#pf71a97f9c3)" style="fill: #1f77b4"/>
   </g>
   <g id="patch_148">
    <path d="M 206.74217 465.838125 
L 207.378448 465.838125 
L 207.378448 465.825629 
L 206.74217 465.825629 
z
" clip-path="url(#pf71a97f9c3)" style="fill: #1f77b4"/>
   </g>
   <g id="patch_149">
    <path d="M 207.537517 465.838125 
L 208.173795 465.838125 
L 208.173795 465.808968 
L 207.537517 465.808968 
z
" clip-path="url(#pf71a97f9c3)" style="fill: #1f77b4"/>
   </g>
   <g id="patch_150">
    <path d="M 208.332865 465.838125 
L 208.969143 465.838125 
L 208.969143 465.825629 
L 208.332865 465.825629 
z
" clip-path="url(#pf71a97f9c3)" style="fill: #1f77b4"/>
   </g>
   <g id="patch_151">
    <path d="M 209.128213 465.838125 
L 209.764491 465.838125 
L 209.764491 465.83396 
L 209.128213 465.83396 
z
" clip-path="url(#pf71a97f9c3)" style="fill: #1f77b4"/>
   </g>
   <g id="patch_152">
    <path d="M 209.92356 465.838125 
L 210.559838 465.838125 
L 210.559838 465.813133 
L 209.92356 465.813133 
z
" clip-path="url(#pf71a97f9c3)" style="fill: #1f77b4"/>
   </g>
   <g id="patch_153">
    <path d="M 210.718908 465.838125 
L 211.355186 465.838125 
L 211.355186 465.829794 
L 210.718908 465.829794 
z
" clip-path="url(#pf71a97f9c3)" style="fill: #1f77b4"/>
   </g>
   <g id="patch_154">
    <path d="M 211.514256 465.838125 
L 212.150534 465.838125 
L 212.150534 465.817298 
L 211.514256 465.817298 
z
" clip-path="url(#pf71a97f9c3)" style="fill: #1f77b4"/>
   </g>
   <g id="patch_155">
    <path d="M 212.309603 465.838125 
L 212.945881 465.838125 
L 212.945881 465.825629 
L 212.309603 465.825629 
z
" clip-path="url(#pf71a97f9c3)" style="fill: #1f77b4"/>
   </g>
   <g id="patch_156">
    <path d="M 213.104951 465.838125 
L 213.741229 465.838125 
L 213.741229 465.829794 
L 213.104951 465.829794 
z
" clip-path="url(#pf71a97f9c3)" style="fill: #1f77b4"/>
   </g>
   <g id="patch_157">
    <path d="M 213.900299 465.838125 
L 214.536577 465.838125 
L 214.536577 465.825629 
L 213.900299 465.825629 
z
" clip-path="url(#pf71a97f9c3)" style="fill: #1f77b4"/>
   </g>
   <g id="patch_158">
    <path d="M 214.695646 465.838125 
L 215.331924 465.838125 
L 215.331924 465.821464 
L 214.695646 465.821464 
z
" clip-path="url(#pf71a97f9c3)" style="fill: #1f77b4"/>
   </g>
   <g id="patch_159">
    <path d="M 215.490994 465.838125 
L 216.127272 465.838125 
L 216.127272 465.83396 
L 215.490994 465.83396 
z
" clip-path="url(#pf71a97f9c3)" style="fill: #1f77b4"/>
   </g>
   <g id="patch_160">
    <path d="M 216.286341 465.838125 
L 216.92262 465.838125 
L 216.92262 465.825629 
L 216.286341 465.825629 
z
" clip-path="url(#pf71a97f9c3)" style="fill: #1f77b4"/>
   </g>
   <g id="patch_161">
    <path d="M 217.081689 465.838125 
L 217.717967 465.838125 
L 217.717967 465.83396 
L 217.081689 465.83396 
z
" clip-path="url(#pf71a97f9c3)" style="fill: #1f77b4"/>
   </g>
   <g id="patch_162">
    <path d="M 217.877037 465.838125 
L 218.513315 465.838125 
L 218.513315 465.821464 
L 217.877037 465.821464 
z
" clip-path="url(#pf71a97f9c3)" style="fill: #1f77b4"/>
   </g>
   <g id="patch_163">
    <path d="M 218.672384 465.838125 
L 219.308663 465.838125 
L 219.308663 465.821464 
L 218.672384 465.821464 
z
" clip-path="url(#pf71a97f9c3)" style="fill: #1f77b4"/>
   </g>
   <g id="patch_164">
    <path d="M 219.467732 465.838125 
L 220.10401 465.838125 
L 220.10401 465.83396 
L 219.467732 465.83396 
z
" clip-path="url(#pf71a97f9c3)" style="fill: #1f77b4"/>
   </g>
   <g id="patch_165">
    <path d="M 221.058427 465.838125 
L 221.694705 465.838125 
L 221.694705 465.829794 
L 221.058427 465.829794 
z
" clip-path="url(#pf71a97f9c3)" style="fill: #1f77b4"/>
   </g>
   <g id="patch_166">
    <path d="M 223.44447 465.838125 
L 224.080748 465.838125 
L 224.080748 465.83396 
L 223.44447 465.83396 
z
" clip-path="url(#pf71a97f9c3)" style="fill: #1f77b4"/>
   </g>
   <g id="patch_167">
    <path d="M 224.239818 465.838125 
L 224.876096 465.838125 
L 224.876096 465.829794 
L 224.239818 465.829794 
z
" clip-path="url(#pf71a97f9c3)" style="fill: #1f77b4"/>
   </g>
   <g id="patch_168">
    <path d="M 225.035166 465.838125 
L 225.671444 465.838125 
L 225.671444 465.825629 
L 225.035166 465.825629 
z
" clip-path="url(#pf71a97f9c3)" style="fill: #1f77b4"/>
   </g>
   <g id="patch_169">
    <path d="M 228.216556 465.838125 
L 228.852834 465.838125 
L 228.852834 465.829794 
L 228.216556 465.829794 
z
" clip-path="url(#pf71a97f9c3)" style="fill: #1f77b4"/>
   </g>
   <g id="patch_170">
    <path d="M 229.807251 465.838125 
L 230.44353 465.838125 
L 230.44353 465.83396 
L 229.807251 465.83396 
z
" clip-path="url(#pf71a97f9c3)" style="fill: #1f77b4"/>
   </g>
   <g id="patch_171">
    <path d="M 232.193294 465.838125 
L 232.829572 465.838125 
L 232.829572 465.83396 
L 232.193294 465.83396 
z
" clip-path="url(#pf71a97f9c3)" style="fill: #1f77b4"/>
   </g>
   <g id="patch_172">
    <path d="M 233.78399 465.838125 
L 234.420268 465.838125 
L 234.420268 465.83396 
L 233.78399 465.83396 
z
" clip-path="url(#pf71a97f9c3)" style="fill: #1f77b4"/>
   </g>
   <g id="patch_173">
    <path d="M 234.579337 465.838125 
L 235.215615 465.838125 
L 235.215615 465.829794 
L 234.579337 465.829794 
z
" clip-path="url(#pf71a97f9c3)" style="fill: #1f77b4"/>
   </g>
   <g id="patch_174">
    <path d="M 235.374685 465.838125 
L 236.010963 465.838125 
L 236.010963 465.83396 
L 235.374685 465.83396 
z
" clip-path="url(#pf71a97f9c3)" style="fill: #1f77b4"/>
   </g>
   <g id="patch_175">
    <path d="M 237.760728 465.838125 
L 238.397006 465.838125 
L 238.397006 465.83396 
L 237.760728 465.83396 
z
" clip-path="url(#pf71a97f9c3)" style="fill: #1f77b4"/>
   </g>
   <g id="patch_176">
    <path d="M 238.556075 465.838125 
L 239.192354 465.838125 
L 239.192354 465.829794 
L 238.556075 465.829794 
z
" clip-path="url(#pf71a97f9c3)" style="fill: #1f77b4"/>
   </g>
   <g id="patch_177">
    <path d="M 240.942118 465.838125 
L 241.578397 465.838125 
L 241.578397 465.83396 
L 240.942118 465.83396 
z
" clip-path="url(#pf71a97f9c3)" style="fill: #1f77b4"/>
   </g>
   <g id="patch_178">
    <path d="M 247.3049 465.838125 
L 247.941178 465.838125 
L 247.941178 465.83396 
L 247.3049 465.83396 
z
" clip-path="url(#pf71a97f9c3)" style="fill: #1f77b4"/>
   </g>
   <g id="patch_179">
    <path d="M 248.895595 465.838125 
L 249.531873 465.838125 
L 249.531873 465.83396 
L 248.895595 465.83396 
z
" clip-path="url(#pf71a97f9c3)" style="fill: #1f77b4"/>
   </g>
   <g id="patch_180">
    <path d="M 254.463028 465.838125 
L 255.099306 465.838125 
L 255.099306 465.83396 
L 254.463028 465.83396 
z
" clip-path="url(#pf71a97f9c3)" style="fill: #1f77b4"/>
   </g>
   <g id="patch_181">
    <path d="M 255.258376 465.838125 
L 255.894654 465.838125 
L 255.894654 465.83396 
L 255.258376 465.83396 
z
" clip-path="url(#pf71a97f9c3)" style="fill: #1f77b4"/>
   </g>
   <g id="patch_182">
    <path d="M 260.82581 465.838125 
L 261.462088 465.838125 
L 261.462088 465.83396 
L 260.82581 465.83396 
z
" clip-path="url(#pf71a97f9c3)" style="fill: #1f77b4"/>
   </g>
   <g id="patch_183">
    <path d="M 261.621157 465.838125 
L 262.257435 465.838125 
L 262.257435 465.83396 
L 261.621157 465.83396 
z
" clip-path="url(#pf71a97f9c3)" style="fill: #1f77b4"/>
   </g>
   <g id="patch_184">
    <path d="M 264.0072 465.838125 
L 264.643478 465.838125 
L 264.643478 465.83396 
L 264.0072 465.83396 
z
" clip-path="url(#pf71a97f9c3)" style="fill: #1f77b4"/>
   </g>
   <g id="patch_185">
    <path d="M 264.802548 465.838125 
L 265.438826 465.838125 
L 265.438826 465.83396 
L 264.802548 465.83396 
z
" clip-path="url(#pf71a97f9c3)" style="fill: #1f77b4"/>
   </g>
   <g id="patch_186">
    <path d="M 265.597895 465.838125 
L 266.234173 465.838125 
L 266.234173 465.83396 
L 265.597895 465.83396 
z
" clip-path="url(#pf71a97f9c3)" style="fill: #1f77b4"/>
   </g>
   <g id="patch_187">
    <path d="M 266.393243 465.838125 
L 267.029521 465.838125 
L 267.029521 465.83396 
L 266.393243 465.83396 
z
" clip-path="url(#pf71a97f9c3)" style="fill: #1f77b4"/>
   </g>
   <g id="patch_188">
    <path d="M 267.983938 465.838125 
L 268.620216 465.838125 
L 268.620216 465.83396 
L 267.983938 465.83396 
z
" clip-path="url(#pf71a97f9c3)" style="fill: #1f77b4"/>
   </g>
   <g id="patch_189">
    <path d="M 268.779286 465.838125 
L 269.415564 465.838125 
L 269.415564 465.83396 
L 268.779286 465.83396 
z
" clip-path="url(#pf71a97f9c3)" style="fill: #1f77b4"/>
   </g>
   <g id="patch_190">
    <path d="M 271.165329 465.838125 
L 271.801607 465.838125 
L 271.801607 465.83396 
L 271.165329 465.83396 
z
" clip-path="url(#pf71a97f9c3)" style="fill: #1f77b4"/>
   </g>
   <g id="patch_191">
    <path d="M 272.756024 465.838125 
L 273.392302 465.838125 
L 273.392302 465.83396 
L 272.756024 465.83396 
z
" clip-path="url(#pf71a97f9c3)" style="fill: #1f77b4"/>
   </g>
   <g id="patch_192">
    <path d="M 276.732762 465.838125 
L 277.369041 465.838125 
L 277.369041 465.83396 
L 276.732762 465.83396 
z
" clip-path="url(#pf71a97f9c3)" style="fill: #1f77b4"/>
   </g>
   <g id="patch_193">
    <path d="M 277.52811 465.838125 
L 278.164388 465.838125 
L 278.164388 465.83396 
L 277.52811 465.83396 
z
" clip-path="url(#pf71a97f9c3)" style="fill: #1f77b4"/>
   </g>
   <g id="patch_194">
    <path d="M 281.504848 465.838125 
L 282.141126 465.838125 
L 282.141126 465.829794 
L 281.504848 465.829794 
z
" clip-path="url(#pf71a97f9c3)" style="fill: #1f77b4"/>
   </g>
   <g id="patch_195">
    <path d="M 285.481586 465.838125 
L 286.117865 465.838125 
L 286.117865 465.83396 
L 285.481586 465.83396 
z
" clip-path="url(#pf71a97f9c3)" style="fill: #1f77b4"/>
   </g>
   <g id="patch_196">
    <path d="M 290.253672 465.838125 
L 290.88995 465.838125 
L 290.88995 465.83396 
L 290.253672 465.83396 
z
" clip-path="url(#pf71a97f9c3)" style="fill: #1f77b4"/>
   </g>
   <g id="patch_197">
    <path d="M 302.183887 465.838125 
L 302.820165 465.838125 
L 302.820165 465.83396 
L 302.183887 465.83396 
z
" clip-path="url(#pf71a97f9c3)" style="fill: #1f77b4"/>
   </g>
   <g id="patch_198">
    <path d="M 304.56993 465.838125 
L 305.206208 465.838125 
L 305.206208 465.83396 
L 304.56993 465.83396 
z
" clip-path="url(#pf71a97f9c3)" style="fill: #1f77b4"/>
   </g>
   <g id="patch_199">
    <path d="M 326.839664 465.838125 
L 327.475942 465.838125 
L 327.475942 465.83396 
L 326.839664 465.83396 
z
" clip-path="url(#pf71a97f9c3)" style="fill: #1f77b4"/>
   </g>
   <g id="patch_200">
    <path d="M 341.951269 465.838125 
L 342.587547 465.838125 
L 342.587547 465.83396 
L 341.951269 465.83396 
z
" clip-path="url(#pf71a97f9c3)" style="fill: #1f77b4"/>
   </g>
   <g id="patch_201">
    <path d="M 356.267527 465.838125 
L 356.903805 465.838125 
L 356.903805 465.83396 
L 356.267527 465.83396 
z
" clip-path="url(#pf71a97f9c3)" style="fill: #1f77b4"/>
   </g>
   <g id="patch_202">
    <path d="M 556.695133 465.838125 
L 557.331411 465.838125 
L 557.331411 465.83396 
L 556.695133 465.83396 
z
" clip-path="url(#pf71a97f9c3)" style="fill: #1f77b4"/>
   </g>
   <g id="patch_203">
    <path d="M 598.053211 465.838125 
L 598.689489 465.838125 
L 598.689489 465.83396 
L 598.053211 465.83396 
z
" clip-path="url(#pf71a97f9c3)" style="fill: #1f77b4"/>
   </g>
   <g id="matplotlib.axis_1">
    <g id="xtick_1">
     <g id="line2d_1">
      <defs>
       <path id="m012db60feb" d="M 0 0 
L 0 3.5 
" style="stroke: #000000; stroke-width: 0.8"/>
      </defs>
      <g>
       <use xlink:href="#m012db60feb" x="91.7349" y="465.838125" style="stroke: #000000; stroke-width: 0.8"/>
      </g>
     </g>
     <g id="text_1">
      <!-- 63 -->
      <g transform="translate(90.351748 483.080593) rotate(-50) scale(0.07 -0.07)">
       <defs>
        <path id="DejaVuSans-36" d="M 2113 2584 
Q 1688 2584 1439 2293 
Q 1191 2003 1191 1497 
Q 1191 994 1439 701 
Q 1688 409 2113 409 
Q 2538 409 2786 701 
Q 3034 994 3034 1497 
Q 3034 2003 2786 2293 
Q 2538 2584 2113 2584 
z
M 3366 4563 
L 3366 3988 
Q 3128 4100 2886 4159 
Q 2644 4219 2406 4219 
Q 1781 4219 1451 3797 
Q 1122 3375 1075 2522 
Q 1259 2794 1537 2939 
Q 1816 3084 2150 3084 
Q 2853 3084 3261 2657 
Q 3669 2231 3669 1497 
Q 3669 778 3244 343 
Q 2819 -91 2113 -91 
Q 1303 -91 875 529 
Q 447 1150 447 2328 
Q 447 3434 972 4092 
Q 1497 4750 2381 4750 
Q 2619 4750 2861 4703 
Q 3103 4656 3366 4563 
z
" transform="scale(0.015625)"/>
        <path id="DejaVuSans-33" d="M 2597 2516 
Q 3050 2419 3304 2112 
Q 3559 1806 3559 1356 
Q 3559 666 3084 287 
Q 2609 -91 1734 -91 
Q 1441 -91 1130 -33 
Q 819 25 488 141 
L 488 750 
Q 750 597 1062 519 
Q 1375 441 1716 441 
Q 2309 441 2620 675 
Q 2931 909 2931 1356 
Q 2931 1769 2642 2001 
Q 2353 2234 1838 2234 
L 1294 2234 
L 1294 2753 
L 1863 2753 
Q 2328 2753 2575 2939 
Q 2822 3125 2822 3475 
Q 2822 3834 2567 4026 
Q 2313 4219 1838 4219 
Q 1578 4219 1281 4162 
Q 984 4106 628 3988 
L 628 4550 
Q 988 4650 1302 4700 
Q 1616 4750 1894 4750 
Q 2613 4750 3031 4423 
Q 3450 4097 3450 3541 
Q 3450 3153 3228 2886 
Q 3006 2619 2597 2516 
z
" transform="scale(0.015625)"/>
       </defs>
       <use xlink:href="#DejaVuSans-36"/>
       <use xlink:href="#DejaVuSans-33" x="63.623047"/>
      </g>
     </g>
    </g>
    <g id="xtick_2">
     <g id="line2d_2">
      <g>
       <use xlink:href="#m012db60feb" x="171.269665" y="465.838125" style="stroke: #000000; stroke-width: 0.8"/>
      </g>
     </g>
     <g id="text_2">
      <!-- 163 -->
      <g transform="translate(168.455105 486.492363) rotate(-50) scale(0.07 -0.07)">
       <defs>
        <path id="DejaVuSans-31" d="M 794 531 
L 1825 531 
L 1825 4091 
L 703 3866 
L 703 4441 
L 1819 4666 
L 2450 4666 
L 2450 531 
L 3481 531 
L 3481 0 
L 794 0 
L 794 531 
z
" transform="scale(0.015625)"/>
       </defs>
       <use xlink:href="#DejaVuSans-31"/>
       <use xlink:href="#DejaVuSans-36" x="63.623047"/>
       <use xlink:href="#DejaVuSans-33" x="127.246094"/>
      </g>
     </g>
    </g>
    <g id="xtick_3">
     <g id="line2d_3">
      <g>
       <use xlink:href="#m012db60feb" x="250.804429" y="465.838125" style="stroke: #000000; stroke-width: 0.8"/>
      </g>
     </g>
     <g id="text_3">
      <!-- 263 -->
      <g transform="translate(247.989869 486.492363) rotate(-50) scale(0.07 -0.07)">
       <defs>
        <path id="DejaVuSans-32" d="M 1228 531 
L 3431 531 
L 3431 0 
L 469 0 
L 469 531 
Q 828 903 1448 1529 
Q 2069 2156 2228 2338 
Q 2531 2678 2651 2914 
Q 2772 3150 2772 3378 
Q 2772 3750 2511 3984 
Q 2250 4219 1831 4219 
Q 1534 4219 1204 4116 
Q 875 4013 500 3803 
L 500 4441 
Q 881 4594 1212 4672 
Q 1544 4750 1819 4750 
Q 2544 4750 2975 4387 
Q 3406 4025 3406 3419 
Q 3406 3131 3298 2873 
Q 3191 2616 2906 2266 
Q 2828 2175 2409 1742 
Q 1991 1309 1228 531 
z
" transform="scale(0.015625)"/>
       </defs>
       <use xlink:href="#DejaVuSans-32"/>
       <use xlink:href="#DejaVuSans-36" x="63.623047"/>
       <use xlink:href="#DejaVuSans-33" x="127.246094"/>
      </g>
     </g>
    </g>
    <g id="xtick_4">
     <g id="line2d_4">
      <g>
       <use xlink:href="#m012db60feb" x="330.339194" y="465.838125" style="stroke: #000000; stroke-width: 0.8"/>
      </g>
     </g>
     <g id="text_4">
      <!-- 363 -->
      <g transform="translate(327.524633 486.492363) rotate(-50) scale(0.07 -0.07)">
       <use xlink:href="#DejaVuSans-33"/>
       <use xlink:href="#DejaVuSans-36" x="63.623047"/>
       <use xlink:href="#DejaVuSans-33" x="127.246094"/>
      </g>
     </g>
    </g>
    <g id="xtick_5">
     <g id="line2d_5">
      <g>
       <use xlink:href="#m012db60feb" x="409.873958" y="465.838125" style="stroke: #000000; stroke-width: 0.8"/>
      </g>
     </g>
     <g id="text_5">
      <!-- 463 -->
      <g transform="translate(407.059398 486.492363) rotate(-50) scale(0.07 -0.07)">
       <defs>
        <path id="DejaVuSans-34" d="M 2419 4116 
L 825 1625 
L 2419 1625 
L 2419 4116 
z
M 2253 4666 
L 3047 4666 
L 3047 1625 
L 3713 1625 
L 3713 1100 
L 3047 1100 
L 3047 0 
L 2419 0 
L 2419 1100 
L 313 1100 
L 313 1709 
L 2253 4666 
z
" transform="scale(0.015625)"/>
       </defs>
       <use xlink:href="#DejaVuSans-34"/>
       <use xlink:href="#DejaVuSans-36" x="63.623047"/>
       <use xlink:href="#DejaVuSans-33" x="127.246094"/>
      </g>
     </g>
    </g>
    <g id="xtick_6">
     <g id="line2d_6">
      <g>
       <use xlink:href="#m012db60feb" x="489.408722" y="465.838125" style="stroke: #000000; stroke-width: 0.8"/>
      </g>
     </g>
     <g id="text_6">
      <!-- 563 -->
      <g transform="translate(486.594162 486.492363) rotate(-50) scale(0.07 -0.07)">
       <defs>
        <path id="DejaVuSans-35" d="M 691 4666 
L 3169 4666 
L 3169 4134 
L 1269 4134 
L 1269 2991 
Q 1406 3038 1543 3061 
Q 1681 3084 1819 3084 
Q 2600 3084 3056 2656 
Q 3513 2228 3513 1497 
Q 3513 744 3044 326 
Q 2575 -91 1722 -91 
Q 1428 -91 1123 -41 
Q 819 9 494 109 
L 494 744 
Q 775 591 1075 516 
Q 1375 441 1709 441 
Q 2250 441 2565 725 
Q 2881 1009 2881 1497 
Q 2881 1984 2565 2268 
Q 2250 2553 1709 2553 
Q 1456 2553 1204 2497 
Q 953 2441 691 2322 
L 691 4666 
z
" transform="scale(0.015625)"/>
       </defs>
       <use xlink:href="#DejaVuSans-35"/>
       <use xlink:href="#DejaVuSans-36" x="63.623047"/>
       <use xlink:href="#DejaVuSans-33" x="127.246094"/>
      </g>
     </g>
    </g>
    <g id="xtick_7">
     <g id="line2d_7">
      <g>
       <use xlink:href="#m012db60feb" x="568.943487" y="465.838125" style="stroke: #000000; stroke-width: 0.8"/>
      </g>
     </g>
     <g id="text_7">
      <!-- 663 -->
      <g transform="translate(566.128926 486.492363) rotate(-50) scale(0.07 -0.07)">
       <use xlink:href="#DejaVuSans-36"/>
       <use xlink:href="#DejaVuSans-36" x="63.623047"/>
       <use xlink:href="#DejaVuSans-33" x="127.246094"/>
      </g>
     </g>
    </g>
    <g id="text_8">
     <!-- Latency (us) -->
     <g transform="translate(314.025 499.026559) scale(0.1 -0.1)">
      <defs>
       <path id="DejaVuSans-4c" d="M 628 4666 
L 1259 4666 
L 1259 531 
L 3531 531 
L 3531 0 
L 628 0 
L 628 4666 
z
" transform="scale(0.015625)"/>
       <path id="DejaVuSans-61" d="M 2194 1759 
Q 1497 1759 1228 1600 
Q 959 1441 959 1056 
Q 959 750 1161 570 
Q 1363 391 1709 391 
Q 2188 391 2477 730 
Q 2766 1069 2766 1631 
L 2766 1759 
L 2194 1759 
z
M 3341 1997 
L 3341 0 
L 2766 0 
L 2766 531 
Q 2569 213 2275 61 
Q 1981 -91 1556 -91 
Q 1019 -91 701 211 
Q 384 513 384 1019 
Q 384 1609 779 1909 
Q 1175 2209 1959 2209 
L 2766 2209 
L 2766 2266 
Q 2766 2663 2505 2880 
Q 2244 3097 1772 3097 
Q 1472 3097 1187 3025 
Q 903 2953 641 2809 
L 641 3341 
Q 956 3463 1253 3523 
Q 1550 3584 1831 3584 
Q 2591 3584 2966 3190 
Q 3341 2797 3341 1997 
z
" transform="scale(0.015625)"/>
       <path id="DejaVuSans-74" d="M 1172 4494 
L 1172 3500 
L 2356 3500 
L 2356 3053 
L 1172 3053 
L 1172 1153 
Q 1172 725 1289 603 
Q 1406 481 1766 481 
L 2356 481 
L 2356 0 
L 1766 0 
Q 1100 0 847 248 
Q 594 497 594 1153 
L 594 3053 
L 172 3053 
L 172 3500 
L 594 3500 
L 594 4494 
L 1172 4494 
z
" transform="scale(0.015625)"/>
       <path id="DejaVuSans-65" d="M 3597 1894 
L 3597 1613 
L 953 1613 
Q 991 1019 1311 708 
Q 1631 397 2203 397 
Q 2534 397 2845 478 
Q 3156 559 3463 722 
L 3463 178 
Q 3153 47 2828 -22 
Q 2503 -91 2169 -91 
Q 1331 -91 842 396 
Q 353 884 353 1716 
Q 353 2575 817 3079 
Q 1281 3584 2069 3584 
Q 2775 3584 3186 3129 
Q 3597 2675 3597 1894 
z
M 3022 2063 
Q 3016 2534 2758 2815 
Q 2500 3097 2075 3097 
Q 1594 3097 1305 2825 
Q 1016 2553 972 2059 
L 3022 2063 
z
" transform="scale(0.015625)"/>
       <path id="DejaVuSans-6e" d="M 3513 2113 
L 3513 0 
L 2938 0 
L 2938 2094 
Q 2938 2591 2744 2837 
Q 2550 3084 2163 3084 
Q 1697 3084 1428 2787 
Q 1159 2491 1159 1978 
L 1159 0 
L 581 0 
L 581 3500 
L 1159 3500 
L 1159 2956 
Q 1366 3272 1645 3428 
Q 1925 3584 2291 3584 
Q 2894 3584 3203 3211 
Q 3513 2838 3513 2113 
z
" transform="scale(0.015625)"/>
       <path id="DejaVuSans-63" d="M 3122 3366 
L 3122 2828 
Q 2878 2963 2633 3030 
Q 2388 3097 2138 3097 
Q 1578 3097 1268 2742 
Q 959 2388 959 1747 
Q 959 1106 1268 751 
Q 1578 397 2138 397 
Q 2388 397 2633 464 
Q 2878 531 3122 666 
L 3122 134 
Q 2881 22 2623 -34 
Q 2366 -91 2075 -91 
Q 1284 -91 818 406 
Q 353 903 353 1747 
Q 353 2603 823 3093 
Q 1294 3584 2113 3584 
Q 2378 3584 2631 3529 
Q 2884 3475 3122 3366 
z
" transform="scale(0.015625)"/>
       <path id="DejaVuSans-79" d="M 2059 -325 
Q 1816 -950 1584 -1140 
Q 1353 -1331 966 -1331 
L 506 -1331 
L 506 -850 
L 844 -850 
Q 1081 -850 1212 -737 
Q 1344 -625 1503 -206 
L 1606 56 
L 191 3500 
L 800 3500 
L 1894 763 
L 2988 3500 
L 3597 3500 
L 2059 -325 
z
" transform="scale(0.015625)"/>
       <path id="DejaVuSans-20" transform="scale(0.015625)"/>
       <path id="DejaVuSans-28" d="M 1984 4856 
Q 1566 4138 1362 3434 
Q 1159 2731 1159 2009 
Q 1159 1288 1364 580 
Q 1569 -128 1984 -844 
L 1484 -844 
Q 1016 -109 783 600 
Q 550 1309 550 2009 
Q 550 2706 781 3412 
Q 1013 4119 1484 4856 
L 1984 4856 
z
" transform="scale(0.015625)"/>
       <path id="DejaVuSans-75" d="M 544 1381 
L 544 3500 
L 1119 3500 
L 1119 1403 
Q 1119 906 1312 657 
Q 1506 409 1894 409 
Q 2359 409 2629 706 
Q 2900 1003 2900 1516 
L 2900 3500 
L 3475 3500 
L 3475 0 
L 2900 0 
L 2900 538 
Q 2691 219 2414 64 
Q 2138 -91 1772 -91 
Q 1169 -91 856 284 
Q 544 659 544 1381 
z
M 1991 3584 
L 1991 3584 
z
" transform="scale(0.015625)"/>
       <path id="DejaVuSans-73" d="M 2834 3397 
L 2834 2853 
Q 2591 2978 2328 3040 
Q 2066 3103 1784 3103 
Q 1356 3103 1142 2972 
Q 928 2841 928 2578 
Q 928 2378 1081 2264 
Q 1234 2150 1697 2047 
L 1894 2003 
Q 2506 1872 2764 1633 
Q 3022 1394 3022 966 
Q 3022 478 2636 193 
Q 2250 -91 1575 -91 
Q 1294 -91 989 -36 
Q 684 19 347 128 
L 347 722 
Q 666 556 975 473 
Q 1284 391 1588 391 
Q 1994 391 2212 530 
Q 2431 669 2431 922 
Q 2431 1156 2273 1281 
Q 2116 1406 1581 1522 
L 1381 1569 
Q 847 1681 609 1914 
Q 372 2147 372 2553 
Q 372 3047 722 3315 
Q 1072 3584 1716 3584 
Q 2034 3584 2315 3537 
Q 2597 3491 2834 3397 
z
" transform="scale(0.015625)"/>
       <path id="DejaVuSans-29" d="M 513 4856 
L 1013 4856 
Q 1481 4119 1714 3412 
Q 1947 2706 1947 2009 
Q 1947 1309 1714 600 
Q 1481 -109 1013 -844 
L 513 -844 
Q 928 -128 1133 580 
Q 1338 1288 1338 2009 
Q 1338 2731 1133 3434 
Q 928 4138 513 4856 
z
" transform="scale(0.015625)"/>
      </defs>
      <use xlink:href="#DejaVuSans-4c"/>
      <use xlink:href="#DejaVuSans-61" x="55.712891"/>
      <use xlink:href="#DejaVuSans-74" x="116.992188"/>
      <use xlink:href="#DejaVuSans-65" x="156.201172"/>
      <use xlink:href="#DejaVuSans-6e" x="217.724609"/>
      <use xlink:href="#DejaVuSans-63" x="281.103516"/>
      <use xlink:href="#DejaVuSans-79" x="336.083984"/>
      <use xlink:href="#DejaVuSans-20" x="395.263672"/>
      <use xlink:href="#DejaVuSans-28" x="427.050781"/>
      <use xlink:href="#DejaVuSans-75" x="466.064453"/>
      <use xlink:href="#DejaVuSans-73" x="529.443359"/>
      <use xlink:href="#DejaVuSans-29" x="581.542969"/>
     </g>
    </g>
   </g>
   <g id="matplotlib.axis_2">
    <g id="ytick_1">
     <g id="line2d_8">
      <defs>
       <path id="m3fb3fe145f" d="M 0 0 
L -3.5 0 
" style="stroke: #000000; stroke-width: 0.8"/>
      </defs>
      <g>
       <use xlink:href="#m3fb3fe145f" x="66.053125" y="465.838125" style="stroke: #000000; stroke-width: 0.8"/>
      </g>
     </g>
     <g id="text_9">
      <!-- 0 -->
      <g transform="translate(52.690625 469.637344) scale(0.1 -0.1)">
       <defs>
        <path id="DejaVuSans-30" d="M 2034 4250 
Q 1547 4250 1301 3770 
Q 1056 3291 1056 2328 
Q 1056 1369 1301 889 
Q 1547 409 2034 409 
Q 2525 409 2770 889 
Q 3016 1369 3016 2328 
Q 3016 3291 2770 3770 
Q 2525 4250 2034 4250 
z
M 2034 4750 
Q 2819 4750 3233 4129 
Q 3647 3509 3647 2328 
Q 3647 1150 3233 529 
Q 2819 -91 2034 -91 
Q 1250 -91 836 529 
Q 422 1150 422 2328 
Q 422 3509 836 4129 
Q 1250 4750 2034 4750 
z
" transform="scale(0.015625)"/>
       </defs>
       <use xlink:href="#DejaVuSans-30"/>
      </g>
     </g>
    </g>
    <g id="ytick_2">
     <g id="line2d_9">
      <g>
       <use xlink:href="#m3fb3fe145f" x="66.053125" y="382.531088" style="stroke: #000000; stroke-width: 0.8"/>
      </g>
     </g>
     <g id="text_10">
      <!-- 20000 -->
      <g transform="translate(27.240625 386.330307) scale(0.1 -0.1)">
       <use xlink:href="#DejaVuSans-32"/>
       <use xlink:href="#DejaVuSans-30" x="63.623047"/>
       <use xlink:href="#DejaVuSans-30" x="127.246094"/>
       <use xlink:href="#DejaVuSans-30" x="190.869141"/>
       <use xlink:href="#DejaVuSans-30" x="254.492188"/>
      </g>
     </g>
    </g>
    <g id="ytick_3">
     <g id="line2d_10">
      <g>
       <use xlink:href="#m3fb3fe145f" x="66.053125" y="299.224051" style="stroke: #000000; stroke-width: 0.8"/>
      </g>
     </g>
     <g id="text_11">
      <!-- 40000 -->
      <g transform="translate(27.240625 303.02327) scale(0.1 -0.1)">
       <use xlink:href="#DejaVuSans-34"/>
       <use xlink:href="#DejaVuSans-30" x="63.623047"/>
       <use xlink:href="#DejaVuSans-30" x="127.246094"/>
       <use xlink:href="#DejaVuSans-30" x="190.869141"/>
       <use xlink:href="#DejaVuSans-30" x="254.492188"/>
      </g>
     </g>
    </g>
    <g id="ytick_4">
     <g id="line2d_11">
      <g>
       <use xlink:href="#m3fb3fe145f" x="66.053125" y="215.917014" style="stroke: #000000; stroke-width: 0.8"/>
      </g>
     </g>
     <g id="text_12">
      <!-- 60000 -->
      <g transform="translate(27.240625 219.716233) scale(0.1 -0.1)">
       <use xlink:href="#DejaVuSans-36"/>
       <use xlink:href="#DejaVuSans-30" x="63.623047"/>
       <use xlink:href="#DejaVuSans-30" x="127.246094"/>
       <use xlink:href="#DejaVuSans-30" x="190.869141"/>
       <use xlink:href="#DejaVuSans-30" x="254.492188"/>
      </g>
     </g>
    </g>
    <g id="ytick_5">
     <g id="line2d_12">
      <g>
       <use xlink:href="#m3fb3fe145f" x="66.053125" y="132.609977" style="stroke: #000000; stroke-width: 0.8"/>
      </g>
     </g>
     <g id="text_13">
      <!-- 80000 -->
      <g transform="translate(27.240625 136.409196) scale(0.1 -0.1)">
       <defs>
        <path id="DejaVuSans-38" d="M 2034 2216 
Q 1584 2216 1326 1975 
Q 1069 1734 1069 1313 
Q 1069 891 1326 650 
Q 1584 409 2034 409 
Q 2484 409 2743 651 
Q 3003 894 3003 1313 
Q 3003 1734 2745 1975 
Q 2488 2216 2034 2216 
z
M 1403 2484 
Q 997 2584 770 2862 
Q 544 3141 544 3541 
Q 544 4100 942 4425 
Q 1341 4750 2034 4750 
Q 2731 4750 3128 4425 
Q 3525 4100 3525 3541 
Q 3525 3141 3298 2862 
Q 3072 2584 2669 2484 
Q 3125 2378 3379 2068 
Q 3634 1759 3634 1313 
Q 3634 634 3220 271 
Q 2806 -91 2034 -91 
Q 1263 -91 848 271 
Q 434 634 434 1313 
Q 434 1759 690 2068 
Q 947 2378 1403 2484 
z
M 1172 3481 
Q 1172 3119 1398 2916 
Q 1625 2713 2034 2713 
Q 2441 2713 2670 2916 
Q 2900 3119 2900 3481 
Q 2900 3844 2670 4047 
Q 2441 4250 2034 4250 
Q 1625 4250 1398 4047 
Q 1172 3844 1172 3481 
z
" transform="scale(0.015625)"/>
       </defs>
       <use xlink:href="#DejaVuSans-38"/>
       <use xlink:href="#DejaVuSans-30" x="63.623047"/>
       <use xlink:href="#DejaVuSans-30" x="127.246094"/>
       <use xlink:href="#DejaVuSans-30" x="190.869141"/>
       <use xlink:href="#DejaVuSans-30" x="254.492188"/>
      </g>
     </g>
    </g>
    <g id="ytick_6">
     <g id="line2d_13">
      <g>
       <use xlink:href="#m3fb3fe145f" x="66.053125" y="49.30294" style="stroke: #000000; stroke-width: 0.8"/>
      </g>
     </g>
     <g id="text_14">
      <!-- 100000 -->
      <g transform="translate(20.878125 53.102159) scale(0.1 -0.1)">
       <use xlink:href="#DejaVuSans-31"/>
       <use xlink:href="#DejaVuSans-30" x="63.623047"/>
       <use xlink:href="#DejaVuSans-30" x="127.246094"/>
       <use xlink:href="#DejaVuSans-30" x="190.869141"/>
       <use xlink:href="#DejaVuSans-30" x="254.492188"/>
       <use xlink:href="#DejaVuSans-30" x="318.115234"/>
      </g>
     </g>
    </g>
    <g id="text_15">
     <!-- Frequency -->
     <g transform="translate(14.798438 269.907812) rotate(-90) scale(0.1 -0.1)">
      <defs>
       <path id="DejaVuSans-46" d="M 628 4666 
L 3309 4666 
L 3309 4134 
L 1259 4134 
L 1259 2759 
L 3109 2759 
L 3109 2228 
L 1259 2228 
L 1259 0 
L 628 0 
L 628 4666 
z
" transform="scale(0.015625)"/>
       <path id="DejaVuSans-72" d="M 2631 2963 
Q 2534 3019 2420 3045 
Q 2306 3072 2169 3072 
Q 1681 3072 1420 2755 
Q 1159 2438 1159 1844 
L 1159 0 
L 581 0 
L 581 3500 
L 1159 3500 
L 1159 2956 
Q 1341 3275 1631 3429 
Q 1922 3584 2338 3584 
Q 2397 3584 2469 3576 
Q 2541 3569 2628 3553 
L 2631 2963 
z
" transform="scale(0.015625)"/>
       <path id="DejaVuSans-71" d="M 947 1747 
Q 947 1113 1208 752 
Q 1469 391 1925 391 
Q 2381 391 2643 752 
Q 2906 1113 2906 1747 
Q 2906 2381 2643 2742 
Q 2381 3103 1925 3103 
Q 1469 3103 1208 2742 
Q 947 2381 947 1747 
z
M 2906 525 
Q 2725 213 2448 61 
Q 2172 -91 1784 -91 
Q 1150 -91 751 415 
Q 353 922 353 1747 
Q 353 2572 751 3078 
Q 1150 3584 1784 3584 
Q 2172 3584 2448 3432 
Q 2725 3281 2906 2969 
L 2906 3500 
L 3481 3500 
L 3481 -1331 
L 2906 -1331 
L 2906 525 
z
" transform="scale(0.015625)"/>
      </defs>
      <use xlink:href="#DejaVuSans-46"/>
      <use xlink:href="#DejaVuSans-72" x="50.269531"/>
      <use xlink:href="#DejaVuSans-65" x="89.132812"/>
      <use xlink:href="#DejaVuSans-71" x="150.65625"/>
      <use xlink:href="#DejaVuSans-75" x="214.132812"/>
      <use xlink:href="#DejaVuSans-65" x="277.511719"/>
      <use xlink:href="#DejaVuSans-6e" x="339.035156"/>
      <use xlink:href="#DejaVuSans-63" x="402.414062"/>
      <use xlink:href="#DejaVuSans-79" x="457.394531"/>
     </g>
    </g>
   </g>
   <g id="patch_204">
    <path d="M 66.053125 465.838125 
L 66.053125 22.318125 
" style="fill: none; stroke: #000000; stroke-width: 0.8; stroke-linejoin: miter; stroke-linecap: square"/>
   </g>
   <g id="patch_205">
    <path d="M 624.053125 465.838125 
L 624.053125 22.318125 
" style="fill: none; stroke: #000000; stroke-width: 0.8; stroke-linejoin: miter; stroke-linecap: square"/>
   </g>
   <g id="patch_206">
    <path d="M 66.053125 465.838125 
L 624.053125 465.838125 
" style="fill: none; stroke: #000000; stroke-width: 0.8; stroke-linejoin: miter; stroke-linecap: square"/>
   </g>
   <g id="patch_207">
    <path d="M 66.053125 22.318125 
L 624.053125 22.318125 
" style="fill: none; stroke: #000000; stroke-width: 0.8; stroke-linejoin: miter; stroke-linecap: square"/>
   </g>
   <g id="text_16">
    <!-- Lagscope Frequency Table Bar Graph (122_to_70.json) 09-13-2023 16:10:17 -->
    <g transform="translate(116.317188 16.318125) scale(0.12 -0.12)">
     <defs>
      <path id="DejaVuSans-67" d="M 2906 1791 
Q 2906 2416 2648 2759 
Q 2391 3103 1925 3103 
Q 1463 3103 1205 2759 
Q 947 2416 947 1791 
Q 947 1169 1205 825 
Q 1463 481 1925 481 
Q 2391 481 2648 825 
Q 2906 1169 2906 1791 
z
M 3481 434 
Q 3481 -459 3084 -895 
Q 2688 -1331 1869 -1331 
Q 1566 -1331 1297 -1286 
Q 1028 -1241 775 -1147 
L 775 -588 
Q 1028 -725 1275 -790 
Q 1522 -856 1778 -856 
Q 2344 -856 2625 -561 
Q 2906 -266 2906 331 
L 2906 616 
Q 2728 306 2450 153 
Q 2172 0 1784 0 
Q 1141 0 747 490 
Q 353 981 353 1791 
Q 353 2603 747 3093 
Q 1141 3584 1784 3584 
Q 2172 3584 2450 3431 
Q 2728 3278 2906 2969 
L 2906 3500 
L 3481 3500 
L 3481 434 
z
" transform="scale(0.015625)"/>
      <path id="DejaVuSans-6f" d="M 1959 3097 
Q 1497 3097 1228 2736 
Q 959 2375 959 1747 
Q 959 1119 1226 758 
Q 1494 397 1959 397 
Q 2419 397 2687 759 
Q 2956 1122 2956 1747 
Q 2956 2369 2687 2733 
Q 2419 3097 1959 3097 
z
M 1959 3584 
Q 2709 3584 3137 3096 
Q 3566 2609 3566 1747 
Q 3566 888 3137 398 
Q 2709 -91 1959 -91 
Q 1206 -91 779 398 
Q 353 888 353 1747 
Q 353 2609 779 3096 
Q 1206 3584 1959 3584 
z
" transform="scale(0.015625)"/>
      <path id="DejaVuSans-70" d="M 1159 525 
L 1159 -1331 
L 581 -1331 
L 581 3500 
L 1159 3500 
L 1159 2969 
Q 1341 3281 1617 3432 
Q 1894 3584 2278 3584 
Q 2916 3584 3314 3078 
Q 3713 2572 3713 1747 
Q 3713 922 3314 415 
Q 2916 -91 2278 -91 
Q 1894 -91 1617 61 
Q 1341 213 1159 525 
z
M 3116 1747 
Q 3116 2381 2855 2742 
Q 2594 3103 2138 3103 
Q 1681 3103 1420 2742 
Q 1159 2381 1159 1747 
Q 1159 1113 1420 752 
Q 1681 391 2138 391 
Q 2594 391 2855 752 
Q 3116 1113 3116 1747 
z
" transform="scale(0.015625)"/>
      <path id="DejaVuSans-54" d="M -19 4666 
L 3928 4666 
L 3928 4134 
L 2272 4134 
L 2272 0 
L 1638 0 
L 1638 4134 
L -19 4134 
L -19 4666 
z
" transform="scale(0.015625)"/>
      <path id="DejaVuSans-62" d="M 3116 1747 
Q 3116 2381 2855 2742 
Q 2594 3103 2138 3103 
Q 1681 3103 1420 2742 
Q 1159 2381 1159 1747 
Q 1159 1113 1420 752 
Q 1681 391 2138 391 
Q 2594 391 2855 752 
Q 3116 1113 3116 1747 
z
M 1159 2969 
Q 1341 3281 1617 3432 
Q 1894 3584 2278 3584 
Q 2916 3584 3314 3078 
Q 3713 2572 3713 1747 
Q 3713 922 3314 415 
Q 2916 -91 2278 -91 
Q 1894 -91 1617 61 
Q 1341 213 1159 525 
L 1159 0 
L 581 0 
L 581 4863 
L 1159 4863 
L 1159 2969 
z
" transform="scale(0.015625)"/>
      <path id="DejaVuSans-6c" d="M 603 4863 
L 1178 4863 
L 1178 0 
L 603 0 
L 603 4863 
z
" transform="scale(0.015625)"/>
      <path id="DejaVuSans-42" d="M 1259 2228 
L 1259 519 
L 2272 519 
Q 2781 519 3026 730 
Q 3272 941 3272 1375 
Q 3272 1813 3026 2020 
Q 2781 2228 2272 2228 
L 1259 2228 
z
M 1259 4147 
L 1259 2741 
L 2194 2741 
Q 2656 2741 2882 2914 
Q 3109 3088 3109 3444 
Q 3109 3797 2882 3972 
Q 2656 4147 2194 4147 
L 1259 4147 
z
M 628 4666 
L 2241 4666 
Q 2963 4666 3353 4366 
Q 3744 4066 3744 3513 
Q 3744 3084 3544 2831 
Q 3344 2578 2956 2516 
Q 3422 2416 3680 2098 
Q 3938 1781 3938 1306 
Q 3938 681 3513 340 
Q 3088 0 2303 0 
L 628 0 
L 628 4666 
z
" transform="scale(0.015625)"/>
      <path id="DejaVuSans-47" d="M 3809 666 
L 3809 1919 
L 2778 1919 
L 2778 2438 
L 4434 2438 
L 4434 434 
Q 4069 175 3628 42 
Q 3188 -91 2688 -91 
Q 1594 -91 976 548 
Q 359 1188 359 2328 
Q 359 3472 976 4111 
Q 1594 4750 2688 4750 
Q 3144 4750 3555 4637 
Q 3966 4525 4313 4306 
L 4313 3634 
Q 3963 3931 3569 4081 
Q 3175 4231 2741 4231 
Q 1884 4231 1454 3753 
Q 1025 3275 1025 2328 
Q 1025 1384 1454 906 
Q 1884 428 2741 428 
Q 3075 428 3337 486 
Q 3600 544 3809 666 
z
" transform="scale(0.015625)"/>
      <path id="DejaVuSans-68" d="M 3513 2113 
L 3513 0 
L 2938 0 
L 2938 2094 
Q 2938 2591 2744 2837 
Q 2550 3084 2163 3084 
Q 1697 3084 1428 2787 
Q 1159 2491 1159 1978 
L 1159 0 
L 581 0 
L 581 4863 
L 1159 4863 
L 1159 2956 
Q 1366 3272 1645 3428 
Q 1925 3584 2291 3584 
Q 2894 3584 3203 3211 
Q 3513 2838 3513 2113 
z
" transform="scale(0.015625)"/>
      <path id="DejaVuSans-5f" d="M 3263 -1063 
L 3263 -1509 
L -63 -1509 
L -63 -1063 
L 3263 -1063 
z
" transform="scale(0.015625)"/>
      <path id="DejaVuSans-37" d="M 525 4666 
L 3525 4666 
L 3525 4397 
L 1831 0 
L 1172 0 
L 2766 4134 
L 525 4134 
L 525 4666 
z
" transform="scale(0.015625)"/>
      <path id="DejaVuSans-2e" d="M 684 794 
L 1344 794 
L 1344 0 
L 684 0 
L 684 794 
z
" transform="scale(0.015625)"/>
      <path id="DejaVuSans-6a" d="M 603 3500 
L 1178 3500 
L 1178 -63 
Q 1178 -731 923 -1031 
Q 669 -1331 103 -1331 
L -116 -1331 
L -116 -844 
L 38 -844 
Q 366 -844 484 -692 
Q 603 -541 603 -63 
L 603 3500 
z
M 603 4863 
L 1178 4863 
L 1178 4134 
L 603 4134 
L 603 4863 
z
" transform="scale(0.015625)"/>
      <path id="DejaVuSans-39" d="M 703 97 
L 703 672 
Q 941 559 1184 500 
Q 1428 441 1663 441 
Q 2288 441 2617 861 
Q 2947 1281 2994 2138 
Q 2813 1869 2534 1725 
Q 2256 1581 1919 1581 
Q 1219 1581 811 2004 
Q 403 2428 403 3163 
Q 403 3881 828 4315 
Q 1253 4750 1959 4750 
Q 2769 4750 3195 4129 
Q 3622 3509 3622 2328 
Q 3622 1225 3098 567 
Q 2575 -91 1691 -91 
Q 1453 -91 1209 -44 
Q 966 3 703 97 
z
M 1959 2075 
Q 2384 2075 2632 2365 
Q 2881 2656 2881 3163 
Q 2881 3666 2632 3958 
Q 2384 4250 1959 4250 
Q 1534 4250 1286 3958 
Q 1038 3666 1038 3163 
Q 1038 2656 1286 2365 
Q 1534 2075 1959 2075 
z
" transform="scale(0.015625)"/>
      <path id="DejaVuSans-2d" d="M 313 2009 
L 1997 2009 
L 1997 1497 
L 313 1497 
L 313 2009 
z
" transform="scale(0.015625)"/>
      <path id="DejaVuSans-3a" d="M 750 794 
L 1409 794 
L 1409 0 
L 750 0 
L 750 794 
z
M 750 3309 
L 1409 3309 
L 1409 2516 
L 750 2516 
L 750 3309 
z
" transform="scale(0.015625)"/>
     </defs>
     <use xlink:href="#DejaVuSans-4c"/>
     <use xlink:href="#DejaVuSans-61" x="55.712891"/>
     <use xlink:href="#DejaVuSans-67" x="116.992188"/>
     <use xlink:href="#DejaVuSans-73" x="180.46875"/>
     <use xlink:href="#DejaVuSans-63" x="232.568359"/>
     <use xlink:href="#DejaVuSans-6f" x="287.548828"/>
     <use xlink:href="#DejaVuSans-70" x="348.730469"/>
     <use xlink:href="#DejaVuSans-65" x="412.207031"/>
     <use xlink:href="#DejaVuSans-20" x="473.730469"/>
     <use xlink:href="#DejaVuSans-46" x="505.517578"/>
     <use xlink:href="#DejaVuSans-72" x="555.787109"/>
     <use xlink:href="#DejaVuSans-65" x="594.650391"/>
     <use xlink:href="#DejaVuSans-71" x="656.173828"/>
     <use xlink:href="#DejaVuSans-75" x="719.650391"/>
     <use xlink:href="#DejaVuSans-65" x="783.029297"/>
     <use xlink:href="#DejaVuSans-6e" x="844.552734"/>
     <use xlink:href="#DejaVuSans-63" x="907.931641"/>
     <use xlink:href="#DejaVuSans-79" x="962.912109"/>
     <use xlink:href="#DejaVuSans-20" x="1022.091797"/>
     <use xlink:href="#DejaVuSans-54" x="1053.878906"/>
     <use xlink:href="#DejaVuSans-61" x="1098.462891"/>
     <use xlink:href="#DejaVuSans-62" x="1159.742188"/>
     <use xlink:href="#DejaVuSans-6c" x="1223.21875"/>
     <use xlink:href="#DejaVuSans-65" x="1251.001953"/>
     <use xlink:href="#DejaVuSans-20" x="1312.525391"/>
     <use xlink:href="#DejaVuSans-42" x="1344.3125"/>
     <use xlink:href="#DejaVuSans-61" x="1412.916016"/>
     <use xlink:href="#DejaVuSans-72" x="1474.195312"/>
     <use xlink:href="#DejaVuSans-20" x="1515.308594"/>
     <use xlink:href="#DejaVuSans-47" x="1547.095703"/>
     <use xlink:href="#DejaVuSans-72" x="1624.585938"/>
     <use xlink:href="#DejaVuSans-61" x="1665.699219"/>
     <use xlink:href="#DejaVuSans-70" x="1726.978516"/>
     <use xlink:href="#DejaVuSans-68" x="1790.455078"/>
     <use xlink:href="#DejaVuSans-20" x="1853.833984"/>
     <use xlink:href="#DejaVuSans-28" x="1885.621094"/>
     <use xlink:href="#DejaVuSans-31" x="1924.634766"/>
     <use xlink:href="#DejaVuSans-32" x="1988.257812"/>
     <use xlink:href="#DejaVuSans-32" x="2051.880859"/>
     <use xlink:href="#DejaVuSans-5f" x="2115.503906"/>
     <use xlink:href="#DejaVuSans-74" x="2165.503906"/>
     <use xlink:href="#DejaVuSans-6f" x="2204.712891"/>
     <use xlink:href="#DejaVuSans-5f" x="2265.894531"/>
     <use xlink:href="#DejaVuSans-37" x="2315.894531"/>
     <use xlink:href="#DejaVuSans-30" x="2379.517578"/>
     <use xlink:href="#DejaVuSans-2e" x="2443.140625"/>
     <use xlink:href="#DejaVuSans-6a" x="2474.927734"/>
     <use xlink:href="#DejaVuSans-73" x="2502.710938"/>
     <use xlink:href="#DejaVuSans-6f" x="2554.810547"/>
     <use xlink:href="#DejaVuSans-6e" x="2615.992188"/>
     <use xlink:href="#DejaVuSans-29" x="2679.371094"/>
     <use xlink:href="#DejaVuSans-20" x="2718.384766"/>
     <use xlink:href="#DejaVuSans-30" x="2750.171875"/>
     <use xlink:href="#DejaVuSans-39" x="2813.794922"/>
     <use xlink:href="#DejaVuSans-2d" x="2877.417969"/>
     <use xlink:href="#DejaVuSans-31" x="2913.501953"/>
     <use xlink:href="#DejaVuSans-33" x="2977.125"/>
     <use xlink:href="#DejaVuSans-2d" x="3040.748047"/>
     <use xlink:href="#DejaVuSans-32" x="3076.832031"/>
     <use xlink:href="#DejaVuSans-30" x="3140.455078"/>
     <use xlink:href="#DejaVuSans-32" x="3204.078125"/>
     <use xlink:href="#DejaVuSans-33" x="3267.701172"/>
     <use xlink:href="#DejaVuSans-20" x="3331.324219"/>
     <use xlink:href="#DejaVuSans-31" x="3363.111328"/>
     <use xlink:href="#DejaVuSans-36" x="3426.734375"/>
     <use xlink:href="#DejaVuSans-3a" x="3490.357422"/>
     <use xlink:href="#DejaVuSans-31" x="3524.048828"/>
     <use xlink:href="#DejaVuSans-30" x="3587.671875"/>
     <use xlink:href="#DejaVuSans-3a" x="3651.294922"/>
     <use xlink:href="#DejaVuSans-31" x="3684.986328"/>
     <use xlink:href="#DejaVuSans-37" x="3748.609375"/>
    </g>
   </g>
  </g>
 </g>
 <defs>
  <clipPath id="pf71a97f9c3">
   <rect x="66.053125" y="22.318125" width="558" height="443.52"/>
  </clipPath>
 </defs>
</svg>
