<?xml version="1.0" encoding="utf-8" standalone="no"?>
<!DOCTYPE svg PUBLIC "-//W3C//DTD SVG 1.1//EN"
  "http://www.w3.org/Graphics/SVG/1.1/DTD/svg11.dtd">
<svg xmlns:xlink="http://www.w3.org/1999/xlink" width="631.253125pt" height="508.306247pt" viewBox="0 0 631.253125 508.306247" xmlns="http://www.w3.org/2000/svg" version="1.1">
 <metadata>
  <rdf:RDF xmlns:dc="http://purl.org/dc/elements/1.1/" xmlns:cc="http://creativecommons.org/ns#" xmlns:rdf="http://www.w3.org/1999/02/22-rdf-syntax-ns#">
   <cc:Work>
    <dc:type rdf:resource="http://purl.org/dc/dcmitype/StillImage"/>
    <dc:date>2023-09-13T16:16:49.684293</dc:date>
    <dc:format>image/svg+xml</dc:format>
    <dc:creator>
     <cc:Agent>
      <dc:title>Matplotlib v3.7.3, https://matplotlib.org/</dc:title>
     </cc:Agent>
    </dc:creator>
   </cc:Work>
  </rdf:RDF>
 </metadata>
 <defs>
  <style type="text/css">*{stroke-linejoin: round; stroke-linecap: butt}</style>
 </defs>
 <g id="figure_1">
  <g id="patch_1">
   <path d="M 0 508.306247 
L 631.253125 508.306247 
L 631.253125 0 
L 0 0 
z
" style="fill: #ffffff"/>
  </g>
  <g id="axes_1">
   <g id="patch_2">
    <path d="M 66.053125 465.838125 
L 624.053125 465.838125 
L 624.053125 22.318125 
L 66.053125 22.318125 
z
" style="fill: #ffffff"/>
   </g>
   <g id="patch_3">
    <path d="M 91.416761 465.838125 
L 91.912993 465.838125 
L 91.912993 465.799172 
L 91.416761 465.799172 
z
" clip-path="url(#p8b70d1f50c)" style="fill: #1f77b4"/>
   </g>
   <g id="patch_4">
    <path d="M 92.037051 465.838125 
L 92.533282 465.838125 
L 92.533282 462.959488 
L 92.037051 462.959488 
z
" clip-path="url(#p8b70d1f50c)" style="fill: #1f77b4"/>
   </g>
   <g id="patch_5">
    <path d="M 92.65734 465.838125 
L 93.153572 465.838125 
L 93.153572 447.043238 
L 92.65734 447.043238 
z
" clip-path="url(#p8b70d1f50c)" style="fill: #1f77b4"/>
   </g>
   <g id="patch_6">
    <path d="M 93.27763 465.838125 
L 93.773861 465.838125 
L 93.773861 423.063688 
L 93.27763 423.063688 
z
" clip-path="url(#p8b70d1f50c)" style="fill: #1f77b4"/>
   </g>
   <g id="patch_7">
    <path d="M 93.897919 465.838125 
L 94.394151 465.838125 
L 94.394151 399.800876 
L 93.897919 399.800876 
z
" clip-path="url(#p8b70d1f50c)" style="fill: #1f77b4"/>
   </g>
   <g id="patch_8">
    <path d="M 94.518209 465.838125 
L 95.01444 465.838125 
L 95.01444 330.643481 
L 94.518209 330.643481 
z
" clip-path="url(#p8b70d1f50c)" style="fill: #1f77b4"/>
   </g>
   <g id="patch_9">
    <path d="M 95.138498 465.838125 
L 95.63473 465.838125 
L 95.63473 233.326865 
L 95.138498 233.326865 
z
" clip-path="url(#p8b70d1f50c)" style="fill: #1f77b4"/>
   </g>
   <g id="patch_10">
    <path d="M 95.758788 465.838125 
L 96.255019 465.838125 
L 96.255019 174.258332 
L 95.758788 174.258332 
z
" clip-path="url(#p8b70d1f50c)" style="fill: #1f77b4"/>
   </g>
   <g id="patch_11">
    <path d="M 96.379077 465.838125 
L 96.875309 465.838125 
L 96.875309 120.444577 
L 96.379077 120.444577 
z
" clip-path="url(#p8b70d1f50c)" style="fill: #1f77b4"/>
   </g>
   <g id="patch_12">
    <path d="M 96.999367 465.838125 
L 97.495598 465.838125 
L 97.495598 55.057845 
L 96.999367 55.057845 
z
" clip-path="url(#p8b70d1f50c)" style="fill: #1f77b4"/>
   </g>
   <g id="patch_13">
    <path d="M 97.619656 465.838125 
L 98.115888 465.838125 
L 98.115888 43.438125 
L 97.619656 43.438125 
z
" clip-path="url(#p8b70d1f50c)" style="fill: #1f77b4"/>
   </g>
   <g id="patch_14">
    <path d="M 98.239946 465.838125 
L 98.736177 465.838125 
L 98.736177 89.028874 
L 98.239946 89.028874 
z
" clip-path="url(#p8b70d1f50c)" style="fill: #1f77b4"/>
   </g>
   <g id="patch_15">
    <path d="M 98.860235 465.838125 
L 99.356467 465.838125 
L 99.356467 147.45468 
L 98.860235 147.45468 
z
" clip-path="url(#p8b70d1f50c)" style="fill: #1f77b4"/>
   </g>
   <g id="patch_16">
    <path d="M 99.480524 465.838125 
L 99.976756 465.838125 
L 99.976756 213.799659 
L 99.480524 213.799659 
z
" clip-path="url(#p8b70d1f50c)" style="fill: #1f77b4"/>
   </g>
   <g id="patch_17">
    <path d="M 100.100814 465.838125 
L 100.597045 465.838125 
L 100.597045 269.958393 
L 100.100814 269.958393 
z
" clip-path="url(#p8b70d1f50c)" style="fill: #1f77b4"/>
   </g>
   <g id="patch_18">
    <path d="M 100.721103 465.838125 
L 101.217335 465.838125 
L 101.217335 316.03216 
L 100.721103 316.03216 
z
" clip-path="url(#p8b70d1f50c)" style="fill: #1f77b4"/>
   </g>
   <g id="patch_19">
    <path d="M 101.341393 465.838125 
L 101.837624 465.838125 
L 101.837624 350.166792 
L 101.341393 350.166792 
z
" clip-path="url(#p8b70d1f50c)" style="fill: #1f77b4"/>
   </g>
   <g id="patch_20">
    <path d="M 101.961682 465.838125 
L 102.457914 465.838125 
L 102.457914 377.10678 
L 101.961682 377.10678 
z
" clip-path="url(#p8b70d1f50c)" style="fill: #1f77b4"/>
   </g>
   <g id="patch_21">
    <path d="M 102.581972 465.838125 
L 103.078203 465.838125 
L 103.078203 396.933925 
L 102.581972 396.933925 
z
" clip-path="url(#p8b70d1f50c)" style="fill: #1f77b4"/>
   </g>
   <g id="patch_22">
    <path d="M 103.202261 465.838125 
L 103.698493 465.838125 
L 103.698493 411.52577 
L 103.202261 411.52577 
z
" clip-path="url(#p8b70d1f50c)" style="fill: #1f77b4"/>
   </g>
   <g id="patch_23">
    <path d="M 103.822551 465.838125 
L 104.318782 465.838125 
L 104.318782 421.871722 
L 103.822551 421.871722 
z
" clip-path="url(#p8b70d1f50c)" style="fill: #1f77b4"/>
   </g>
   <g id="patch_24">
    <path d="M 104.44284 465.838125 
L 104.939072 465.838125 
L 104.939072 430.133682 
L 104.44284 430.133682 
z
" clip-path="url(#p8b70d1f50c)" style="fill: #1f77b4"/>
   </g>
   <g id="patch_25">
    <path d="M 105.06313 465.838125 
L 105.559361 465.838125 
L 105.559361 437.834717 
L 105.06313 437.834717 
z
" clip-path="url(#p8b70d1f50c)" style="fill: #1f77b4"/>
   </g>
   <g id="patch_26">
    <path d="M 105.683419 465.838125 
L 106.179651 465.838125 
L 106.179651 442.450663 
L 105.683419 442.450663 
z
" clip-path="url(#p8b70d1f50c)" style="fill: #1f77b4"/>
   </g>
   <g id="patch_27">
    <path d="M 106.303709 465.838125 
L 106.79994 465.838125 
L 106.79994 446.532952 
L 106.303709 446.532952 
z
" clip-path="url(#p8b70d1f50c)" style="fill: #1f77b4"/>
   </g>
   <g id="patch_28">
    <path d="M 106.923998 465.838125 
L 107.42023 465.838125 
L 107.42023 449.228508 
L 106.923998 449.228508 
z
" clip-path="url(#p8b70d1f50c)" style="fill: #1f77b4"/>
   </g>
   <g id="patch_29">
    <path d="M 107.544288 465.838125 
L 108.040519 465.838125 
L 108.040519 451.748776 
L 107.544288 451.748776 
z
" clip-path="url(#p8b70d1f50c)" style="fill: #1f77b4"/>
   </g>
   <g id="patch_30">
    <path d="M 108.164577 465.838125 
L 108.660809 465.838125 
L 108.660809 453.824978 
L 108.164577 453.824978 
z
" clip-path="url(#p8b70d1f50c)" style="fill: #1f77b4"/>
   </g>
   <g id="patch_31">
    <path d="M 108.784866 465.838125 
L 109.281098 465.838125 
L 109.281098 455.550602 
L 108.784866 455.550602 
z
" clip-path="url(#p8b70d1f50c)" style="fill: #1f77b4"/>
   </g>
   <g id="patch_32">
    <path d="M 109.405156 465.838125 
L 109.901388 465.838125 
L 109.901388 456.836056 
L 109.405156 456.836056 
z
" clip-path="url(#p8b70d1f50c)" style="fill: #1f77b4"/>
   </g>
   <g id="patch_33">
    <path d="M 110.025445 465.838125 
L 110.521677 465.838125 
L 110.521677 457.864418 
L 110.025445 457.864418 
z
" clip-path="url(#p8b70d1f50c)" style="fill: #1f77b4"/>
   </g>
   <g id="patch_34">
    <path d="M 110.645735 465.838125 
L 111.141966 465.838125 
L 111.141966 459.165453 
L 110.645735 459.165453 
z
" clip-path="url(#p8b70d1f50c)" style="fill: #1f77b4"/>
   </g>
   <g id="patch_35">
    <path d="M 111.266024 465.838125 
L 111.762256 465.838125 
L 111.762256 459.449811 
L 111.266024 459.449811 
z
" clip-path="url(#p8b70d1f50c)" style="fill: #1f77b4"/>
   </g>
   <g id="patch_36">
    <path d="M 111.886314 465.838125 
L 112.382545 465.838125 
L 112.382545 460.450906 
L 111.886314 460.450906 
z
" clip-path="url(#p8b70d1f50c)" style="fill: #1f77b4"/>
   </g>
   <g id="patch_37">
    <path d="M 112.506603 465.838125 
L 113.002835 465.838125 
L 113.002835 460.727474 
L 112.506603 460.727474 
z
" clip-path="url(#p8b70d1f50c)" style="fill: #1f77b4"/>
   </g>
   <g id="patch_38">
    <path d="M 113.126893 465.838125 
L 113.623124 465.838125 
L 113.623124 461.272818 
L 113.126893 461.272818 
z
" clip-path="url(#p8b70d1f50c)" style="fill: #1f77b4"/>
   </g>
   <g id="patch_39">
    <path d="M 113.747182 465.838125 
L 114.243414 465.838125 
L 114.243414 461.638977 
L 113.747182 461.638977 
z
" clip-path="url(#p8b70d1f50c)" style="fill: #1f77b4"/>
   </g>
   <g id="patch_40">
    <path d="M 114.367472 465.838125 
L 114.863703 465.838125 
L 114.863703 462.414144 
L 114.367472 462.414144 
z
" clip-path="url(#p8b70d1f50c)" style="fill: #1f77b4"/>
   </g>
   <g id="patch_41">
    <path d="M 114.987761 465.838125 
L 115.483993 465.838125 
L 115.483993 462.328448 
L 114.987761 462.328448 
z
" clip-path="url(#p8b70d1f50c)" style="fill: #1f77b4"/>
   </g>
   <g id="patch_42">
    <path d="M 115.608051 465.838125 
L 116.104282 465.838125 
L 116.104282 462.780304 
L 115.608051 462.780304 
z
" clip-path="url(#p8b70d1f50c)" style="fill: #1f77b4"/>
   </g>
   <g id="patch_43">
    <path d="M 116.22834 465.838125 
L 116.724572 465.838125 
L 116.724572 462.729665 
L 116.22834 462.729665 
z
" clip-path="url(#p8b70d1f50c)" style="fill: #1f77b4"/>
   </g>
   <g id="patch_44">
    <path d="M 116.84863 465.838125 
L 117.344861 465.838125 
L 117.344861 463.243846 
L 116.84863 463.243846 
z
" clip-path="url(#p8b70d1f50c)" style="fill: #1f77b4"/>
   </g>
   <g id="patch_45">
    <path d="M 117.468919 465.838125 
L 117.965151 465.838125 
L 117.965151 463.512623 
L 117.468919 463.512623 
z
" clip-path="url(#p8b70d1f50c)" style="fill: #1f77b4"/>
   </g>
   <g id="patch_46">
    <path d="M 118.089209 465.838125 
L 118.58544 465.838125 
L 118.58544 463.660645 
L 118.089209 463.660645 
z
" clip-path="url(#p8b70d1f50c)" style="fill: #1f77b4"/>
   </g>
   <g id="patch_47">
    <path d="M 118.709498 465.838125 
L 119.20573 465.838125 
L 119.20573 463.742446 
L 118.709498 463.742446 
z
" clip-path="url(#p8b70d1f50c)" style="fill: #1f77b4"/>
   </g>
   <g id="patch_48">
    <path d="M 119.329787 465.838125 
L 119.826019 465.838125 
L 119.826019 464.003432 
L 119.329787 464.003432 
z
" clip-path="url(#p8b70d1f50c)" style="fill: #1f77b4"/>
   </g>
   <g id="patch_49">
    <path d="M 119.950077 465.838125 
L 120.446308 465.838125 
L 120.446308 464.09692 
L 119.950077 464.09692 
z
" clip-path="url(#p8b70d1f50c)" style="fill: #1f77b4"/>
   </g>
   <g id="patch_50">
    <path d="M 120.570366 465.838125 
L 121.066598 465.838125 
L 121.066598 464.241046 
L 120.570366 464.241046 
z
" clip-path="url(#p8b70d1f50c)" style="fill: #1f77b4"/>
   </g>
   <g id="patch_51">
    <path d="M 121.190656 465.838125 
L 121.686887 465.838125 
L 121.686887 464.428022 
L 121.190656 464.428022 
z
" clip-path="url(#p8b70d1f50c)" style="fill: #1f77b4"/>
   </g>
   <g id="patch_52">
    <path d="M 121.810945 465.838125 
L 122.307177 465.838125 
L 122.307177 464.443603 
L 121.810945 464.443603 
z
" clip-path="url(#p8b70d1f50c)" style="fill: #1f77b4"/>
   </g>
   <g id="patch_53">
    <path d="M 122.431235 465.838125 
L 122.927466 465.838125 
L 122.927466 464.587729 
L 122.431235 464.587729 
z
" clip-path="url(#p8b70d1f50c)" style="fill: #1f77b4"/>
   </g>
   <g id="patch_54">
    <path d="M 123.051524 465.838125 
L 123.547756 465.838125 
L 123.547756 464.809762 
L 123.051524 464.809762 
z
" clip-path="url(#p8b70d1f50c)" style="fill: #1f77b4"/>
   </g>
   <g id="patch_55">
    <path d="M 123.671814 465.838125 
L 124.168045 465.838125 
L 124.168045 464.689008 
L 123.671814 464.689008 
z
" clip-path="url(#p8b70d1f50c)" style="fill: #1f77b4"/>
   </g>
   <g id="patch_56">
    <path d="M 124.292103 465.838125 
L 124.788335 465.838125 
L 124.788335 464.883773 
L 124.292103 464.883773 
z
" clip-path="url(#p8b70d1f50c)" style="fill: #1f77b4"/>
   </g>
   <g id="patch_57">
    <path d="M 124.912393 465.838125 
L 125.408624 465.838125 
L 125.408624 464.879878 
L 124.912393 464.879878 
z
" clip-path="url(#p8b70d1f50c)" style="fill: #1f77b4"/>
   </g>
   <g id="patch_58">
    <path d="M 125.532682 465.838125 
L 126.028914 465.838125 
L 126.028914 464.813658 
L 125.532682 464.813658 
z
" clip-path="url(#p8b70d1f50c)" style="fill: #1f77b4"/>
   </g>
   <g id="patch_59">
    <path d="M 126.152972 465.838125 
L 126.649203 465.838125 
L 126.649203 465.074644 
L 126.152972 465.074644 
z
" clip-path="url(#p8b70d1f50c)" style="fill: #1f77b4"/>
   </g>
   <g id="patch_60">
    <path d="M 126.773261 465.838125 
L 127.269493 465.838125 
L 127.269493 465.133073 
L 126.773261 465.133073 
z
" clip-path="url(#p8b70d1f50c)" style="fill: #1f77b4"/>
   </g>
   <g id="patch_61">
    <path d="M 127.393551 465.838125 
L 127.889782 465.838125 
L 127.889782 465.082434 
L 127.393551 465.082434 
z
" clip-path="url(#p8b70d1f50c)" style="fill: #1f77b4"/>
   </g>
   <g id="patch_62">
    <path d="M 128.01384 465.838125 
L 128.510072 465.838125 
L 128.510072 465.101911 
L 128.01384 465.101911 
z
" clip-path="url(#p8b70d1f50c)" style="fill: #1f77b4"/>
   </g>
   <g id="patch_63">
    <path d="M 128.634129 465.838125 
L 129.130361 465.838125 
L 129.130361 465.191503 
L 128.634129 465.191503 
z
" clip-path="url(#p8b70d1f50c)" style="fill: #1f77b4"/>
   </g>
   <g id="patch_64">
    <path d="M 129.254419 465.838125 
L 129.750651 465.838125 
L 129.750651 465.246037 
L 129.254419 465.246037 
z
" clip-path="url(#p8b70d1f50c)" style="fill: #1f77b4"/>
   </g>
   <g id="patch_65">
    <path d="M 129.874708 465.838125 
L 130.37094 465.838125 
L 130.37094 465.265514 
L 129.874708 465.265514 
z
" clip-path="url(#p8b70d1f50c)" style="fill: #1f77b4"/>
   </g>
   <g id="patch_66">
    <path d="M 130.494998 465.838125 
L 130.991229 465.838125 
L 130.991229 465.273305 
L 130.494998 465.273305 
z
" clip-path="url(#p8b70d1f50c)" style="fill: #1f77b4"/>
   </g>
   <g id="patch_67">
    <path d="M 131.115287 465.838125 
L 131.611519 465.838125 
L 131.611519 465.331734 
L 131.115287 465.331734 
z
" clip-path="url(#p8b70d1f50c)" style="fill: #1f77b4"/>
   </g>
   <g id="patch_68">
    <path d="M 131.735577 465.838125 
L 132.231808 465.838125 
L 132.231808 465.382373 
L 131.735577 465.382373 
z
" clip-path="url(#p8b70d1f50c)" style="fill: #1f77b4"/>
   </g>
   <g id="patch_69">
    <path d="M 132.355866 465.838125 
L 132.852098 465.838125 
L 132.852098 465.40185 
L 132.355866 465.40185 
z
" clip-path="url(#p8b70d1f50c)" style="fill: #1f77b4"/>
   </g>
   <g id="patch_70">
    <path d="M 132.976156 465.838125 
L 133.472387 465.838125 
L 133.472387 465.448594 
L 132.976156 465.448594 
z
" clip-path="url(#p8b70d1f50c)" style="fill: #1f77b4"/>
   </g>
   <g id="patch_71">
    <path d="M 133.596445 465.838125 
L 134.092677 465.838125 
L 134.092677 465.417431 
L 133.596445 465.417431 
z
" clip-path="url(#p8b70d1f50c)" style="fill: #1f77b4"/>
   </g>
   <g id="patch_72">
    <path d="M 134.216735 465.838125 
L 134.712966 465.838125 
L 134.712966 465.507023 
L 134.216735 465.507023 
z
" clip-path="url(#p8b70d1f50c)" style="fill: #1f77b4"/>
   </g>
   <g id="patch_73">
    <path d="M 134.837024 465.838125 
L 135.333256 465.838125 
L 135.333256 465.471966 
L 134.837024 465.471966 
z
" clip-path="url(#p8b70d1f50c)" style="fill: #1f77b4"/>
   </g>
   <g id="patch_74">
    <path d="M 135.457314 465.838125 
L 135.953545 465.838125 
L 135.953545 465.464175 
L 135.457314 465.464175 
z
" clip-path="url(#p8b70d1f50c)" style="fill: #1f77b4"/>
   </g>
   <g id="patch_75">
    <path d="M 136.077603 465.838125 
L 136.573835 465.838125 
L 136.573835 465.573244 
L 136.077603 465.573244 
z
" clip-path="url(#p8b70d1f50c)" style="fill: #1f77b4"/>
   </g>
   <g id="patch_76">
    <path d="M 136.697893 465.838125 
L 137.194124 465.838125 
L 137.194124 465.538186 
L 136.697893 465.538186 
z
" clip-path="url(#p8b70d1f50c)" style="fill: #1f77b4"/>
   </g>
   <g id="patch_77">
    <path d="M 137.318182 465.838125 
L 137.814414 465.838125 
L 137.814414 465.471966 
L 137.318182 465.471966 
z
" clip-path="url(#p8b70d1f50c)" style="fill: #1f77b4"/>
   </g>
   <g id="patch_78">
    <path d="M 137.938471 465.838125 
L 138.434703 465.838125 
L 138.434703 465.499233 
L 137.938471 465.499233 
z
" clip-path="url(#p8b70d1f50c)" style="fill: #1f77b4"/>
   </g>
   <g id="patch_79">
    <path d="M 138.558761 465.838125 
L 139.054993 465.838125 
L 139.054993 465.577139 
L 138.558761 465.577139 
z
" clip-path="url(#p8b70d1f50c)" style="fill: #1f77b4"/>
   </g>
   <g id="patch_80">
    <path d="M 139.17905 465.838125 
L 139.675282 465.838125 
L 139.675282 465.619987 
L 139.17905 465.619987 
z
" clip-path="url(#p8b70d1f50c)" style="fill: #1f77b4"/>
   </g>
   <g id="patch_81">
    <path d="M 139.79934 465.838125 
L 140.295571 465.838125 
L 140.295571 465.616092 
L 139.79934 465.616092 
z
" clip-path="url(#p8b70d1f50c)" style="fill: #1f77b4"/>
   </g>
   <g id="patch_82">
    <path d="M 140.419629 465.838125 
L 140.915861 465.838125 
L 140.915861 465.600511 
L 140.419629 465.600511 
z
" clip-path="url(#p8b70d1f50c)" style="fill: #1f77b4"/>
   </g>
   <g id="patch_83">
    <path d="M 141.039919 465.838125 
L 141.53615 465.838125 
L 141.53615 465.608302 
L 141.039919 465.608302 
z
" clip-path="url(#p8b70d1f50c)" style="fill: #1f77b4"/>
   </g>
   <g id="patch_84">
    <path d="M 141.660208 465.838125 
L 142.15644 465.838125 
L 142.15644 465.631673 
L 141.660208 465.631673 
z
" clip-path="url(#p8b70d1f50c)" style="fill: #1f77b4"/>
   </g>
   <g id="patch_85">
    <path d="M 142.280498 465.838125 
L 142.776729 465.838125 
L 142.776729 465.577139 
L 142.280498 465.577139 
z
" clip-path="url(#p8b70d1f50c)" style="fill: #1f77b4"/>
   </g>
   <g id="patch_86">
    <path d="M 142.900787 465.838125 
L 143.397019 465.838125 
L 143.397019 465.647255 
L 142.900787 465.647255 
z
" clip-path="url(#p8b70d1f50c)" style="fill: #1f77b4"/>
   </g>
   <g id="patch_87">
    <path d="M 143.521077 465.838125 
L 144.017308 465.838125 
L 144.017308 465.686208 
L 143.521077 465.686208 
z
" clip-path="url(#p8b70d1f50c)" style="fill: #1f77b4"/>
   </g>
   <g id="patch_88">
    <path d="M 144.141366 465.838125 
L 144.637598 465.838125 
L 144.637598 465.670627 
L 144.141366 465.670627 
z
" clip-path="url(#p8b70d1f50c)" style="fill: #1f77b4"/>
   </g>
   <g id="patch_89">
    <path d="M 144.761656 465.838125 
L 145.257887 465.838125 
L 145.257887 465.658941 
L 144.761656 465.658941 
z
" clip-path="url(#p8b70d1f50c)" style="fill: #1f77b4"/>
   </g>
   <g id="patch_90">
    <path d="M 145.381945 465.838125 
L 145.878177 465.838125 
L 145.878177 465.616092 
L 145.381945 465.616092 
z
" clip-path="url(#p8b70d1f50c)" style="fill: #1f77b4"/>
   </g>
   <g id="patch_91">
    <path d="M 146.002235 465.838125 
L 146.498466 465.838125 
L 146.498466 465.639464 
L 146.002235 465.639464 
z
" clip-path="url(#p8b70d1f50c)" style="fill: #1f77b4"/>
   </g>
   <g id="patch_92">
    <path d="M 146.622524 465.838125 
L 147.118756 465.838125 
L 147.118756 465.635569 
L 146.622524 465.635569 
z
" clip-path="url(#p8b70d1f50c)" style="fill: #1f77b4"/>
   </g>
   <g id="patch_93">
    <path d="M 147.242814 465.838125 
L 147.739045 465.838125 
L 147.739045 465.678417 
L 147.242814 465.678417 
z
" clip-path="url(#p8b70d1f50c)" style="fill: #1f77b4"/>
   </g>
   <g id="patch_94">
    <path d="M 147.863103 465.838125 
L 148.359335 465.838125 
L 148.359335 465.682312 
L 147.863103 465.682312 
z
" clip-path="url(#p8b70d1f50c)" style="fill: #1f77b4"/>
   </g>
   <g id="patch_95">
    <path d="M 148.483392 465.838125 
L 148.979624 465.838125 
L 148.979624 465.674522 
L 148.483392 465.674522 
z
" clip-path="url(#p8b70d1f50c)" style="fill: #1f77b4"/>
   </g>
   <g id="patch_96">
    <path d="M 149.103682 465.838125 
L 149.599914 465.838125 
L 149.599914 465.678417 
L 149.103682 465.678417 
z
" clip-path="url(#p8b70d1f50c)" style="fill: #1f77b4"/>
   </g>
   <g id="patch_97">
    <path d="M 149.723971 465.838125 
L 150.220203 465.838125 
L 150.220203 465.697894 
L 149.723971 465.697894 
z
" clip-path="url(#p8b70d1f50c)" style="fill: #1f77b4"/>
   </g>
   <g id="patch_98">
    <path d="M 150.344261 465.838125 
L 150.840492 465.838125 
L 150.840492 465.740742 
L 150.344261 465.740742 
z
" clip-path="url(#p8b70d1f50c)" style="fill: #1f77b4"/>
   </g>
   <g id="patch_99">
    <path d="M 150.96455 465.838125 
L 151.460782 465.838125 
L 151.460782 465.697894 
L 150.96455 465.697894 
z
" clip-path="url(#p8b70d1f50c)" style="fill: #1f77b4"/>
   </g>
   <g id="patch_100">
    <path d="M 151.58484 465.838125 
L 152.081071 465.838125 
L 152.081071 465.713475 
L 151.58484 465.713475 
z
" clip-path="url(#p8b70d1f50c)" style="fill: #1f77b4"/>
   </g>
   <g id="patch_101">
    <path d="M 152.205129 465.838125 
L 152.701361 465.838125 
L 152.701361 465.713475 
L 152.205129 465.713475 
z
" clip-path="url(#p8b70d1f50c)" style="fill: #1f77b4"/>
   </g>
   <g id="patch_102">
    <path d="M 152.825419 465.838125 
L 153.32165 465.838125 
L 153.32165 465.713475 
L 152.825419 465.713475 
z
" clip-path="url(#p8b70d1f50c)" style="fill: #1f77b4"/>
   </g>
   <g id="patch_103">
    <path d="M 153.445708 465.838125 
L 153.94194 465.838125 
L 153.94194 465.756323 
L 153.445708 465.756323 
z
" clip-path="url(#p8b70d1f50c)" style="fill: #1f77b4"/>
   </g>
   <g id="patch_104">
    <path d="M 154.065998 465.838125 
L 154.562229 465.838125 
L 154.562229 465.729056 
L 154.065998 465.729056 
z
" clip-path="url(#p8b70d1f50c)" style="fill: #1f77b4"/>
   </g>
   <g id="patch_105">
    <path d="M 154.686287 465.838125 
L 155.182519 465.838125 
L 155.182519 465.768009 
L 154.686287 465.768009 
z
" clip-path="url(#p8b70d1f50c)" style="fill: #1f77b4"/>
   </g>
   <g id="patch_106">
    <path d="M 155.306577 465.838125 
L 155.802808 465.838125 
L 155.802808 465.764114 
L 155.306577 465.764114 
z
" clip-path="url(#p8b70d1f50c)" style="fill: #1f77b4"/>
   </g>
   <g id="patch_107">
    <path d="M 155.926866 465.838125 
L 156.423098 465.838125 
L 156.423098 465.748533 
L 155.926866 465.748533 
z
" clip-path="url(#p8b70d1f50c)" style="fill: #1f77b4"/>
   </g>
   <g id="patch_108">
    <path d="M 156.547156 465.838125 
L 157.043387 465.838125 
L 157.043387 465.756323 
L 156.547156 465.756323 
z
" clip-path="url(#p8b70d1f50c)" style="fill: #1f77b4"/>
   </g>
   <g id="patch_109">
    <path d="M 157.167445 465.838125 
L 157.663677 465.838125 
L 157.663677 465.752428 
L 157.167445 465.752428 
z
" clip-path="url(#p8b70d1f50c)" style="fill: #1f77b4"/>
   </g>
   <g id="patch_110">
    <path d="M 157.787734 465.838125 
L 158.283966 465.838125 
L 158.283966 465.740742 
L 157.787734 465.740742 
z
" clip-path="url(#p8b70d1f50c)" style="fill: #1f77b4"/>
   </g>
   <g id="patch_111">
    <path d="M 158.408024 465.838125 
L 158.904256 465.838125 
L 158.904256 465.768009 
L 158.408024 465.768009 
z
" clip-path="url(#p8b70d1f50c)" style="fill: #1f77b4"/>
   </g>
   <g id="patch_112">
    <path d="M 159.028313 465.838125 
L 159.524545 465.838125 
L 159.524545 465.787486 
L 159.028313 465.787486 
z
" clip-path="url(#p8b70d1f50c)" style="fill: #1f77b4"/>
   </g>
   <g id="patch_113">
    <path d="M 159.648603 465.838125 
L 160.144834 465.838125 
L 160.144834 465.764114 
L 159.648603 465.764114 
z
" clip-path="url(#p8b70d1f50c)" style="fill: #1f77b4"/>
   </g>
   <g id="patch_114">
    <path d="M 160.268892 465.838125 
L 160.765124 465.838125 
L 160.765124 465.760219 
L 160.268892 465.760219 
z
" clip-path="url(#p8b70d1f50c)" style="fill: #1f77b4"/>
   </g>
   <g id="patch_115">
    <path d="M 160.889182 465.838125 
L 161.385413 465.838125 
L 161.385413 465.7758 
L 160.889182 465.7758 
z
" clip-path="url(#p8b70d1f50c)" style="fill: #1f77b4"/>
   </g>
   <g id="patch_116">
    <path d="M 161.509471 465.838125 
L 162.005703 465.838125 
L 162.005703 465.814753 
L 161.509471 465.814753 
z
" clip-path="url(#p8b70d1f50c)" style="fill: #1f77b4"/>
   </g>
   <g id="patch_117">
    <path d="M 162.129761 465.838125 
L 162.625992 465.838125 
L 162.625992 465.768009 
L 162.129761 465.768009 
z
" clip-path="url(#p8b70d1f50c)" style="fill: #1f77b4"/>
   </g>
   <g id="patch_118">
    <path d="M 162.75005 465.838125 
L 163.246282 465.838125 
L 163.246282 465.760219 
L 162.75005 465.760219 
z
" clip-path="url(#p8b70d1f50c)" style="fill: #1f77b4"/>
   </g>
   <g id="patch_119">
    <path d="M 163.37034 465.838125 
L 163.866571 465.838125 
L 163.866571 465.752428 
L 163.37034 465.752428 
z
" clip-path="url(#p8b70d1f50c)" style="fill: #1f77b4"/>
   </g>
   <g id="patch_120">
    <path d="M 163.990629 465.838125 
L 164.486861 465.838125 
L 164.486861 465.795277 
L 163.990629 465.795277 
z
" clip-path="url(#p8b70d1f50c)" style="fill: #1f77b4"/>
   </g>
   <g id="patch_121">
    <path d="M 164.610919 465.838125 
L 165.10715 465.838125 
L 165.10715 465.806962 
L 164.610919 465.806962 
z
" clip-path="url(#p8b70d1f50c)" style="fill: #1f77b4"/>
   </g>
   <g id="patch_122">
    <path d="M 165.231208 465.838125 
L 165.72744 465.838125 
L 165.72744 465.803067 
L 165.231208 465.803067 
z
" clip-path="url(#p8b70d1f50c)" style="fill: #1f77b4"/>
   </g>
   <g id="patch_123">
    <path d="M 165.851498 465.838125 
L 166.347729 465.838125 
L 166.347729 465.826439 
L 165.851498 465.826439 
z
" clip-path="url(#p8b70d1f50c)" style="fill: #1f77b4"/>
   </g>
   <g id="patch_124">
    <path d="M 166.471787 465.838125 
L 166.968019 465.838125 
L 166.968019 465.818648 
L 166.471787 465.818648 
z
" clip-path="url(#p8b70d1f50c)" style="fill: #1f77b4"/>
   </g>
   <g id="patch_125">
    <path d="M 167.092077 465.838125 
L 167.588308 465.838125 
L 167.588308 465.803067 
L 167.092077 465.803067 
z
" clip-path="url(#p8b70d1f50c)" style="fill: #1f77b4"/>
   </g>
   <g id="patch_126">
    <path d="M 167.712366 465.838125 
L 168.208598 465.838125 
L 168.208598 465.818648 
L 167.712366 465.818648 
z
" clip-path="url(#p8b70d1f50c)" style="fill: #1f77b4"/>
   </g>
   <g id="patch_127">
    <path d="M 168.332655 465.838125 
L 168.828887 465.838125 
L 168.828887 465.810858 
L 168.332655 465.810858 
z
" clip-path="url(#p8b70d1f50c)" style="fill: #1f77b4"/>
   </g>
   <g id="patch_128">
    <path d="M 168.952945 465.838125 
L 169.449176 465.838125 
L 169.449176 465.810858 
L 168.952945 465.810858 
z
" clip-path="url(#p8b70d1f50c)" style="fill: #1f77b4"/>
   </g>
   <g id="patch_129">
    <path d="M 169.573234 465.838125 
L 170.069466 465.838125 
L 170.069466 465.822544 
L 169.573234 465.822544 
z
" clip-path="url(#p8b70d1f50c)" style="fill: #1f77b4"/>
   </g>
   <g id="patch_130">
    <path d="M 170.193524 465.838125 
L 170.689755 465.838125 
L 170.689755 465.795277 
L 170.193524 465.795277 
z
" clip-path="url(#p8b70d1f50c)" style="fill: #1f77b4"/>
   </g>
   <g id="patch_131">
    <path d="M 170.813813 465.838125 
L 171.310045 465.838125 
L 171.310045 465.803067 
L 170.813813 465.803067 
z
" clip-path="url(#p8b70d1f50c)" style="fill: #1f77b4"/>
   </g>
   <g id="patch_132">
    <path d="M 171.434103 465.838125 
L 171.930334 465.838125 
L 171.930334 465.810858 
L 171.434103 465.810858 
z
" clip-path="url(#p8b70d1f50c)" style="fill: #1f77b4"/>
   </g>
   <g id="patch_133">
    <path d="M 172.054392 465.838125 
L 172.550624 465.838125 
L 172.550624 465.799172 
L 172.054392 465.799172 
z
" clip-path="url(#p8b70d1f50c)" style="fill: #1f77b4"/>
   </g>
   <g id="patch_134">
    <path d="M 172.674682 465.838125 
L 173.170913 465.838125 
L 173.170913 465.806962 
L 172.674682 465.806962 
z
" clip-path="url(#p8b70d1f50c)" style="fill: #1f77b4"/>
   </g>
   <g id="patch_135">
    <path d="M 173.294971 465.838125 
L 173.791203 465.838125 
L 173.791203 465.803067 
L 173.294971 465.803067 
z
" clip-path="url(#p8b70d1f50c)" style="fill: #1f77b4"/>
   </g>
   <g id="patch_136">
    <path d="M 173.915261 465.838125 
L 174.411492 465.838125 
L 174.411492 465.814753 
L 173.915261 465.814753 
z
" clip-path="url(#p8b70d1f50c)" style="fill: #1f77b4"/>
   </g>
   <g id="patch_137">
    <path d="M 174.53555 465.838125 
L 175.031782 465.838125 
L 175.031782 465.826439 
L 174.53555 465.826439 
z
" clip-path="url(#p8b70d1f50c)" style="fill: #1f77b4"/>
   </g>
   <g id="patch_138">
    <path d="M 175.15584 465.838125 
L 175.652071 465.838125 
L 175.652071 465.810858 
L 175.15584 465.810858 
z
" clip-path="url(#p8b70d1f50c)" style="fill: #1f77b4"/>
   </g>
   <g id="patch_139">
    <path d="M 175.776129 465.838125 
L 176.272361 465.838125 
L 176.272361 465.826439 
L 175.776129 465.826439 
z
" clip-path="url(#p8b70d1f50c)" style="fill: #1f77b4"/>
   </g>
   <g id="patch_140">
    <path d="M 176.396419 465.838125 
L 176.89265 465.838125 
L 176.89265 465.826439 
L 176.396419 465.826439 
z
" clip-path="url(#p8b70d1f50c)" style="fill: #1f77b4"/>
   </g>
   <g id="patch_141">
    <path d="M 177.016708 465.838125 
L 177.51294 465.838125 
L 177.51294 465.822544 
L 177.016708 465.822544 
z
" clip-path="url(#p8b70d1f50c)" style="fill: #1f77b4"/>
   </g>
   <g id="patch_142">
    <path d="M 177.636997 465.838125 
L 178.133229 465.838125 
L 178.133229 465.830334 
L 177.636997 465.830334 
z
" clip-path="url(#p8b70d1f50c)" style="fill: #1f77b4"/>
   </g>
   <g id="patch_143">
    <path d="M 178.257287 465.838125 
L 178.753519 465.838125 
L 178.753519 465.810858 
L 178.257287 465.810858 
z
" clip-path="url(#p8b70d1f50c)" style="fill: #1f77b4"/>
   </g>
   <g id="patch_144">
    <path d="M 178.877576 465.838125 
L 179.373808 465.838125 
L 179.373808 465.803067 
L 178.877576 465.803067 
z
" clip-path="url(#p8b70d1f50c)" style="fill: #1f77b4"/>
   </g>
   <g id="patch_145">
    <path d="M 179.497866 465.838125 
L 179.994097 465.838125 
L 179.994097 465.822544 
L 179.497866 465.822544 
z
" clip-path="url(#p8b70d1f50c)" style="fill: #1f77b4"/>
   </g>
   <g id="patch_146">
    <path d="M 180.118155 465.838125 
L 180.614387 465.838125 
L 180.614387 465.814753 
L 180.118155 465.814753 
z
" clip-path="url(#p8b70d1f50c)" style="fill: #1f77b4"/>
   </g>
   <g id="patch_147">
    <path d="M 180.738445 465.838125 
L 181.234676 465.838125 
L 181.234676 465.830334 
L 180.738445 465.830334 
z
" clip-path="url(#p8b70d1f50c)" style="fill: #1f77b4"/>
   </g>
   <g id="patch_148">
    <path d="M 181.358734 465.838125 
L 181.854966 465.838125 
L 181.854966 465.826439 
L 181.358734 465.826439 
z
" clip-path="url(#p8b70d1f50c)" style="fill: #1f77b4"/>
   </g>
   <g id="patch_149">
    <path d="M 181.979024 465.838125 
L 182.475255 465.838125 
L 182.475255 465.814753 
L 181.979024 465.814753 
z
" clip-path="url(#p8b70d1f50c)" style="fill: #1f77b4"/>
   </g>
   <g id="patch_150">
    <path d="M 182.599313 465.838125 
L 183.095545 465.838125 
L 183.095545 465.818648 
L 182.599313 465.818648 
z
" clip-path="url(#p8b70d1f50c)" style="fill: #1f77b4"/>
   </g>
   <g id="patch_151">
    <path d="M 183.219603 465.838125 
L 183.715834 465.838125 
L 183.715834 465.814753 
L 183.219603 465.814753 
z
" clip-path="url(#p8b70d1f50c)" style="fill: #1f77b4"/>
   </g>
   <g id="patch_152">
    <path d="M 183.839892 465.838125 
L 184.336124 465.838125 
L 184.336124 465.814753 
L 183.839892 465.814753 
z
" clip-path="url(#p8b70d1f50c)" style="fill: #1f77b4"/>
   </g>
   <g id="patch_153">
    <path d="M 184.460182 465.838125 
L 184.956413 465.838125 
L 184.956413 465.83423 
L 184.460182 465.83423 
z
" clip-path="url(#p8b70d1f50c)" style="fill: #1f77b4"/>
   </g>
   <g id="patch_154">
    <path d="M 185.080471 465.838125 
L 185.576703 465.838125 
L 185.576703 465.818648 
L 185.080471 465.818648 
z
" clip-path="url(#p8b70d1f50c)" style="fill: #1f77b4"/>
   </g>
   <g id="patch_155">
    <path d="M 185.700761 465.838125 
L 186.196992 465.838125 
L 186.196992 465.826439 
L 185.700761 465.826439 
z
" clip-path="url(#p8b70d1f50c)" style="fill: #1f77b4"/>
   </g>
   <g id="patch_156">
    <path d="M 186.32105 465.838125 
L 186.817282 465.838125 
L 186.817282 465.830334 
L 186.32105 465.830334 
z
" clip-path="url(#p8b70d1f50c)" style="fill: #1f77b4"/>
   </g>
   <g id="patch_157">
    <path d="M 186.94134 465.838125 
L 187.437571 465.838125 
L 187.437571 465.826439 
L 186.94134 465.826439 
z
" clip-path="url(#p8b70d1f50c)" style="fill: #1f77b4"/>
   </g>
   <g id="patch_158">
    <path d="M 187.561629 465.838125 
L 188.057861 465.838125 
L 188.057861 465.83423 
L 187.561629 465.83423 
z
" clip-path="url(#p8b70d1f50c)" style="fill: #1f77b4"/>
   </g>
   <g id="patch_159">
    <path d="M 188.181918 465.838125 
L 188.67815 465.838125 
L 188.67815 465.822544 
L 188.181918 465.822544 
z
" clip-path="url(#p8b70d1f50c)" style="fill: #1f77b4"/>
   </g>
   <g id="patch_160">
    <path d="M 188.802208 465.838125 
L 189.298439 465.838125 
L 189.298439 465.826439 
L 188.802208 465.826439 
z
" clip-path="url(#p8b70d1f50c)" style="fill: #1f77b4"/>
   </g>
   <g id="patch_161">
    <path d="M 189.422497 465.838125 
L 189.918729 465.838125 
L 189.918729 465.826439 
L 189.422497 465.826439 
z
" clip-path="url(#p8b70d1f50c)" style="fill: #1f77b4"/>
   </g>
   <g id="patch_162">
    <path d="M 190.042787 465.838125 
L 190.539018 465.838125 
L 190.539018 465.826439 
L 190.042787 465.826439 
z
" clip-path="url(#p8b70d1f50c)" style="fill: #1f77b4"/>
   </g>
   <g id="patch_163">
    <path d="M 190.663076 465.838125 
L 191.159308 465.838125 
L 191.159308 465.822544 
L 190.663076 465.822544 
z
" clip-path="url(#p8b70d1f50c)" style="fill: #1f77b4"/>
   </g>
   <g id="patch_164">
    <path d="M 191.283366 465.838125 
L 191.779597 465.838125 
L 191.779597 465.830334 
L 191.283366 465.830334 
z
" clip-path="url(#p8b70d1f50c)" style="fill: #1f77b4"/>
   </g>
   <g id="patch_165">
    <path d="M 191.903655 465.838125 
L 192.399887 465.838125 
L 192.399887 465.822544 
L 191.903655 465.822544 
z
" clip-path="url(#p8b70d1f50c)" style="fill: #1f77b4"/>
   </g>
   <g id="patch_166">
    <path d="M 192.523945 465.838125 
L 193.020176 465.838125 
L 193.020176 465.818648 
L 192.523945 465.818648 
z
" clip-path="url(#p8b70d1f50c)" style="fill: #1f77b4"/>
   </g>
   <g id="patch_167">
    <path d="M 193.144234 465.838125 
L 193.640466 465.838125 
L 193.640466 465.83423 
L 193.144234 465.83423 
z
" clip-path="url(#p8b70d1f50c)" style="fill: #1f77b4"/>
   </g>
   <g id="patch_168">
    <path d="M 193.764524 465.838125 
L 194.260755 465.838125 
L 194.260755 465.810858 
L 193.764524 465.810858 
z
" clip-path="url(#p8b70d1f50c)" style="fill: #1f77b4"/>
   </g>
   <g id="patch_169">
    <path d="M 194.384813 465.838125 
L 194.881045 465.838125 
L 194.881045 465.830334 
L 194.384813 465.830334 
z
" clip-path="url(#p8b70d1f50c)" style="fill: #1f77b4"/>
   </g>
   <g id="patch_170">
    <path d="M 195.005103 465.838125 
L 195.501334 465.838125 
L 195.501334 465.83423 
L 195.005103 465.83423 
z
" clip-path="url(#p8b70d1f50c)" style="fill: #1f77b4"/>
   </g>
   <g id="patch_171">
    <path d="M 195.625392 465.838125 
L 196.121624 465.838125 
L 196.121624 465.83423 
L 195.625392 465.83423 
z
" clip-path="url(#p8b70d1f50c)" style="fill: #1f77b4"/>
   </g>
   <g id="patch_172">
    <path d="M 196.245682 465.838125 
L 196.741913 465.838125 
L 196.741913 465.826439 
L 196.245682 465.826439 
z
" clip-path="url(#p8b70d1f50c)" style="fill: #1f77b4"/>
   </g>
   <g id="patch_173">
    <path d="M 196.865971 465.838125 
L 197.362203 465.838125 
L 197.362203 465.826439 
L 196.865971 465.826439 
z
" clip-path="url(#p8b70d1f50c)" style="fill: #1f77b4"/>
   </g>
   <g id="patch_174">
    <path d="M 197.48626 465.838125 
L 197.982492 465.838125 
L 197.982492 465.830334 
L 197.48626 465.830334 
z
" clip-path="url(#p8b70d1f50c)" style="fill: #1f77b4"/>
   </g>
   <g id="patch_175">
    <path d="M 198.726839 465.838125 
L 199.223071 465.838125 
L 199.223071 465.83423 
L 198.726839 465.83423 
z
" clip-path="url(#p8b70d1f50c)" style="fill: #1f77b4"/>
   </g>
   <g id="patch_176">
    <path d="M 199.347129 465.838125 
L 199.84336 465.838125 
L 199.84336 465.83423 
L 199.347129 465.83423 
z
" clip-path="url(#p8b70d1f50c)" style="fill: #1f77b4"/>
   </g>
   <g id="patch_177">
    <path d="M 199.967418 465.838125 
L 200.46365 465.838125 
L 200.46365 465.830334 
L 199.967418 465.830334 
z
" clip-path="url(#p8b70d1f50c)" style="fill: #1f77b4"/>
   </g>
   <g id="patch_178">
    <path d="M 200.587708 465.838125 
L 201.083939 465.838125 
L 201.083939 465.83423 
L 200.587708 465.83423 
z
" clip-path="url(#p8b70d1f50c)" style="fill: #1f77b4"/>
   </g>
   <g id="patch_179">
    <path d="M 201.207997 465.838125 
L 201.704229 465.838125 
L 201.704229 465.83423 
L 201.207997 465.83423 
z
" clip-path="url(#p8b70d1f50c)" style="fill: #1f77b4"/>
   </g>
   <g id="patch_180">
    <path d="M 201.828287 465.838125 
L 202.324518 465.838125 
L 202.324518 465.83423 
L 201.828287 465.83423 
z
" clip-path="url(#p8b70d1f50c)" style="fill: #1f77b4"/>
   </g>
   <g id="patch_181">
    <path d="M 202.448576 465.838125 
L 202.944808 465.838125 
L 202.944808 465.83423 
L 202.448576 465.83423 
z
" clip-path="url(#p8b70d1f50c)" style="fill: #1f77b4"/>
   </g>
   <g id="patch_182">
    <path d="M 203.068866 465.838125 
L 203.565097 465.838125 
L 203.565097 465.83423 
L 203.068866 465.83423 
z
" clip-path="url(#p8b70d1f50c)" style="fill: #1f77b4"/>
   </g>
   <g id="patch_183">
    <path d="M 204.309445 465.838125 
L 204.805676 465.838125 
L 204.805676 465.822544 
L 204.309445 465.822544 
z
" clip-path="url(#p8b70d1f50c)" style="fill: #1f77b4"/>
   </g>
   <g id="patch_184">
    <path d="M 204.929734 465.838125 
L 205.425966 465.838125 
L 205.425966 465.818648 
L 204.929734 465.818648 
z
" clip-path="url(#p8b70d1f50c)" style="fill: #1f77b4"/>
   </g>
   <g id="patch_185">
    <path d="M 205.550024 465.838125 
L 206.046255 465.838125 
L 206.046255 465.830334 
L 205.550024 465.830334 
z
" clip-path="url(#p8b70d1f50c)" style="fill: #1f77b4"/>
   </g>
   <g id="patch_186">
    <path d="M 206.790602 465.838125 
L 207.286834 465.838125 
L 207.286834 465.83423 
L 206.790602 465.83423 
z
" clip-path="url(#p8b70d1f50c)" style="fill: #1f77b4"/>
   </g>
   <g id="patch_187">
    <path d="M 207.410892 465.838125 
L 207.907124 465.838125 
L 207.907124 465.83423 
L 207.410892 465.83423 
z
" clip-path="url(#p8b70d1f50c)" style="fill: #1f77b4"/>
   </g>
   <g id="patch_188">
    <path d="M 208.651471 465.838125 
L 209.147702 465.838125 
L 209.147702 465.822544 
L 208.651471 465.822544 
z
" clip-path="url(#p8b70d1f50c)" style="fill: #1f77b4"/>
   </g>
   <g id="patch_189">
    <path d="M 209.27176 465.838125 
L 209.767992 465.838125 
L 209.767992 465.83423 
L 209.27176 465.83423 
z
" clip-path="url(#p8b70d1f50c)" style="fill: #1f77b4"/>
   </g>
   <g id="patch_190">
    <path d="M 209.89205 465.838125 
L 210.388281 465.838125 
L 210.388281 465.822544 
L 209.89205 465.822544 
z
" clip-path="url(#p8b70d1f50c)" style="fill: #1f77b4"/>
   </g>
   <g id="patch_191">
    <path d="M 210.512339 465.838125 
L 211.008571 465.838125 
L 211.008571 465.830334 
L 210.512339 465.830334 
z
" clip-path="url(#p8b70d1f50c)" style="fill: #1f77b4"/>
   </g>
   <g id="patch_192">
    <path d="M 211.132629 465.838125 
L 211.62886 465.838125 
L 211.62886 465.830334 
L 211.132629 465.830334 
z
" clip-path="url(#p8b70d1f50c)" style="fill: #1f77b4"/>
   </g>
   <g id="patch_193">
    <path d="M 212.373208 465.838125 
L 212.869439 465.838125 
L 212.869439 465.83423 
L 212.373208 465.83423 
z
" clip-path="url(#p8b70d1f50c)" style="fill: #1f77b4"/>
   </g>
   <g id="patch_194">
    <path d="M 212.993497 465.838125 
L 213.489729 465.838125 
L 213.489729 465.830334 
L 212.993497 465.830334 
z
" clip-path="url(#p8b70d1f50c)" style="fill: #1f77b4"/>
   </g>
   <g id="patch_195">
    <path d="M 213.613787 465.838125 
L 214.110018 465.838125 
L 214.110018 465.83423 
L 213.613787 465.83423 
z
" clip-path="url(#p8b70d1f50c)" style="fill: #1f77b4"/>
   </g>
   <g id="patch_196">
    <path d="M 214.234076 465.838125 
L 214.730308 465.838125 
L 214.730308 465.826439 
L 214.234076 465.826439 
z
" clip-path="url(#p8b70d1f50c)" style="fill: #1f77b4"/>
   </g>
   <g id="patch_197">
    <path d="M 214.854366 465.838125 
L 215.350597 465.838125 
L 215.350597 465.830334 
L 214.854366 465.830334 
z
" clip-path="url(#p8b70d1f50c)" style="fill: #1f77b4"/>
   </g>
   <g id="patch_198">
    <path d="M 215.474655 465.838125 
L 215.970887 465.838125 
L 215.970887 465.830334 
L 215.474655 465.830334 
z
" clip-path="url(#p8b70d1f50c)" style="fill: #1f77b4"/>
   </g>
   <g id="patch_199">
    <path d="M 216.094945 465.838125 
L 216.591176 465.838125 
L 216.591176 465.83423 
L 216.094945 465.83423 
z
" clip-path="url(#p8b70d1f50c)" style="fill: #1f77b4"/>
   </g>
   <g id="patch_200">
    <path d="M 217.955813 465.838125 
L 218.452044 465.838125 
L 218.452044 465.83423 
L 217.955813 465.83423 
z
" clip-path="url(#p8b70d1f50c)" style="fill: #1f77b4"/>
   </g>
   <g id="patch_201">
    <path d="M 218.576102 465.838125 
L 219.072334 465.838125 
L 219.072334 465.83423 
L 218.576102 465.83423 
z
" clip-path="url(#p8b70d1f50c)" style="fill: #1f77b4"/>
   </g>
   <g id="patch_202">
    <path d="M 219.816681 465.838125 
L 220.312913 465.838125 
L 220.312913 465.822544 
L 219.816681 465.822544 
z
" clip-path="url(#p8b70d1f50c)" style="fill: #1f77b4"/>
   </g>
   <g id="patch_203">
    <path d="M 221.67755 465.838125 
L 222.173781 465.838125 
L 222.173781 465.83423 
L 221.67755 465.83423 
z
" clip-path="url(#p8b70d1f50c)" style="fill: #1f77b4"/>
   </g>
   <g id="patch_204">
    <path d="M 222.918129 465.838125 
L 223.41436 465.838125 
L 223.41436 465.83423 
L 222.918129 465.83423 
z
" clip-path="url(#p8b70d1f50c)" style="fill: #1f77b4"/>
   </g>
   <g id="patch_205">
    <path d="M 226.639865 465.838125 
L 227.136097 465.838125 
L 227.136097 465.83423 
L 226.639865 465.83423 
z
" clip-path="url(#p8b70d1f50c)" style="fill: #1f77b4"/>
   </g>
   <g id="patch_206">
    <path d="M 227.260155 465.838125 
L 227.756387 465.838125 
L 227.756387 465.83423 
L 227.260155 465.83423 
z
" clip-path="url(#p8b70d1f50c)" style="fill: #1f77b4"/>
   </g>
   <g id="patch_207">
    <path d="M 227.880444 465.838125 
L 228.376676 465.838125 
L 228.376676 465.826439 
L 227.880444 465.826439 
z
" clip-path="url(#p8b70d1f50c)" style="fill: #1f77b4"/>
   </g>
   <g id="patch_208">
    <path d="M 229.121023 465.838125 
L 229.617255 465.838125 
L 229.617255 465.83423 
L 229.121023 465.83423 
z
" clip-path="url(#p8b70d1f50c)" style="fill: #1f77b4"/>
   </g>
   <g id="patch_209">
    <path d="M 229.741313 465.838125 
L 230.237544 465.838125 
L 230.237544 465.83423 
L 229.741313 465.83423 
z
" clip-path="url(#p8b70d1f50c)" style="fill: #1f77b4"/>
   </g>
   <g id="patch_210">
    <path d="M 230.981892 465.838125 
L 231.478123 465.838125 
L 231.478123 465.830334 
L 230.981892 465.830334 
z
" clip-path="url(#p8b70d1f50c)" style="fill: #1f77b4"/>
   </g>
   <g id="patch_211">
    <path d="M 231.602181 465.838125 
L 232.098413 465.838125 
L 232.098413 465.83423 
L 231.602181 465.83423 
z
" clip-path="url(#p8b70d1f50c)" style="fill: #1f77b4"/>
   </g>
   <g id="patch_212">
    <path d="M 232.222471 465.838125 
L 232.718702 465.838125 
L 232.718702 465.83423 
L 232.222471 465.83423 
z
" clip-path="url(#p8b70d1f50c)" style="fill: #1f77b4"/>
   </g>
   <g id="patch_213">
    <path d="M 232.84276 465.838125 
L 233.338992 465.838125 
L 233.338992 465.83423 
L 232.84276 465.83423 
z
" clip-path="url(#p8b70d1f50c)" style="fill: #1f77b4"/>
   </g>
   <g id="patch_214">
    <path d="M 233.46305 465.838125 
L 233.959281 465.838125 
L 233.959281 465.83423 
L 233.46305 465.83423 
z
" clip-path="url(#p8b70d1f50c)" style="fill: #1f77b4"/>
   </g>
   <g id="patch_215">
    <path d="M 234.083339 465.838125 
L 234.579571 465.838125 
L 234.579571 465.83423 
L 234.083339 465.83423 
z
" clip-path="url(#p8b70d1f50c)" style="fill: #1f77b4"/>
   </g>
   <g id="patch_216">
    <path d="M 235.944208 465.838125 
L 236.440439 465.838125 
L 236.440439 465.830334 
L 235.944208 465.830334 
z
" clip-path="url(#p8b70d1f50c)" style="fill: #1f77b4"/>
   </g>
   <g id="patch_217">
    <path d="M 236.564497 465.838125 
L 237.060729 465.838125 
L 237.060729 465.830334 
L 236.564497 465.830334 
z
" clip-path="url(#p8b70d1f50c)" style="fill: #1f77b4"/>
   </g>
   <g id="patch_218">
    <path d="M 238.425365 465.838125 
L 238.921597 465.838125 
L 238.921597 465.830334 
L 238.425365 465.830334 
z
" clip-path="url(#p8b70d1f50c)" style="fill: #1f77b4"/>
   </g>
   <g id="patch_219">
    <path d="M 239.665944 465.838125 
L 240.162176 465.838125 
L 240.162176 465.83423 
L 239.665944 465.83423 
z
" clip-path="url(#p8b70d1f50c)" style="fill: #1f77b4"/>
   </g>
   <g id="patch_220">
    <path d="M 240.286234 465.838125 
L 240.782465 465.838125 
L 240.782465 465.83423 
L 240.286234 465.83423 
z
" clip-path="url(#p8b70d1f50c)" style="fill: #1f77b4"/>
   </g>
   <g id="patch_221">
    <path d="M 240.906523 465.838125 
L 241.402755 465.838125 
L 241.402755 465.83423 
L 240.906523 465.83423 
z
" clip-path="url(#p8b70d1f50c)" style="fill: #1f77b4"/>
   </g>
   <g id="patch_222">
    <path d="M 241.526813 465.838125 
L 242.023044 465.838125 
L 242.023044 465.83423 
L 241.526813 465.83423 
z
" clip-path="url(#p8b70d1f50c)" style="fill: #1f77b4"/>
   </g>
   <g id="patch_223">
    <path d="M 242.147102 465.838125 
L 242.643334 465.838125 
L 242.643334 465.83423 
L 242.147102 465.83423 
z
" clip-path="url(#p8b70d1f50c)" style="fill: #1f77b4"/>
   </g>
   <g id="patch_224">
    <path d="M 242.767392 465.838125 
L 243.263623 465.838125 
L 243.263623 465.83423 
L 242.767392 465.83423 
z
" clip-path="url(#p8b70d1f50c)" style="fill: #1f77b4"/>
   </g>
   <g id="patch_225">
    <path d="M 246.489128 465.838125 
L 246.98536 465.838125 
L 246.98536 465.826439 
L 246.489128 465.826439 
z
" clip-path="url(#p8b70d1f50c)" style="fill: #1f77b4"/>
   </g>
   <g id="patch_226">
    <path d="M 248.349997 465.838125 
L 248.846228 465.838125 
L 248.846228 465.83423 
L 248.349997 465.83423 
z
" clip-path="url(#p8b70d1f50c)" style="fill: #1f77b4"/>
   </g>
   <g id="patch_227">
    <path d="M 249.590576 465.838125 
L 250.086807 465.838125 
L 250.086807 465.83423 
L 249.590576 465.83423 
z
" clip-path="url(#p8b70d1f50c)" style="fill: #1f77b4"/>
   </g>
   <g id="patch_228">
    <path d="M 250.210865 465.838125 
L 250.707097 465.838125 
L 250.707097 465.83423 
L 250.210865 465.83423 
z
" clip-path="url(#p8b70d1f50c)" style="fill: #1f77b4"/>
   </g>
   <g id="patch_229">
    <path d="M 252.071734 465.838125 
L 252.567965 465.838125 
L 252.567965 465.830334 
L 252.071734 465.830334 
z
" clip-path="url(#p8b70d1f50c)" style="fill: #1f77b4"/>
   </g>
   <g id="patch_230">
    <path d="M 255.173181 465.838125 
L 255.669413 465.838125 
L 255.669413 465.83423 
L 255.173181 465.83423 
z
" clip-path="url(#p8b70d1f50c)" style="fill: #1f77b4"/>
   </g>
   <g id="patch_231">
    <path d="M 256.41376 465.838125 
L 256.909992 465.838125 
L 256.909992 465.83423 
L 256.41376 465.83423 
z
" clip-path="url(#p8b70d1f50c)" style="fill: #1f77b4"/>
   </g>
   <g id="patch_232">
    <path d="M 259.515207 465.838125 
L 260.011439 465.838125 
L 260.011439 465.83423 
L 259.515207 465.83423 
z
" clip-path="url(#p8b70d1f50c)" style="fill: #1f77b4"/>
   </g>
   <g id="patch_233">
    <path d="M 262.616655 465.838125 
L 263.112886 465.838125 
L 263.112886 465.826439 
L 262.616655 465.826439 
z
" clip-path="url(#p8b70d1f50c)" style="fill: #1f77b4"/>
   </g>
   <g id="patch_234">
    <path d="M 263.236944 465.838125 
L 263.733176 465.838125 
L 263.733176 465.83423 
L 263.236944 465.83423 
z
" clip-path="url(#p8b70d1f50c)" style="fill: #1f77b4"/>
   </g>
   <g id="patch_235">
    <path d="M 264.477523 465.838125 
L 264.973755 465.838125 
L 264.973755 465.830334 
L 264.477523 465.830334 
z
" clip-path="url(#p8b70d1f50c)" style="fill: #1f77b4"/>
   </g>
   <g id="patch_236">
    <path d="M 270.060128 465.838125 
L 270.55636 465.838125 
L 270.55636 465.83423 
L 270.060128 465.83423 
z
" clip-path="url(#p8b70d1f50c)" style="fill: #1f77b4"/>
   </g>
   <g id="patch_237">
    <path d="M 271.300707 465.838125 
L 271.796939 465.838125 
L 271.796939 465.83423 
L 271.300707 465.83423 
z
" clip-path="url(#p8b70d1f50c)" style="fill: #1f77b4"/>
   </g>
   <g id="patch_238">
    <path d="M 274.402155 465.838125 
L 274.898386 465.838125 
L 274.898386 465.83423 
L 274.402155 465.83423 
z
" clip-path="url(#p8b70d1f50c)" style="fill: #1f77b4"/>
   </g>
   <g id="patch_239">
    <path d="M 275.642733 465.838125 
L 276.138965 465.838125 
L 276.138965 465.83423 
L 275.642733 465.83423 
z
" clip-path="url(#p8b70d1f50c)" style="fill: #1f77b4"/>
   </g>
   <g id="patch_240">
    <path d="M 278.123891 465.838125 
L 278.620123 465.838125 
L 278.620123 465.830334 
L 278.123891 465.830334 
z
" clip-path="url(#p8b70d1f50c)" style="fill: #1f77b4"/>
   </g>
   <g id="patch_241">
    <path d="M 281.845628 465.838125 
L 282.34186 465.838125 
L 282.34186 465.830334 
L 281.845628 465.830334 
z
" clip-path="url(#p8b70d1f50c)" style="fill: #1f77b4"/>
   </g>
   <g id="patch_242">
    <path d="M 284.947076 465.838125 
L 285.443307 465.838125 
L 285.443307 465.83423 
L 284.947076 465.83423 
z
" clip-path="url(#p8b70d1f50c)" style="fill: #1f77b4"/>
   </g>
   <g id="patch_243">
    <path d="M 288.048523 465.838125 
L 288.544754 465.838125 
L 288.544754 465.83423 
L 288.048523 465.83423 
z
" clip-path="url(#p8b70d1f50c)" style="fill: #1f77b4"/>
   </g>
   <g id="patch_244">
    <path d="M 293.631128 465.838125 
L 294.12736 465.838125 
L 294.12736 465.83423 
L 293.631128 465.83423 
z
" clip-path="url(#p8b70d1f50c)" style="fill: #1f77b4"/>
   </g>
   <g id="patch_245">
    <path d="M 296.732575 465.838125 
L 297.228807 465.838125 
L 297.228807 465.83423 
L 296.732575 465.83423 
z
" clip-path="url(#p8b70d1f50c)" style="fill: #1f77b4"/>
   </g>
   <g id="patch_246">
    <path d="M 297.973154 465.838125 
L 298.469386 465.838125 
L 298.469386 465.83423 
L 297.973154 465.83423 
z
" clip-path="url(#p8b70d1f50c)" style="fill: #1f77b4"/>
   </g>
   <g id="patch_247">
    <path d="M 299.213733 465.838125 
L 299.709965 465.838125 
L 299.709965 465.83423 
L 299.213733 465.83423 
z
" clip-path="url(#p8b70d1f50c)" style="fill: #1f77b4"/>
   </g>
   <g id="patch_248">
    <path d="M 303.55576 465.838125 
L 304.051991 465.838125 
L 304.051991 465.83423 
L 303.55576 465.83423 
z
" clip-path="url(#p8b70d1f50c)" style="fill: #1f77b4"/>
   </g>
   <g id="patch_249">
    <path d="M 305.416628 465.838125 
L 305.91286 465.838125 
L 305.91286 465.83423 
L 305.416628 465.83423 
z
" clip-path="url(#p8b70d1f50c)" style="fill: #1f77b4"/>
   </g>
   <g id="patch_250">
    <path d="M 316.581838 465.838125 
L 317.07807 465.838125 
L 317.07807 465.83423 
L 316.581838 465.83423 
z
" clip-path="url(#p8b70d1f50c)" style="fill: #1f77b4"/>
   </g>
   <g id="patch_251">
    <path d="M 320.923865 465.838125 
L 321.420096 465.838125 
L 321.420096 465.83423 
L 320.923865 465.83423 
z
" clip-path="url(#p8b70d1f50c)" style="fill: #1f77b4"/>
   </g>
   <g id="patch_252">
    <path d="M 321.544154 465.838125 
L 322.040386 465.838125 
L 322.040386 465.83423 
L 321.544154 465.83423 
z
" clip-path="url(#p8b70d1f50c)" style="fill: #1f77b4"/>
   </g>
   <g id="patch_253">
    <path d="M 333.949944 465.838125 
L 334.446175 465.838125 
L 334.446175 465.83423 
L 333.949944 465.83423 
z
" clip-path="url(#p8b70d1f50c)" style="fill: #1f77b4"/>
   </g>
   <g id="patch_254">
    <path d="M 335.190522 465.838125 
L 335.686754 465.838125 
L 335.686754 465.83423 
L 335.190522 465.83423 
z
" clip-path="url(#p8b70d1f50c)" style="fill: #1f77b4"/>
   </g>
   <g id="patch_255">
    <path d="M 338.29197 465.838125 
L 338.788201 465.838125 
L 338.788201 465.830334 
L 338.29197 465.830334 
z
" clip-path="url(#p8b70d1f50c)" style="fill: #1f77b4"/>
   </g>
   <g id="patch_256">
    <path d="M 340.152838 465.838125 
L 340.64907 465.838125 
L 340.64907 465.83423 
L 340.152838 465.83423 
z
" clip-path="url(#p8b70d1f50c)" style="fill: #1f77b4"/>
   </g>
   <g id="patch_257">
    <path d="M 349.45718 465.838125 
L 349.953412 465.838125 
L 349.953412 465.83423 
L 349.45718 465.83423 
z
" clip-path="url(#p8b70d1f50c)" style="fill: #1f77b4"/>
   </g>
   <g id="patch_258">
    <path d="M 371.167312 465.838125 
L 371.663543 465.838125 
L 371.663543 465.83423 
L 371.167312 465.83423 
z
" clip-path="url(#p8b70d1f50c)" style="fill: #1f77b4"/>
   </g>
   <g id="patch_259">
    <path d="M 371.787601 465.838125 
L 372.283833 465.838125 
L 372.283833 465.83423 
L 371.787601 465.83423 
z
" clip-path="url(#p8b70d1f50c)" style="fill: #1f77b4"/>
   </g>
   <g id="patch_260">
    <path d="M 374.889048 465.838125 
L 375.38528 465.838125 
L 375.38528 465.83423 
L 374.889048 465.83423 
z
" clip-path="url(#p8b70d1f50c)" style="fill: #1f77b4"/>
   </g>
   <g id="patch_261">
    <path d="M 377.370206 465.838125 
L 377.866438 465.838125 
L 377.866438 465.83423 
L 377.370206 465.83423 
z
" clip-path="url(#p8b70d1f50c)" style="fill: #1f77b4"/>
   </g>
   <g id="patch_262">
    <path d="M 383.573101 465.838125 
L 384.069333 465.838125 
L 384.069333 465.830334 
L 383.573101 465.830334 
z
" clip-path="url(#p8b70d1f50c)" style="fill: #1f77b4"/>
   </g>
   <g id="patch_263">
    <path d="M 399.080338 465.838125 
L 399.576569 465.838125 
L 399.576569 465.83423 
L 399.080338 465.83423 
z
" clip-path="url(#p8b70d1f50c)" style="fill: #1f77b4"/>
   </g>
   <g id="patch_264">
    <path d="M 403.422364 465.838125 
L 403.918596 465.838125 
L 403.918596 465.83423 
L 403.422364 465.83423 
z
" clip-path="url(#p8b70d1f50c)" style="fill: #1f77b4"/>
   </g>
   <g id="patch_265">
    <path d="M 436.297706 465.838125 
L 436.793937 465.838125 
L 436.793937 465.83423 
L 436.297706 465.83423 
z
" clip-path="url(#p8b70d1f50c)" style="fill: #1f77b4"/>
   </g>
   <g id="patch_266">
    <path d="M 438.778864 465.838125 
L 439.275095 465.838125 
L 439.275095 465.83423 
L 438.778864 465.83423 
z
" clip-path="url(#p8b70d1f50c)" style="fill: #1f77b4"/>
   </g>
   <g id="patch_267">
    <path d="M 449.323785 465.838125 
L 449.820016 465.838125 
L 449.820016 465.83423 
L 449.323785 465.83423 
z
" clip-path="url(#p8b70d1f50c)" style="fill: #1f77b4"/>
   </g>
   <g id="patch_268">
    <path d="M 459.868706 465.838125 
L 460.364937 465.838125 
L 460.364937 465.83423 
L 459.868706 465.83423 
z
" clip-path="url(#p8b70d1f50c)" style="fill: #1f77b4"/>
   </g>
   <g id="patch_269">
    <path d="M 462.970153 465.838125 
L 463.466385 465.838125 
L 463.466385 465.83423 
L 462.970153 465.83423 
z
" clip-path="url(#p8b70d1f50c)" style="fill: #1f77b4"/>
   </g>
   <g id="patch_270">
    <path d="M 482.199126 465.838125 
L 482.695358 465.838125 
L 482.695358 465.83423 
L 482.199126 465.83423 
z
" clip-path="url(#p8b70d1f50c)" style="fill: #1f77b4"/>
   </g>
   <g id="patch_271">
    <path d="M 523.138231 465.838125 
L 523.634463 465.838125 
L 523.634463 465.83423 
L 523.138231 465.83423 
z
" clip-path="url(#p8b70d1f50c)" style="fill: #1f77b4"/>
   </g>
   <g id="patch_272">
    <path d="M 544.848363 465.838125 
L 545.344594 465.838125 
L 545.344594 465.83423 
L 544.848363 465.83423 
z
" clip-path="url(#p8b70d1f50c)" style="fill: #1f77b4"/>
   </g>
   <g id="patch_273">
    <path d="M 598.193257 465.838125 
L 598.689489 465.838125 
L 598.689489 465.83423 
L 598.193257 465.83423 
z
" clip-path="url(#p8b70d1f50c)" style="fill: #1f77b4"/>
   </g>
   <g id="matplotlib.axis_1">
    <g id="xtick_1">
     <g id="line2d_1">
      <defs>
       <path id="m7400ae155a" d="M 0 0 
L 0 3.5 
" style="stroke: #000000; stroke-width: 0.8"/>
      </defs>
      <g>
       <use xlink:href="#m7400ae155a" x="91.664877" y="465.838125" style="stroke: #000000; stroke-width: 0.8"/>
      </g>
     </g>
     <g id="text_1">
      <!-- 64 -->
      <g transform="translate(90.281725 483.080593) rotate(-50) scale(0.07 -0.07)">
       <defs>
        <path id="DejaVuSans-36" d="M 2113 2584 
Q 1688 2584 1439 2293 
Q 1191 2003 1191 1497 
Q 1191 994 1439 701 
Q 1688 409 2113 409 
Q 2538 409 2786 701 
Q 3034 994 3034 1497 
Q 3034 2003 2786 2293 
Q 2538 2584 2113 2584 
z
M 3366 4563 
L 3366 3988 
Q 3128 4100 2886 4159 
Q 2644 4219 2406 4219 
Q 1781 4219 1451 3797 
Q 1122 3375 1075 2522 
Q 1259 2794 1537 2939 
Q 1816 3084 2150 3084 
Q 2853 3084 3261 2657 
Q 3669 2231 3669 1497 
Q 3669 778 3244 343 
Q 2819 -91 2113 -91 
Q 1303 -91 875 529 
Q 447 1150 447 2328 
Q 447 3434 972 4092 
Q 1497 4750 2381 4750 
Q 2619 4750 2861 4703 
Q 3103 4656 3366 4563 
z
" transform="scale(0.015625)"/>
        <path id="DejaVuSans-34" d="M 2419 4116 
L 825 1625 
L 2419 1625 
L 2419 4116 
z
M 2253 4666 
L 3047 4666 
L 3047 1625 
L 3713 1625 
L 3713 1100 
L 3047 1100 
L 3047 0 
L 2419 0 
L 2419 1100 
L 313 1100 
L 313 1709 
L 2253 4666 
z
" transform="scale(0.015625)"/>
       </defs>
       <use xlink:href="#DejaVuSans-36"/>
       <use xlink:href="#DejaVuSans-34" x="63.623047"/>
      </g>
     </g>
    </g>
    <g id="xtick_2">
     <g id="line2d_2">
      <g>
       <use xlink:href="#m7400ae155a" x="153.693824" y="465.838125" style="stroke: #000000; stroke-width: 0.8"/>
      </g>
     </g>
     <g id="text_2">
      <!-- 164 -->
      <g transform="translate(150.879264 486.492363) rotate(-50) scale(0.07 -0.07)">
       <defs>
        <path id="DejaVuSans-31" d="M 794 531 
L 1825 531 
L 1825 4091 
L 703 3866 
L 703 4441 
L 1819 4666 
L 2450 4666 
L 2450 531 
L 3481 531 
L 3481 0 
L 794 0 
L 794 531 
z
" transform="scale(0.015625)"/>
       </defs>
       <use xlink:href="#DejaVuSans-31"/>
       <use xlink:href="#DejaVuSans-36" x="63.623047"/>
       <use xlink:href="#DejaVuSans-34" x="127.246094"/>
      </g>
     </g>
    </g>
    <g id="xtick_3">
     <g id="line2d_3">
      <g>
       <use xlink:href="#m7400ae155a" x="215.722771" y="465.838125" style="stroke: #000000; stroke-width: 0.8"/>
      </g>
     </g>
     <g id="text_3">
      <!-- 264 -->
      <g transform="translate(212.908211 486.492363) rotate(-50) scale(0.07 -0.07)">
       <defs>
        <path id="DejaVuSans-32" d="M 1228 531 
L 3431 531 
L 3431 0 
L 469 0 
L 469 531 
Q 828 903 1448 1529 
Q 2069 2156 2228 2338 
Q 2531 2678 2651 2914 
Q 2772 3150 2772 3378 
Q 2772 3750 2511 3984 
Q 2250 4219 1831 4219 
Q 1534 4219 1204 4116 
Q 875 4013 500 3803 
L 500 4441 
Q 881 4594 1212 4672 
Q 1544 4750 1819 4750 
Q 2544 4750 2975 4387 
Q 3406 4025 3406 3419 
Q 3406 3131 3298 2873 
Q 3191 2616 2906 2266 
Q 2828 2175 2409 1742 
Q 1991 1309 1228 531 
z
" transform="scale(0.015625)"/>
       </defs>
       <use xlink:href="#DejaVuSans-32"/>
       <use xlink:href="#DejaVuSans-36" x="63.623047"/>
       <use xlink:href="#DejaVuSans-34" x="127.246094"/>
      </g>
     </g>
    </g>
    <g id="xtick_4">
     <g id="line2d_4">
      <g>
       <use xlink:href="#m7400ae155a" x="277.751718" y="465.838125" style="stroke: #000000; stroke-width: 0.8"/>
      </g>
     </g>
     <g id="text_4">
      <!-- 364 -->
      <g transform="translate(274.937157 486.492363) rotate(-50) scale(0.07 -0.07)">
       <defs>
        <path id="DejaVuSans-33" d="M 2597 2516 
Q 3050 2419 3304 2112 
Q 3559 1806 3559 1356 
Q 3559 666 3084 287 
Q 2609 -91 1734 -91 
Q 1441 -91 1130 -33 
Q 819 25 488 141 
L 488 750 
Q 750 597 1062 519 
Q 1375 441 1716 441 
Q 2309 441 2620 675 
Q 2931 909 2931 1356 
Q 2931 1769 2642 2001 
Q 2353 2234 1838 2234 
L 1294 2234 
L 1294 2753 
L 1863 2753 
Q 2328 2753 2575 2939 
Q 2822 3125 2822 3475 
Q 2822 3834 2567 4026 
Q 2313 4219 1838 4219 
Q 1578 4219 1281 4162 
Q 984 4106 628 3988 
L 628 4550 
Q 988 4650 1302 4700 
Q 1616 4750 1894 4750 
Q 2613 4750 3031 4423 
Q 3450 4097 3450 3541 
Q 3450 3153 3228 2886 
Q 3006 2619 2597 2516 
z
" transform="scale(0.015625)"/>
       </defs>
       <use xlink:href="#DejaVuSans-33"/>
       <use xlink:href="#DejaVuSans-36" x="63.623047"/>
       <use xlink:href="#DejaVuSans-34" x="127.246094"/>
      </g>
     </g>
    </g>
    <g id="xtick_5">
     <g id="line2d_5">
      <g>
       <use xlink:href="#m7400ae155a" x="339.780665" y="465.838125" style="stroke: #000000; stroke-width: 0.8"/>
      </g>
     </g>
     <g id="text_5">
      <!-- 464 -->
      <g transform="translate(336.966104 486.492363) rotate(-50) scale(0.07 -0.07)">
       <use xlink:href="#DejaVuSans-34"/>
       <use xlink:href="#DejaVuSans-36" x="63.623047"/>
       <use xlink:href="#DejaVuSans-34" x="127.246094"/>
      </g>
     </g>
    </g>
    <g id="xtick_6">
     <g id="line2d_6">
      <g>
       <use xlink:href="#m7400ae155a" x="401.809611" y="465.838125" style="stroke: #000000; stroke-width: 0.8"/>
      </g>
     </g>
     <g id="text_6">
      <!-- 564 -->
      <g transform="translate(398.995051 486.492363) rotate(-50) scale(0.07 -0.07)">
       <defs>
        <path id="DejaVuSans-35" d="M 691 4666 
L 3169 4666 
L 3169 4134 
L 1269 4134 
L 1269 2991 
Q 1406 3038 1543 3061 
Q 1681 3084 1819 3084 
Q 2600 3084 3056 2656 
Q 3513 2228 3513 1497 
Q 3513 744 3044 326 
Q 2575 -91 1722 -91 
Q 1428 -91 1123 -41 
Q 819 9 494 109 
L 494 744 
Q 775 591 1075 516 
Q 1375 441 1709 441 
Q 2250 441 2565 725 
Q 2881 1009 2881 1497 
Q 2881 1984 2565 2268 
Q 2250 2553 1709 2553 
Q 1456 2553 1204 2497 
Q 953 2441 691 2322 
L 691 4666 
z
" transform="scale(0.015625)"/>
       </defs>
       <use xlink:href="#DejaVuSans-35"/>
       <use xlink:href="#DejaVuSans-36" x="63.623047"/>
       <use xlink:href="#DejaVuSans-34" x="127.246094"/>
      </g>
     </g>
    </g>
    <g id="xtick_7">
     <g id="line2d_7">
      <g>
       <use xlink:href="#m7400ae155a" x="463.838558" y="465.838125" style="stroke: #000000; stroke-width: 0.8"/>
      </g>
     </g>
     <g id="text_7">
      <!-- 664 -->
      <g transform="translate(461.023998 486.492363) rotate(-50) scale(0.07 -0.07)">
       <use xlink:href="#DejaVuSans-36"/>
       <use xlink:href="#DejaVuSans-36" x="63.623047"/>
       <use xlink:href="#DejaVuSans-34" x="127.246094"/>
      </g>
     </g>
    </g>
    <g id="xtick_8">
     <g id="line2d_8">
      <g>
       <use xlink:href="#m7400ae155a" x="525.867505" y="465.838125" style="stroke: #000000; stroke-width: 0.8"/>
      </g>
     </g>
     <g id="text_8">
      <!-- 764 -->
      <g transform="translate(523.052945 486.492363) rotate(-50) scale(0.07 -0.07)">
       <defs>
        <path id="DejaVuSans-37" d="M 525 4666 
L 3525 4666 
L 3525 4397 
L 1831 0 
L 1172 0 
L 2766 4134 
L 525 4134 
L 525 4666 
z
" transform="scale(0.015625)"/>
       </defs>
       <use xlink:href="#DejaVuSans-37"/>
       <use xlink:href="#DejaVuSans-36" x="63.623047"/>
       <use xlink:href="#DejaVuSans-34" x="127.246094"/>
      </g>
     </g>
    </g>
    <g id="xtick_9">
     <g id="line2d_9">
      <g>
       <use xlink:href="#m7400ae155a" x="587.896452" y="465.838125" style="stroke: #000000; stroke-width: 0.8"/>
      </g>
     </g>
     <g id="text_9">
      <!-- 864 -->
      <g transform="translate(585.081892 486.492363) rotate(-50) scale(0.07 -0.07)">
       <defs>
        <path id="DejaVuSans-38" d="M 2034 2216 
Q 1584 2216 1326 1975 
Q 1069 1734 1069 1313 
Q 1069 891 1326 650 
Q 1584 409 2034 409 
Q 2484 409 2743 651 
Q 3003 894 3003 1313 
Q 3003 1734 2745 1975 
Q 2488 2216 2034 2216 
z
M 1403 2484 
Q 997 2584 770 2862 
Q 544 3141 544 3541 
Q 544 4100 942 4425 
Q 1341 4750 2034 4750 
Q 2731 4750 3128 4425 
Q 3525 4100 3525 3541 
Q 3525 3141 3298 2862 
Q 3072 2584 2669 2484 
Q 3125 2378 3379 2068 
Q 3634 1759 3634 1313 
Q 3634 634 3220 271 
Q 2806 -91 2034 -91 
Q 1263 -91 848 271 
Q 434 634 434 1313 
Q 434 1759 690 2068 
Q 947 2378 1403 2484 
z
M 1172 3481 
Q 1172 3119 1398 2916 
Q 1625 2713 2034 2713 
Q 2441 2713 2670 2916 
Q 2900 3119 2900 3481 
Q 2900 3844 2670 4047 
Q 2441 4250 2034 4250 
Q 1625 4250 1398 4047 
Q 1172 3844 1172 3481 
z
" transform="scale(0.015625)"/>
       </defs>
       <use xlink:href="#DejaVuSans-38"/>
       <use xlink:href="#DejaVuSans-36" x="63.623047"/>
       <use xlink:href="#DejaVuSans-34" x="127.246094"/>
      </g>
     </g>
    </g>
    <g id="text_10">
     <!-- Latency (us) -->
     <g transform="translate(314.025 499.026559) scale(0.1 -0.1)">
      <defs>
       <path id="DejaVuSans-4c" d="M 628 4666 
L 1259 4666 
L 1259 531 
L 3531 531 
L 3531 0 
L 628 0 
L 628 4666 
z
" transform="scale(0.015625)"/>
       <path id="DejaVuSans-61" d="M 2194 1759 
Q 1497 1759 1228 1600 
Q 959 1441 959 1056 
Q 959 750 1161 570 
Q 1363 391 1709 391 
Q 2188 391 2477 730 
Q 2766 1069 2766 1631 
L 2766 1759 
L 2194 1759 
z
M 3341 1997 
L 3341 0 
L 2766 0 
L 2766 531 
Q 2569 213 2275 61 
Q 1981 -91 1556 -91 
Q 1019 -91 701 211 
Q 384 513 384 1019 
Q 384 1609 779 1909 
Q 1175 2209 1959 2209 
L 2766 2209 
L 2766 2266 
Q 2766 2663 2505 2880 
Q 2244 3097 1772 3097 
Q 1472 3097 1187 3025 
Q 903 2953 641 2809 
L 641 3341 
Q 956 3463 1253 3523 
Q 1550 3584 1831 3584 
Q 2591 3584 2966 3190 
Q 3341 2797 3341 1997 
z
" transform="scale(0.015625)"/>
       <path id="DejaVuSans-74" d="M 1172 4494 
L 1172 3500 
L 2356 3500 
L 2356 3053 
L 1172 3053 
L 1172 1153 
Q 1172 725 1289 603 
Q 1406 481 1766 481 
L 2356 481 
L 2356 0 
L 1766 0 
Q 1100 0 847 248 
Q 594 497 594 1153 
L 594 3053 
L 172 3053 
L 172 3500 
L 594 3500 
L 594 4494 
L 1172 4494 
z
" transform="scale(0.015625)"/>
       <path id="DejaVuSans-65" d="M 3597 1894 
L 3597 1613 
L 953 1613 
Q 991 1019 1311 708 
Q 1631 397 2203 397 
Q 2534 397 2845 478 
Q 3156 559 3463 722 
L 3463 178 
Q 3153 47 2828 -22 
Q 2503 -91 2169 -91 
Q 1331 -91 842 396 
Q 353 884 353 1716 
Q 353 2575 817 3079 
Q 1281 3584 2069 3584 
Q 2775 3584 3186 3129 
Q 3597 2675 3597 1894 
z
M 3022 2063 
Q 3016 2534 2758 2815 
Q 2500 3097 2075 3097 
Q 1594 3097 1305 2825 
Q 1016 2553 972 2059 
L 3022 2063 
z
" transform="scale(0.015625)"/>
       <path id="DejaVuSans-6e" d="M 3513 2113 
L 3513 0 
L 2938 0 
L 2938 2094 
Q 2938 2591 2744 2837 
Q 2550 3084 2163 3084 
Q 1697 3084 1428 2787 
Q 1159 2491 1159 1978 
L 1159 0 
L 581 0 
L 581 3500 
L 1159 3500 
L 1159 2956 
Q 1366 3272 1645 3428 
Q 1925 3584 2291 3584 
Q 2894 3584 3203 3211 
Q 3513 2838 3513 2113 
z
" transform="scale(0.015625)"/>
       <path id="DejaVuSans-63" d="M 3122 3366 
L 3122 2828 
Q 2878 2963 2633 3030 
Q 2388 3097 2138 3097 
Q 1578 3097 1268 2742 
Q 959 2388 959 1747 
Q 959 1106 1268 751 
Q 1578 397 2138 397 
Q 2388 397 2633 464 
Q 2878 531 3122 666 
L 3122 134 
Q 2881 22 2623 -34 
Q 2366 -91 2075 -91 
Q 1284 -91 818 406 
Q 353 903 353 1747 
Q 353 2603 823 3093 
Q 1294 3584 2113 3584 
Q 2378 3584 2631 3529 
Q 2884 3475 3122 3366 
z
" transform="scale(0.015625)"/>
       <path id="DejaVuSans-79" d="M 2059 -325 
Q 1816 -950 1584 -1140 
Q 1353 -1331 966 -1331 
L 506 -1331 
L 506 -850 
L 844 -850 
Q 1081 -850 1212 -737 
Q 1344 -625 1503 -206 
L 1606 56 
L 191 3500 
L 800 3500 
L 1894 763 
L 2988 3500 
L 3597 3500 
L 2059 -325 
z
" transform="scale(0.015625)"/>
       <path id="DejaVuSans-20" transform="scale(0.015625)"/>
       <path id="DejaVuSans-28" d="M 1984 4856 
Q 1566 4138 1362 3434 
Q 1159 2731 1159 2009 
Q 1159 1288 1364 580 
Q 1569 -128 1984 -844 
L 1484 -844 
Q 1016 -109 783 600 
Q 550 1309 550 2009 
Q 550 2706 781 3412 
Q 1013 4119 1484 4856 
L 1984 4856 
z
" transform="scale(0.015625)"/>
       <path id="DejaVuSans-75" d="M 544 1381 
L 544 3500 
L 1119 3500 
L 1119 1403 
Q 1119 906 1312 657 
Q 1506 409 1894 409 
Q 2359 409 2629 706 
Q 2900 1003 2900 1516 
L 2900 3500 
L 3475 3500 
L 3475 0 
L 2900 0 
L 2900 538 
Q 2691 219 2414 64 
Q 2138 -91 1772 -91 
Q 1169 -91 856 284 
Q 544 659 544 1381 
z
M 1991 3584 
L 1991 3584 
z
" transform="scale(0.015625)"/>
       <path id="DejaVuSans-73" d="M 2834 3397 
L 2834 2853 
Q 2591 2978 2328 3040 
Q 2066 3103 1784 3103 
Q 1356 3103 1142 2972 
Q 928 2841 928 2578 
Q 928 2378 1081 2264 
Q 1234 2150 1697 2047 
L 1894 2003 
Q 2506 1872 2764 1633 
Q 3022 1394 3022 966 
Q 3022 478 2636 193 
Q 2250 -91 1575 -91 
Q 1294 -91 989 -36 
Q 684 19 347 128 
L 347 722 
Q 666 556 975 473 
Q 1284 391 1588 391 
Q 1994 391 2212 530 
Q 2431 669 2431 922 
Q 2431 1156 2273 1281 
Q 2116 1406 1581 1522 
L 1381 1569 
Q 847 1681 609 1914 
Q 372 2147 372 2553 
Q 372 3047 722 3315 
Q 1072 3584 1716 3584 
Q 2034 3584 2315 3537 
Q 2597 3491 2834 3397 
z
" transform="scale(0.015625)"/>
       <path id="DejaVuSans-29" d="M 513 4856 
L 1013 4856 
Q 1481 4119 1714 3412 
Q 1947 2706 1947 2009 
Q 1947 1309 1714 600 
Q 1481 -109 1013 -844 
L 513 -844 
Q 928 -128 1133 580 
Q 1338 1288 1338 2009 
Q 1338 2731 1133 3434 
Q 928 4138 513 4856 
z
" transform="scale(0.015625)"/>
      </defs>
      <use xlink:href="#DejaVuSans-4c"/>
      <use xlink:href="#DejaVuSans-61" x="55.712891"/>
      <use xlink:href="#DejaVuSans-74" x="116.992188"/>
      <use xlink:href="#DejaVuSans-65" x="156.201172"/>
      <use xlink:href="#DejaVuSans-6e" x="217.724609"/>
      <use xlink:href="#DejaVuSans-63" x="281.103516"/>
      <use xlink:href="#DejaVuSans-79" x="336.083984"/>
      <use xlink:href="#DejaVuSans-20" x="395.263672"/>
      <use xlink:href="#DejaVuSans-28" x="427.050781"/>
      <use xlink:href="#DejaVuSans-75" x="466.064453"/>
      <use xlink:href="#DejaVuSans-73" x="529.443359"/>
      <use xlink:href="#DejaVuSans-29" x="581.542969"/>
     </g>
    </g>
   </g>
   <g id="matplotlib.axis_2">
    <g id="ytick_1">
     <g id="line2d_10">
      <defs>
       <path id="m945978f69f" d="M 0 0 
L -3.5 0 
" style="stroke: #000000; stroke-width: 0.8"/>
      </defs>
      <g>
       <use xlink:href="#m945978f69f" x="66.053125" y="465.838125" style="stroke: #000000; stroke-width: 0.8"/>
      </g>
     </g>
     <g id="text_11">
      <!-- 0 -->
      <g transform="translate(52.690625 469.637344) scale(0.1 -0.1)">
       <defs>
        <path id="DejaVuSans-30" d="M 2034 4250 
Q 1547 4250 1301 3770 
Q 1056 3291 1056 2328 
Q 1056 1369 1301 889 
Q 1547 409 2034 409 
Q 2525 409 2770 889 
Q 3016 1369 3016 2328 
Q 3016 3291 2770 3770 
Q 2525 4250 2034 4250 
z
M 2034 4750 
Q 2819 4750 3233 4129 
Q 3647 3509 3647 2328 
Q 3647 1150 3233 529 
Q 2819 -91 2034 -91 
Q 1250 -91 836 529 
Q 422 1150 422 2328 
Q 422 3509 836 4129 
Q 1250 4750 2034 4750 
z
" transform="scale(0.015625)"/>
       </defs>
       <use xlink:href="#DejaVuSans-30"/>
      </g>
     </g>
    </g>
    <g id="ytick_2">
     <g id="line2d_11">
      <g>
       <use xlink:href="#m945978f69f" x="66.053125" y="387.931856" style="stroke: #000000; stroke-width: 0.8"/>
      </g>
     </g>
     <g id="text_12">
      <!-- 20000 -->
      <g transform="translate(27.240625 391.731075) scale(0.1 -0.1)">
       <use xlink:href="#DejaVuSans-32"/>
       <use xlink:href="#DejaVuSans-30" x="63.623047"/>
       <use xlink:href="#DejaVuSans-30" x="127.246094"/>
       <use xlink:href="#DejaVuSans-30" x="190.869141"/>
       <use xlink:href="#DejaVuSans-30" x="254.492188"/>
      </g>
     </g>
    </g>
    <g id="ytick_3">
     <g id="line2d_12">
      <g>
       <use xlink:href="#m945978f69f" x="66.053125" y="310.025587" style="stroke: #000000; stroke-width: 0.8"/>
      </g>
     </g>
     <g id="text_13">
      <!-- 40000 -->
      <g transform="translate(27.240625 313.824806) scale(0.1 -0.1)">
       <use xlink:href="#DejaVuSans-34"/>
       <use xlink:href="#DejaVuSans-30" x="63.623047"/>
       <use xlink:href="#DejaVuSans-30" x="127.246094"/>
       <use xlink:href="#DejaVuSans-30" x="190.869141"/>
       <use xlink:href="#DejaVuSans-30" x="254.492188"/>
      </g>
     </g>
    </g>
    <g id="ytick_4">
     <g id="line2d_13">
      <g>
       <use xlink:href="#m945978f69f" x="66.053125" y="232.119318" style="stroke: #000000; stroke-width: 0.8"/>
      </g>
     </g>
     <g id="text_14">
      <!-- 60000 -->
      <g transform="translate(27.240625 235.918537) scale(0.1 -0.1)">
       <use xlink:href="#DejaVuSans-36"/>
       <use xlink:href="#DejaVuSans-30" x="63.623047"/>
       <use xlink:href="#DejaVuSans-30" x="127.246094"/>
       <use xlink:href="#DejaVuSans-30" x="190.869141"/>
       <use xlink:href="#DejaVuSans-30" x="254.492188"/>
      </g>
     </g>
    </g>
    <g id="ytick_5">
     <g id="line2d_14">
      <g>
       <use xlink:href="#m945978f69f" x="66.053125" y="154.213049" style="stroke: #000000; stroke-width: 0.8"/>
      </g>
     </g>
     <g id="text_15">
      <!-- 80000 -->
      <g transform="translate(27.240625 158.012268) scale(0.1 -0.1)">
       <use xlink:href="#DejaVuSans-38"/>
       <use xlink:href="#DejaVuSans-30" x="63.623047"/>
       <use xlink:href="#DejaVuSans-30" x="127.246094"/>
       <use xlink:href="#DejaVuSans-30" x="190.869141"/>
       <use xlink:href="#DejaVuSans-30" x="254.492188"/>
      </g>
     </g>
    </g>
    <g id="ytick_6">
     <g id="line2d_15">
      <g>
       <use xlink:href="#m945978f69f" x="66.053125" y="76.30678" style="stroke: #000000; stroke-width: 0.8"/>
      </g>
     </g>
     <g id="text_16">
      <!-- 100000 -->
      <g transform="translate(20.878125 80.105999) scale(0.1 -0.1)">
       <use xlink:href="#DejaVuSans-31"/>
       <use xlink:href="#DejaVuSans-30" x="63.623047"/>
       <use xlink:href="#DejaVuSans-30" x="127.246094"/>
       <use xlink:href="#DejaVuSans-30" x="190.869141"/>
       <use xlink:href="#DejaVuSans-30" x="254.492188"/>
       <use xlink:href="#DejaVuSans-30" x="318.115234"/>
      </g>
     </g>
    </g>
    <g id="text_17">
     <!-- Frequency -->
     <g transform="translate(14.798438 269.907812) rotate(-90) scale(0.1 -0.1)">
      <defs>
       <path id="DejaVuSans-46" d="M 628 4666 
L 3309 4666 
L 3309 4134 
L 1259 4134 
L 1259 2759 
L 3109 2759 
L 3109 2228 
L 1259 2228 
L 1259 0 
L 628 0 
L 628 4666 
z
" transform="scale(0.015625)"/>
       <path id="DejaVuSans-72" d="M 2631 2963 
Q 2534 3019 2420 3045 
Q 2306 3072 2169 3072 
Q 1681 3072 1420 2755 
Q 1159 2438 1159 1844 
L 1159 0 
L 581 0 
L 581 3500 
L 1159 3500 
L 1159 2956 
Q 1341 3275 1631 3429 
Q 1922 3584 2338 3584 
Q 2397 3584 2469 3576 
Q 2541 3569 2628 3553 
L 2631 2963 
z
" transform="scale(0.015625)"/>
       <path id="DejaVuSans-71" d="M 947 1747 
Q 947 1113 1208 752 
Q 1469 391 1925 391 
Q 2381 391 2643 752 
Q 2906 1113 2906 1747 
Q 2906 2381 2643 2742 
Q 2381 3103 1925 3103 
Q 1469 3103 1208 2742 
Q 947 2381 947 1747 
z
M 2906 525 
Q 2725 213 2448 61 
Q 2172 -91 1784 -91 
Q 1150 -91 751 415 
Q 353 922 353 1747 
Q 353 2572 751 3078 
Q 1150 3584 1784 3584 
Q 2172 3584 2448 3432 
Q 2725 3281 2906 2969 
L 2906 3500 
L 3481 3500 
L 3481 -1331 
L 2906 -1331 
L 2906 525 
z
" transform="scale(0.015625)"/>
      </defs>
      <use xlink:href="#DejaVuSans-46"/>
      <use xlink:href="#DejaVuSans-72" x="50.269531"/>
      <use xlink:href="#DejaVuSans-65" x="89.132812"/>
      <use xlink:href="#DejaVuSans-71" x="150.65625"/>
      <use xlink:href="#DejaVuSans-75" x="214.132812"/>
      <use xlink:href="#DejaVuSans-65" x="277.511719"/>
      <use xlink:href="#DejaVuSans-6e" x="339.035156"/>
      <use xlink:href="#DejaVuSans-63" x="402.414062"/>
      <use xlink:href="#DejaVuSans-79" x="457.394531"/>
     </g>
    </g>
   </g>
   <g id="patch_274">
    <path d="M 66.053125 465.838125 
L 66.053125 22.318125 
" style="fill: none; stroke: #000000; stroke-width: 0.8; stroke-linejoin: miter; stroke-linecap: square"/>
   </g>
   <g id="patch_275">
    <path d="M 624.053125 465.838125 
L 624.053125 22.318125 
" style="fill: none; stroke: #000000; stroke-width: 0.8; stroke-linejoin: miter; stroke-linecap: square"/>
   </g>
   <g id="patch_276">
    <path d="M 66.053125 465.838125 
L 624.053125 465.838125 
" style="fill: none; stroke: #000000; stroke-width: 0.8; stroke-linejoin: miter; stroke-linecap: square"/>
   </g>
   <g id="patch_277">
    <path d="M 66.053125 22.318125 
L 624.053125 22.318125 
" style="fill: none; stroke: #000000; stroke-width: 0.8; stroke-linejoin: miter; stroke-linecap: square"/>
   </g>
   <g id="text_18">
    <!-- Lagscope Frequency Table Bar Graph (70_to_122.json) 09-13-2023 16:16:49 -->
    <g transform="translate(116.317188 16.318125) scale(0.12 -0.12)">
     <defs>
      <path id="DejaVuSans-67" d="M 2906 1791 
Q 2906 2416 2648 2759 
Q 2391 3103 1925 3103 
Q 1463 3103 1205 2759 
Q 947 2416 947 1791 
Q 947 1169 1205 825 
Q 1463 481 1925 481 
Q 2391 481 2648 825 
Q 2906 1169 2906 1791 
z
M 3481 434 
Q 3481 -459 3084 -895 
Q 2688 -1331 1869 -1331 
Q 1566 -1331 1297 -1286 
Q 1028 -1241 775 -1147 
L 775 -588 
Q 1028 -725 1275 -790 
Q 1522 -856 1778 -856 
Q 2344 -856 2625 -561 
Q 2906 -266 2906 331 
L 2906 616 
Q 2728 306 2450 153 
Q 2172 0 1784 0 
Q 1141 0 747 490 
Q 353 981 353 1791 
Q 353 2603 747 3093 
Q 1141 3584 1784 3584 
Q 2172 3584 2450 3431 
Q 2728 3278 2906 2969 
L 2906 3500 
L 3481 3500 
L 3481 434 
z
" transform="scale(0.015625)"/>
      <path id="DejaVuSans-6f" d="M 1959 3097 
Q 1497 3097 1228 2736 
Q 959 2375 959 1747 
Q 959 1119 1226 758 
Q 1494 397 1959 397 
Q 2419 397 2687 759 
Q 2956 1122 2956 1747 
Q 2956 2369 2687 2733 
Q 2419 3097 1959 3097 
z
M 1959 3584 
Q 2709 3584 3137 3096 
Q 3566 2609 3566 1747 
Q 3566 888 3137 398 
Q 2709 -91 1959 -91 
Q 1206 -91 779 398 
Q 353 888 353 1747 
Q 353 2609 779 3096 
Q 1206 3584 1959 3584 
z
" transform="scale(0.015625)"/>
      <path id="DejaVuSans-70" d="M 1159 525 
L 1159 -1331 
L 581 -1331 
L 581 3500 
L 1159 3500 
L 1159 2969 
Q 1341 3281 1617 3432 
Q 1894 3584 2278 3584 
Q 2916 3584 3314 3078 
Q 3713 2572 3713 1747 
Q 3713 922 3314 415 
Q 2916 -91 2278 -91 
Q 1894 -91 1617 61 
Q 1341 213 1159 525 
z
M 3116 1747 
Q 3116 2381 2855 2742 
Q 2594 3103 2138 3103 
Q 1681 3103 1420 2742 
Q 1159 2381 1159 1747 
Q 1159 1113 1420 752 
Q 1681 391 2138 391 
Q 2594 391 2855 752 
Q 3116 1113 3116 1747 
z
" transform="scale(0.015625)"/>
      <path id="DejaVuSans-54" d="M -19 4666 
L 3928 4666 
L 3928 4134 
L 2272 4134 
L 2272 0 
L 1638 0 
L 1638 4134 
L -19 4134 
L -19 4666 
z
" transform="scale(0.015625)"/>
      <path id="DejaVuSans-62" d="M 3116 1747 
Q 3116 2381 2855 2742 
Q 2594 3103 2138 3103 
Q 1681 3103 1420 2742 
Q 1159 2381 1159 1747 
Q 1159 1113 1420 752 
Q 1681 391 2138 391 
Q 2594 391 2855 752 
Q 3116 1113 3116 1747 
z
M 1159 2969 
Q 1341 3281 1617 3432 
Q 1894 3584 2278 3584 
Q 2916 3584 3314 3078 
Q 3713 2572 3713 1747 
Q 3713 922 3314 415 
Q 2916 -91 2278 -91 
Q 1894 -91 1617 61 
Q 1341 213 1159 525 
L 1159 0 
L 581 0 
L 581 4863 
L 1159 4863 
L 1159 2969 
z
" transform="scale(0.015625)"/>
      <path id="DejaVuSans-6c" d="M 603 4863 
L 1178 4863 
L 1178 0 
L 603 0 
L 603 4863 
z
" transform="scale(0.015625)"/>
      <path id="DejaVuSans-42" d="M 1259 2228 
L 1259 519 
L 2272 519 
Q 2781 519 3026 730 
Q 3272 941 3272 1375 
Q 3272 1813 3026 2020 
Q 2781 2228 2272 2228 
L 1259 2228 
z
M 1259 4147 
L 1259 2741 
L 2194 2741 
Q 2656 2741 2882 2914 
Q 3109 3088 3109 3444 
Q 3109 3797 2882 3972 
Q 2656 4147 2194 4147 
L 1259 4147 
z
M 628 4666 
L 2241 4666 
Q 2963 4666 3353 4366 
Q 3744 4066 3744 3513 
Q 3744 3084 3544 2831 
Q 3344 2578 2956 2516 
Q 3422 2416 3680 2098 
Q 3938 1781 3938 1306 
Q 3938 681 3513 340 
Q 3088 0 2303 0 
L 628 0 
L 628 4666 
z
" transform="scale(0.015625)"/>
      <path id="DejaVuSans-47" d="M 3809 666 
L 3809 1919 
L 2778 1919 
L 2778 2438 
L 4434 2438 
L 4434 434 
Q 4069 175 3628 42 
Q 3188 -91 2688 -91 
Q 1594 -91 976 548 
Q 359 1188 359 2328 
Q 359 3472 976 4111 
Q 1594 4750 2688 4750 
Q 3144 4750 3555 4637 
Q 3966 4525 4313 4306 
L 4313 3634 
Q 3963 3931 3569 4081 
Q 3175 4231 2741 4231 
Q 1884 4231 1454 3753 
Q 1025 3275 1025 2328 
Q 1025 1384 1454 906 
Q 1884 428 2741 428 
Q 3075 428 3337 486 
Q 3600 544 3809 666 
z
" transform="scale(0.015625)"/>
      <path id="DejaVuSans-68" d="M 3513 2113 
L 3513 0 
L 2938 0 
L 2938 2094 
Q 2938 2591 2744 2837 
Q 2550 3084 2163 3084 
Q 1697 3084 1428 2787 
Q 1159 2491 1159 1978 
L 1159 0 
L 581 0 
L 581 4863 
L 1159 4863 
L 1159 2956 
Q 1366 3272 1645 3428 
Q 1925 3584 2291 3584 
Q 2894 3584 3203 3211 
Q 3513 2838 3513 2113 
z
" transform="scale(0.015625)"/>
      <path id="DejaVuSans-5f" d="M 3263 -1063 
L 3263 -1509 
L -63 -1509 
L -63 -1063 
L 3263 -1063 
z
" transform="scale(0.015625)"/>
      <path id="DejaVuSans-2e" d="M 684 794 
L 1344 794 
L 1344 0 
L 684 0 
L 684 794 
z
" transform="scale(0.015625)"/>
      <path id="DejaVuSans-6a" d="M 603 3500 
L 1178 3500 
L 1178 -63 
Q 1178 -731 923 -1031 
Q 669 -1331 103 -1331 
L -116 -1331 
L -116 -844 
L 38 -844 
Q 366 -844 484 -692 
Q 603 -541 603 -63 
L 603 3500 
z
M 603 4863 
L 1178 4863 
L 1178 4134 
L 603 4134 
L 603 4863 
z
" transform="scale(0.015625)"/>
      <path id="DejaVuSans-39" d="M 703 97 
L 703 672 
Q 941 559 1184 500 
Q 1428 441 1663 441 
Q 2288 441 2617 861 
Q 2947 1281 2994 2138 
Q 2813 1869 2534 1725 
Q 2256 1581 1919 1581 
Q 1219 1581 811 2004 
Q 403 2428 403 3163 
Q 403 3881 828 4315 
Q 1253 4750 1959 4750 
Q 2769 4750 3195 4129 
Q 3622 3509 3622 2328 
Q 3622 1225 3098 567 
Q 2575 -91 1691 -91 
Q 1453 -91 1209 -44 
Q 966 3 703 97 
z
M 1959 2075 
Q 2384 2075 2632 2365 
Q 2881 2656 2881 3163 
Q 2881 3666 2632 3958 
Q 2384 4250 1959 4250 
Q 1534 4250 1286 3958 
Q 1038 3666 1038 3163 
Q 1038 2656 1286 2365 
Q 1534 2075 1959 2075 
z
" transform="scale(0.015625)"/>
      <path id="DejaVuSans-2d" d="M 313 2009 
L 1997 2009 
L 1997 1497 
L 313 1497 
L 313 2009 
z
" transform="scale(0.015625)"/>
      <path id="DejaVuSans-3a" d="M 750 794 
L 1409 794 
L 1409 0 
L 750 0 
L 750 794 
z
M 750 3309 
L 1409 3309 
L 1409 2516 
L 750 2516 
L 750 3309 
z
" transform="scale(0.015625)"/>
     </defs>
     <use xlink:href="#DejaVuSans-4c"/>
     <use xlink:href="#DejaVuSans-61" x="55.712891"/>
     <use xlink:href="#DejaVuSans-67" x="116.992188"/>
     <use xlink:href="#DejaVuSans-73" x="180.46875"/>
     <use xlink:href="#DejaVuSans-63" x="232.568359"/>
     <use xlink:href="#DejaVuSans-6f" x="287.548828"/>
     <use xlink:href="#DejaVuSans-70" x="348.730469"/>
     <use xlink:href="#DejaVuSans-65" x="412.207031"/>
     <use xlink:href="#DejaVuSans-20" x="473.730469"/>
     <use xlink:href="#DejaVuSans-46" x="505.517578"/>
     <use xlink:href="#DejaVuSans-72" x="555.787109"/>
     <use xlink:href="#DejaVuSans-65" x="594.650391"/>
     <use xlink:href="#DejaVuSans-71" x="656.173828"/>
     <use xlink:href="#DejaVuSans-75" x="719.650391"/>
     <use xlink:href="#DejaVuSans-65" x="783.029297"/>
     <use xlink:href="#DejaVuSans-6e" x="844.552734"/>
     <use xlink:href="#DejaVuSans-63" x="907.931641"/>
     <use xlink:href="#DejaVuSans-79" x="962.912109"/>
     <use xlink:href="#DejaVuSans-20" x="1022.091797"/>
     <use xlink:href="#DejaVuSans-54" x="1053.878906"/>
     <use xlink:href="#DejaVuSans-61" x="1098.462891"/>
     <use xlink:href="#DejaVuSans-62" x="1159.742188"/>
     <use xlink:href="#DejaVuSans-6c" x="1223.21875"/>
     <use xlink:href="#DejaVuSans-65" x="1251.001953"/>
     <use xlink:href="#DejaVuSans-20" x="1312.525391"/>
     <use xlink:href="#DejaVuSans-42" x="1344.3125"/>
     <use xlink:href="#DejaVuSans-61" x="1412.916016"/>
     <use xlink:href="#DejaVuSans-72" x="1474.195312"/>
     <use xlink:href="#DejaVuSans-20" x="1515.308594"/>
     <use xlink:href="#DejaVuSans-47" x="1547.095703"/>
     <use xlink:href="#DejaVuSans-72" x="1624.585938"/>
     <use xlink:href="#DejaVuSans-61" x="1665.699219"/>
     <use xlink:href="#DejaVuSans-70" x="1726.978516"/>
     <use xlink:href="#DejaVuSans-68" x="1790.455078"/>
     <use xlink:href="#DejaVuSans-20" x="1853.833984"/>
     <use xlink:href="#DejaVuSans-28" x="1885.621094"/>
     <use xlink:href="#DejaVuSans-37" x="1924.634766"/>
     <use xlink:href="#DejaVuSans-30" x="1988.257812"/>
     <use xlink:href="#DejaVuSans-5f" x="2051.880859"/>
     <use xlink:href="#DejaVuSans-74" x="2101.880859"/>
     <use xlink:href="#DejaVuSans-6f" x="2141.089844"/>
     <use xlink:href="#DejaVuSans-5f" x="2202.271484"/>
     <use xlink:href="#DejaVuSans-31" x="2252.271484"/>
     <use xlink:href="#DejaVuSans-32" x="2315.894531"/>
     <use xlink:href="#DejaVuSans-32" x="2379.517578"/>
     <use xlink:href="#DejaVuSans-2e" x="2443.140625"/>
     <use xlink:href="#DejaVuSans-6a" x="2474.927734"/>
     <use xlink:href="#DejaVuSans-73" x="2502.710938"/>
     <use xlink:href="#DejaVuSans-6f" x="2554.810547"/>
     <use xlink:href="#DejaVuSans-6e" x="2615.992188"/>
     <use xlink:href="#DejaVuSans-29" x="2679.371094"/>
     <use xlink:href="#DejaVuSans-20" x="2718.384766"/>
     <use xlink:href="#DejaVuSans-30" x="2750.171875"/>
     <use xlink:href="#DejaVuSans-39" x="2813.794922"/>
     <use xlink:href="#DejaVuSans-2d" x="2877.417969"/>
     <use xlink:href="#DejaVuSans-31" x="2913.501953"/>
     <use xlink:href="#DejaVuSans-33" x="2977.125"/>
     <use xlink:href="#DejaVuSans-2d" x="3040.748047"/>
     <use xlink:href="#DejaVuSans-32" x="3076.832031"/>
     <use xlink:href="#DejaVuSans-30" x="3140.455078"/>
     <use xlink:href="#DejaVuSans-32" x="3204.078125"/>
     <use xlink:href="#DejaVuSans-33" x="3267.701172"/>
     <use xlink:href="#DejaVuSans-20" x="3331.324219"/>
     <use xlink:href="#DejaVuSans-31" x="3363.111328"/>
     <use xlink:href="#DejaVuSans-36" x="3426.734375"/>
     <use xlink:href="#DejaVuSans-3a" x="3490.357422"/>
     <use xlink:href="#DejaVuSans-31" x="3524.048828"/>
     <use xlink:href="#DejaVuSans-36" x="3587.671875"/>
     <use xlink:href="#DejaVuSans-3a" x="3651.294922"/>
     <use xlink:href="#DejaVuSans-34" x="3684.986328"/>
     <use xlink:href="#DejaVuSans-39" x="3748.609375"/>
    </g>
   </g>
  </g>
 </g>
 <defs>
  <clipPath id="p8b70d1f50c">
   <rect x="66.053125" y="22.318125" width="558" height="443.52"/>
  </clipPath>
 </defs>
</svg>
