<?xml version="1.0" encoding="utf-8" standalone="no"?>
<!DOCTYPE svg PUBLIC "-//W3C//DTD SVG 1.1//EN"
  "http://www.w3.org/Graphics/SVG/1.1/DTD/svg11.dtd">
<svg xmlns:xlink="http://www.w3.org/1999/xlink" width="624.890625pt" height="508.306247pt" viewBox="0 0 624.890625 508.306247" xmlns="http://www.w3.org/2000/svg" version="1.1">
 <metadata>
  <rdf:RDF xmlns:dc="http://purl.org/dc/elements/1.1/" xmlns:cc="http://creativecommons.org/ns#" xmlns:rdf="http://www.w3.org/1999/02/22-rdf-syntax-ns#">
   <cc:Work>
    <dc:type rdf:resource="http://purl.org/dc/dcmitype/StillImage"/>
    <dc:date>2023-09-13T15:43:08.442027</dc:date>
    <dc:format>image/svg+xml</dc:format>
    <dc:creator>
     <cc:Agent>
      <dc:title>Matplotlib v3.7.3, https://matplotlib.org/</dc:title>
     </cc:Agent>
    </dc:creator>
   </cc:Work>
  </rdf:RDF>
 </metadata>
 <defs>
  <style type="text/css">*{stroke-linejoin: round; stroke-linecap: butt}</style>
 </defs>
 <g id="figure_1">
  <g id="patch_1">
   <path d="M 0 508.306247 
L 624.890625 508.306247 
L 624.890625 0 
L 0 0 
z
" style="fill: #ffffff"/>
  </g>
  <g id="axes_1">
   <g id="patch_2">
    <path d="M 59.690625 465.838125 
L 617.690625 465.838125 
L 617.690625 22.318125 
L 59.690625 22.318125 
z
" style="fill: #ffffff"/>
   </g>
   <g id="patch_3">
    <path d="M 85.054261 465.838125 
L 85.651228 465.838125 
L 85.651228 465.76131 
L 85.054261 465.76131 
z
" clip-path="url(#p806c3fc8ee)" style="fill: #1f77b4"/>
   </g>
   <g id="patch_4">
    <path d="M 85.80047 465.838125 
L 86.397437 465.838125 
L 86.397437 463.425237 
L 85.80047 463.425237 
z
" clip-path="url(#p806c3fc8ee)" style="fill: #1f77b4"/>
   </g>
   <g id="patch_5">
    <path d="M 86.546679 465.838125 
L 87.143646 465.838125 
L 87.143646 451.677093 
L 86.546679 451.677093 
z
" clip-path="url(#p806c3fc8ee)" style="fill: #1f77b4"/>
   </g>
   <g id="patch_6">
    <path d="M 87.292888 465.838125 
L 87.889855 465.838125 
L 87.889855 434.99021 
L 87.292888 434.99021 
z
" clip-path="url(#p806c3fc8ee)" style="fill: #1f77b4"/>
   </g>
   <g id="patch_7">
    <path d="M 88.039096 465.838125 
L 88.636063 465.838125 
L 88.636063 418.253623 
L 88.039096 418.253623 
z
" clip-path="url(#p806c3fc8ee)" style="fill: #1f77b4"/>
   </g>
   <g id="patch_8">
    <path d="M 88.785305 465.838125 
L 89.382272 465.838125 
L 89.382272 379.096155 
L 88.785305 379.096155 
z
" clip-path="url(#p806c3fc8ee)" style="fill: #1f77b4"/>
   </g>
   <g id="patch_9">
    <path d="M 89.531514 465.838125 
L 90.128481 465.838125 
L 90.128481 310.252031 
L 89.531514 310.252031 
z
" clip-path="url(#p806c3fc8ee)" style="fill: #1f77b4"/>
   </g>
   <g id="patch_10">
    <path d="M 90.277723 465.838125 
L 90.87469 465.838125 
L 90.87469 251.646867 
L 90.277723 251.646867 
z
" clip-path="url(#p806c3fc8ee)" style="fill: #1f77b4"/>
   </g>
   <g id="patch_11">
    <path d="M 91.023932 465.838125 
L 91.620899 465.838125 
L 91.620899 200.949107 
L 91.023932 200.949107 
z
" clip-path="url(#p806c3fc8ee)" style="fill: #1f77b4"/>
   </g>
   <g id="patch_12">
    <path d="M 91.77014 465.838125 
L 92.367107 465.838125 
L 92.367107 121.608468 
L 91.77014 121.608468 
z
" clip-path="url(#p806c3fc8ee)" style="fill: #1f77b4"/>
   </g>
   <g id="patch_13">
    <path d="M 92.516349 465.838125 
L 93.113316 465.838125 
L 93.113316 60.364489 
L 92.516349 60.364489 
z
" clip-path="url(#p806c3fc8ee)" style="fill: #1f77b4"/>
   </g>
   <g id="patch_14">
    <path d="M 93.262558 465.838125 
L 93.859525 465.838125 
L 93.859525 43.438125 
L 93.262558 43.438125 
z
" clip-path="url(#p806c3fc8ee)" style="fill: #1f77b4"/>
   </g>
   <g id="patch_15">
    <path d="M 94.008767 465.838125 
L 94.605734 465.838125 
L 94.605734 53.216196 
L 94.008767 53.216196 
z
" clip-path="url(#p806c3fc8ee)" style="fill: #1f77b4"/>
   </g>
   <g id="patch_16">
    <path d="M 94.754975 465.838125 
L 95.351942 465.838125 
L 95.351942 91.275664 
L 94.754975 91.275664 
z
" clip-path="url(#p806c3fc8ee)" style="fill: #1f77b4"/>
   </g>
   <g id="patch_17">
    <path d="M 95.501184 465.838125 
L 96.098151 465.838125 
L 96.098151 140.762461 
L 95.501184 140.762461 
z
" clip-path="url(#p806c3fc8ee)" style="fill: #1f77b4"/>
   </g>
   <g id="patch_18">
    <path d="M 96.247393 465.838125 
L 96.84436 465.838125 
L 96.84436 202.625477 
L 96.247393 202.625477 
z
" clip-path="url(#p806c3fc8ee)" style="fill: #1f77b4"/>
   </g>
   <g id="patch_19">
    <path d="M 96.993602 465.838125 
L 97.590569 465.838125 
L 97.590569 257.963753 
L 96.993602 257.963753 
z
" clip-path="url(#p806c3fc8ee)" style="fill: #1f77b4"/>
   </g>
   <g id="patch_20">
    <path d="M 97.739811 465.838125 
L 98.336778 465.838125 
L 98.336778 304.409589 
L 97.739811 304.409589 
z
" clip-path="url(#p806c3fc8ee)" style="fill: #1f77b4"/>
   </g>
   <g id="patch_21">
    <path d="M 98.486019 465.838125 
L 99.082986 465.838125 
L 99.082986 339.672095 
L 98.486019 339.672095 
z
" clip-path="url(#p806c3fc8ee)" style="fill: #1f77b4"/>
   </g>
   <g id="patch_22">
    <path d="M 99.232228 465.838125 
L 99.829195 465.838125 
L 99.829195 368.748752 
L 99.232228 368.748752 
z
" clip-path="url(#p806c3fc8ee)" style="fill: #1f77b4"/>
   </g>
   <g id="patch_23">
    <path d="M 99.978437 465.838125 
L 100.575404 465.838125 
L 100.575404 389.326078 
L 99.978437 389.326078 
z
" clip-path="url(#p806c3fc8ee)" style="fill: #1f77b4"/>
   </g>
   <g id="patch_24">
    <path d="M 100.724646 465.838125 
L 101.321613 465.838125 
L 101.321613 406.523553 
L 100.724646 406.523553 
z
" clip-path="url(#p806c3fc8ee)" style="fill: #1f77b4"/>
   </g>
   <g id="patch_25">
    <path d="M 101.470854 465.838125 
L 102.067822 465.838125 
L 102.067822 417.987031 
L 101.470854 417.987031 
z
" clip-path="url(#p806c3fc8ee)" style="fill: #1f77b4"/>
   </g>
   <g id="patch_26">
    <path d="M 102.217063 465.838125 
L 102.81403 465.838125 
L 102.81403 426.386954 
L 102.217063 426.386954 
z
" clip-path="url(#p806c3fc8ee)" style="fill: #1f77b4"/>
   </g>
   <g id="patch_27">
    <path d="M 102.963272 465.838125 
L 103.560239 465.838125 
L 103.560239 433.919321 
L 102.963272 433.919321 
z
" clip-path="url(#p806c3fc8ee)" style="fill: #1f77b4"/>
   </g>
   <g id="patch_28">
    <path d="M 103.709481 465.838125 
L 104.306448 465.838125 
L 104.306448 438.844505 
L 103.709481 438.844505 
z
" clip-path="url(#p806c3fc8ee)" style="fill: #1f77b4"/>
   </g>
   <g id="patch_29">
    <path d="M 104.45569 465.838125 
L 105.052657 465.838125 
L 105.052657 443.0648 
L 104.45569 443.0648 
z
" clip-path="url(#p806c3fc8ee)" style="fill: #1f77b4"/>
   </g>
   <g id="patch_30">
    <path d="M 105.201898 465.838125 
L 105.798865 465.838125 
L 105.798865 446.309095 
L 105.201898 446.309095 
z
" clip-path="url(#p806c3fc8ee)" style="fill: #1f77b4"/>
   </g>
   <g id="patch_31">
    <path d="M 105.948107 465.838125 
L 106.545074 465.838125 
L 106.545074 449.06539 
L 105.948107 449.06539 
z
" clip-path="url(#p806c3fc8ee)" style="fill: #1f77b4"/>
   </g>
   <g id="patch_32">
    <path d="M 106.694316 465.838125 
L 107.291283 465.838125 
L 107.291283 450.434501 
L 106.694316 450.434501 
z
" clip-path="url(#p806c3fc8ee)" style="fill: #1f77b4"/>
   </g>
   <g id="patch_33">
    <path d="M 107.440525 465.838125 
L 108.037492 465.838125 
L 108.037492 452.400056 
L 107.440525 452.400056 
z
" clip-path="url(#p806c3fc8ee)" style="fill: #1f77b4"/>
   </g>
   <g id="patch_34">
    <path d="M 108.186733 465.838125 
L 108.783701 465.838125 
L 108.783701 453.502574 
L 108.186733 453.502574 
z
" clip-path="url(#p806c3fc8ee)" style="fill: #1f77b4"/>
   </g>
   <g id="patch_35">
    <path d="M 108.932942 465.838125 
L 109.529909 465.838125 
L 109.529909 455.061462 
L 108.932942 455.061462 
z
" clip-path="url(#p806c3fc8ee)" style="fill: #1f77b4"/>
   </g>
   <g id="patch_36">
    <path d="M 109.679151 465.838125 
L 110.276118 465.838125 
L 110.276118 455.477166 
L 109.679151 455.477166 
z
" clip-path="url(#p806c3fc8ee)" style="fill: #1f77b4"/>
   </g>
   <g id="patch_37">
    <path d="M 110.42536 465.838125 
L 111.022327 465.838125 
L 111.022327 456.950202 
L 110.42536 456.950202 
z
" clip-path="url(#p806c3fc8ee)" style="fill: #1f77b4"/>
   </g>
   <g id="patch_38">
    <path d="M 111.171569 465.838125 
L 111.768536 465.838125 
L 111.768536 457.59635 
L 111.171569 457.59635 
z
" clip-path="url(#p806c3fc8ee)" style="fill: #1f77b4"/>
   </g>
   <g id="patch_39">
    <path d="M 111.917777 465.838125 
L 112.514744 465.838125 
L 112.514744 458.341905 
L 111.917777 458.341905 
z
" clip-path="url(#p806c3fc8ee)" style="fill: #1f77b4"/>
   </g>
   <g id="patch_40">
    <path d="M 112.663986 465.838125 
L 113.260953 465.838125 
L 113.260953 458.721461 
L 112.663986 458.721461 
z
" clip-path="url(#p806c3fc8ee)" style="fill: #1f77b4"/>
   </g>
   <g id="patch_41">
    <path d="M 113.410195 465.838125 
L 114.007162 465.838125 
L 114.007162 459.11909 
L 113.410195 459.11909 
z
" clip-path="url(#p806c3fc8ee)" style="fill: #1f77b4"/>
   </g>
   <g id="patch_42">
    <path d="M 114.156404 465.838125 
L 114.753371 465.838125 
L 114.753371 459.923386 
L 114.156404 459.923386 
z
" clip-path="url(#p806c3fc8ee)" style="fill: #1f77b4"/>
   </g>
   <g id="patch_43">
    <path d="M 114.902612 465.838125 
L 115.49958 465.838125 
L 115.49958 460.135757 
L 114.902612 460.135757 
z
" clip-path="url(#p806c3fc8ee)" style="fill: #1f77b4"/>
   </g>
   <g id="patch_44">
    <path d="M 115.648821 465.838125 
L 116.245788 465.838125 
L 116.245788 460.474645 
L 115.648821 460.474645 
z
" clip-path="url(#p806c3fc8ee)" style="fill: #1f77b4"/>
   </g>
   <g id="patch_45">
    <path d="M 116.39503 465.838125 
L 116.991997 465.838125 
L 116.991997 460.863238 
L 116.39503 460.863238 
z
" clip-path="url(#p806c3fc8ee)" style="fill: #1f77b4"/>
   </g>
   <g id="patch_46">
    <path d="M 117.141239 465.838125 
L 117.738206 465.838125 
L 117.738206 461.080127 
L 117.141239 461.080127 
z
" clip-path="url(#p806c3fc8ee)" style="fill: #1f77b4"/>
   </g>
   <g id="patch_47">
    <path d="M 117.887448 465.838125 
L 118.484415 465.838125 
L 118.484415 461.400941 
L 117.887448 461.400941 
z
" clip-path="url(#p806c3fc8ee)" style="fill: #1f77b4"/>
   </g>
   <g id="patch_48">
    <path d="M 118.633656 465.838125 
L 119.230623 465.838125 
L 119.230623 462.006423 
L 118.633656 462.006423 
z
" clip-path="url(#p806c3fc8ee)" style="fill: #1f77b4"/>
   </g>
   <g id="patch_49">
    <path d="M 119.379865 465.838125 
L 119.976832 465.838125 
L 119.976832 462.191682 
L 119.379865 462.191682 
z
" clip-path="url(#p806c3fc8ee)" style="fill: #1f77b4"/>
   </g>
   <g id="patch_50">
    <path d="M 120.126074 465.838125 
L 120.723041 465.838125 
L 120.723041 462.336274 
L 120.126074 462.336274 
z
" clip-path="url(#p806c3fc8ee)" style="fill: #1f77b4"/>
   </g>
   <g id="patch_51">
    <path d="M 120.872283 465.838125 
L 121.46925 465.838125 
L 121.46925 462.449237 
L 120.872283 462.449237 
z
" clip-path="url(#p806c3fc8ee)" style="fill: #1f77b4"/>
   </g>
   <g id="patch_52">
    <path d="M 121.618491 465.838125 
L 122.215459 465.838125 
L 122.215459 462.620941 
L 121.618491 462.620941 
z
" clip-path="url(#p806c3fc8ee)" style="fill: #1f77b4"/>
   </g>
   <g id="patch_53">
    <path d="M 122.3647 465.838125 
L 122.961667 465.838125 
L 122.961667 462.779089 
L 122.3647 462.779089 
z
" clip-path="url(#p806c3fc8ee)" style="fill: #1f77b4"/>
   </g>
   <g id="patch_54">
    <path d="M 123.110909 465.838125 
L 123.707876 465.838125 
L 123.707876 462.973385 
L 123.110909 462.973385 
z
" clip-path="url(#p806c3fc8ee)" style="fill: #1f77b4"/>
   </g>
   <g id="patch_55">
    <path d="M 123.857118 465.838125 
L 124.454085 465.838125 
L 124.454085 463.289681 
L 123.857118 463.289681 
z
" clip-path="url(#p806c3fc8ee)" style="fill: #1f77b4"/>
   </g>
   <g id="patch_56">
    <path d="M 124.603327 465.838125 
L 125.200294 465.838125 
L 125.200294 463.212867 
L 124.603327 463.212867 
z
" clip-path="url(#p806c3fc8ee)" style="fill: #1f77b4"/>
   </g>
   <g id="patch_57">
    <path d="M 125.349535 465.838125 
L 125.946502 465.838125 
L 125.946502 463.253533 
L 125.349535 463.253533 
z
" clip-path="url(#p806c3fc8ee)" style="fill: #1f77b4"/>
   </g>
   <g id="patch_58">
    <path d="M 126.095744 465.838125 
L 126.692711 465.838125 
L 126.692711 463.352941 
L 126.095744 463.352941 
z
" clip-path="url(#p806c3fc8ee)" style="fill: #1f77b4"/>
   </g>
   <g id="patch_59">
    <path d="M 126.841953 465.838125 
L 127.43892 465.838125 
L 127.43892 463.479459 
L 126.841953 463.479459 
z
" clip-path="url(#p806c3fc8ee)" style="fill: #1f77b4"/>
   </g>
   <g id="patch_60">
    <path d="M 127.588162 465.838125 
L 128.185129 465.838125 
L 128.185129 463.714422 
L 127.588162 463.714422 
z
" clip-path="url(#p806c3fc8ee)" style="fill: #1f77b4"/>
   </g>
   <g id="patch_61">
    <path d="M 128.33437 465.838125 
L 128.931338 465.838125 
L 128.931338 463.791237 
L 128.33437 463.791237 
z
" clip-path="url(#p806c3fc8ee)" style="fill: #1f77b4"/>
   </g>
   <g id="patch_62">
    <path d="M 129.080579 465.838125 
L 129.677546 465.838125 
L 129.677546 463.727978 
L 129.080579 463.727978 
z
" clip-path="url(#p806c3fc8ee)" style="fill: #1f77b4"/>
   </g>
   <g id="patch_63">
    <path d="M 129.826788 465.838125 
L 130.423755 465.838125 
L 130.423755 463.890644 
L 129.826788 463.890644 
z
" clip-path="url(#p806c3fc8ee)" style="fill: #1f77b4"/>
   </g>
   <g id="patch_64">
    <path d="M 130.572997 465.838125 
L 131.169964 465.838125 
L 131.169964 463.868052 
L 130.572997 463.868052 
z
" clip-path="url(#p806c3fc8ee)" style="fill: #1f77b4"/>
   </g>
   <g id="patch_65">
    <path d="M 131.319206 465.838125 
L 131.916173 465.838125 
L 131.916173 464.1482 
L 131.319206 464.1482 
z
" clip-path="url(#p806c3fc8ee)" style="fill: #1f77b4"/>
   </g>
   <g id="patch_66">
    <path d="M 132.065414 465.838125 
L 132.662381 465.838125 
L 132.662381 464.134644 
L 132.065414 464.134644 
z
" clip-path="url(#p806c3fc8ee)" style="fill: #1f77b4"/>
   </g>
   <g id="patch_67">
    <path d="M 132.811623 465.838125 
L 133.40859 465.838125 
L 133.40859 464.225014 
L 132.811623 464.225014 
z
" clip-path="url(#p806c3fc8ee)" style="fill: #1f77b4"/>
   </g>
   <g id="patch_68">
    <path d="M 133.557832 465.838125 
L 134.154799 465.838125 
L 134.154799 464.23857 
L 133.557832 464.23857 
z
" clip-path="url(#p806c3fc8ee)" style="fill: #1f77b4"/>
   </g>
   <g id="patch_69">
    <path d="M 134.304041 465.838125 
L 134.901008 465.838125 
L 134.901008 464.324422 
L 134.304041 464.324422 
z
" clip-path="url(#p806c3fc8ee)" style="fill: #1f77b4"/>
   </g>
   <g id="patch_70">
    <path d="M 135.050249 465.838125 
L 135.647217 465.838125 
L 135.647217 464.550348 
L 135.050249 464.550348 
z
" clip-path="url(#p806c3fc8ee)" style="fill: #1f77b4"/>
   </g>
   <g id="patch_71">
    <path d="M 135.796458 465.838125 
L 136.393425 465.838125 
L 136.393425 464.532274 
L 135.796458 464.532274 
z
" clip-path="url(#p806c3fc8ee)" style="fill: #1f77b4"/>
   </g>
   <g id="patch_72">
    <path d="M 136.542667 465.838125 
L 137.139634 465.838125 
L 137.139634 464.645237 
L 136.542667 464.645237 
z
" clip-path="url(#p806c3fc8ee)" style="fill: #1f77b4"/>
   </g>
   <g id="patch_73">
    <path d="M 137.288876 465.838125 
L 137.885843 465.838125 
L 137.885843 464.72657 
L 137.288876 464.72657 
z
" clip-path="url(#p806c3fc8ee)" style="fill: #1f77b4"/>
   </g>
   <g id="patch_74">
    <path d="M 138.035085 465.838125 
L 138.632052 465.838125 
L 138.632052 464.681385 
L 138.035085 464.681385 
z
" clip-path="url(#p806c3fc8ee)" style="fill: #1f77b4"/>
   </g>
   <g id="patch_75">
    <path d="M 138.781293 465.838125 
L 139.37826 465.838125 
L 139.37826 464.749162 
L 138.781293 464.749162 
z
" clip-path="url(#p806c3fc8ee)" style="fill: #1f77b4"/>
   </g>
   <g id="patch_76">
    <path d="M 139.527502 465.838125 
L 140.124469 465.838125 
L 140.124469 464.866644 
L 139.527502 464.866644 
z
" clip-path="url(#p806c3fc8ee)" style="fill: #1f77b4"/>
   </g>
   <g id="patch_77">
    <path d="M 140.273711 465.838125 
L 140.870678 465.838125 
L 140.870678 464.907311 
L 140.273711 464.907311 
z
" clip-path="url(#p806c3fc8ee)" style="fill: #1f77b4"/>
   </g>
   <g id="patch_78">
    <path d="M 141.01992 465.838125 
L 141.616887 465.838125 
L 141.616887 465.015755 
L 141.01992 465.015755 
z
" clip-path="url(#p806c3fc8ee)" style="fill: #1f77b4"/>
   </g>
   <g id="patch_79">
    <path d="M 141.766128 465.838125 
L 142.363096 465.838125 
L 142.363096 465.069977 
L 141.766128 465.069977 
z
" clip-path="url(#p806c3fc8ee)" style="fill: #1f77b4"/>
   </g>
   <g id="patch_80">
    <path d="M 142.512337 465.838125 
L 143.109304 465.838125 
L 143.109304 465.02931 
L 142.512337 465.02931 
z
" clip-path="url(#p806c3fc8ee)" style="fill: #1f77b4"/>
   </g>
   <g id="patch_81">
    <path d="M 143.258546 465.838125 
L 143.855513 465.838125 
L 143.855513 465.065459 
L 143.258546 465.065459 
z
" clip-path="url(#p806c3fc8ee)" style="fill: #1f77b4"/>
   </g>
   <g id="patch_82">
    <path d="M 144.004755 465.838125 
L 144.601722 465.838125 
L 144.601722 465.011236 
L 144.004755 465.011236 
z
" clip-path="url(#p806c3fc8ee)" style="fill: #1f77b4"/>
   </g>
   <g id="patch_83">
    <path d="M 144.750964 465.838125 
L 145.347931 465.838125 
L 145.347931 465.196496 
L 144.750964 465.196496 
z
" clip-path="url(#p806c3fc8ee)" style="fill: #1f77b4"/>
   </g>
   <g id="patch_84">
    <path d="M 145.497172 465.838125 
L 146.094139 465.838125 
L 146.094139 465.137755 
L 145.497172 465.137755 
z
" clip-path="url(#p806c3fc8ee)" style="fill: #1f77b4"/>
   </g>
   <g id="patch_85">
    <path d="M 146.243381 465.838125 
L 146.840348 465.838125 
L 146.840348 465.268792 
L 146.243381 465.268792 
z
" clip-path="url(#p806c3fc8ee)" style="fill: #1f77b4"/>
   </g>
   <g id="patch_86">
    <path d="M 146.98959 465.838125 
L 147.586557 465.838125 
L 147.586557 465.27331 
L 146.98959 465.27331 
z
" clip-path="url(#p806c3fc8ee)" style="fill: #1f77b4"/>
   </g>
   <g id="patch_87">
    <path d="M 147.735799 465.838125 
L 148.332766 465.838125 
L 148.332766 465.205533 
L 147.735799 465.205533 
z
" clip-path="url(#p806c3fc8ee)" style="fill: #1f77b4"/>
   </g>
   <g id="patch_88">
    <path d="M 148.482007 465.838125 
L 149.078975 465.838125 
L 149.078975 465.241681 
L 148.482007 465.241681 
z
" clip-path="url(#p806c3fc8ee)" style="fill: #1f77b4"/>
   </g>
   <g id="patch_89">
    <path d="M 149.228216 465.838125 
L 149.825183 465.838125 
L 149.825183 465.33657 
L 149.228216 465.33657 
z
" clip-path="url(#p806c3fc8ee)" style="fill: #1f77b4"/>
   </g>
   <g id="patch_90">
    <path d="M 149.974425 465.838125 
L 150.571392 465.838125 
L 150.571392 465.30494 
L 149.974425 465.30494 
z
" clip-path="url(#p806c3fc8ee)" style="fill: #1f77b4"/>
   </g>
   <g id="patch_91">
    <path d="M 150.720634 465.838125 
L 151.317601 465.838125 
L 151.317601 465.39531 
L 150.720634 465.39531 
z
" clip-path="url(#p806c3fc8ee)" style="fill: #1f77b4"/>
   </g>
   <g id="patch_92">
    <path d="M 151.466843 465.838125 
L 152.06381 465.838125 
L 152.06381 465.404347 
L 151.466843 465.404347 
z
" clip-path="url(#p806c3fc8ee)" style="fill: #1f77b4"/>
   </g>
   <g id="patch_93">
    <path d="M 152.213051 465.838125 
L 152.810018 465.838125 
L 152.810018 465.309459 
L 152.213051 465.309459 
z
" clip-path="url(#p806c3fc8ee)" style="fill: #1f77b4"/>
   </g>
   <g id="patch_94">
    <path d="M 152.95926 465.838125 
L 153.556227 465.838125 
L 153.556227 465.354644 
L 152.95926 465.354644 
z
" clip-path="url(#p806c3fc8ee)" style="fill: #1f77b4"/>
   </g>
   <g id="patch_95">
    <path d="M 153.705469 465.838125 
L 154.302436 465.838125 
L 154.302436 465.422421 
L 153.705469 465.422421 
z
" clip-path="url(#p806c3fc8ee)" style="fill: #1f77b4"/>
   </g>
   <g id="patch_96">
    <path d="M 154.451678 465.838125 
L 155.048645 465.838125 
L 155.048645 465.454051 
L 154.451678 465.454051 
z
" clip-path="url(#p806c3fc8ee)" style="fill: #1f77b4"/>
   </g>
   <g id="patch_97">
    <path d="M 155.197886 465.838125 
L 155.794854 465.838125 
L 155.794854 465.422421 
L 155.197886 465.422421 
z
" clip-path="url(#p806c3fc8ee)" style="fill: #1f77b4"/>
   </g>
   <g id="patch_98">
    <path d="M 155.944095 465.838125 
L 156.541062 465.838125 
L 156.541062 465.341088 
L 155.944095 465.341088 
z
" clip-path="url(#p806c3fc8ee)" style="fill: #1f77b4"/>
   </g>
   <g id="patch_99">
    <path d="M 156.690304 465.838125 
L 157.287271 465.838125 
L 157.287271 465.404347 
L 156.690304 465.404347 
z
" clip-path="url(#p806c3fc8ee)" style="fill: #1f77b4"/>
   </g>
   <g id="patch_100">
    <path d="M 157.436513 465.838125 
L 158.03348 465.838125 
L 158.03348 465.499236 
L 157.436513 465.499236 
z
" clip-path="url(#p806c3fc8ee)" style="fill: #1f77b4"/>
   </g>
   <g id="patch_101">
    <path d="M 158.182722 465.838125 
L 158.779689 465.838125 
L 158.779689 465.481162 
L 158.182722 465.481162 
z
" clip-path="url(#p806c3fc8ee)" style="fill: #1f77b4"/>
   </g>
   <g id="patch_102">
    <path d="M 158.92893 465.838125 
L 159.525897 465.838125 
L 159.525897 465.476644 
L 158.92893 465.476644 
z
" clip-path="url(#p806c3fc8ee)" style="fill: #1f77b4"/>
   </g>
   <g id="patch_103">
    <path d="M 159.675139 465.838125 
L 160.272106 465.838125 
L 160.272106 465.544421 
L 159.675139 465.544421 
z
" clip-path="url(#p806c3fc8ee)" style="fill: #1f77b4"/>
   </g>
   <g id="patch_104">
    <path d="M 160.421348 465.838125 
L 161.018315 465.838125 
L 161.018315 465.526347 
L 160.421348 465.526347 
z
" clip-path="url(#p806c3fc8ee)" style="fill: #1f77b4"/>
   </g>
   <g id="patch_105">
    <path d="M 161.167557 465.838125 
L 161.764524 465.838125 
L 161.764524 465.553458 
L 161.167557 465.553458 
z
" clip-path="url(#p806c3fc8ee)" style="fill: #1f77b4"/>
   </g>
   <g id="patch_106">
    <path d="M 161.913765 465.838125 
L 162.510733 465.838125 
L 162.510733 465.544421 
L 161.913765 465.544421 
z
" clip-path="url(#p806c3fc8ee)" style="fill: #1f77b4"/>
   </g>
   <g id="patch_107">
    <path d="M 162.659974 465.838125 
L 163.256941 465.838125 
L 163.256941 465.467607 
L 162.659974 465.467607 
z
" clip-path="url(#p806c3fc8ee)" style="fill: #1f77b4"/>
   </g>
   <g id="patch_108">
    <path d="M 163.406183 465.838125 
L 164.00315 465.838125 
L 164.00315 465.544421 
L 163.406183 465.544421 
z
" clip-path="url(#p806c3fc8ee)" style="fill: #1f77b4"/>
   </g>
   <g id="patch_109">
    <path d="M 164.152392 465.838125 
L 164.749359 465.838125 
L 164.749359 465.512792 
L 164.152392 465.512792 
z
" clip-path="url(#p806c3fc8ee)" style="fill: #1f77b4"/>
   </g>
   <g id="patch_110">
    <path d="M 164.898601 465.838125 
L 165.495568 465.838125 
L 165.495568 465.598644 
L 164.898601 465.598644 
z
" clip-path="url(#p806c3fc8ee)" style="fill: #1f77b4"/>
   </g>
   <g id="patch_111">
    <path d="M 165.644809 465.838125 
L 166.241776 465.838125 
L 166.241776 465.512792 
L 165.644809 465.512792 
z
" clip-path="url(#p806c3fc8ee)" style="fill: #1f77b4"/>
   </g>
   <g id="patch_112">
    <path d="M 166.391018 465.838125 
L 166.987985 465.838125 
L 166.987985 465.585088 
L 166.391018 465.585088 
z
" clip-path="url(#p806c3fc8ee)" style="fill: #1f77b4"/>
   </g>
   <g id="patch_113">
    <path d="M 167.137227 465.838125 
L 167.734194 465.838125 
L 167.734194 465.58057 
L 167.137227 465.58057 
z
" clip-path="url(#p806c3fc8ee)" style="fill: #1f77b4"/>
   </g>
   <g id="patch_114">
    <path d="M 167.883436 465.838125 
L 168.480403 465.838125 
L 168.480403 465.576051 
L 167.883436 465.576051 
z
" clip-path="url(#p806c3fc8ee)" style="fill: #1f77b4"/>
   </g>
   <g id="patch_115">
    <path d="M 168.629644 465.838125 
L 169.226612 465.838125 
L 169.226612 465.553458 
L 168.629644 465.553458 
z
" clip-path="url(#p806c3fc8ee)" style="fill: #1f77b4"/>
   </g>
   <g id="patch_116">
    <path d="M 169.375853 465.838125 
L 169.97282 465.838125 
L 169.97282 465.666421 
L 169.375853 465.666421 
z
" clip-path="url(#p806c3fc8ee)" style="fill: #1f77b4"/>
   </g>
   <g id="patch_117">
    <path d="M 170.122062 465.838125 
L 170.719029 465.838125 
L 170.719029 465.616718 
L 170.122062 465.616718 
z
" clip-path="url(#p806c3fc8ee)" style="fill: #1f77b4"/>
   </g>
   <g id="patch_118">
    <path d="M 170.868271 465.838125 
L 171.465238 465.838125 
L 171.465238 465.562495 
L 170.868271 465.562495 
z
" clip-path="url(#p806c3fc8ee)" style="fill: #1f77b4"/>
   </g>
   <g id="patch_119">
    <path d="M 171.61448 465.838125 
L 172.211447 465.838125 
L 172.211447 465.612199 
L 171.61448 465.612199 
z
" clip-path="url(#p806c3fc8ee)" style="fill: #1f77b4"/>
   </g>
   <g id="patch_120">
    <path d="M 172.360688 465.838125 
L 172.957655 465.838125 
L 172.957655 465.630273 
L 172.360688 465.630273 
z
" clip-path="url(#p806c3fc8ee)" style="fill: #1f77b4"/>
   </g>
   <g id="patch_121">
    <path d="M 173.106897 465.838125 
L 173.703864 465.838125 
L 173.703864 465.630273 
L 173.106897 465.630273 
z
" clip-path="url(#p806c3fc8ee)" style="fill: #1f77b4"/>
   </g>
   <g id="patch_122">
    <path d="M 173.853106 465.838125 
L 174.450073 465.838125 
L 174.450073 465.621236 
L 173.853106 465.621236 
z
" clip-path="url(#p806c3fc8ee)" style="fill: #1f77b4"/>
   </g>
   <g id="patch_123">
    <path d="M 174.599315 465.838125 
L 175.196282 465.838125 
L 175.196282 465.666421 
L 174.599315 465.666421 
z
" clip-path="url(#p806c3fc8ee)" style="fill: #1f77b4"/>
   </g>
   <g id="patch_124">
    <path d="M 175.345523 465.838125 
L 175.942491 465.838125 
L 175.942491 465.693532 
L 175.345523 465.693532 
z
" clip-path="url(#p806c3fc8ee)" style="fill: #1f77b4"/>
   </g>
   <g id="patch_125">
    <path d="M 176.091732 465.838125 
L 176.688699 465.838125 
L 176.688699 465.652866 
L 176.091732 465.652866 
z
" clip-path="url(#p806c3fc8ee)" style="fill: #1f77b4"/>
   </g>
   <g id="patch_126">
    <path d="M 176.837941 465.838125 
L 177.434908 465.838125 
L 177.434908 465.634792 
L 176.837941 465.634792 
z
" clip-path="url(#p806c3fc8ee)" style="fill: #1f77b4"/>
   </g>
   <g id="patch_127">
    <path d="M 177.58415 465.838125 
L 178.181117 465.838125 
L 178.181117 465.679977 
L 177.58415 465.679977 
z
" clip-path="url(#p806c3fc8ee)" style="fill: #1f77b4"/>
   </g>
   <g id="patch_128">
    <path d="M 178.330359 465.838125 
L 178.927326 465.838125 
L 178.927326 465.630273 
L 178.330359 465.630273 
z
" clip-path="url(#p806c3fc8ee)" style="fill: #1f77b4"/>
   </g>
   <g id="patch_129">
    <path d="M 179.076567 465.838125 
L 179.673534 465.838125 
L 179.673534 465.666421 
L 179.076567 465.666421 
z
" clip-path="url(#p806c3fc8ee)" style="fill: #1f77b4"/>
   </g>
   <g id="patch_130">
    <path d="M 179.822776 465.838125 
L 180.419743 465.838125 
L 180.419743 465.675458 
L 179.822776 465.675458 
z
" clip-path="url(#p806c3fc8ee)" style="fill: #1f77b4"/>
   </g>
   <g id="patch_131">
    <path d="M 180.568985 465.838125 
L 181.165952 465.838125 
L 181.165952 465.679977 
L 180.568985 465.679977 
z
" clip-path="url(#p806c3fc8ee)" style="fill: #1f77b4"/>
   </g>
   <g id="patch_132">
    <path d="M 181.315194 465.838125 
L 181.912161 465.838125 
L 181.912161 465.679977 
L 181.315194 465.679977 
z
" clip-path="url(#p806c3fc8ee)" style="fill: #1f77b4"/>
   </g>
   <g id="patch_133">
    <path d="M 182.061403 465.838125 
L 182.65837 465.838125 
L 182.65837 465.675458 
L 182.061403 465.675458 
z
" clip-path="url(#p806c3fc8ee)" style="fill: #1f77b4"/>
   </g>
   <g id="patch_134">
    <path d="M 182.807611 465.838125 
L 183.404578 465.838125 
L 183.404578 465.702569 
L 182.807611 465.702569 
z
" clip-path="url(#p806c3fc8ee)" style="fill: #1f77b4"/>
   </g>
   <g id="patch_135">
    <path d="M 183.55382 465.838125 
L 184.150787 465.838125 
L 184.150787 465.707088 
L 183.55382 465.707088 
z
" clip-path="url(#p806c3fc8ee)" style="fill: #1f77b4"/>
   </g>
   <g id="patch_136">
    <path d="M 184.300029 465.838125 
L 184.896996 465.838125 
L 184.896996 465.693532 
L 184.300029 465.693532 
z
" clip-path="url(#p806c3fc8ee)" style="fill: #1f77b4"/>
   </g>
   <g id="patch_137">
    <path d="M 185.046238 465.838125 
L 185.643205 465.838125 
L 185.643205 465.711607 
L 185.046238 465.711607 
z
" clip-path="url(#p806c3fc8ee)" style="fill: #1f77b4"/>
   </g>
   <g id="patch_138">
    <path d="M 185.792446 465.838125 
L 186.389413 465.838125 
L 186.389413 465.702569 
L 185.792446 465.702569 
z
" clip-path="url(#p806c3fc8ee)" style="fill: #1f77b4"/>
   </g>
   <g id="patch_139">
    <path d="M 186.538655 465.838125 
L 187.135622 465.838125 
L 187.135622 465.689014 
L 186.538655 465.689014 
z
" clip-path="url(#p806c3fc8ee)" style="fill: #1f77b4"/>
   </g>
   <g id="patch_140">
    <path d="M 187.284864 465.838125 
L 187.881831 465.838125 
L 187.881831 465.729681 
L 187.284864 465.729681 
z
" clip-path="url(#p806c3fc8ee)" style="fill: #1f77b4"/>
   </g>
   <g id="patch_141">
    <path d="M 188.031073 465.838125 
L 188.62804 465.838125 
L 188.62804 465.720644 
L 188.031073 465.720644 
z
" clip-path="url(#p806c3fc8ee)" style="fill: #1f77b4"/>
   </g>
   <g id="patch_142">
    <path d="M 188.777282 465.838125 
L 189.374249 465.838125 
L 189.374249 465.693532 
L 188.777282 465.693532 
z
" clip-path="url(#p806c3fc8ee)" style="fill: #1f77b4"/>
   </g>
   <g id="patch_143">
    <path d="M 189.52349 465.838125 
L 190.120457 465.838125 
L 190.120457 465.729681 
L 189.52349 465.729681 
z
" clip-path="url(#p806c3fc8ee)" style="fill: #1f77b4"/>
   </g>
   <g id="patch_144">
    <path d="M 190.269699 465.838125 
L 190.866666 465.838125 
L 190.866666 465.743236 
L 190.269699 465.743236 
z
" clip-path="url(#p806c3fc8ee)" style="fill: #1f77b4"/>
   </g>
   <g id="patch_145">
    <path d="M 191.015908 465.838125 
L 191.612875 465.838125 
L 191.612875 465.729681 
L 191.015908 465.729681 
z
" clip-path="url(#p806c3fc8ee)" style="fill: #1f77b4"/>
   </g>
   <g id="patch_146">
    <path d="M 191.762117 465.838125 
L 192.359084 465.838125 
L 192.359084 465.738718 
L 191.762117 465.738718 
z
" clip-path="url(#p806c3fc8ee)" style="fill: #1f77b4"/>
   </g>
   <g id="patch_147">
    <path d="M 192.508325 465.838125 
L 193.105292 465.838125 
L 193.105292 465.770347 
L 192.508325 465.770347 
z
" clip-path="url(#p806c3fc8ee)" style="fill: #1f77b4"/>
   </g>
   <g id="patch_148">
    <path d="M 193.254534 465.838125 
L 193.851501 465.838125 
L 193.851501 465.707088 
L 193.254534 465.707088 
z
" clip-path="url(#p806c3fc8ee)" style="fill: #1f77b4"/>
   </g>
   <g id="patch_149">
    <path d="M 194.000743 465.838125 
L 194.59771 465.838125 
L 194.59771 465.743236 
L 194.000743 465.743236 
z
" clip-path="url(#p806c3fc8ee)" style="fill: #1f77b4"/>
   </g>
   <g id="patch_150">
    <path d="M 194.746952 465.838125 
L 195.343919 465.838125 
L 195.343919 465.716125 
L 194.746952 465.716125 
z
" clip-path="url(#p806c3fc8ee)" style="fill: #1f77b4"/>
   </g>
   <g id="patch_151">
    <path d="M 195.493161 465.838125 
L 196.090128 465.838125 
L 196.090128 465.738718 
L 195.493161 465.738718 
z
" clip-path="url(#p806c3fc8ee)" style="fill: #1f77b4"/>
   </g>
   <g id="patch_152">
    <path d="M 196.239369 465.838125 
L 196.836336 465.838125 
L 196.836336 465.716125 
L 196.239369 465.716125 
z
" clip-path="url(#p806c3fc8ee)" style="fill: #1f77b4"/>
   </g>
   <g id="patch_153">
    <path d="M 196.985578 465.838125 
L 197.582545 465.838125 
L 197.582545 465.774866 
L 196.985578 465.774866 
z
" clip-path="url(#p806c3fc8ee)" style="fill: #1f77b4"/>
   </g>
   <g id="patch_154">
    <path d="M 197.731787 465.838125 
L 198.328754 465.838125 
L 198.328754 465.765829 
L 197.731787 465.765829 
z
" clip-path="url(#p806c3fc8ee)" style="fill: #1f77b4"/>
   </g>
   <g id="patch_155">
    <path d="M 198.477996 465.838125 
L 199.074963 465.838125 
L 199.074963 465.738718 
L 198.477996 465.738718 
z
" clip-path="url(#p806c3fc8ee)" style="fill: #1f77b4"/>
   </g>
   <g id="patch_156">
    <path d="M 199.224204 465.838125 
L 199.821171 465.838125 
L 199.821171 465.756792 
L 199.224204 465.756792 
z
" clip-path="url(#p806c3fc8ee)" style="fill: #1f77b4"/>
   </g>
   <g id="patch_157">
    <path d="M 199.970413 465.838125 
L 200.56738 465.838125 
L 200.56738 465.79294 
L 199.970413 465.79294 
z
" clip-path="url(#p806c3fc8ee)" style="fill: #1f77b4"/>
   </g>
   <g id="patch_158">
    <path d="M 200.716622 465.838125 
L 201.313589 465.838125 
L 201.313589 465.797458 
L 200.716622 465.797458 
z
" clip-path="url(#p806c3fc8ee)" style="fill: #1f77b4"/>
   </g>
   <g id="patch_159">
    <path d="M 201.462831 465.838125 
L 202.059798 465.838125 
L 202.059798 465.765829 
L 201.462831 465.765829 
z
" clip-path="url(#p806c3fc8ee)" style="fill: #1f77b4"/>
   </g>
   <g id="patch_160">
    <path d="M 202.20904 465.838125 
L 202.806007 465.838125 
L 202.806007 465.783903 
L 202.20904 465.783903 
z
" clip-path="url(#p806c3fc8ee)" style="fill: #1f77b4"/>
   </g>
   <g id="patch_161">
    <path d="M 202.955248 465.838125 
L 203.552215 465.838125 
L 203.552215 465.788421 
L 202.955248 465.788421 
z
" clip-path="url(#p806c3fc8ee)" style="fill: #1f77b4"/>
   </g>
   <g id="patch_162">
    <path d="M 203.701457 465.838125 
L 204.298424 465.838125 
L 204.298424 465.797458 
L 203.701457 465.797458 
z
" clip-path="url(#p806c3fc8ee)" style="fill: #1f77b4"/>
   </g>
   <g id="patch_163">
    <path d="M 204.447666 465.838125 
L 205.044633 465.838125 
L 205.044633 465.797458 
L 204.447666 465.797458 
z
" clip-path="url(#p806c3fc8ee)" style="fill: #1f77b4"/>
   </g>
   <g id="patch_164">
    <path d="M 205.193875 465.838125 
L 205.790842 465.838125 
L 205.790842 465.797458 
L 205.193875 465.797458 
z
" clip-path="url(#p806c3fc8ee)" style="fill: #1f77b4"/>
   </g>
   <g id="patch_165">
    <path d="M 205.940083 465.838125 
L 206.53705 465.838125 
L 206.53705 465.79294 
L 205.940083 465.79294 
z
" clip-path="url(#p806c3fc8ee)" style="fill: #1f77b4"/>
   </g>
   <g id="patch_166">
    <path d="M 206.686292 465.838125 
L 207.283259 465.838125 
L 207.283259 465.811014 
L 206.686292 465.811014 
z
" clip-path="url(#p806c3fc8ee)" style="fill: #1f77b4"/>
   </g>
   <g id="patch_167">
    <path d="M 207.432501 465.838125 
L 208.029468 465.838125 
L 208.029468 465.783903 
L 207.432501 465.783903 
z
" clip-path="url(#p806c3fc8ee)" style="fill: #1f77b4"/>
   </g>
   <g id="patch_168">
    <path d="M 208.17871 465.838125 
L 208.775677 465.838125 
L 208.775677 465.79294 
L 208.17871 465.79294 
z
" clip-path="url(#p806c3fc8ee)" style="fill: #1f77b4"/>
   </g>
   <g id="patch_169">
    <path d="M 208.924919 465.838125 
L 209.521886 465.838125 
L 209.521886 465.783903 
L 208.924919 465.783903 
z
" clip-path="url(#p806c3fc8ee)" style="fill: #1f77b4"/>
   </g>
   <g id="patch_170">
    <path d="M 209.671127 465.838125 
L 210.268094 465.838125 
L 210.268094 465.788421 
L 209.671127 465.788421 
z
" clip-path="url(#p806c3fc8ee)" style="fill: #1f77b4"/>
   </g>
   <g id="patch_171">
    <path d="M 210.417336 465.838125 
L 211.014303 465.838125 
L 211.014303 465.797458 
L 210.417336 465.797458 
z
" clip-path="url(#p806c3fc8ee)" style="fill: #1f77b4"/>
   </g>
   <g id="patch_172">
    <path d="M 211.163545 465.838125 
L 211.760512 465.838125 
L 211.760512 465.815532 
L 211.163545 465.815532 
z
" clip-path="url(#p806c3fc8ee)" style="fill: #1f77b4"/>
   </g>
   <g id="patch_173">
    <path d="M 211.909754 465.838125 
L 212.506721 465.838125 
L 212.506721 465.774866 
L 211.909754 465.774866 
z
" clip-path="url(#p806c3fc8ee)" style="fill: #1f77b4"/>
   </g>
   <g id="patch_174">
    <path d="M 212.655962 465.838125 
L 213.252929 465.838125 
L 213.252929 465.801977 
L 212.655962 465.801977 
z
" clip-path="url(#p806c3fc8ee)" style="fill: #1f77b4"/>
   </g>
   <g id="patch_175">
    <path d="M 213.402171 465.838125 
L 213.999138 465.838125 
L 213.999138 465.815532 
L 213.402171 465.815532 
z
" clip-path="url(#p806c3fc8ee)" style="fill: #1f77b4"/>
   </g>
   <g id="patch_176">
    <path d="M 214.14838 465.838125 
L 214.745347 465.838125 
L 214.745347 465.801977 
L 214.14838 465.801977 
z
" clip-path="url(#p806c3fc8ee)" style="fill: #1f77b4"/>
   </g>
   <g id="patch_177">
    <path d="M 214.894589 465.838125 
L 215.491556 465.838125 
L 215.491556 465.806495 
L 214.894589 465.806495 
z
" clip-path="url(#p806c3fc8ee)" style="fill: #1f77b4"/>
   </g>
   <g id="patch_178">
    <path d="M 215.640798 465.838125 
L 216.237765 465.838125 
L 216.237765 465.815532 
L 215.640798 465.815532 
z
" clip-path="url(#p806c3fc8ee)" style="fill: #1f77b4"/>
   </g>
   <g id="patch_179">
    <path d="M 216.387006 465.838125 
L 216.983973 465.838125 
L 216.983973 465.811014 
L 216.387006 465.811014 
z
" clip-path="url(#p806c3fc8ee)" style="fill: #1f77b4"/>
   </g>
   <g id="patch_180">
    <path d="M 217.133215 465.838125 
L 217.730182 465.838125 
L 217.730182 465.824569 
L 217.133215 465.824569 
z
" clip-path="url(#p806c3fc8ee)" style="fill: #1f77b4"/>
   </g>
   <g id="patch_181">
    <path d="M 217.879424 465.838125 
L 218.476391 465.838125 
L 218.476391 465.815532 
L 217.879424 465.815532 
z
" clip-path="url(#p806c3fc8ee)" style="fill: #1f77b4"/>
   </g>
   <g id="patch_182">
    <path d="M 218.625633 465.838125 
L 219.2226 465.838125 
L 219.2226 465.820051 
L 218.625633 465.820051 
z
" clip-path="url(#p806c3fc8ee)" style="fill: #1f77b4"/>
   </g>
   <g id="patch_183">
    <path d="M 219.371841 465.838125 
L 219.968808 465.838125 
L 219.968808 465.811014 
L 219.371841 465.811014 
z
" clip-path="url(#p806c3fc8ee)" style="fill: #1f77b4"/>
   </g>
   <g id="patch_184">
    <path d="M 220.11805 465.838125 
L 220.715017 465.838125 
L 220.715017 465.815532 
L 220.11805 465.815532 
z
" clip-path="url(#p806c3fc8ee)" style="fill: #1f77b4"/>
   </g>
   <g id="patch_185">
    <path d="M 220.864259 465.838125 
L 221.461226 465.838125 
L 221.461226 465.820051 
L 220.864259 465.820051 
z
" clip-path="url(#p806c3fc8ee)" style="fill: #1f77b4"/>
   </g>
   <g id="patch_186">
    <path d="M 221.610468 465.838125 
L 222.207435 465.838125 
L 222.207435 465.811014 
L 221.610468 465.811014 
z
" clip-path="url(#p806c3fc8ee)" style="fill: #1f77b4"/>
   </g>
   <g id="patch_187">
    <path d="M 222.356677 465.838125 
L 222.953644 465.838125 
L 222.953644 465.833606 
L 222.356677 465.833606 
z
" clip-path="url(#p806c3fc8ee)" style="fill: #1f77b4"/>
   </g>
   <g id="patch_188">
    <path d="M 223.102885 465.838125 
L 223.699852 465.838125 
L 223.699852 465.829088 
L 223.102885 465.829088 
z
" clip-path="url(#p806c3fc8ee)" style="fill: #1f77b4"/>
   </g>
   <g id="patch_189">
    <path d="M 223.849094 465.838125 
L 224.446061 465.838125 
L 224.446061 465.824569 
L 223.849094 465.824569 
z
" clip-path="url(#p806c3fc8ee)" style="fill: #1f77b4"/>
   </g>
   <g id="patch_190">
    <path d="M 224.595303 465.838125 
L 225.19227 465.838125 
L 225.19227 465.833606 
L 224.595303 465.833606 
z
" clip-path="url(#p806c3fc8ee)" style="fill: #1f77b4"/>
   </g>
   <g id="patch_191">
    <path d="M 225.341512 465.838125 
L 225.938479 465.838125 
L 225.938479 465.815532 
L 225.341512 465.815532 
z
" clip-path="url(#p806c3fc8ee)" style="fill: #1f77b4"/>
   </g>
   <g id="patch_192">
    <path d="M 226.08772 465.838125 
L 226.684687 465.838125 
L 226.684687 465.833606 
L 226.08772 465.833606 
z
" clip-path="url(#p806c3fc8ee)" style="fill: #1f77b4"/>
   </g>
   <g id="patch_193">
    <path d="M 226.833929 465.838125 
L 227.430896 465.838125 
L 227.430896 465.829088 
L 226.833929 465.829088 
z
" clip-path="url(#p806c3fc8ee)" style="fill: #1f77b4"/>
   </g>
   <g id="patch_194">
    <path d="M 227.580138 465.838125 
L 228.177105 465.838125 
L 228.177105 465.811014 
L 227.580138 465.811014 
z
" clip-path="url(#p806c3fc8ee)" style="fill: #1f77b4"/>
   </g>
   <g id="patch_195">
    <path d="M 228.326347 465.838125 
L 228.923314 465.838125 
L 228.923314 465.820051 
L 228.326347 465.820051 
z
" clip-path="url(#p806c3fc8ee)" style="fill: #1f77b4"/>
   </g>
   <g id="patch_196">
    <path d="M 229.072556 465.838125 
L 229.669523 465.838125 
L 229.669523 465.820051 
L 229.072556 465.820051 
z
" clip-path="url(#p806c3fc8ee)" style="fill: #1f77b4"/>
   </g>
   <g id="patch_197">
    <path d="M 229.818764 465.838125 
L 230.415731 465.838125 
L 230.415731 465.820051 
L 229.818764 465.820051 
z
" clip-path="url(#p806c3fc8ee)" style="fill: #1f77b4"/>
   </g>
   <g id="patch_198">
    <path d="M 230.564973 465.838125 
L 231.16194 465.838125 
L 231.16194 465.824569 
L 230.564973 465.824569 
z
" clip-path="url(#p806c3fc8ee)" style="fill: #1f77b4"/>
   </g>
   <g id="patch_199">
    <path d="M 231.311182 465.838125 
L 231.908149 465.838125 
L 231.908149 465.824569 
L 231.311182 465.824569 
z
" clip-path="url(#p806c3fc8ee)" style="fill: #1f77b4"/>
   </g>
   <g id="patch_200">
    <path d="M 232.057391 465.838125 
L 232.654358 465.838125 
L 232.654358 465.824569 
L 232.057391 465.824569 
z
" clip-path="url(#p806c3fc8ee)" style="fill: #1f77b4"/>
   </g>
   <g id="patch_201">
    <path d="M 232.803599 465.838125 
L 233.400566 465.838125 
L 233.400566 465.833606 
L 232.803599 465.833606 
z
" clip-path="url(#p806c3fc8ee)" style="fill: #1f77b4"/>
   </g>
   <g id="patch_202">
    <path d="M 233.549808 465.838125 
L 234.146775 465.838125 
L 234.146775 465.820051 
L 233.549808 465.820051 
z
" clip-path="url(#p806c3fc8ee)" style="fill: #1f77b4"/>
   </g>
   <g id="patch_203">
    <path d="M 234.296017 465.838125 
L 234.892984 465.838125 
L 234.892984 465.824569 
L 234.296017 465.824569 
z
" clip-path="url(#p806c3fc8ee)" style="fill: #1f77b4"/>
   </g>
   <g id="patch_204">
    <path d="M 235.042226 465.838125 
L 235.639193 465.838125 
L 235.639193 465.833606 
L 235.042226 465.833606 
z
" clip-path="url(#p806c3fc8ee)" style="fill: #1f77b4"/>
   </g>
   <g id="patch_205">
    <path d="M 236.534643 465.838125 
L 237.13161 465.838125 
L 237.13161 465.815532 
L 236.534643 465.815532 
z
" clip-path="url(#p806c3fc8ee)" style="fill: #1f77b4"/>
   </g>
   <g id="patch_206">
    <path d="M 238.027061 465.838125 
L 238.624028 465.838125 
L 238.624028 465.829088 
L 238.027061 465.829088 
z
" clip-path="url(#p806c3fc8ee)" style="fill: #1f77b4"/>
   </g>
   <g id="patch_207">
    <path d="M 238.77327 465.838125 
L 239.370237 465.838125 
L 239.370237 465.820051 
L 238.77327 465.820051 
z
" clip-path="url(#p806c3fc8ee)" style="fill: #1f77b4"/>
   </g>
   <g id="patch_208">
    <path d="M 241.011896 465.838125 
L 241.608863 465.838125 
L 241.608863 465.833606 
L 241.011896 465.833606 
z
" clip-path="url(#p806c3fc8ee)" style="fill: #1f77b4"/>
   </g>
   <g id="patch_209">
    <path d="M 241.758105 465.838125 
L 242.355072 465.838125 
L 242.355072 465.833606 
L 241.758105 465.833606 
z
" clip-path="url(#p806c3fc8ee)" style="fill: #1f77b4"/>
   </g>
   <g id="patch_210">
    <path d="M 242.504314 465.838125 
L 243.101281 465.838125 
L 243.101281 465.829088 
L 242.504314 465.829088 
z
" clip-path="url(#p806c3fc8ee)" style="fill: #1f77b4"/>
   </g>
   <g id="patch_211">
    <path d="M 243.996731 465.838125 
L 244.593698 465.838125 
L 244.593698 465.824569 
L 243.996731 465.824569 
z
" clip-path="url(#p806c3fc8ee)" style="fill: #1f77b4"/>
   </g>
   <g id="patch_212">
    <path d="M 244.74294 465.838125 
L 245.339907 465.838125 
L 245.339907 465.833606 
L 244.74294 465.833606 
z
" clip-path="url(#p806c3fc8ee)" style="fill: #1f77b4"/>
   </g>
   <g id="patch_213">
    <path d="M 245.489149 465.838125 
L 246.086116 465.838125 
L 246.086116 465.829088 
L 245.489149 465.829088 
z
" clip-path="url(#p806c3fc8ee)" style="fill: #1f77b4"/>
   </g>
   <g id="patch_214">
    <path d="M 246.235357 465.838125 
L 246.832324 465.838125 
L 246.832324 465.824569 
L 246.235357 465.824569 
z
" clip-path="url(#p806c3fc8ee)" style="fill: #1f77b4"/>
   </g>
   <g id="patch_215">
    <path d="M 246.981566 465.838125 
L 247.578533 465.838125 
L 247.578533 465.833606 
L 246.981566 465.833606 
z
" clip-path="url(#p806c3fc8ee)" style="fill: #1f77b4"/>
   </g>
   <g id="patch_216">
    <path d="M 247.727775 465.838125 
L 248.324742 465.838125 
L 248.324742 465.829088 
L 247.727775 465.829088 
z
" clip-path="url(#p806c3fc8ee)" style="fill: #1f77b4"/>
   </g>
   <g id="patch_217">
    <path d="M 248.473984 465.838125 
L 249.070951 465.838125 
L 249.070951 465.820051 
L 248.473984 465.820051 
z
" clip-path="url(#p806c3fc8ee)" style="fill: #1f77b4"/>
   </g>
   <g id="patch_218">
    <path d="M 249.966401 465.838125 
L 250.563368 465.838125 
L 250.563368 465.833606 
L 249.966401 465.833606 
z
" clip-path="url(#p806c3fc8ee)" style="fill: #1f77b4"/>
   </g>
   <g id="patch_219">
    <path d="M 250.71261 465.838125 
L 251.309577 465.838125 
L 251.309577 465.833606 
L 250.71261 465.833606 
z
" clip-path="url(#p806c3fc8ee)" style="fill: #1f77b4"/>
   </g>
   <g id="patch_220">
    <path d="M 252.205028 465.838125 
L 252.801995 465.838125 
L 252.801995 465.833606 
L 252.205028 465.833606 
z
" clip-path="url(#p806c3fc8ee)" style="fill: #1f77b4"/>
   </g>
   <g id="patch_221">
    <path d="M 253.697445 465.838125 
L 254.294412 465.838125 
L 254.294412 465.829088 
L 253.697445 465.829088 
z
" clip-path="url(#p806c3fc8ee)" style="fill: #1f77b4"/>
   </g>
   <g id="patch_222">
    <path d="M 254.443654 465.838125 
L 255.040621 465.838125 
L 255.040621 465.815532 
L 254.443654 465.815532 
z
" clip-path="url(#p806c3fc8ee)" style="fill: #1f77b4"/>
   </g>
   <g id="patch_223">
    <path d="M 255.189863 465.838125 
L 255.78683 465.838125 
L 255.78683 465.833606 
L 255.189863 465.833606 
z
" clip-path="url(#p806c3fc8ee)" style="fill: #1f77b4"/>
   </g>
   <g id="patch_224">
    <path d="M 255.936072 465.838125 
L 256.533039 465.838125 
L 256.533039 465.833606 
L 255.936072 465.833606 
z
" clip-path="url(#p806c3fc8ee)" style="fill: #1f77b4"/>
   </g>
   <g id="patch_225">
    <path d="M 256.68228 465.838125 
L 257.279247 465.838125 
L 257.279247 465.833606 
L 256.68228 465.833606 
z
" clip-path="url(#p806c3fc8ee)" style="fill: #1f77b4"/>
   </g>
   <g id="patch_226">
    <path d="M 258.174698 465.838125 
L 258.771665 465.838125 
L 258.771665 465.833606 
L 258.174698 465.833606 
z
" clip-path="url(#p806c3fc8ee)" style="fill: #1f77b4"/>
   </g>
   <g id="patch_227">
    <path d="M 258.920907 465.838125 
L 259.517874 465.838125 
L 259.517874 465.829088 
L 258.920907 465.829088 
z
" clip-path="url(#p806c3fc8ee)" style="fill: #1f77b4"/>
   </g>
   <g id="patch_228">
    <path d="M 264.890577 465.838125 
L 265.487544 465.838125 
L 265.487544 465.833606 
L 264.890577 465.833606 
z
" clip-path="url(#p806c3fc8ee)" style="fill: #1f77b4"/>
   </g>
   <g id="patch_229">
    <path d="M 265.636786 465.838125 
L 266.233753 465.838125 
L 266.233753 465.829088 
L 265.636786 465.829088 
z
" clip-path="url(#p806c3fc8ee)" style="fill: #1f77b4"/>
   </g>
   <g id="patch_230">
    <path d="M 268.621621 465.838125 
L 269.218588 465.838125 
L 269.218588 465.829088 
L 268.621621 465.829088 
z
" clip-path="url(#p806c3fc8ee)" style="fill: #1f77b4"/>
   </g>
   <g id="patch_231">
    <path d="M 269.36783 465.838125 
L 269.964797 465.838125 
L 269.964797 465.829088 
L 269.36783 465.829088 
z
" clip-path="url(#p806c3fc8ee)" style="fill: #1f77b4"/>
   </g>
   <g id="patch_232">
    <path d="M 270.114038 465.838125 
L 270.711005 465.838125 
L 270.711005 465.833606 
L 270.114038 465.833606 
z
" clip-path="url(#p806c3fc8ee)" style="fill: #1f77b4"/>
   </g>
   <g id="patch_233">
    <path d="M 270.860247 465.838125 
L 271.457214 465.838125 
L 271.457214 465.833606 
L 270.860247 465.833606 
z
" clip-path="url(#p806c3fc8ee)" style="fill: #1f77b4"/>
   </g>
   <g id="patch_234">
    <path d="M 271.606456 465.838125 
L 272.203423 465.838125 
L 272.203423 465.833606 
L 271.606456 465.833606 
z
" clip-path="url(#p806c3fc8ee)" style="fill: #1f77b4"/>
   </g>
   <g id="patch_235">
    <path d="M 272.352665 465.838125 
L 272.949632 465.838125 
L 272.949632 465.824569 
L 272.352665 465.824569 
z
" clip-path="url(#p806c3fc8ee)" style="fill: #1f77b4"/>
   </g>
   <g id="patch_236">
    <path d="M 278.322335 465.838125 
L 278.919302 465.838125 
L 278.919302 465.829088 
L 278.322335 465.829088 
z
" clip-path="url(#p806c3fc8ee)" style="fill: #1f77b4"/>
   </g>
   <g id="patch_237">
    <path d="M 279.068544 465.838125 
L 279.665511 465.838125 
L 279.665511 465.829088 
L 279.068544 465.829088 
z
" clip-path="url(#p806c3fc8ee)" style="fill: #1f77b4"/>
   </g>
   <g id="patch_238">
    <path d="M 280.560961 465.838125 
L 281.157928 465.838125 
L 281.157928 465.833606 
L 280.560961 465.833606 
z
" clip-path="url(#p806c3fc8ee)" style="fill: #1f77b4"/>
   </g>
   <g id="patch_239">
    <path d="M 281.30717 465.838125 
L 281.904137 465.838125 
L 281.904137 465.833606 
L 281.30717 465.833606 
z
" clip-path="url(#p806c3fc8ee)" style="fill: #1f77b4"/>
   </g>
   <g id="patch_240">
    <path d="M 282.799588 465.838125 
L 283.396555 465.838125 
L 283.396555 465.833606 
L 282.799588 465.833606 
z
" clip-path="url(#p806c3fc8ee)" style="fill: #1f77b4"/>
   </g>
   <g id="patch_241">
    <path d="M 286.530631 465.838125 
L 287.127598 465.838125 
L 287.127598 465.833606 
L 286.530631 465.833606 
z
" clip-path="url(#p806c3fc8ee)" style="fill: #1f77b4"/>
   </g>
   <g id="patch_242">
    <path d="M 287.27684 465.838125 
L 287.873807 465.838125 
L 287.873807 465.829088 
L 287.27684 465.829088 
z
" clip-path="url(#p806c3fc8ee)" style="fill: #1f77b4"/>
   </g>
   <g id="patch_243">
    <path d="M 288.023049 465.838125 
L 288.620016 465.838125 
L 288.620016 465.833606 
L 288.023049 465.833606 
z
" clip-path="url(#p806c3fc8ee)" style="fill: #1f77b4"/>
   </g>
   <g id="patch_244">
    <path d="M 288.769258 465.838125 
L 289.366225 465.838125 
L 289.366225 465.833606 
L 288.769258 465.833606 
z
" clip-path="url(#p806c3fc8ee)" style="fill: #1f77b4"/>
   </g>
   <g id="patch_245">
    <path d="M 293.24651 465.838125 
L 293.843477 465.838125 
L 293.843477 465.833606 
L 293.24651 465.833606 
z
" clip-path="url(#p806c3fc8ee)" style="fill: #1f77b4"/>
   </g>
   <g id="patch_246">
    <path d="M 293.992719 465.838125 
L 294.589686 465.838125 
L 294.589686 465.833606 
L 293.992719 465.833606 
z
" clip-path="url(#p806c3fc8ee)" style="fill: #1f77b4"/>
   </g>
   <g id="patch_247">
    <path d="M 295.485137 465.838125 
L 296.082104 465.838125 
L 296.082104 465.833606 
L 295.485137 465.833606 
z
" clip-path="url(#p806c3fc8ee)" style="fill: #1f77b4"/>
   </g>
   <g id="patch_248">
    <path d="M 300.708598 465.838125 
L 301.305565 465.838125 
L 301.305565 465.829088 
L 300.708598 465.829088 
z
" clip-path="url(#p806c3fc8ee)" style="fill: #1f77b4"/>
   </g>
   <g id="patch_249">
    <path d="M 304.439642 465.838125 
L 305.036609 465.838125 
L 305.036609 465.833606 
L 304.439642 465.833606 
z
" clip-path="url(#p806c3fc8ee)" style="fill: #1f77b4"/>
   </g>
   <g id="patch_250">
    <path d="M 307.424477 465.838125 
L 308.021444 465.838125 
L 308.021444 465.833606 
L 307.424477 465.833606 
z
" clip-path="url(#p806c3fc8ee)" style="fill: #1f77b4"/>
   </g>
   <g id="patch_251">
    <path d="M 310.409312 465.838125 
L 311.006279 465.838125 
L 311.006279 465.833606 
L 310.409312 465.833606 
z
" clip-path="url(#p806c3fc8ee)" style="fill: #1f77b4"/>
   </g>
   <g id="patch_252">
    <path d="M 311.90173 465.838125 
L 312.498697 465.838125 
L 312.498697 465.833606 
L 311.90173 465.833606 
z
" clip-path="url(#p806c3fc8ee)" style="fill: #1f77b4"/>
   </g>
   <g id="patch_253">
    <path d="M 313.394147 465.838125 
L 313.991114 465.838125 
L 313.991114 465.833606 
L 313.394147 465.833606 
z
" clip-path="url(#p806c3fc8ee)" style="fill: #1f77b4"/>
   </g>
   <g id="patch_254">
    <path d="M 317.8714 465.838125 
L 318.468367 465.838125 
L 318.468367 465.829088 
L 317.8714 465.829088 
z
" clip-path="url(#p806c3fc8ee)" style="fill: #1f77b4"/>
   </g>
   <g id="patch_255">
    <path d="M 326.079697 465.838125 
L 326.676664 465.838125 
L 326.676664 465.833606 
L 326.079697 465.833606 
z
" clip-path="url(#p806c3fc8ee)" style="fill: #1f77b4"/>
   </g>
   <g id="patch_256">
    <path d="M 333.541784 465.838125 
L 334.138751 465.838125 
L 334.138751 465.833606 
L 333.541784 465.833606 
z
" clip-path="url(#p806c3fc8ee)" style="fill: #1f77b4"/>
   </g>
   <g id="patch_257">
    <path d="M 338.019037 465.838125 
L 338.616004 465.838125 
L 338.616004 465.833606 
L 338.019037 465.833606 
z
" clip-path="url(#p806c3fc8ee)" style="fill: #1f77b4"/>
   </g>
   <g id="patch_258">
    <path d="M 339.511455 465.838125 
L 340.108422 465.838125 
L 340.108422 465.833606 
L 339.511455 465.833606 
z
" clip-path="url(#p806c3fc8ee)" style="fill: #1f77b4"/>
   </g>
   <g id="patch_259">
    <path d="M 347.719751 465.838125 
L 348.316718 465.838125 
L 348.316718 465.833606 
L 347.719751 465.833606 
z
" clip-path="url(#p806c3fc8ee)" style="fill: #1f77b4"/>
   </g>
   <g id="patch_260">
    <path d="M 364.882553 465.838125 
L 365.47952 465.838125 
L 365.47952 465.833606 
L 364.882553 465.833606 
z
" clip-path="url(#p806c3fc8ee)" style="fill: #1f77b4"/>
   </g>
   <g id="patch_261">
    <path d="M 368.613597 465.838125 
L 369.210564 465.838125 
L 369.210564 465.833606 
L 368.613597 465.833606 
z
" clip-path="url(#p806c3fc8ee)" style="fill: #1f77b4"/>
   </g>
   <g id="patch_262">
    <path d="M 402.192992 465.838125 
L 402.789959 465.838125 
L 402.789959 465.833606 
L 402.192992 465.833606 
z
" clip-path="url(#p806c3fc8ee)" style="fill: #1f77b4"/>
   </g>
   <g id="patch_263">
    <path d="M 403.68541 465.838125 
L 404.282377 465.838125 
L 404.282377 465.833606 
L 403.68541 465.833606 
z
" clip-path="url(#p806c3fc8ee)" style="fill: #1f77b4"/>
   </g>
   <g id="patch_264">
    <path d="M 469.351782 465.838125 
L 469.948749 465.838125 
L 469.948749 465.833606 
L 469.351782 465.833606 
z
" clip-path="url(#p806c3fc8ee)" style="fill: #1f77b4"/>
   </g>
   <g id="patch_265">
    <path d="M 470.8442 465.838125 
L 471.441167 465.838125 
L 471.441167 465.833606 
L 470.8442 465.833606 
z
" clip-path="url(#p806c3fc8ee)" style="fill: #1f77b4"/>
   </g>
   <g id="patch_266">
    <path d="M 591.730022 465.838125 
L 592.326989 465.838125 
L 592.326989 465.833606 
L 591.730022 465.833606 
z
" clip-path="url(#p806c3fc8ee)" style="fill: #1f77b4"/>
   </g>
   <g id="matplotlib.axis_1">
    <g id="xtick_1">
     <g id="line2d_1">
      <defs>
       <path id="m787b1ddc9e" d="M 0 0 
L 0 3.5 
" style="stroke: #000000; stroke-width: 0.8"/>
      </defs>
      <g>
       <use xlink:href="#m787b1ddc9e" x="85.352745" y="465.838125" style="stroke: #000000; stroke-width: 0.8"/>
      </g>
     </g>
     <g id="text_1">
      <!-- 251 -->
      <g transform="translate(82.538185 486.492363) rotate(-50) scale(0.07 -0.07)">
       <defs>
        <path id="DejaVuSans-32" d="M 1228 531 
L 3431 531 
L 3431 0 
L 469 0 
L 469 531 
Q 828 903 1448 1529 
Q 2069 2156 2228 2338 
Q 2531 2678 2651 2914 
Q 2772 3150 2772 3378 
Q 2772 3750 2511 3984 
Q 2250 4219 1831 4219 
Q 1534 4219 1204 4116 
Q 875 4013 500 3803 
L 500 4441 
Q 881 4594 1212 4672 
Q 1544 4750 1819 4750 
Q 2544 4750 2975 4387 
Q 3406 4025 3406 3419 
Q 3406 3131 3298 2873 
Q 3191 2616 2906 2266 
Q 2828 2175 2409 1742 
Q 1991 1309 1228 531 
z
" transform="scale(0.015625)"/>
        <path id="DejaVuSans-35" d="M 691 4666 
L 3169 4666 
L 3169 4134 
L 1269 4134 
L 1269 2991 
Q 1406 3038 1543 3061 
Q 1681 3084 1819 3084 
Q 2600 3084 3056 2656 
Q 3513 2228 3513 1497 
Q 3513 744 3044 326 
Q 2575 -91 1722 -91 
Q 1428 -91 1123 -41 
Q 819 9 494 109 
L 494 744 
Q 775 591 1075 516 
Q 1375 441 1709 441 
Q 2250 441 2565 725 
Q 2881 1009 2881 1497 
Q 2881 1984 2565 2268 
Q 2250 2553 1709 2553 
Q 1456 2553 1204 2497 
Q 953 2441 691 2322 
L 691 4666 
z
" transform="scale(0.015625)"/>
        <path id="DejaVuSans-31" d="M 794 531 
L 1825 531 
L 1825 4091 
L 703 3866 
L 703 4441 
L 1819 4666 
L 2450 4666 
L 2450 531 
L 3481 531 
L 3481 0 
L 794 0 
L 794 531 
z
" transform="scale(0.015625)"/>
       </defs>
       <use xlink:href="#DejaVuSans-32"/>
       <use xlink:href="#DejaVuSans-35" x="63.623047"/>
       <use xlink:href="#DejaVuSans-31" x="127.246094"/>
      </g>
     </g>
    </g>
    <g id="xtick_2">
     <g id="line2d_2">
      <g>
       <use xlink:href="#m787b1ddc9e" x="159.973623" y="465.838125" style="stroke: #000000; stroke-width: 0.8"/>
      </g>
     </g>
     <g id="text_2">
      <!-- 351 -->
      <g transform="translate(157.159062 486.492363) rotate(-50) scale(0.07 -0.07)">
       <defs>
        <path id="DejaVuSans-33" d="M 2597 2516 
Q 3050 2419 3304 2112 
Q 3559 1806 3559 1356 
Q 3559 666 3084 287 
Q 2609 -91 1734 -91 
Q 1441 -91 1130 -33 
Q 819 25 488 141 
L 488 750 
Q 750 597 1062 519 
Q 1375 441 1716 441 
Q 2309 441 2620 675 
Q 2931 909 2931 1356 
Q 2931 1769 2642 2001 
Q 2353 2234 1838 2234 
L 1294 2234 
L 1294 2753 
L 1863 2753 
Q 2328 2753 2575 2939 
Q 2822 3125 2822 3475 
Q 2822 3834 2567 4026 
Q 2313 4219 1838 4219 
Q 1578 4219 1281 4162 
Q 984 4106 628 3988 
L 628 4550 
Q 988 4650 1302 4700 
Q 1616 4750 1894 4750 
Q 2613 4750 3031 4423 
Q 3450 4097 3450 3541 
Q 3450 3153 3228 2886 
Q 3006 2619 2597 2516 
z
" transform="scale(0.015625)"/>
       </defs>
       <use xlink:href="#DejaVuSans-33"/>
       <use xlink:href="#DejaVuSans-35" x="63.623047"/>
       <use xlink:href="#DejaVuSans-31" x="127.246094"/>
      </g>
     </g>
    </g>
    <g id="xtick_3">
     <g id="line2d_3">
      <g>
       <use xlink:href="#m787b1ddc9e" x="234.5945" y="465.838125" style="stroke: #000000; stroke-width: 0.8"/>
      </g>
     </g>
     <g id="text_3">
      <!-- 451 -->
      <g transform="translate(231.77994 486.492363) rotate(-50) scale(0.07 -0.07)">
       <defs>
        <path id="DejaVuSans-34" d="M 2419 4116 
L 825 1625 
L 2419 1625 
L 2419 4116 
z
M 2253 4666 
L 3047 4666 
L 3047 1625 
L 3713 1625 
L 3713 1100 
L 3047 1100 
L 3047 0 
L 2419 0 
L 2419 1100 
L 313 1100 
L 313 1709 
L 2253 4666 
z
" transform="scale(0.015625)"/>
       </defs>
       <use xlink:href="#DejaVuSans-34"/>
       <use xlink:href="#DejaVuSans-35" x="63.623047"/>
       <use xlink:href="#DejaVuSans-31" x="127.246094"/>
      </g>
     </g>
    </g>
    <g id="xtick_4">
     <g id="line2d_4">
      <g>
       <use xlink:href="#m787b1ddc9e" x="309.215378" y="465.838125" style="stroke: #000000; stroke-width: 0.8"/>
      </g>
     </g>
     <g id="text_4">
      <!-- 551 -->
      <g transform="translate(306.400818 486.492363) rotate(-50) scale(0.07 -0.07)">
       <use xlink:href="#DejaVuSans-35"/>
       <use xlink:href="#DejaVuSans-35" x="63.623047"/>
       <use xlink:href="#DejaVuSans-31" x="127.246094"/>
      </g>
     </g>
    </g>
    <g id="xtick_5">
     <g id="line2d_5">
      <g>
       <use xlink:href="#m787b1ddc9e" x="383.836256" y="465.838125" style="stroke: #000000; stroke-width: 0.8"/>
      </g>
     </g>
     <g id="text_5">
      <!-- 651 -->
      <g transform="translate(381.021696 486.492363) rotate(-50) scale(0.07 -0.07)">
       <defs>
        <path id="DejaVuSans-36" d="M 2113 2584 
Q 1688 2584 1439 2293 
Q 1191 2003 1191 1497 
Q 1191 994 1439 701 
Q 1688 409 2113 409 
Q 2538 409 2786 701 
Q 3034 994 3034 1497 
Q 3034 2003 2786 2293 
Q 2538 2584 2113 2584 
z
M 3366 4563 
L 3366 3988 
Q 3128 4100 2886 4159 
Q 2644 4219 2406 4219 
Q 1781 4219 1451 3797 
Q 1122 3375 1075 2522 
Q 1259 2794 1537 2939 
Q 1816 3084 2150 3084 
Q 2853 3084 3261 2657 
Q 3669 2231 3669 1497 
Q 3669 778 3244 343 
Q 2819 -91 2113 -91 
Q 1303 -91 875 529 
Q 447 1150 447 2328 
Q 447 3434 972 4092 
Q 1497 4750 2381 4750 
Q 2619 4750 2861 4703 
Q 3103 4656 3366 4563 
z
" transform="scale(0.015625)"/>
       </defs>
       <use xlink:href="#DejaVuSans-36"/>
       <use xlink:href="#DejaVuSans-35" x="63.623047"/>
       <use xlink:href="#DejaVuSans-31" x="127.246094"/>
      </g>
     </g>
    </g>
    <g id="xtick_6">
     <g id="line2d_6">
      <g>
       <use xlink:href="#m787b1ddc9e" x="458.457134" y="465.838125" style="stroke: #000000; stroke-width: 0.8"/>
      </g>
     </g>
     <g id="text_6">
      <!-- 751 -->
      <g transform="translate(455.642574 486.492363) rotate(-50) scale(0.07 -0.07)">
       <defs>
        <path id="DejaVuSans-37" d="M 525 4666 
L 3525 4666 
L 3525 4397 
L 1831 0 
L 1172 0 
L 2766 4134 
L 525 4134 
L 525 4666 
z
" transform="scale(0.015625)"/>
       </defs>
       <use xlink:href="#DejaVuSans-37"/>
       <use xlink:href="#DejaVuSans-35" x="63.623047"/>
       <use xlink:href="#DejaVuSans-31" x="127.246094"/>
      </g>
     </g>
    </g>
    <g id="xtick_7">
     <g id="line2d_7">
      <g>
       <use xlink:href="#m787b1ddc9e" x="533.078012" y="465.838125" style="stroke: #000000; stroke-width: 0.8"/>
      </g>
     </g>
     <g id="text_7">
      <!-- 851 -->
      <g transform="translate(530.263451 486.492363) rotate(-50) scale(0.07 -0.07)">
       <defs>
        <path id="DejaVuSans-38" d="M 2034 2216 
Q 1584 2216 1326 1975 
Q 1069 1734 1069 1313 
Q 1069 891 1326 650 
Q 1584 409 2034 409 
Q 2484 409 2743 651 
Q 3003 894 3003 1313 
Q 3003 1734 2745 1975 
Q 2488 2216 2034 2216 
z
M 1403 2484 
Q 997 2584 770 2862 
Q 544 3141 544 3541 
Q 544 4100 942 4425 
Q 1341 4750 2034 4750 
Q 2731 4750 3128 4425 
Q 3525 4100 3525 3541 
Q 3525 3141 3298 2862 
Q 3072 2584 2669 2484 
Q 3125 2378 3379 2068 
Q 3634 1759 3634 1313 
Q 3634 634 3220 271 
Q 2806 -91 2034 -91 
Q 1263 -91 848 271 
Q 434 634 434 1313 
Q 434 1759 690 2068 
Q 947 2378 1403 2484 
z
M 1172 3481 
Q 1172 3119 1398 2916 
Q 1625 2713 2034 2713 
Q 2441 2713 2670 2916 
Q 2900 3119 2900 3481 
Q 2900 3844 2670 4047 
Q 2441 4250 2034 4250 
Q 1625 4250 1398 4047 
Q 1172 3844 1172 3481 
z
" transform="scale(0.015625)"/>
       </defs>
       <use xlink:href="#DejaVuSans-38"/>
       <use xlink:href="#DejaVuSans-35" x="63.623047"/>
       <use xlink:href="#DejaVuSans-31" x="127.246094"/>
      </g>
     </g>
    </g>
    <g id="text_8">
     <!-- Latency (us) -->
     <g transform="translate(307.6625 499.026559) scale(0.1 -0.1)">
      <defs>
       <path id="DejaVuSans-4c" d="M 628 4666 
L 1259 4666 
L 1259 531 
L 3531 531 
L 3531 0 
L 628 0 
L 628 4666 
z
" transform="scale(0.015625)"/>
       <path id="DejaVuSans-61" d="M 2194 1759 
Q 1497 1759 1228 1600 
Q 959 1441 959 1056 
Q 959 750 1161 570 
Q 1363 391 1709 391 
Q 2188 391 2477 730 
Q 2766 1069 2766 1631 
L 2766 1759 
L 2194 1759 
z
M 3341 1997 
L 3341 0 
L 2766 0 
L 2766 531 
Q 2569 213 2275 61 
Q 1981 -91 1556 -91 
Q 1019 -91 701 211 
Q 384 513 384 1019 
Q 384 1609 779 1909 
Q 1175 2209 1959 2209 
L 2766 2209 
L 2766 2266 
Q 2766 2663 2505 2880 
Q 2244 3097 1772 3097 
Q 1472 3097 1187 3025 
Q 903 2953 641 2809 
L 641 3341 
Q 956 3463 1253 3523 
Q 1550 3584 1831 3584 
Q 2591 3584 2966 3190 
Q 3341 2797 3341 1997 
z
" transform="scale(0.015625)"/>
       <path id="DejaVuSans-74" d="M 1172 4494 
L 1172 3500 
L 2356 3500 
L 2356 3053 
L 1172 3053 
L 1172 1153 
Q 1172 725 1289 603 
Q 1406 481 1766 481 
L 2356 481 
L 2356 0 
L 1766 0 
Q 1100 0 847 248 
Q 594 497 594 1153 
L 594 3053 
L 172 3053 
L 172 3500 
L 594 3500 
L 594 4494 
L 1172 4494 
z
" transform="scale(0.015625)"/>
       <path id="DejaVuSans-65" d="M 3597 1894 
L 3597 1613 
L 953 1613 
Q 991 1019 1311 708 
Q 1631 397 2203 397 
Q 2534 397 2845 478 
Q 3156 559 3463 722 
L 3463 178 
Q 3153 47 2828 -22 
Q 2503 -91 2169 -91 
Q 1331 -91 842 396 
Q 353 884 353 1716 
Q 353 2575 817 3079 
Q 1281 3584 2069 3584 
Q 2775 3584 3186 3129 
Q 3597 2675 3597 1894 
z
M 3022 2063 
Q 3016 2534 2758 2815 
Q 2500 3097 2075 3097 
Q 1594 3097 1305 2825 
Q 1016 2553 972 2059 
L 3022 2063 
z
" transform="scale(0.015625)"/>
       <path id="DejaVuSans-6e" d="M 3513 2113 
L 3513 0 
L 2938 0 
L 2938 2094 
Q 2938 2591 2744 2837 
Q 2550 3084 2163 3084 
Q 1697 3084 1428 2787 
Q 1159 2491 1159 1978 
L 1159 0 
L 581 0 
L 581 3500 
L 1159 3500 
L 1159 2956 
Q 1366 3272 1645 3428 
Q 1925 3584 2291 3584 
Q 2894 3584 3203 3211 
Q 3513 2838 3513 2113 
z
" transform="scale(0.015625)"/>
       <path id="DejaVuSans-63" d="M 3122 3366 
L 3122 2828 
Q 2878 2963 2633 3030 
Q 2388 3097 2138 3097 
Q 1578 3097 1268 2742 
Q 959 2388 959 1747 
Q 959 1106 1268 751 
Q 1578 397 2138 397 
Q 2388 397 2633 464 
Q 2878 531 3122 666 
L 3122 134 
Q 2881 22 2623 -34 
Q 2366 -91 2075 -91 
Q 1284 -91 818 406 
Q 353 903 353 1747 
Q 353 2603 823 3093 
Q 1294 3584 2113 3584 
Q 2378 3584 2631 3529 
Q 2884 3475 3122 3366 
z
" transform="scale(0.015625)"/>
       <path id="DejaVuSans-79" d="M 2059 -325 
Q 1816 -950 1584 -1140 
Q 1353 -1331 966 -1331 
L 506 -1331 
L 506 -850 
L 844 -850 
Q 1081 -850 1212 -737 
Q 1344 -625 1503 -206 
L 1606 56 
L 191 3500 
L 800 3500 
L 1894 763 
L 2988 3500 
L 3597 3500 
L 2059 -325 
z
" transform="scale(0.015625)"/>
       <path id="DejaVuSans-20" transform="scale(0.015625)"/>
       <path id="DejaVuSans-28" d="M 1984 4856 
Q 1566 4138 1362 3434 
Q 1159 2731 1159 2009 
Q 1159 1288 1364 580 
Q 1569 -128 1984 -844 
L 1484 -844 
Q 1016 -109 783 600 
Q 550 1309 550 2009 
Q 550 2706 781 3412 
Q 1013 4119 1484 4856 
L 1984 4856 
z
" transform="scale(0.015625)"/>
       <path id="DejaVuSans-75" d="M 544 1381 
L 544 3500 
L 1119 3500 
L 1119 1403 
Q 1119 906 1312 657 
Q 1506 409 1894 409 
Q 2359 409 2629 706 
Q 2900 1003 2900 1516 
L 2900 3500 
L 3475 3500 
L 3475 0 
L 2900 0 
L 2900 538 
Q 2691 219 2414 64 
Q 2138 -91 1772 -91 
Q 1169 -91 856 284 
Q 544 659 544 1381 
z
M 1991 3584 
L 1991 3584 
z
" transform="scale(0.015625)"/>
       <path id="DejaVuSans-73" d="M 2834 3397 
L 2834 2853 
Q 2591 2978 2328 3040 
Q 2066 3103 1784 3103 
Q 1356 3103 1142 2972 
Q 928 2841 928 2578 
Q 928 2378 1081 2264 
Q 1234 2150 1697 2047 
L 1894 2003 
Q 2506 1872 2764 1633 
Q 3022 1394 3022 966 
Q 3022 478 2636 193 
Q 2250 -91 1575 -91 
Q 1294 -91 989 -36 
Q 684 19 347 128 
L 347 722 
Q 666 556 975 473 
Q 1284 391 1588 391 
Q 1994 391 2212 530 
Q 2431 669 2431 922 
Q 2431 1156 2273 1281 
Q 2116 1406 1581 1522 
L 1381 1569 
Q 847 1681 609 1914 
Q 372 2147 372 2553 
Q 372 3047 722 3315 
Q 1072 3584 1716 3584 
Q 2034 3584 2315 3537 
Q 2597 3491 2834 3397 
z
" transform="scale(0.015625)"/>
       <path id="DejaVuSans-29" d="M 513 4856 
L 1013 4856 
Q 1481 4119 1714 3412 
Q 1947 2706 1947 2009 
Q 1947 1309 1714 600 
Q 1481 -109 1013 -844 
L 513 -844 
Q 928 -128 1133 580 
Q 1338 1288 1338 2009 
Q 1338 2731 1133 3434 
Q 928 4138 513 4856 
z
" transform="scale(0.015625)"/>
      </defs>
      <use xlink:href="#DejaVuSans-4c"/>
      <use xlink:href="#DejaVuSans-61" x="55.712891"/>
      <use xlink:href="#DejaVuSans-74" x="116.992188"/>
      <use xlink:href="#DejaVuSans-65" x="156.201172"/>
      <use xlink:href="#DejaVuSans-6e" x="217.724609"/>
      <use xlink:href="#DejaVuSans-63" x="281.103516"/>
      <use xlink:href="#DejaVuSans-79" x="336.083984"/>
      <use xlink:href="#DejaVuSans-20" x="395.263672"/>
      <use xlink:href="#DejaVuSans-28" x="427.050781"/>
      <use xlink:href="#DejaVuSans-75" x="466.064453"/>
      <use xlink:href="#DejaVuSans-73" x="529.443359"/>
      <use xlink:href="#DejaVuSans-29" x="581.542969"/>
     </g>
    </g>
   </g>
   <g id="matplotlib.axis_2">
    <g id="ytick_1">
     <g id="line2d_8">
      <defs>
       <path id="mefdfb460e8" d="M 0 0 
L -3.5 0 
" style="stroke: #000000; stroke-width: 0.8"/>
      </defs>
      <g>
       <use xlink:href="#mefdfb460e8" x="59.690625" y="465.838125" style="stroke: #000000; stroke-width: 0.8"/>
      </g>
     </g>
     <g id="text_9">
      <!-- 0 -->
      <g transform="translate(46.328125 469.637344) scale(0.1 -0.1)">
       <defs>
        <path id="DejaVuSans-30" d="M 2034 4250 
Q 1547 4250 1301 3770 
Q 1056 3291 1056 2328 
Q 1056 1369 1301 889 
Q 1547 409 2034 409 
Q 2525 409 2770 889 
Q 3016 1369 3016 2328 
Q 3016 3291 2770 3770 
Q 2525 4250 2034 4250 
z
M 2034 4750 
Q 2819 4750 3233 4129 
Q 3647 3509 3647 2328 
Q 3647 1150 3233 529 
Q 2819 -91 2034 -91 
Q 1250 -91 836 529 
Q 422 1150 422 2328 
Q 422 3509 836 4129 
Q 1250 4750 2034 4750 
z
" transform="scale(0.015625)"/>
       </defs>
       <use xlink:href="#DejaVuSans-30"/>
      </g>
     </g>
    </g>
    <g id="ytick_2">
     <g id="line2d_9">
      <g>
       <use xlink:href="#mefdfb460e8" x="59.690625" y="375.467786" style="stroke: #000000; stroke-width: 0.8"/>
      </g>
     </g>
     <g id="text_10">
      <!-- 20000 -->
      <g transform="translate(20.878125 379.267005) scale(0.1 -0.1)">
       <use xlink:href="#DejaVuSans-32"/>
       <use xlink:href="#DejaVuSans-30" x="63.623047"/>
       <use xlink:href="#DejaVuSans-30" x="127.246094"/>
       <use xlink:href="#DejaVuSans-30" x="190.869141"/>
       <use xlink:href="#DejaVuSans-30" x="254.492188"/>
      </g>
     </g>
    </g>
    <g id="ytick_3">
     <g id="line2d_10">
      <g>
       <use xlink:href="#mefdfb460e8" x="59.690625" y="285.097448" style="stroke: #000000; stroke-width: 0.8"/>
      </g>
     </g>
     <g id="text_11">
      <!-- 40000 -->
      <g transform="translate(20.878125 288.896666) scale(0.1 -0.1)">
       <use xlink:href="#DejaVuSans-34"/>
       <use xlink:href="#DejaVuSans-30" x="63.623047"/>
       <use xlink:href="#DejaVuSans-30" x="127.246094"/>
       <use xlink:href="#DejaVuSans-30" x="190.869141"/>
       <use xlink:href="#DejaVuSans-30" x="254.492188"/>
      </g>
     </g>
    </g>
    <g id="ytick_4">
     <g id="line2d_11">
      <g>
       <use xlink:href="#mefdfb460e8" x="59.690625" y="194.727109" style="stroke: #000000; stroke-width: 0.8"/>
      </g>
     </g>
     <g id="text_12">
      <!-- 60000 -->
      <g transform="translate(20.878125 198.526328) scale(0.1 -0.1)">
       <use xlink:href="#DejaVuSans-36"/>
       <use xlink:href="#DejaVuSans-30" x="63.623047"/>
       <use xlink:href="#DejaVuSans-30" x="127.246094"/>
       <use xlink:href="#DejaVuSans-30" x="190.869141"/>
       <use xlink:href="#DejaVuSans-30" x="254.492188"/>
      </g>
     </g>
    </g>
    <g id="ytick_5">
     <g id="line2d_12">
      <g>
       <use xlink:href="#mefdfb460e8" x="59.690625" y="104.35677" style="stroke: #000000; stroke-width: 0.8"/>
      </g>
     </g>
     <g id="text_13">
      <!-- 80000 -->
      <g transform="translate(20.878125 108.155989) scale(0.1 -0.1)">
       <use xlink:href="#DejaVuSans-38"/>
       <use xlink:href="#DejaVuSans-30" x="63.623047"/>
       <use xlink:href="#DejaVuSans-30" x="127.246094"/>
       <use xlink:href="#DejaVuSans-30" x="190.869141"/>
       <use xlink:href="#DejaVuSans-30" x="254.492188"/>
      </g>
     </g>
    </g>
    <g id="text_14">
     <!-- Frequency -->
     <g transform="translate(14.798438 269.907812) rotate(-90) scale(0.1 -0.1)">
      <defs>
       <path id="DejaVuSans-46" d="M 628 4666 
L 3309 4666 
L 3309 4134 
L 1259 4134 
L 1259 2759 
L 3109 2759 
L 3109 2228 
L 1259 2228 
L 1259 0 
L 628 0 
L 628 4666 
z
" transform="scale(0.015625)"/>
       <path id="DejaVuSans-72" d="M 2631 2963 
Q 2534 3019 2420 3045 
Q 2306 3072 2169 3072 
Q 1681 3072 1420 2755 
Q 1159 2438 1159 1844 
L 1159 0 
L 581 0 
L 581 3500 
L 1159 3500 
L 1159 2956 
Q 1341 3275 1631 3429 
Q 1922 3584 2338 3584 
Q 2397 3584 2469 3576 
Q 2541 3569 2628 3553 
L 2631 2963 
z
" transform="scale(0.015625)"/>
       <path id="DejaVuSans-71" d="M 947 1747 
Q 947 1113 1208 752 
Q 1469 391 1925 391 
Q 2381 391 2643 752 
Q 2906 1113 2906 1747 
Q 2906 2381 2643 2742 
Q 2381 3103 1925 3103 
Q 1469 3103 1208 2742 
Q 947 2381 947 1747 
z
M 2906 525 
Q 2725 213 2448 61 
Q 2172 -91 1784 -91 
Q 1150 -91 751 415 
Q 353 922 353 1747 
Q 353 2572 751 3078 
Q 1150 3584 1784 3584 
Q 2172 3584 2448 3432 
Q 2725 3281 2906 2969 
L 2906 3500 
L 3481 3500 
L 3481 -1331 
L 2906 -1331 
L 2906 525 
z
" transform="scale(0.015625)"/>
      </defs>
      <use xlink:href="#DejaVuSans-46"/>
      <use xlink:href="#DejaVuSans-72" x="50.269531"/>
      <use xlink:href="#DejaVuSans-65" x="89.132812"/>
      <use xlink:href="#DejaVuSans-71" x="150.65625"/>
      <use xlink:href="#DejaVuSans-75" x="214.132812"/>
      <use xlink:href="#DejaVuSans-65" x="277.511719"/>
      <use xlink:href="#DejaVuSans-6e" x="339.035156"/>
      <use xlink:href="#DejaVuSans-63" x="402.414062"/>
      <use xlink:href="#DejaVuSans-79" x="457.394531"/>
     </g>
    </g>
   </g>
   <g id="patch_267">
    <path d="M 59.690625 465.838125 
L 59.690625 22.318125 
" style="fill: none; stroke: #000000; stroke-width: 0.8; stroke-linejoin: miter; stroke-linecap: square"/>
   </g>
   <g id="patch_268">
    <path d="M 617.690625 465.838125 
L 617.690625 22.318125 
" style="fill: none; stroke: #000000; stroke-width: 0.8; stroke-linejoin: miter; stroke-linecap: square"/>
   </g>
   <g id="patch_269">
    <path d="M 59.690625 465.838125 
L 617.690625 465.838125 
" style="fill: none; stroke: #000000; stroke-width: 0.8; stroke-linejoin: miter; stroke-linecap: square"/>
   </g>
   <g id="patch_270">
    <path d="M 59.690625 22.318125 
L 617.690625 22.318125 
" style="fill: none; stroke: #000000; stroke-width: 0.8; stroke-linejoin: miter; stroke-linecap: square"/>
   </g>
   <g id="text_15">
    <!-- Lagscope Frequency Table Bar Graph (a_to_c.json) 09-13-2023 15:43:08 -->
    <g transform="translate(122.06625 16.318125) scale(0.12 -0.12)">
     <defs>
      <path id="DejaVuSans-67" d="M 2906 1791 
Q 2906 2416 2648 2759 
Q 2391 3103 1925 3103 
Q 1463 3103 1205 2759 
Q 947 2416 947 1791 
Q 947 1169 1205 825 
Q 1463 481 1925 481 
Q 2391 481 2648 825 
Q 2906 1169 2906 1791 
z
M 3481 434 
Q 3481 -459 3084 -895 
Q 2688 -1331 1869 -1331 
Q 1566 -1331 1297 -1286 
Q 1028 -1241 775 -1147 
L 775 -588 
Q 1028 -725 1275 -790 
Q 1522 -856 1778 -856 
Q 2344 -856 2625 -561 
Q 2906 -266 2906 331 
L 2906 616 
Q 2728 306 2450 153 
Q 2172 0 1784 0 
Q 1141 0 747 490 
Q 353 981 353 1791 
Q 353 2603 747 3093 
Q 1141 3584 1784 3584 
Q 2172 3584 2450 3431 
Q 2728 3278 2906 2969 
L 2906 3500 
L 3481 3500 
L 3481 434 
z
" transform="scale(0.015625)"/>
      <path id="DejaVuSans-6f" d="M 1959 3097 
Q 1497 3097 1228 2736 
Q 959 2375 959 1747 
Q 959 1119 1226 758 
Q 1494 397 1959 397 
Q 2419 397 2687 759 
Q 2956 1122 2956 1747 
Q 2956 2369 2687 2733 
Q 2419 3097 1959 3097 
z
M 1959 3584 
Q 2709 3584 3137 3096 
Q 3566 2609 3566 1747 
Q 3566 888 3137 398 
Q 2709 -91 1959 -91 
Q 1206 -91 779 398 
Q 353 888 353 1747 
Q 353 2609 779 3096 
Q 1206 3584 1959 3584 
z
" transform="scale(0.015625)"/>
      <path id="DejaVuSans-70" d="M 1159 525 
L 1159 -1331 
L 581 -1331 
L 581 3500 
L 1159 3500 
L 1159 2969 
Q 1341 3281 1617 3432 
Q 1894 3584 2278 3584 
Q 2916 3584 3314 3078 
Q 3713 2572 3713 1747 
Q 3713 922 3314 415 
Q 2916 -91 2278 -91 
Q 1894 -91 1617 61 
Q 1341 213 1159 525 
z
M 3116 1747 
Q 3116 2381 2855 2742 
Q 2594 3103 2138 3103 
Q 1681 3103 1420 2742 
Q 1159 2381 1159 1747 
Q 1159 1113 1420 752 
Q 1681 391 2138 391 
Q 2594 391 2855 752 
Q 3116 1113 3116 1747 
z
" transform="scale(0.015625)"/>
      <path id="DejaVuSans-54" d="M -19 4666 
L 3928 4666 
L 3928 4134 
L 2272 4134 
L 2272 0 
L 1638 0 
L 1638 4134 
L -19 4134 
L -19 4666 
z
" transform="scale(0.015625)"/>
      <path id="DejaVuSans-62" d="M 3116 1747 
Q 3116 2381 2855 2742 
Q 2594 3103 2138 3103 
Q 1681 3103 1420 2742 
Q 1159 2381 1159 1747 
Q 1159 1113 1420 752 
Q 1681 391 2138 391 
Q 2594 391 2855 752 
Q 3116 1113 3116 1747 
z
M 1159 2969 
Q 1341 3281 1617 3432 
Q 1894 3584 2278 3584 
Q 2916 3584 3314 3078 
Q 3713 2572 3713 1747 
Q 3713 922 3314 415 
Q 2916 -91 2278 -91 
Q 1894 -91 1617 61 
Q 1341 213 1159 525 
L 1159 0 
L 581 0 
L 581 4863 
L 1159 4863 
L 1159 2969 
z
" transform="scale(0.015625)"/>
      <path id="DejaVuSans-6c" d="M 603 4863 
L 1178 4863 
L 1178 0 
L 603 0 
L 603 4863 
z
" transform="scale(0.015625)"/>
      <path id="DejaVuSans-42" d="M 1259 2228 
L 1259 519 
L 2272 519 
Q 2781 519 3026 730 
Q 3272 941 3272 1375 
Q 3272 1813 3026 2020 
Q 2781 2228 2272 2228 
L 1259 2228 
z
M 1259 4147 
L 1259 2741 
L 2194 2741 
Q 2656 2741 2882 2914 
Q 3109 3088 3109 3444 
Q 3109 3797 2882 3972 
Q 2656 4147 2194 4147 
L 1259 4147 
z
M 628 4666 
L 2241 4666 
Q 2963 4666 3353 4366 
Q 3744 4066 3744 3513 
Q 3744 3084 3544 2831 
Q 3344 2578 2956 2516 
Q 3422 2416 3680 2098 
Q 3938 1781 3938 1306 
Q 3938 681 3513 340 
Q 3088 0 2303 0 
L 628 0 
L 628 4666 
z
" transform="scale(0.015625)"/>
      <path id="DejaVuSans-47" d="M 3809 666 
L 3809 1919 
L 2778 1919 
L 2778 2438 
L 4434 2438 
L 4434 434 
Q 4069 175 3628 42 
Q 3188 -91 2688 -91 
Q 1594 -91 976 548 
Q 359 1188 359 2328 
Q 359 3472 976 4111 
Q 1594 4750 2688 4750 
Q 3144 4750 3555 4637 
Q 3966 4525 4313 4306 
L 4313 3634 
Q 3963 3931 3569 4081 
Q 3175 4231 2741 4231 
Q 1884 4231 1454 3753 
Q 1025 3275 1025 2328 
Q 1025 1384 1454 906 
Q 1884 428 2741 428 
Q 3075 428 3337 486 
Q 3600 544 3809 666 
z
" transform="scale(0.015625)"/>
      <path id="DejaVuSans-68" d="M 3513 2113 
L 3513 0 
L 2938 0 
L 2938 2094 
Q 2938 2591 2744 2837 
Q 2550 3084 2163 3084 
Q 1697 3084 1428 2787 
Q 1159 2491 1159 1978 
L 1159 0 
L 581 0 
L 581 4863 
L 1159 4863 
L 1159 2956 
Q 1366 3272 1645 3428 
Q 1925 3584 2291 3584 
Q 2894 3584 3203 3211 
Q 3513 2838 3513 2113 
z
" transform="scale(0.015625)"/>
      <path id="DejaVuSans-5f" d="M 3263 -1063 
L 3263 -1509 
L -63 -1509 
L -63 -1063 
L 3263 -1063 
z
" transform="scale(0.015625)"/>
      <path id="DejaVuSans-2e" d="M 684 794 
L 1344 794 
L 1344 0 
L 684 0 
L 684 794 
z
" transform="scale(0.015625)"/>
      <path id="DejaVuSans-6a" d="M 603 3500 
L 1178 3500 
L 1178 -63 
Q 1178 -731 923 -1031 
Q 669 -1331 103 -1331 
L -116 -1331 
L -116 -844 
L 38 -844 
Q 366 -844 484 -692 
Q 603 -541 603 -63 
L 603 3500 
z
M 603 4863 
L 1178 4863 
L 1178 4134 
L 603 4134 
L 603 4863 
z
" transform="scale(0.015625)"/>
      <path id="DejaVuSans-39" d="M 703 97 
L 703 672 
Q 941 559 1184 500 
Q 1428 441 1663 441 
Q 2288 441 2617 861 
Q 2947 1281 2994 2138 
Q 2813 1869 2534 1725 
Q 2256 1581 1919 1581 
Q 1219 1581 811 2004 
Q 403 2428 403 3163 
Q 403 3881 828 4315 
Q 1253 4750 1959 4750 
Q 2769 4750 3195 4129 
Q 3622 3509 3622 2328 
Q 3622 1225 3098 567 
Q 2575 -91 1691 -91 
Q 1453 -91 1209 -44 
Q 966 3 703 97 
z
M 1959 2075 
Q 2384 2075 2632 2365 
Q 2881 2656 2881 3163 
Q 2881 3666 2632 3958 
Q 2384 4250 1959 4250 
Q 1534 4250 1286 3958 
Q 1038 3666 1038 3163 
Q 1038 2656 1286 2365 
Q 1534 2075 1959 2075 
z
" transform="scale(0.015625)"/>
      <path id="DejaVuSans-2d" d="M 313 2009 
L 1997 2009 
L 1997 1497 
L 313 1497 
L 313 2009 
z
" transform="scale(0.015625)"/>
      <path id="DejaVuSans-3a" d="M 750 794 
L 1409 794 
L 1409 0 
L 750 0 
L 750 794 
z
M 750 3309 
L 1409 3309 
L 1409 2516 
L 750 2516 
L 750 3309 
z
" transform="scale(0.015625)"/>
     </defs>
     <use xlink:href="#DejaVuSans-4c"/>
     <use xlink:href="#DejaVuSans-61" x="55.712891"/>
     <use xlink:href="#DejaVuSans-67" x="116.992188"/>
     <use xlink:href="#DejaVuSans-73" x="180.46875"/>
     <use xlink:href="#DejaVuSans-63" x="232.568359"/>
     <use xlink:href="#DejaVuSans-6f" x="287.548828"/>
     <use xlink:href="#DejaVuSans-70" x="348.730469"/>
     <use xlink:href="#DejaVuSans-65" x="412.207031"/>
     <use xlink:href="#DejaVuSans-20" x="473.730469"/>
     <use xlink:href="#DejaVuSans-46" x="505.517578"/>
     <use xlink:href="#DejaVuSans-72" x="555.787109"/>
     <use xlink:href="#DejaVuSans-65" x="594.650391"/>
     <use xlink:href="#DejaVuSans-71" x="656.173828"/>
     <use xlink:href="#DejaVuSans-75" x="719.650391"/>
     <use xlink:href="#DejaVuSans-65" x="783.029297"/>
     <use xlink:href="#DejaVuSans-6e" x="844.552734"/>
     <use xlink:href="#DejaVuSans-63" x="907.931641"/>
     <use xlink:href="#DejaVuSans-79" x="962.912109"/>
     <use xlink:href="#DejaVuSans-20" x="1022.091797"/>
     <use xlink:href="#DejaVuSans-54" x="1053.878906"/>
     <use xlink:href="#DejaVuSans-61" x="1098.462891"/>
     <use xlink:href="#DejaVuSans-62" x="1159.742188"/>
     <use xlink:href="#DejaVuSans-6c" x="1223.21875"/>
     <use xlink:href="#DejaVuSans-65" x="1251.001953"/>
     <use xlink:href="#DejaVuSans-20" x="1312.525391"/>
     <use xlink:href="#DejaVuSans-42" x="1344.3125"/>
     <use xlink:href="#DejaVuSans-61" x="1412.916016"/>
     <use xlink:href="#DejaVuSans-72" x="1474.195312"/>
     <use xlink:href="#DejaVuSans-20" x="1515.308594"/>
     <use xlink:href="#DejaVuSans-47" x="1547.095703"/>
     <use xlink:href="#DejaVuSans-72" x="1624.585938"/>
     <use xlink:href="#DejaVuSans-61" x="1665.699219"/>
     <use xlink:href="#DejaVuSans-70" x="1726.978516"/>
     <use xlink:href="#DejaVuSans-68" x="1790.455078"/>
     <use xlink:href="#DejaVuSans-20" x="1853.833984"/>
     <use xlink:href="#DejaVuSans-28" x="1885.621094"/>
     <use xlink:href="#DejaVuSans-61" x="1924.634766"/>
     <use xlink:href="#DejaVuSans-5f" x="1985.914062"/>
     <use xlink:href="#DejaVuSans-74" x="2035.914062"/>
     <use xlink:href="#DejaVuSans-6f" x="2075.123047"/>
     <use xlink:href="#DejaVuSans-5f" x="2136.304688"/>
     <use xlink:href="#DejaVuSans-63" x="2186.304688"/>
     <use xlink:href="#DejaVuSans-2e" x="2241.285156"/>
     <use xlink:href="#DejaVuSans-6a" x="2273.072266"/>
     <use xlink:href="#DejaVuSans-73" x="2300.855469"/>
     <use xlink:href="#DejaVuSans-6f" x="2352.955078"/>
     <use xlink:href="#DejaVuSans-6e" x="2414.136719"/>
     <use xlink:href="#DejaVuSans-29" x="2477.515625"/>
     <use xlink:href="#DejaVuSans-20" x="2516.529297"/>
     <use xlink:href="#DejaVuSans-30" x="2548.316406"/>
     <use xlink:href="#DejaVuSans-39" x="2611.939453"/>
     <use xlink:href="#DejaVuSans-2d" x="2675.5625"/>
     <use xlink:href="#DejaVuSans-31" x="2711.646484"/>
     <use xlink:href="#DejaVuSans-33" x="2775.269531"/>
     <use xlink:href="#DejaVuSans-2d" x="2838.892578"/>
     <use xlink:href="#DejaVuSans-32" x="2874.976562"/>
     <use xlink:href="#DejaVuSans-30" x="2938.599609"/>
     <use xlink:href="#DejaVuSans-32" x="3002.222656"/>
     <use xlink:href="#DejaVuSans-33" x="3065.845703"/>
     <use xlink:href="#DejaVuSans-20" x="3129.46875"/>
     <use xlink:href="#DejaVuSans-31" x="3161.255859"/>
     <use xlink:href="#DejaVuSans-35" x="3224.878906"/>
     <use xlink:href="#DejaVuSans-3a" x="3288.501953"/>
     <use xlink:href="#DejaVuSans-34" x="3322.193359"/>
     <use xlink:href="#DejaVuSans-33" x="3385.816406"/>
     <use xlink:href="#DejaVuSans-3a" x="3449.439453"/>
     <use xlink:href="#DejaVuSans-30" x="3483.130859"/>
     <use xlink:href="#DejaVuSans-38" x="3546.753906"/>
    </g>
   </g>
  </g>
 </g>
 <defs>
  <clipPath id="p806c3fc8ee">
   <rect x="59.690625" y="22.318125" width="558" height="443.52"/>
  </clipPath>
 </defs>
</svg>
