<?xml version="1.0" encoding="utf-8" standalone="no"?>
<!DOCTYPE svg PUBLIC "-//W3C//DTD SVG 1.1//EN"
  "http://www.w3.org/Graphics/SVG/1.1/DTD/svg11.dtd">
<svg xmlns:xlink="http://www.w3.org/1999/xlink" width="624.890625pt" height="511.718017pt" viewBox="0 0 624.890625 511.718017" xmlns="http://www.w3.org/2000/svg" version="1.1">
 <metadata>
  <rdf:RDF xmlns:dc="http://purl.org/dc/elements/1.1/" xmlns:cc="http://creativecommons.org/ns#" xmlns:rdf="http://www.w3.org/1999/02/22-rdf-syntax-ns#">
   <cc:Work>
    <dc:type rdf:resource="http://purl.org/dc/dcmitype/StillImage"/>
    <dc:date>2023-09-13T15:43:30.180742</dc:date>
    <dc:format>image/svg+xml</dc:format>
    <dc:creator>
     <cc:Agent>
      <dc:title>Matplotlib v3.7.3, https://matplotlib.org/</dc:title>
     </cc:Agent>
    </dc:creator>
   </cc:Work>
  </rdf:RDF>
 </metadata>
 <defs>
  <style type="text/css">*{stroke-linejoin: round; stroke-linecap: butt}</style>
 </defs>
 <g id="figure_1">
  <g id="patch_1">
   <path d="M 0 511.718017 
L 624.890625 511.718017 
L 624.890625 0 
L 0 0 
z
" style="fill: #ffffff"/>
  </g>
  <g id="axes_1">
   <g id="patch_2">
    <path d="M 59.690625 465.838125 
L 617.690625 465.838125 
L 617.690625 22.318125 
L 59.690625 22.318125 
z
" style="fill: #ffffff"/>
   </g>
   <g id="patch_3">
    <path d="M 85.054261 465.838125 
L 85.541555 465.838125 
L 85.541555 465.699203 
L 85.054261 465.699203 
z
" clip-path="url(#pd5f84b246c)" style="fill: #1f77b4"/>
   </g>
   <g id="patch_4">
    <path d="M 85.663378 465.838125 
L 86.150672 465.838125 
L 86.150672 462.67917 
L 85.663378 462.67917 
z
" clip-path="url(#pd5f84b246c)" style="fill: #1f77b4"/>
   </g>
   <g id="patch_5">
    <path d="M 86.272496 465.838125 
L 86.759789 465.838125 
L 86.759789 441.188612 
L 86.272496 441.188612 
z
" clip-path="url(#pd5f84b246c)" style="fill: #1f77b4"/>
   </g>
   <g id="patch_6">
    <path d="M 86.881613 465.838125 
L 87.368906 465.838125 
L 87.368906 387.872941 
L 86.881613 387.872941 
z
" clip-path="url(#pd5f84b246c)" style="fill: #1f77b4"/>
   </g>
   <g id="patch_7">
    <path d="M 87.49073 465.838125 
L 87.978023 465.838125 
L 87.978023 323.063023 
L 87.49073 323.063023 
z
" clip-path="url(#pd5f84b246c)" style="fill: #1f77b4"/>
   </g>
   <g id="patch_8">
    <path d="M 88.099847 465.838125 
L 88.587141 465.838125 
L 88.587141 268.835302 
L 88.099847 268.835302 
z
" clip-path="url(#pd5f84b246c)" style="fill: #1f77b4"/>
   </g>
   <g id="patch_9">
    <path d="M 88.708964 465.838125 
L 89.196258 465.838125 
L 89.196258 213.447889 
L 88.708964 213.447889 
z
" clip-path="url(#pd5f84b246c)" style="fill: #1f77b4"/>
   </g>
   <g id="patch_10">
    <path d="M 89.318081 465.838125 
L 89.805375 465.838125 
L 89.805375 163.345534 
L 89.318081 163.345534 
z
" clip-path="url(#pd5f84b246c)" style="fill: #1f77b4"/>
   </g>
   <g id="patch_11">
    <path d="M 89.927198 465.838125 
L 90.414492 465.838125 
L 90.414492 125.945439 
L 89.927198 125.945439 
z
" clip-path="url(#pd5f84b246c)" style="fill: #1f77b4"/>
   </g>
   <g id="patch_12">
    <path d="M 90.536315 465.838125 
L 91.023609 465.838125 
L 91.023609 89.354714 
L 90.536315 89.354714 
z
" clip-path="url(#pd5f84b246c)" style="fill: #1f77b4"/>
   </g>
   <g id="patch_13">
    <path d="M 91.145432 465.838125 
L 91.632726 465.838125 
L 91.632726 59.842947 
L 91.145432 59.842947 
z
" clip-path="url(#pd5f84b246c)" style="fill: #1f77b4"/>
   </g>
   <g id="patch_14">
    <path d="M 91.75455 465.838125 
L 92.241843 465.838125 
L 92.241843 43.438125 
L 91.75455 43.438125 
z
" clip-path="url(#pd5f84b246c)" style="fill: #1f77b4"/>
   </g>
   <g id="patch_15">
    <path d="M 92.363667 465.838125 
L 92.85096 465.838125 
L 92.85096 48.215818 
L 92.363667 48.215818 
z
" clip-path="url(#pd5f84b246c)" style="fill: #1f77b4"/>
   </g>
   <g id="patch_16">
    <path d="M 92.972784 465.838125 
L 93.460077 465.838125 
L 93.460077 64.312596 
L 92.972784 64.312596 
z
" clip-path="url(#pd5f84b246c)" style="fill: #1f77b4"/>
   </g>
   <g id="patch_17">
    <path d="M 93.581901 465.838125 
L 94.069195 465.838125 
L 94.069195 91.511018 
L 93.581901 91.511018 
z
" clip-path="url(#pd5f84b246c)" style="fill: #1f77b4"/>
   </g>
   <g id="patch_18">
    <path d="M 94.191018 465.838125 
L 94.678312 465.838125 
L 94.678312 133.169359 
L 94.191018 133.169359 
z
" clip-path="url(#pd5f84b246c)" style="fill: #1f77b4"/>
   </g>
   <g id="patch_19">
    <path d="M 94.800135 465.838125 
L 95.287429 465.838125 
L 95.287429 173.257283 
L 94.800135 173.257283 
z
" clip-path="url(#pd5f84b246c)" style="fill: #1f77b4"/>
   </g>
   <g id="patch_20">
    <path d="M 95.409252 465.838125 
L 95.896546 465.838125 
L 95.896546 216.715565 
L 95.409252 216.715565 
z
" clip-path="url(#pd5f84b246c)" style="fill: #1f77b4"/>
   </g>
   <g id="patch_21">
    <path d="M 96.018369 465.838125 
L 96.505663 465.838125 
L 96.505663 257.437696 
L 96.018369 257.437696 
z
" clip-path="url(#pd5f84b246c)" style="fill: #1f77b4"/>
   </g>
   <g id="patch_22">
    <path d="M 96.627486 465.838125 
L 97.11478 465.838125 
L 97.11478 291.690916 
L 96.627486 291.690916 
z
" clip-path="url(#pd5f84b246c)" style="fill: #1f77b4"/>
   </g>
   <g id="patch_23">
    <path d="M 97.236604 465.838125 
L 97.723897 465.838125 
L 97.723897 322.308015 
L 97.236604 322.308015 
z
" clip-path="url(#pd5f84b246c)" style="fill: #1f77b4"/>
   </g>
   <g id="patch_24">
    <path d="M 97.845721 465.838125 
L 98.333014 465.838125 
L 98.333014 346.2448 
L 97.845721 346.2448 
z
" clip-path="url(#pd5f84b246c)" style="fill: #1f77b4"/>
   </g>
   <g id="patch_25">
    <path d="M 98.454838 465.838125 
L 98.942131 465.838125 
L 98.942131 368.448086 
L 98.454838 368.448086 
z
" clip-path="url(#pd5f84b246c)" style="fill: #1f77b4"/>
   </g>
   <g id="patch_26">
    <path d="M 99.063955 465.838125 
L 99.551249 465.838125 
L 99.551249 384.961629 
L 99.063955 384.961629 
z
" clip-path="url(#pd5f84b246c)" style="fill: #1f77b4"/>
   </g>
   <g id="patch_27">
    <path d="M 99.673072 465.838125 
L 100.160366 465.838125 
L 100.160366 398.666541 
L 99.673072 398.666541 
z
" clip-path="url(#pd5f84b246c)" style="fill: #1f77b4"/>
   </g>
   <g id="patch_28">
    <path d="M 100.282189 465.838125 
L 100.769483 465.838125 
L 100.769483 408.064885 
L 100.282189 408.064885 
z
" clip-path="url(#pd5f84b246c)" style="fill: #1f77b4"/>
   </g>
   <g id="patch_29">
    <path d="M 100.891306 465.838125 
L 101.3786 465.838125 
L 101.3786 417.155186 
L 100.891306 417.155186 
z
" clip-path="url(#pd5f84b246c)" style="fill: #1f77b4"/>
   </g>
   <g id="patch_30">
    <path d="M 101.500423 465.838125 
L 101.987717 465.838125 
L 101.987717 424.74755 
L 101.500423 424.74755 
z
" clip-path="url(#pd5f84b246c)" style="fill: #1f77b4"/>
   </g>
   <g id="patch_31">
    <path d="M 102.10954 465.838125 
L 102.596834 465.838125 
L 102.596834 430.660775 
L 102.10954 430.660775 
z
" clip-path="url(#pd5f84b246c)" style="fill: #1f77b4"/>
   </g>
   <g id="patch_32">
    <path d="M 102.718657 465.838125 
L 103.205951 465.838125 
L 103.205951 434.502258 
L 102.718657 434.502258 
z
" clip-path="url(#pd5f84b246c)" style="fill: #1f77b4"/>
   </g>
   <g id="patch_33">
    <path d="M 103.327775 465.838125 
L 103.815068 465.838125 
L 103.815068 438.820906 
L 103.327775 438.820906 
z
" clip-path="url(#pd5f84b246c)" style="fill: #1f77b4"/>
   </g>
   <g id="patch_34">
    <path d="M 103.936892 465.838125 
L 104.424185 465.838125 
L 104.424185 442.740909 
L 103.936892 442.740909 
z
" clip-path="url(#pd5f84b246c)" style="fill: #1f77b4"/>
   </g>
   <g id="patch_35">
    <path d="M 104.546009 465.838125 
L 105.033302 465.838125 
L 105.033302 444.752251 
L 104.546009 444.752251 
z
" clip-path="url(#pd5f84b246c)" style="fill: #1f77b4"/>
   </g>
   <g id="patch_36">
    <path d="M 105.155126 465.838125 
L 105.64242 465.838125 
L 105.64242 447.125998 
L 105.155126 447.125998 
z
" clip-path="url(#pd5f84b246c)" style="fill: #1f77b4"/>
   </g>
   <g id="patch_37">
    <path d="M 105.764243 465.838125 
L 106.251537 465.838125 
L 106.251537 449.16754 
L 105.764243 449.16754 
z
" clip-path="url(#pd5f84b246c)" style="fill: #1f77b4"/>
   </g>
   <g id="patch_38">
    <path d="M 106.37336 465.838125 
L 106.860654 465.838125 
L 106.860654 450.490315 
L 106.37336 450.490315 
z
" clip-path="url(#pd5f84b246c)" style="fill: #1f77b4"/>
   </g>
   <g id="patch_39">
    <path d="M 106.982477 465.838125 
L 107.469771 465.838125 
L 107.469771 452.048652 
L 106.982477 452.048652 
z
" clip-path="url(#pd5f84b246c)" style="fill: #1f77b4"/>
   </g>
   <g id="patch_40">
    <path d="M 107.591594 465.838125 
L 108.078888 465.838125 
L 108.078888 454.114355 
L 107.591594 454.114355 
z
" clip-path="url(#pd5f84b246c)" style="fill: #1f77b4"/>
   </g>
   <g id="patch_41">
    <path d="M 108.200711 465.838125 
L 108.688005 465.838125 
L 108.688005 454.476759 
L 108.200711 454.476759 
z
" clip-path="url(#pd5f84b246c)" style="fill: #1f77b4"/>
   </g>
   <g id="patch_42">
    <path d="M 108.809829 465.838125 
L 109.297122 465.838125 
L 109.297122 456.065297 
L 108.809829 456.065297 
z
" clip-path="url(#pd5f84b246c)" style="fill: #1f77b4"/>
   </g>
   <g id="patch_43">
    <path d="M 109.418946 465.838125 
L 109.906239 465.838125 
L 109.906239 457.001507 
L 109.418946 457.001507 
z
" clip-path="url(#pd5f84b246c)" style="fill: #1f77b4"/>
   </g>
   <g id="patch_44">
    <path d="M 110.028063 465.838125 
L 110.515356 465.838125 
L 110.515356 457.853157 
L 110.028063 457.853157 
z
" clip-path="url(#pd5f84b246c)" style="fill: #1f77b4"/>
   </g>
   <g id="patch_45">
    <path d="M 110.63718 465.838125 
L 111.124474 465.838125 
L 111.124474 458.275961 
L 110.63718 458.275961 
z
" clip-path="url(#pd5f84b246c)" style="fill: #1f77b4"/>
   </g>
   <g id="patch_46">
    <path d="M 111.246297 465.838125 
L 111.733591 465.838125 
L 111.733591 458.626285 
L 111.246297 458.626285 
z
" clip-path="url(#pd5f84b246c)" style="fill: #1f77b4"/>
   </g>
   <g id="patch_47">
    <path d="M 111.855414 465.838125 
L 112.342708 465.838125 
L 112.342708 459.387334 
L 111.855414 459.387334 
z
" clip-path="url(#pd5f84b246c)" style="fill: #1f77b4"/>
   </g>
   <g id="patch_48">
    <path d="M 112.464531 465.838125 
L 112.951825 465.838125 
L 112.951825 459.96114 
L 112.464531 459.96114 
z
" clip-path="url(#pd5f84b246c)" style="fill: #1f77b4"/>
   </g>
   <g id="patch_49">
    <path d="M 113.073648 465.838125 
L 113.560942 465.838125 
L 113.560942 460.106101 
L 113.073648 460.106101 
z
" clip-path="url(#pd5f84b246c)" style="fill: #1f77b4"/>
   </g>
   <g id="patch_50">
    <path d="M 113.682765 465.838125 
L 114.170059 465.838125 
L 114.170059 460.758429 
L 113.682765 460.758429 
z
" clip-path="url(#pd5f84b246c)" style="fill: #1f77b4"/>
   </g>
   <g id="patch_51">
    <path d="M 114.291883 465.838125 
L 114.779176 465.838125 
L 114.779176 461.126873 
L 114.291883 461.126873 
z
" clip-path="url(#pd5f84b246c)" style="fill: #1f77b4"/>
   </g>
   <g id="patch_52">
    <path d="M 114.901 465.838125 
L 115.388293 465.838125 
L 115.388293 461.144993 
L 114.901 461.144993 
z
" clip-path="url(#pd5f84b246c)" style="fill: #1f77b4"/>
   </g>
   <g id="patch_53">
    <path d="M 115.510117 465.838125 
L 115.99741 465.838125 
L 115.99741 461.471157 
L 115.510117 461.471157 
z
" clip-path="url(#pd5f84b246c)" style="fill: #1f77b4"/>
   </g>
   <g id="patch_54">
    <path d="M 116.119234 465.838125 
L 116.606528 465.838125 
L 116.606528 462.141604 
L 116.119234 462.141604 
z
" clip-path="url(#pd5f84b246c)" style="fill: #1f77b4"/>
   </g>
   <g id="patch_55">
    <path d="M 116.728351 465.838125 
L 117.215645 465.838125 
L 117.215645 462.340926 
L 116.728351 462.340926 
z
" clip-path="url(#pd5f84b246c)" style="fill: #1f77b4"/>
   </g>
   <g id="patch_56">
    <path d="M 117.337468 465.838125 
L 117.824762 465.838125 
L 117.824762 462.69125 
L 117.337468 462.69125 
z
" clip-path="url(#pd5f84b246c)" style="fill: #1f77b4"/>
   </g>
   <g id="patch_57">
    <path d="M 117.946585 465.838125 
L 118.433879 465.838125 
L 118.433879 462.65501 
L 117.946585 462.65501 
z
" clip-path="url(#pd5f84b246c)" style="fill: #1f77b4"/>
   </g>
   <g id="patch_58">
    <path d="M 118.555702 465.838125 
L 119.042996 465.838125 
L 119.042996 462.763731 
L 118.555702 462.763731 
z
" clip-path="url(#pd5f84b246c)" style="fill: #1f77b4"/>
   </g>
   <g id="patch_59">
    <path d="M 119.164819 465.838125 
L 119.652113 465.838125 
L 119.652113 462.993253 
L 119.164819 462.993253 
z
" clip-path="url(#pd5f84b246c)" style="fill: #1f77b4"/>
   </g>
   <g id="patch_60">
    <path d="M 119.773937 465.838125 
L 120.26123 465.838125 
L 120.26123 463.246936 
L 119.773937 463.246936 
z
" clip-path="url(#pd5f84b246c)" style="fill: #1f77b4"/>
   </g>
   <g id="patch_61">
    <path d="M 120.383054 465.838125 
L 120.870347 465.838125 
L 120.870347 463.234856 
L 120.383054 463.234856 
z
" clip-path="url(#pd5f84b246c)" style="fill: #1f77b4"/>
   </g>
   <g id="patch_62">
    <path d="M 120.992171 465.838125 
L 121.479464 465.838125 
L 121.479464 463.530819 
L 120.992171 463.530819 
z
" clip-path="url(#pd5f84b246c)" style="fill: #1f77b4"/>
   </g>
   <g id="patch_63">
    <path d="M 121.601288 465.838125 
L 122.088582 465.838125 
L 122.088582 463.446258 
L 121.601288 463.446258 
z
" clip-path="url(#pd5f84b246c)" style="fill: #1f77b4"/>
   </g>
   <g id="patch_64">
    <path d="M 122.210405 465.838125 
L 122.697699 465.838125 
L 122.697699 463.917384 
L 122.210405 463.917384 
z
" clip-path="url(#pd5f84b246c)" style="fill: #1f77b4"/>
   </g>
   <g id="patch_65">
    <path d="M 122.819522 465.838125 
L 123.306816 465.838125 
L 123.306816 463.941544 
L 122.819522 463.941544 
z
" clip-path="url(#pd5f84b246c)" style="fill: #1f77b4"/>
   </g>
   <g id="patch_66">
    <path d="M 123.428639 465.838125 
L 123.915933 465.838125 
L 123.915933 464.038185 
L 123.428639 464.038185 
z
" clip-path="url(#pd5f84b246c)" style="fill: #1f77b4"/>
   </g>
   <g id="patch_67">
    <path d="M 124.037756 465.838125 
L 124.52505 465.838125 
L 124.52505 464.062345 
L 124.037756 464.062345 
z
" clip-path="url(#pd5f84b246c)" style="fill: #1f77b4"/>
   </g>
   <g id="patch_68">
    <path d="M 124.646873 465.838125 
L 125.134167 465.838125 
L 125.134167 464.249587 
L 124.646873 464.249587 
z
" clip-path="url(#pd5f84b246c)" style="fill: #1f77b4"/>
   </g>
   <g id="patch_69">
    <path d="M 125.25599 465.838125 
L 125.743284 465.838125 
L 125.743284 464.261668 
L 125.25599 464.261668 
z
" clip-path="url(#pd5f84b246c)" style="fill: #1f77b4"/>
   </g>
   <g id="patch_70">
    <path d="M 125.865108 465.838125 
L 126.352401 465.838125 
L 126.352401 464.394549 
L 125.865108 464.394549 
z
" clip-path="url(#pd5f84b246c)" style="fill: #1f77b4"/>
   </g>
   <g id="patch_71">
    <path d="M 126.474225 465.838125 
L 126.961518 465.838125 
L 126.961518 464.44287 
L 126.474225 464.44287 
z
" clip-path="url(#pd5f84b246c)" style="fill: #1f77b4"/>
   </g>
   <g id="patch_72">
    <path d="M 127.083342 465.838125 
L 127.570635 465.838125 
L 127.570635 464.49119 
L 127.083342 464.49119 
z
" clip-path="url(#pd5f84b246c)" style="fill: #1f77b4"/>
   </g>
   <g id="patch_73">
    <path d="M 127.692459 465.838125 
L 128.179753 465.838125 
L 128.179753 464.430789 
L 127.692459 464.430789 
z
" clip-path="url(#pd5f84b246c)" style="fill: #1f77b4"/>
   </g>
   <g id="patch_74">
    <path d="M 128.301576 465.838125 
L 128.78887 465.838125 
L 128.78887 464.424749 
L 128.301576 464.424749 
z
" clip-path="url(#pd5f84b246c)" style="fill: #1f77b4"/>
   </g>
   <g id="patch_75">
    <path d="M 128.910693 465.838125 
L 129.397987 465.838125 
L 129.397987 464.696552 
L 128.910693 464.696552 
z
" clip-path="url(#pd5f84b246c)" style="fill: #1f77b4"/>
   </g>
   <g id="patch_76">
    <path d="M 129.51981 465.838125 
L 130.007104 465.838125 
L 130.007104 464.545551 
L 129.51981 464.545551 
z
" clip-path="url(#pd5f84b246c)" style="fill: #1f77b4"/>
   </g>
   <g id="patch_77">
    <path d="M 130.128927 465.838125 
L 130.616221 465.838125 
L 130.616221 464.684472 
L 130.128927 464.684472 
z
" clip-path="url(#pd5f84b246c)" style="fill: #1f77b4"/>
   </g>
   <g id="patch_78">
    <path d="M 130.738044 465.838125 
L 131.225338 465.838125 
L 131.225338 464.599911 
L 130.738044 464.599911 
z
" clip-path="url(#pd5f84b246c)" style="fill: #1f77b4"/>
   </g>
   <g id="patch_79">
    <path d="M 131.347162 465.838125 
L 131.834455 465.838125 
L 131.834455 464.775073 
L 131.347162 464.775073 
z
" clip-path="url(#pd5f84b246c)" style="fill: #1f77b4"/>
   </g>
   <g id="patch_80">
    <path d="M 131.956279 465.838125 
L 132.443572 465.838125 
L 132.443572 464.889834 
L 131.956279 464.889834 
z
" clip-path="url(#pd5f84b246c)" style="fill: #1f77b4"/>
   </g>
   <g id="patch_81">
    <path d="M 132.565396 465.838125 
L 133.052689 465.838125 
L 133.052689 464.829434 
L 132.565396 464.829434 
z
" clip-path="url(#pd5f84b246c)" style="fill: #1f77b4"/>
   </g>
   <g id="patch_82">
    <path d="M 133.174513 465.838125 
L 133.661807 465.838125 
L 133.661807 464.895875 
L 133.174513 464.895875 
z
" clip-path="url(#pd5f84b246c)" style="fill: #1f77b4"/>
   </g>
   <g id="patch_83">
    <path d="M 133.78363 465.838125 
L 134.270924 465.838125 
L 134.270924 465.058956 
L 133.78363 465.058956 
z
" clip-path="url(#pd5f84b246c)" style="fill: #1f77b4"/>
   </g>
   <g id="patch_84">
    <path d="M 134.392747 465.838125 
L 134.880041 465.838125 
L 134.880041 465.004596 
L 134.392747 465.004596 
z
" clip-path="url(#pd5f84b246c)" style="fill: #1f77b4"/>
   </g>
   <g id="patch_85">
    <path d="M 135.001864 465.838125 
L 135.489158 465.838125 
L 135.489158 465.149557 
L 135.001864 465.149557 
z
" clip-path="url(#pd5f84b246c)" style="fill: #1f77b4"/>
   </g>
   <g id="patch_86">
    <path d="M 135.610981 465.838125 
L 136.098275 465.838125 
L 136.098275 465.083117 
L 135.610981 465.083117 
z
" clip-path="url(#pd5f84b246c)" style="fill: #1f77b4"/>
   </g>
   <g id="patch_87">
    <path d="M 136.220098 465.838125 
L 136.707392 465.838125 
L 136.707392 465.197878 
L 136.220098 465.197878 
z
" clip-path="url(#pd5f84b246c)" style="fill: #1f77b4"/>
   </g>
   <g id="patch_88">
    <path d="M 136.829216 465.838125 
L 137.316509 465.838125 
L 137.316509 465.222038 
L 136.829216 465.222038 
z
" clip-path="url(#pd5f84b246c)" style="fill: #1f77b4"/>
   </g>
   <g id="patch_89">
    <path d="M 137.438333 465.838125 
L 137.925626 465.838125 
L 137.925626 465.046876 
L 137.438333 465.046876 
z
" clip-path="url(#pd5f84b246c)" style="fill: #1f77b4"/>
   </g>
   <g id="patch_90">
    <path d="M 138.04745 465.838125 
L 138.534743 465.838125 
L 138.534743 465.149557 
L 138.04745 465.149557 
z
" clip-path="url(#pd5f84b246c)" style="fill: #1f77b4"/>
   </g>
   <g id="patch_91">
    <path d="M 138.656567 465.838125 
L 139.143861 465.838125 
L 139.143861 465.197878 
L 138.656567 465.197878 
z
" clip-path="url(#pd5f84b246c)" style="fill: #1f77b4"/>
   </g>
   <g id="patch_92">
    <path d="M 139.265684 465.838125 
L 139.752978 465.838125 
L 139.752978 465.234118 
L 139.265684 465.234118 
z
" clip-path="url(#pd5f84b246c)" style="fill: #1f77b4"/>
   </g>
   <g id="patch_93">
    <path d="M 139.874801 465.838125 
L 140.362095 465.838125 
L 140.362095 465.336799 
L 139.874801 465.336799 
z
" clip-path="url(#pd5f84b246c)" style="fill: #1f77b4"/>
   </g>
   <g id="patch_94">
    <path d="M 140.483918 465.838125 
L 140.971212 465.838125 
L 140.971212 465.240158 
L 140.483918 465.240158 
z
" clip-path="url(#pd5f84b246c)" style="fill: #1f77b4"/>
   </g>
   <g id="patch_95">
    <path d="M 141.093035 465.838125 
L 141.580329 465.838125 
L 141.580329 465.246198 
L 141.093035 465.246198 
z
" clip-path="url(#pd5f84b246c)" style="fill: #1f77b4"/>
   </g>
   <g id="patch_96">
    <path d="M 141.702152 465.838125 
L 142.189446 465.838125 
L 142.189446 465.318679 
L 141.702152 465.318679 
z
" clip-path="url(#pd5f84b246c)" style="fill: #1f77b4"/>
   </g>
   <g id="patch_97">
    <path d="M 142.311269 465.838125 
L 142.798563 465.838125 
L 142.798563 465.306599 
L 142.311269 465.306599 
z
" clip-path="url(#pd5f84b246c)" style="fill: #1f77b4"/>
   </g>
   <g id="patch_98">
    <path d="M 142.920387 465.838125 
L 143.40768 465.838125 
L 143.40768 465.36096 
L 142.920387 465.36096 
z
" clip-path="url(#pd5f84b246c)" style="fill: #1f77b4"/>
   </g>
   <g id="patch_99">
    <path d="M 143.529504 465.838125 
L 144.016797 465.838125 
L 144.016797 465.37908 
L 143.529504 465.37908 
z
" clip-path="url(#pd5f84b246c)" style="fill: #1f77b4"/>
   </g>
   <g id="patch_100">
    <path d="M 144.138621 465.838125 
L 144.625914 465.838125 
L 144.625914 465.306599 
L 144.138621 465.306599 
z
" clip-path="url(#pd5f84b246c)" style="fill: #1f77b4"/>
   </g>
   <g id="patch_101">
    <path d="M 144.747738 465.838125 
L 145.235032 465.838125 
L 145.235032 465.300559 
L 144.747738 465.300559 
z
" clip-path="url(#pd5f84b246c)" style="fill: #1f77b4"/>
   </g>
   <g id="patch_102">
    <path d="M 145.356855 465.838125 
L 145.844149 465.838125 
L 145.844149 465.35492 
L 145.356855 465.35492 
z
" clip-path="url(#pd5f84b246c)" style="fill: #1f77b4"/>
   </g>
   <g id="patch_103">
    <path d="M 145.965972 465.838125 
L 146.453266 465.838125 
L 146.453266 465.37304 
L 145.965972 465.37304 
z
" clip-path="url(#pd5f84b246c)" style="fill: #1f77b4"/>
   </g>
   <g id="patch_104">
    <path d="M 146.575089 465.838125 
L 147.062383 465.838125 
L 147.062383 465.475721 
L 146.575089 465.475721 
z
" clip-path="url(#pd5f84b246c)" style="fill: #1f77b4"/>
   </g>
   <g id="patch_105">
    <path d="M 147.184206 465.838125 
L 147.6715 465.838125 
L 147.6715 465.445521 
L 147.184206 465.445521 
z
" clip-path="url(#pd5f84b246c)" style="fill: #1f77b4"/>
   </g>
   <g id="patch_106">
    <path d="M 147.793323 465.838125 
L 148.280617 465.838125 
L 148.280617 465.433441 
L 147.793323 465.433441 
z
" clip-path="url(#pd5f84b246c)" style="fill: #1f77b4"/>
   </g>
   <g id="patch_107">
    <path d="M 148.402441 465.838125 
L 148.889734 465.838125 
L 148.889734 465.42136 
L 148.402441 465.42136 
z
" clip-path="url(#pd5f84b246c)" style="fill: #1f77b4"/>
   </g>
   <g id="patch_108">
    <path d="M 149.011558 465.838125 
L 149.498851 465.838125 
L 149.498851 465.41532 
L 149.011558 465.41532 
z
" clip-path="url(#pd5f84b246c)" style="fill: #1f77b4"/>
   </g>
   <g id="patch_109">
    <path d="M 149.620675 465.838125 
L 150.107968 465.838125 
L 150.107968 465.40324 
L 149.620675 465.40324 
z
" clip-path="url(#pd5f84b246c)" style="fill: #1f77b4"/>
   </g>
   <g id="patch_110">
    <path d="M 150.229792 465.838125 
L 150.717086 465.838125 
L 150.717086 465.499881 
L 150.229792 465.499881 
z
" clip-path="url(#pd5f84b246c)" style="fill: #1f77b4"/>
   </g>
   <g id="patch_111">
    <path d="M 150.838909 465.838125 
L 151.326203 465.838125 
L 151.326203 465.42136 
L 150.838909 465.42136 
z
" clip-path="url(#pd5f84b246c)" style="fill: #1f77b4"/>
   </g>
   <g id="patch_112">
    <path d="M 151.448026 465.838125 
L 151.93532 465.838125 
L 151.93532 465.518001 
L 151.448026 465.518001 
z
" clip-path="url(#pd5f84b246c)" style="fill: #1f77b4"/>
   </g>
   <g id="patch_113">
    <path d="M 152.057143 465.838125 
L 152.544437 465.838125 
L 152.544437 465.439481 
L 152.057143 465.439481 
z
" clip-path="url(#pd5f84b246c)" style="fill: #1f77b4"/>
   </g>
   <g id="patch_114">
    <path d="M 152.66626 465.838125 
L 153.153554 465.838125 
L 153.153554 465.524042 
L 152.66626 465.524042 
z
" clip-path="url(#pd5f84b246c)" style="fill: #1f77b4"/>
   </g>
   <g id="patch_115">
    <path d="M 153.275377 465.838125 
L 153.762671 465.838125 
L 153.762671 465.548202 
L 153.275377 465.548202 
z
" clip-path="url(#pd5f84b246c)" style="fill: #1f77b4"/>
   </g>
   <g id="patch_116">
    <path d="M 153.884495 465.838125 
L 154.371788 465.838125 
L 154.371788 465.590482 
L 153.884495 465.590482 
z
" clip-path="url(#pd5f84b246c)" style="fill: #1f77b4"/>
   </g>
   <g id="patch_117">
    <path d="M 154.493612 465.838125 
L 154.980905 465.838125 
L 154.980905 465.511961 
L 154.493612 465.511961 
z
" clip-path="url(#pd5f84b246c)" style="fill: #1f77b4"/>
   </g>
   <g id="patch_118">
    <path d="M 155.102729 465.838125 
L 155.590022 465.838125 
L 155.590022 465.608602 
L 155.102729 465.608602 
z
" clip-path="url(#pd5f84b246c)" style="fill: #1f77b4"/>
   </g>
   <g id="patch_119">
    <path d="M 155.711846 465.838125 
L 156.19914 465.838125 
L 156.19914 465.518001 
L 155.711846 465.518001 
z
" clip-path="url(#pd5f84b246c)" style="fill: #1f77b4"/>
   </g>
   <g id="patch_120">
    <path d="M 156.320963 465.838125 
L 156.808257 465.838125 
L 156.808257 465.614643 
L 156.320963 465.614643 
z
" clip-path="url(#pd5f84b246c)" style="fill: #1f77b4"/>
   </g>
   <g id="patch_121">
    <path d="M 156.93008 465.838125 
L 157.417374 465.838125 
L 157.417374 465.620683 
L 156.93008 465.620683 
z
" clip-path="url(#pd5f84b246c)" style="fill: #1f77b4"/>
   </g>
   <g id="patch_122">
    <path d="M 157.539197 465.838125 
L 158.026491 465.838125 
L 158.026491 465.566322 
L 157.539197 465.566322 
z
" clip-path="url(#pd5f84b246c)" style="fill: #1f77b4"/>
   </g>
   <g id="patch_123">
    <path d="M 158.148314 465.838125 
L 158.635608 465.838125 
L 158.635608 465.505921 
L 158.148314 465.505921 
z
" clip-path="url(#pd5f84b246c)" style="fill: #1f77b4"/>
   </g>
   <g id="patch_124">
    <path d="M 158.757431 465.838125 
L 159.244725 465.838125 
L 159.244725 465.560282 
L 158.757431 465.560282 
z
" clip-path="url(#pd5f84b246c)" style="fill: #1f77b4"/>
   </g>
   <g id="patch_125">
    <path d="M 159.366549 465.838125 
L 159.853842 465.838125 
L 159.853842 465.596522 
L 159.366549 465.596522 
z
" clip-path="url(#pd5f84b246c)" style="fill: #1f77b4"/>
   </g>
   <g id="patch_126">
    <path d="M 159.975666 465.838125 
L 160.462959 465.838125 
L 160.462959 465.675043 
L 159.975666 465.675043 
z
" clip-path="url(#pd5f84b246c)" style="fill: #1f77b4"/>
   </g>
   <g id="patch_127">
    <path d="M 160.584783 465.838125 
L 161.072076 465.838125 
L 161.072076 465.566322 
L 160.584783 465.566322 
z
" clip-path="url(#pd5f84b246c)" style="fill: #1f77b4"/>
   </g>
   <g id="patch_128">
    <path d="M 161.1939 465.838125 
L 161.681194 465.838125 
L 161.681194 465.602562 
L 161.1939 465.602562 
z
" clip-path="url(#pd5f84b246c)" style="fill: #1f77b4"/>
   </g>
   <g id="patch_129">
    <path d="M 161.803017 465.838125 
L 162.290311 465.838125 
L 162.290311 465.650883 
L 161.803017 465.650883 
z
" clip-path="url(#pd5f84b246c)" style="fill: #1f77b4"/>
   </g>
   <g id="patch_130">
    <path d="M 162.412134 465.838125 
L 162.899428 465.838125 
L 162.899428 465.590482 
L 162.412134 465.590482 
z
" clip-path="url(#pd5f84b246c)" style="fill: #1f77b4"/>
   </g>
   <g id="patch_131">
    <path d="M 163.021251 465.838125 
L 163.508545 465.838125 
L 163.508545 465.626723 
L 163.021251 465.626723 
z
" clip-path="url(#pd5f84b246c)" style="fill: #1f77b4"/>
   </g>
   <g id="patch_132">
    <path d="M 163.630368 465.838125 
L 164.117662 465.838125 
L 164.117662 465.735444 
L 163.630368 465.735444 
z
" clip-path="url(#pd5f84b246c)" style="fill: #1f77b4"/>
   </g>
   <g id="patch_133">
    <path d="M 164.239485 465.838125 
L 164.726779 465.838125 
L 164.726779 465.644843 
L 164.239485 465.644843 
z
" clip-path="url(#pd5f84b246c)" style="fill: #1f77b4"/>
   </g>
   <g id="patch_134">
    <path d="M 164.848602 465.838125 
L 165.335896 465.838125 
L 165.335896 465.656923 
L 164.848602 465.656923 
z
" clip-path="url(#pd5f84b246c)" style="fill: #1f77b4"/>
   </g>
   <g id="patch_135">
    <path d="M 165.45772 465.838125 
L 165.945013 465.838125 
L 165.945013 465.687123 
L 165.45772 465.687123 
z
" clip-path="url(#pd5f84b246c)" style="fill: #1f77b4"/>
   </g>
   <g id="patch_136">
    <path d="M 166.066837 465.838125 
L 166.55413 465.838125 
L 166.55413 465.626723 
L 166.066837 465.626723 
z
" clip-path="url(#pd5f84b246c)" style="fill: #1f77b4"/>
   </g>
   <g id="patch_137">
    <path d="M 166.675954 465.838125 
L 167.163247 465.838125 
L 167.163247 465.644843 
L 166.675954 465.644843 
z
" clip-path="url(#pd5f84b246c)" style="fill: #1f77b4"/>
   </g>
   <g id="patch_138">
    <path d="M 167.285071 465.838125 
L 167.772365 465.838125 
L 167.772365 465.602562 
L 167.285071 465.602562 
z
" clip-path="url(#pd5f84b246c)" style="fill: #1f77b4"/>
   </g>
   <g id="patch_139">
    <path d="M 167.894188 465.838125 
L 168.381482 465.838125 
L 168.381482 465.669003 
L 167.894188 465.669003 
z
" clip-path="url(#pd5f84b246c)" style="fill: #1f77b4"/>
   </g>
   <g id="patch_140">
    <path d="M 168.503305 465.838125 
L 168.990599 465.838125 
L 168.990599 465.711284 
L 168.503305 465.711284 
z
" clip-path="url(#pd5f84b246c)" style="fill: #1f77b4"/>
   </g>
   <g id="patch_141">
    <path d="M 169.112422 465.838125 
L 169.599716 465.838125 
L 169.599716 465.656923 
L 169.112422 465.656923 
z
" clip-path="url(#pd5f84b246c)" style="fill: #1f77b4"/>
   </g>
   <g id="patch_142">
    <path d="M 169.721539 465.838125 
L 170.208833 465.838125 
L 170.208833 465.705244 
L 169.721539 465.705244 
z
" clip-path="url(#pd5f84b246c)" style="fill: #1f77b4"/>
   </g>
   <g id="patch_143">
    <path d="M 170.330656 465.838125 
L 170.81795 465.838125 
L 170.81795 465.693163 
L 170.330656 465.693163 
z
" clip-path="url(#pd5f84b246c)" style="fill: #1f77b4"/>
   </g>
   <g id="patch_144">
    <path d="M 170.939774 465.838125 
L 171.427067 465.838125 
L 171.427067 465.699203 
L 170.939774 465.699203 
z
" clip-path="url(#pd5f84b246c)" style="fill: #1f77b4"/>
   </g>
   <g id="patch_145">
    <path d="M 171.548891 465.838125 
L 172.036184 465.838125 
L 172.036184 465.711284 
L 171.548891 465.711284 
z
" clip-path="url(#pd5f84b246c)" style="fill: #1f77b4"/>
   </g>
   <g id="patch_146">
    <path d="M 172.158008 465.838125 
L 172.645301 465.838125 
L 172.645301 465.699203 
L 172.158008 465.699203 
z
" clip-path="url(#pd5f84b246c)" style="fill: #1f77b4"/>
   </g>
   <g id="patch_147">
    <path d="M 172.767125 465.838125 
L 173.254419 465.838125 
L 173.254419 465.759604 
L 172.767125 465.759604 
z
" clip-path="url(#pd5f84b246c)" style="fill: #1f77b4"/>
   </g>
   <g id="patch_148">
    <path d="M 173.376242 465.838125 
L 173.863536 465.838125 
L 173.863536 465.705244 
L 173.376242 465.705244 
z
" clip-path="url(#pd5f84b246c)" style="fill: #1f77b4"/>
   </g>
   <g id="patch_149">
    <path d="M 173.985359 465.838125 
L 174.472653 465.838125 
L 174.472653 465.699203 
L 173.985359 465.699203 
z
" clip-path="url(#pd5f84b246c)" style="fill: #1f77b4"/>
   </g>
   <g id="patch_150">
    <path d="M 174.594476 465.838125 
L 175.08177 465.838125 
L 175.08177 465.765644 
L 174.594476 465.765644 
z
" clip-path="url(#pd5f84b246c)" style="fill: #1f77b4"/>
   </g>
   <g id="patch_151">
    <path d="M 175.203593 465.838125 
L 175.690887 465.838125 
L 175.690887 465.729404 
L 175.203593 465.729404 
z
" clip-path="url(#pd5f84b246c)" style="fill: #1f77b4"/>
   </g>
   <g id="patch_152">
    <path d="M 175.81271 465.838125 
L 176.300004 465.838125 
L 176.300004 465.741484 
L 175.81271 465.741484 
z
" clip-path="url(#pd5f84b246c)" style="fill: #1f77b4"/>
   </g>
   <g id="patch_153">
    <path d="M 176.421828 465.838125 
L 176.909121 465.838125 
L 176.909121 465.777724 
L 176.421828 465.777724 
z
" clip-path="url(#pd5f84b246c)" style="fill: #1f77b4"/>
   </g>
   <g id="patch_154">
    <path d="M 177.030945 465.838125 
L 177.518238 465.838125 
L 177.518238 465.717324 
L 177.030945 465.717324 
z
" clip-path="url(#pd5f84b246c)" style="fill: #1f77b4"/>
   </g>
   <g id="patch_155">
    <path d="M 177.640062 465.838125 
L 178.127355 465.838125 
L 178.127355 465.717324 
L 177.640062 465.717324 
z
" clip-path="url(#pd5f84b246c)" style="fill: #1f77b4"/>
   </g>
   <g id="patch_156">
    <path d="M 178.249179 465.838125 
L 178.736473 465.838125 
L 178.736473 465.711284 
L 178.249179 465.711284 
z
" clip-path="url(#pd5f84b246c)" style="fill: #1f77b4"/>
   </g>
   <g id="patch_157">
    <path d="M 178.858296 465.838125 
L 179.34559 465.838125 
L 179.34559 465.789804 
L 178.858296 465.789804 
z
" clip-path="url(#pd5f84b246c)" style="fill: #1f77b4"/>
   </g>
   <g id="patch_158">
    <path d="M 179.467413 465.838125 
L 179.954707 465.838125 
L 179.954707 465.777724 
L 179.467413 465.777724 
z
" clip-path="url(#pd5f84b246c)" style="fill: #1f77b4"/>
   </g>
   <g id="patch_159">
    <path d="M 180.07653 465.838125 
L 180.563824 465.838125 
L 180.563824 465.765644 
L 180.07653 465.765644 
z
" clip-path="url(#pd5f84b246c)" style="fill: #1f77b4"/>
   </g>
   <g id="patch_160">
    <path d="M 180.685647 465.838125 
L 181.172941 465.838125 
L 181.172941 465.783764 
L 180.685647 465.783764 
z
" clip-path="url(#pd5f84b246c)" style="fill: #1f77b4"/>
   </g>
   <g id="patch_161">
    <path d="M 181.294764 465.838125 
L 181.782058 465.838125 
L 181.782058 465.765644 
L 181.294764 465.765644 
z
" clip-path="url(#pd5f84b246c)" style="fill: #1f77b4"/>
   </g>
   <g id="patch_162">
    <path d="M 181.903881 465.838125 
L 182.391175 465.838125 
L 182.391175 465.759604 
L 181.903881 465.759604 
z
" clip-path="url(#pd5f84b246c)" style="fill: #1f77b4"/>
   </g>
   <g id="patch_163">
    <path d="M 182.512999 465.838125 
L 183.000292 465.838125 
L 183.000292 465.741484 
L 182.512999 465.741484 
z
" clip-path="url(#pd5f84b246c)" style="fill: #1f77b4"/>
   </g>
   <g id="patch_164">
    <path d="M 183.122116 465.838125 
L 183.609409 465.838125 
L 183.609409 465.759604 
L 183.122116 465.759604 
z
" clip-path="url(#pd5f84b246c)" style="fill: #1f77b4"/>
   </g>
   <g id="patch_165">
    <path d="M 183.731233 465.838125 
L 184.218526 465.838125 
L 184.218526 465.723364 
L 183.731233 465.723364 
z
" clip-path="url(#pd5f84b246c)" style="fill: #1f77b4"/>
   </g>
   <g id="patch_166">
    <path d="M 184.34035 465.838125 
L 184.827644 465.838125 
L 184.827644 465.759604 
L 184.34035 465.759604 
z
" clip-path="url(#pd5f84b246c)" style="fill: #1f77b4"/>
   </g>
   <g id="patch_167">
    <path d="M 184.949467 465.838125 
L 185.436761 465.838125 
L 185.436761 465.759604 
L 184.949467 465.759604 
z
" clip-path="url(#pd5f84b246c)" style="fill: #1f77b4"/>
   </g>
   <g id="patch_168">
    <path d="M 185.558584 465.838125 
L 186.045878 465.838125 
L 186.045878 465.783764 
L 185.558584 465.783764 
z
" clip-path="url(#pd5f84b246c)" style="fill: #1f77b4"/>
   </g>
   <g id="patch_169">
    <path d="M 186.167701 465.838125 
L 186.654995 465.838125 
L 186.654995 465.777724 
L 186.167701 465.777724 
z
" clip-path="url(#pd5f84b246c)" style="fill: #1f77b4"/>
   </g>
   <g id="patch_170">
    <path d="M 186.776818 465.838125 
L 187.264112 465.838125 
L 187.264112 465.801885 
L 186.776818 465.801885 
z
" clip-path="url(#pd5f84b246c)" style="fill: #1f77b4"/>
   </g>
   <g id="patch_171">
    <path d="M 187.385935 465.838125 
L 187.873229 465.838125 
L 187.873229 465.759604 
L 187.385935 465.759604 
z
" clip-path="url(#pd5f84b246c)" style="fill: #1f77b4"/>
   </g>
   <g id="patch_172">
    <path d="M 187.995053 465.838125 
L 188.482346 465.838125 
L 188.482346 465.765644 
L 187.995053 465.765644 
z
" clip-path="url(#pd5f84b246c)" style="fill: #1f77b4"/>
   </g>
   <g id="patch_173">
    <path d="M 188.60417 465.838125 
L 189.091463 465.838125 
L 189.091463 465.777724 
L 188.60417 465.777724 
z
" clip-path="url(#pd5f84b246c)" style="fill: #1f77b4"/>
   </g>
   <g id="patch_174">
    <path d="M 189.213287 465.838125 
L 189.70058 465.838125 
L 189.70058 465.777724 
L 189.213287 465.777724 
z
" clip-path="url(#pd5f84b246c)" style="fill: #1f77b4"/>
   </g>
   <g id="patch_175">
    <path d="M 189.822404 465.838125 
L 190.309698 465.838125 
L 190.309698 465.759604 
L 189.822404 465.759604 
z
" clip-path="url(#pd5f84b246c)" style="fill: #1f77b4"/>
   </g>
   <g id="patch_176">
    <path d="M 190.431521 465.838125 
L 190.918815 465.838125 
L 190.918815 465.789804 
L 190.431521 465.789804 
z
" clip-path="url(#pd5f84b246c)" style="fill: #1f77b4"/>
   </g>
   <g id="patch_177">
    <path d="M 191.040638 465.838125 
L 191.527932 465.838125 
L 191.527932 465.783764 
L 191.040638 465.783764 
z
" clip-path="url(#pd5f84b246c)" style="fill: #1f77b4"/>
   </g>
   <g id="patch_178">
    <path d="M 191.649755 465.838125 
L 192.137049 465.838125 
L 192.137049 465.807925 
L 191.649755 465.807925 
z
" clip-path="url(#pd5f84b246c)" style="fill: #1f77b4"/>
   </g>
   <g id="patch_179">
    <path d="M 192.258872 465.838125 
L 192.746166 465.838125 
L 192.746166 465.783764 
L 192.258872 465.783764 
z
" clip-path="url(#pd5f84b246c)" style="fill: #1f77b4"/>
   </g>
   <g id="patch_180">
    <path d="M 192.867989 465.838125 
L 193.355283 465.838125 
L 193.355283 465.789804 
L 192.867989 465.789804 
z
" clip-path="url(#pd5f84b246c)" style="fill: #1f77b4"/>
   </g>
   <g id="patch_181">
    <path d="M 193.477107 465.838125 
L 193.9644 465.838125 
L 193.9644 465.783764 
L 193.477107 465.783764 
z
" clip-path="url(#pd5f84b246c)" style="fill: #1f77b4"/>
   </g>
   <g id="patch_182">
    <path d="M 194.086224 465.838125 
L 194.573517 465.838125 
L 194.573517 465.795845 
L 194.086224 465.795845 
z
" clip-path="url(#pd5f84b246c)" style="fill: #1f77b4"/>
   </g>
   <g id="patch_183">
    <path d="M 194.695341 465.838125 
L 195.182634 465.838125 
L 195.182634 465.753564 
L 194.695341 465.753564 
z
" clip-path="url(#pd5f84b246c)" style="fill: #1f77b4"/>
   </g>
   <g id="patch_184">
    <path d="M 195.304458 465.838125 
L 195.791752 465.838125 
L 195.791752 465.801885 
L 195.304458 465.801885 
z
" clip-path="url(#pd5f84b246c)" style="fill: #1f77b4"/>
   </g>
   <g id="patch_185">
    <path d="M 195.913575 465.838125 
L 196.400869 465.838125 
L 196.400869 465.747524 
L 195.913575 465.747524 
z
" clip-path="url(#pd5f84b246c)" style="fill: #1f77b4"/>
   </g>
   <g id="patch_186">
    <path d="M 196.522692 465.838125 
L 197.009986 465.838125 
L 197.009986 465.765644 
L 196.522692 465.765644 
z
" clip-path="url(#pd5f84b246c)" style="fill: #1f77b4"/>
   </g>
   <g id="patch_187">
    <path d="M 197.131809 465.838125 
L 197.619103 465.838125 
L 197.619103 465.795845 
L 197.131809 465.795845 
z
" clip-path="url(#pd5f84b246c)" style="fill: #1f77b4"/>
   </g>
   <g id="patch_188">
    <path d="M 197.740926 465.838125 
L 198.22822 465.838125 
L 198.22822 465.789804 
L 197.740926 465.789804 
z
" clip-path="url(#pd5f84b246c)" style="fill: #1f77b4"/>
   </g>
   <g id="patch_189">
    <path d="M 198.350043 465.838125 
L 198.837337 465.838125 
L 198.837337 465.783764 
L 198.350043 465.783764 
z
" clip-path="url(#pd5f84b246c)" style="fill: #1f77b4"/>
   </g>
   <g id="patch_190">
    <path d="M 198.95916 465.838125 
L 199.446454 465.838125 
L 199.446454 465.783764 
L 198.95916 465.783764 
z
" clip-path="url(#pd5f84b246c)" style="fill: #1f77b4"/>
   </g>
   <g id="patch_191">
    <path d="M 199.568278 465.838125 
L 200.055571 465.838125 
L 200.055571 465.813965 
L 199.568278 465.813965 
z
" clip-path="url(#pd5f84b246c)" style="fill: #1f77b4"/>
   </g>
   <g id="patch_192">
    <path d="M 200.177395 465.838125 
L 200.664688 465.838125 
L 200.664688 465.807925 
L 200.177395 465.807925 
z
" clip-path="url(#pd5f84b246c)" style="fill: #1f77b4"/>
   </g>
   <g id="patch_193">
    <path d="M 200.786512 465.838125 
L 201.273806 465.838125 
L 201.273806 465.801885 
L 200.786512 465.801885 
z
" clip-path="url(#pd5f84b246c)" style="fill: #1f77b4"/>
   </g>
   <g id="patch_194">
    <path d="M 201.395629 465.838125 
L 201.882923 465.838125 
L 201.882923 465.801885 
L 201.395629 465.801885 
z
" clip-path="url(#pd5f84b246c)" style="fill: #1f77b4"/>
   </g>
   <g id="patch_195">
    <path d="M 202.004746 465.838125 
L 202.49204 465.838125 
L 202.49204 465.801885 
L 202.004746 465.801885 
z
" clip-path="url(#pd5f84b246c)" style="fill: #1f77b4"/>
   </g>
   <g id="patch_196">
    <path d="M 202.613863 465.838125 
L 203.101157 465.838125 
L 203.101157 465.801885 
L 202.613863 465.801885 
z
" clip-path="url(#pd5f84b246c)" style="fill: #1f77b4"/>
   </g>
   <g id="patch_197">
    <path d="M 203.22298 465.838125 
L 203.710274 465.838125 
L 203.710274 465.820005 
L 203.22298 465.820005 
z
" clip-path="url(#pd5f84b246c)" style="fill: #1f77b4"/>
   </g>
   <g id="patch_198">
    <path d="M 203.832097 465.838125 
L 204.319391 465.838125 
L 204.319391 465.813965 
L 203.832097 465.813965 
z
" clip-path="url(#pd5f84b246c)" style="fill: #1f77b4"/>
   </g>
   <g id="patch_199">
    <path d="M 204.441214 465.838125 
L 204.928508 465.838125 
L 204.928508 465.801885 
L 204.441214 465.801885 
z
" clip-path="url(#pd5f84b246c)" style="fill: #1f77b4"/>
   </g>
   <g id="patch_200">
    <path d="M 205.050332 465.838125 
L 205.537625 465.838125 
L 205.537625 465.813965 
L 205.050332 465.813965 
z
" clip-path="url(#pd5f84b246c)" style="fill: #1f77b4"/>
   </g>
   <g id="patch_201">
    <path d="M 205.659449 465.838125 
L 206.146742 465.838125 
L 206.146742 465.801885 
L 205.659449 465.801885 
z
" clip-path="url(#pd5f84b246c)" style="fill: #1f77b4"/>
   </g>
   <g id="patch_202">
    <path d="M 206.268566 465.838125 
L 206.755859 465.838125 
L 206.755859 465.826045 
L 206.268566 465.826045 
z
" clip-path="url(#pd5f84b246c)" style="fill: #1f77b4"/>
   </g>
   <g id="patch_203">
    <path d="M 206.877683 465.838125 
L 207.364977 465.838125 
L 207.364977 465.832085 
L 206.877683 465.832085 
z
" clip-path="url(#pd5f84b246c)" style="fill: #1f77b4"/>
   </g>
   <g id="patch_204">
    <path d="M 207.4868 465.838125 
L 207.974094 465.838125 
L 207.974094 465.801885 
L 207.4868 465.801885 
z
" clip-path="url(#pd5f84b246c)" style="fill: #1f77b4"/>
   </g>
   <g id="patch_205">
    <path d="M 208.095917 465.838125 
L 208.583211 465.838125 
L 208.583211 465.801885 
L 208.095917 465.801885 
z
" clip-path="url(#pd5f84b246c)" style="fill: #1f77b4"/>
   </g>
   <g id="patch_206">
    <path d="M 208.705034 465.838125 
L 209.192328 465.838125 
L 209.192328 465.801885 
L 208.705034 465.801885 
z
" clip-path="url(#pd5f84b246c)" style="fill: #1f77b4"/>
   </g>
   <g id="patch_207">
    <path d="M 209.314151 465.838125 
L 209.801445 465.838125 
L 209.801445 465.813965 
L 209.314151 465.813965 
z
" clip-path="url(#pd5f84b246c)" style="fill: #1f77b4"/>
   </g>
   <g id="patch_208">
    <path d="M 209.923268 465.838125 
L 210.410562 465.838125 
L 210.410562 465.795845 
L 209.923268 465.795845 
z
" clip-path="url(#pd5f84b246c)" style="fill: #1f77b4"/>
   </g>
   <g id="patch_209">
    <path d="M 210.532386 465.838125 
L 211.019679 465.838125 
L 211.019679 465.820005 
L 210.532386 465.820005 
z
" clip-path="url(#pd5f84b246c)" style="fill: #1f77b4"/>
   </g>
   <g id="patch_210">
    <path d="M 211.141503 465.838125 
L 211.628796 465.838125 
L 211.628796 465.807925 
L 211.141503 465.807925 
z
" clip-path="url(#pd5f84b246c)" style="fill: #1f77b4"/>
   </g>
   <g id="patch_211">
    <path d="M 211.75062 465.838125 
L 212.237913 465.838125 
L 212.237913 465.826045 
L 211.75062 465.826045 
z
" clip-path="url(#pd5f84b246c)" style="fill: #1f77b4"/>
   </g>
   <g id="patch_212">
    <path d="M 212.359737 465.838125 
L 212.847031 465.838125 
L 212.847031 465.820005 
L 212.359737 465.820005 
z
" clip-path="url(#pd5f84b246c)" style="fill: #1f77b4"/>
   </g>
   <g id="patch_213">
    <path d="M 212.968854 465.838125 
L 213.456148 465.838125 
L 213.456148 465.801885 
L 212.968854 465.801885 
z
" clip-path="url(#pd5f84b246c)" style="fill: #1f77b4"/>
   </g>
   <g id="patch_214">
    <path d="M 213.577971 465.838125 
L 214.065265 465.838125 
L 214.065265 465.820005 
L 213.577971 465.820005 
z
" clip-path="url(#pd5f84b246c)" style="fill: #1f77b4"/>
   </g>
   <g id="patch_215">
    <path d="M 214.187088 465.838125 
L 214.674382 465.838125 
L 214.674382 465.832085 
L 214.187088 465.832085 
z
" clip-path="url(#pd5f84b246c)" style="fill: #1f77b4"/>
   </g>
   <g id="patch_216">
    <path d="M 214.796205 465.838125 
L 215.283499 465.838125 
L 215.283499 465.807925 
L 214.796205 465.807925 
z
" clip-path="url(#pd5f84b246c)" style="fill: #1f77b4"/>
   </g>
   <g id="patch_217">
    <path d="M 215.405322 465.838125 
L 215.892616 465.838125 
L 215.892616 465.813965 
L 215.405322 465.813965 
z
" clip-path="url(#pd5f84b246c)" style="fill: #1f77b4"/>
   </g>
   <g id="patch_218">
    <path d="M 216.01444 465.838125 
L 216.501733 465.838125 
L 216.501733 465.807925 
L 216.01444 465.807925 
z
" clip-path="url(#pd5f84b246c)" style="fill: #1f77b4"/>
   </g>
   <g id="patch_219">
    <path d="M 216.623557 465.838125 
L 217.11085 465.838125 
L 217.11085 465.813965 
L 216.623557 465.813965 
z
" clip-path="url(#pd5f84b246c)" style="fill: #1f77b4"/>
   </g>
   <g id="patch_220">
    <path d="M 217.232674 465.838125 
L 217.719967 465.838125 
L 217.719967 465.820005 
L 217.232674 465.820005 
z
" clip-path="url(#pd5f84b246c)" style="fill: #1f77b4"/>
   </g>
   <g id="patch_221">
    <path d="M 217.841791 465.838125 
L 218.329085 465.838125 
L 218.329085 465.832085 
L 217.841791 465.832085 
z
" clip-path="url(#pd5f84b246c)" style="fill: #1f77b4"/>
   </g>
   <g id="patch_222">
    <path d="M 218.450908 465.838125 
L 218.938202 465.838125 
L 218.938202 465.813965 
L 218.450908 465.813965 
z
" clip-path="url(#pd5f84b246c)" style="fill: #1f77b4"/>
   </g>
   <g id="patch_223">
    <path d="M 219.060025 465.838125 
L 219.547319 465.838125 
L 219.547319 465.826045 
L 219.060025 465.826045 
z
" clip-path="url(#pd5f84b246c)" style="fill: #1f77b4"/>
   </g>
   <g id="patch_224">
    <path d="M 219.669142 465.838125 
L 220.156436 465.838125 
L 220.156436 465.820005 
L 219.669142 465.820005 
z
" clip-path="url(#pd5f84b246c)" style="fill: #1f77b4"/>
   </g>
   <g id="patch_225">
    <path d="M 220.278259 465.838125 
L 220.765553 465.838125 
L 220.765553 465.820005 
L 220.278259 465.820005 
z
" clip-path="url(#pd5f84b246c)" style="fill: #1f77b4"/>
   </g>
   <g id="patch_226">
    <path d="M 220.887376 465.838125 
L 221.37467 465.838125 
L 221.37467 465.813965 
L 220.887376 465.813965 
z
" clip-path="url(#pd5f84b246c)" style="fill: #1f77b4"/>
   </g>
   <g id="patch_227">
    <path d="M 221.496493 465.838125 
L 221.983787 465.838125 
L 221.983787 465.813965 
L 221.496493 465.813965 
z
" clip-path="url(#pd5f84b246c)" style="fill: #1f77b4"/>
   </g>
   <g id="patch_228">
    <path d="M 222.105611 465.838125 
L 222.592904 465.838125 
L 222.592904 465.807925 
L 222.105611 465.807925 
z
" clip-path="url(#pd5f84b246c)" style="fill: #1f77b4"/>
   </g>
   <g id="patch_229">
    <path d="M 222.714728 465.838125 
L 223.202021 465.838125 
L 223.202021 465.813965 
L 222.714728 465.813965 
z
" clip-path="url(#pd5f84b246c)" style="fill: #1f77b4"/>
   </g>
   <g id="patch_230">
    <path d="M 223.323845 465.838125 
L 223.811138 465.838125 
L 223.811138 465.820005 
L 223.323845 465.820005 
z
" clip-path="url(#pd5f84b246c)" style="fill: #1f77b4"/>
   </g>
   <g id="patch_231">
    <path d="M 223.932962 465.838125 
L 224.420256 465.838125 
L 224.420256 465.826045 
L 223.932962 465.826045 
z
" clip-path="url(#pd5f84b246c)" style="fill: #1f77b4"/>
   </g>
   <g id="patch_232">
    <path d="M 224.542079 465.838125 
L 225.029373 465.838125 
L 225.029373 465.789804 
L 224.542079 465.789804 
z
" clip-path="url(#pd5f84b246c)" style="fill: #1f77b4"/>
   </g>
   <g id="patch_233">
    <path d="M 225.151196 465.838125 
L 225.63849 465.838125 
L 225.63849 465.826045 
L 225.151196 465.826045 
z
" clip-path="url(#pd5f84b246c)" style="fill: #1f77b4"/>
   </g>
   <g id="patch_234">
    <path d="M 225.760313 465.838125 
L 226.247607 465.838125 
L 226.247607 465.826045 
L 225.760313 465.826045 
z
" clip-path="url(#pd5f84b246c)" style="fill: #1f77b4"/>
   </g>
   <g id="patch_235">
    <path d="M 226.36943 465.838125 
L 226.856724 465.838125 
L 226.856724 465.783764 
L 226.36943 465.783764 
z
" clip-path="url(#pd5f84b246c)" style="fill: #1f77b4"/>
   </g>
   <g id="patch_236">
    <path d="M 226.978547 465.838125 
L 227.465841 465.838125 
L 227.465841 465.820005 
L 226.978547 465.820005 
z
" clip-path="url(#pd5f84b246c)" style="fill: #1f77b4"/>
   </g>
   <g id="patch_237">
    <path d="M 228.196782 465.838125 
L 228.684075 465.838125 
L 228.684075 465.826045 
L 228.196782 465.826045 
z
" clip-path="url(#pd5f84b246c)" style="fill: #1f77b4"/>
   </g>
   <g id="patch_238">
    <path d="M 228.805899 465.838125 
L 229.293192 465.838125 
L 229.293192 465.813965 
L 228.805899 465.813965 
z
" clip-path="url(#pd5f84b246c)" style="fill: #1f77b4"/>
   </g>
   <g id="patch_239">
    <path d="M 229.415016 465.838125 
L 229.90231 465.838125 
L 229.90231 465.826045 
L 229.415016 465.826045 
z
" clip-path="url(#pd5f84b246c)" style="fill: #1f77b4"/>
   </g>
   <g id="patch_240">
    <path d="M 230.024133 465.838125 
L 230.511427 465.838125 
L 230.511427 465.801885 
L 230.024133 465.801885 
z
" clip-path="url(#pd5f84b246c)" style="fill: #1f77b4"/>
   </g>
   <g id="patch_241">
    <path d="M 230.63325 465.838125 
L 231.120544 465.838125 
L 231.120544 465.820005 
L 230.63325 465.820005 
z
" clip-path="url(#pd5f84b246c)" style="fill: #1f77b4"/>
   </g>
   <g id="patch_242">
    <path d="M 231.242367 465.838125 
L 231.729661 465.838125 
L 231.729661 465.826045 
L 231.242367 465.826045 
z
" clip-path="url(#pd5f84b246c)" style="fill: #1f77b4"/>
   </g>
   <g id="patch_243">
    <path d="M 231.851484 465.838125 
L 232.338778 465.838125 
L 232.338778 465.832085 
L 231.851484 465.832085 
z
" clip-path="url(#pd5f84b246c)" style="fill: #1f77b4"/>
   </g>
   <g id="patch_244">
    <path d="M 232.460601 465.838125 
L 232.947895 465.838125 
L 232.947895 465.820005 
L 232.460601 465.820005 
z
" clip-path="url(#pd5f84b246c)" style="fill: #1f77b4"/>
   </g>
   <g id="patch_245">
    <path d="M 233.069719 465.838125 
L 233.557012 465.838125 
L 233.557012 465.832085 
L 233.069719 465.832085 
z
" clip-path="url(#pd5f84b246c)" style="fill: #1f77b4"/>
   </g>
   <g id="patch_246">
    <path d="M 233.678836 465.838125 
L 234.166129 465.838125 
L 234.166129 465.820005 
L 233.678836 465.820005 
z
" clip-path="url(#pd5f84b246c)" style="fill: #1f77b4"/>
   </g>
   <g id="patch_247">
    <path d="M 234.287953 465.838125 
L 234.775246 465.838125 
L 234.775246 465.813965 
L 234.287953 465.813965 
z
" clip-path="url(#pd5f84b246c)" style="fill: #1f77b4"/>
   </g>
   <g id="patch_248">
    <path d="M 234.89707 465.838125 
L 235.384364 465.838125 
L 235.384364 465.832085 
L 234.89707 465.832085 
z
" clip-path="url(#pd5f84b246c)" style="fill: #1f77b4"/>
   </g>
   <g id="patch_249">
    <path d="M 235.506187 465.838125 
L 235.993481 465.838125 
L 235.993481 465.826045 
L 235.506187 465.826045 
z
" clip-path="url(#pd5f84b246c)" style="fill: #1f77b4"/>
   </g>
   <g id="patch_250">
    <path d="M 236.115304 465.838125 
L 236.602598 465.838125 
L 236.602598 465.826045 
L 236.115304 465.826045 
z
" clip-path="url(#pd5f84b246c)" style="fill: #1f77b4"/>
   </g>
   <g id="patch_251">
    <path d="M 236.724421 465.838125 
L 237.211715 465.838125 
L 237.211715 465.820005 
L 236.724421 465.820005 
z
" clip-path="url(#pd5f84b246c)" style="fill: #1f77b4"/>
   </g>
   <g id="patch_252">
    <path d="M 237.333538 465.838125 
L 237.820832 465.838125 
L 237.820832 465.826045 
L 237.333538 465.826045 
z
" clip-path="url(#pd5f84b246c)" style="fill: #1f77b4"/>
   </g>
   <g id="patch_253">
    <path d="M 239.16089 465.838125 
L 239.648183 465.838125 
L 239.648183 465.832085 
L 239.16089 465.832085 
z
" clip-path="url(#pd5f84b246c)" style="fill: #1f77b4"/>
   </g>
   <g id="patch_254">
    <path d="M 239.770007 465.838125 
L 240.2573 465.838125 
L 240.2573 465.826045 
L 239.770007 465.826045 
z
" clip-path="url(#pd5f84b246c)" style="fill: #1f77b4"/>
   </g>
   <g id="patch_255">
    <path d="M 240.379124 465.838125 
L 240.866418 465.838125 
L 240.866418 465.832085 
L 240.379124 465.832085 
z
" clip-path="url(#pd5f84b246c)" style="fill: #1f77b4"/>
   </g>
   <g id="patch_256">
    <path d="M 240.988241 465.838125 
L 241.475535 465.838125 
L 241.475535 465.820005 
L 240.988241 465.820005 
z
" clip-path="url(#pd5f84b246c)" style="fill: #1f77b4"/>
   </g>
   <g id="patch_257">
    <path d="M 241.597358 465.838125 
L 242.084652 465.838125 
L 242.084652 465.832085 
L 241.597358 465.832085 
z
" clip-path="url(#pd5f84b246c)" style="fill: #1f77b4"/>
   </g>
   <g id="patch_258">
    <path d="M 242.206475 465.838125 
L 242.693769 465.838125 
L 242.693769 465.820005 
L 242.206475 465.820005 
z
" clip-path="url(#pd5f84b246c)" style="fill: #1f77b4"/>
   </g>
   <g id="patch_259">
    <path d="M 242.815592 465.838125 
L 243.302886 465.838125 
L 243.302886 465.826045 
L 242.815592 465.826045 
z
" clip-path="url(#pd5f84b246c)" style="fill: #1f77b4"/>
   </g>
   <g id="patch_260">
    <path d="M 244.033826 465.838125 
L 244.52112 465.838125 
L 244.52112 465.832085 
L 244.033826 465.832085 
z
" clip-path="url(#pd5f84b246c)" style="fill: #1f77b4"/>
   </g>
   <g id="patch_261">
    <path d="M 244.642944 465.838125 
L 245.130237 465.838125 
L 245.130237 465.820005 
L 244.642944 465.820005 
z
" clip-path="url(#pd5f84b246c)" style="fill: #1f77b4"/>
   </g>
   <g id="patch_262">
    <path d="M 245.861178 465.838125 
L 246.348471 465.838125 
L 246.348471 465.832085 
L 245.861178 465.832085 
z
" clip-path="url(#pd5f84b246c)" style="fill: #1f77b4"/>
   </g>
   <g id="patch_263">
    <path d="M 247.079412 465.838125 
L 247.566706 465.838125 
L 247.566706 465.826045 
L 247.079412 465.826045 
z
" clip-path="url(#pd5f84b246c)" style="fill: #1f77b4"/>
   </g>
   <g id="patch_264">
    <path d="M 247.688529 465.838125 
L 248.175823 465.838125 
L 248.175823 465.832085 
L 247.688529 465.832085 
z
" clip-path="url(#pd5f84b246c)" style="fill: #1f77b4"/>
   </g>
   <g id="patch_265">
    <path d="M 248.906763 465.838125 
L 249.394057 465.838125 
L 249.394057 465.826045 
L 248.906763 465.826045 
z
" clip-path="url(#pd5f84b246c)" style="fill: #1f77b4"/>
   </g>
   <g id="patch_266">
    <path d="M 249.51588 465.838125 
L 250.003174 465.838125 
L 250.003174 465.832085 
L 249.51588 465.832085 
z
" clip-path="url(#pd5f84b246c)" style="fill: #1f77b4"/>
   </g>
   <g id="patch_267">
    <path d="M 250.124998 465.838125 
L 250.612291 465.838125 
L 250.612291 465.832085 
L 250.124998 465.832085 
z
" clip-path="url(#pd5f84b246c)" style="fill: #1f77b4"/>
   </g>
   <g id="patch_268">
    <path d="M 250.734115 465.838125 
L 251.221408 465.838125 
L 251.221408 465.832085 
L 250.734115 465.832085 
z
" clip-path="url(#pd5f84b246c)" style="fill: #1f77b4"/>
   </g>
   <g id="patch_269">
    <path d="M 251.952349 465.838125 
L 252.439643 465.838125 
L 252.439643 465.826045 
L 251.952349 465.826045 
z
" clip-path="url(#pd5f84b246c)" style="fill: #1f77b4"/>
   </g>
   <g id="patch_270">
    <path d="M 253.7797 465.838125 
L 254.266994 465.838125 
L 254.266994 465.832085 
L 253.7797 465.832085 
z
" clip-path="url(#pd5f84b246c)" style="fill: #1f77b4"/>
   </g>
   <g id="patch_271">
    <path d="M 254.388817 465.838125 
L 254.876111 465.838125 
L 254.876111 465.832085 
L 254.388817 465.832085 
z
" clip-path="url(#pd5f84b246c)" style="fill: #1f77b4"/>
   </g>
   <g id="patch_272">
    <path d="M 254.997934 465.838125 
L 255.485228 465.838125 
L 255.485228 465.832085 
L 254.997934 465.832085 
z
" clip-path="url(#pd5f84b246c)" style="fill: #1f77b4"/>
   </g>
   <g id="patch_273">
    <path d="M 255.607052 465.838125 
L 256.094345 465.838125 
L 256.094345 465.826045 
L 255.607052 465.826045 
z
" clip-path="url(#pd5f84b246c)" style="fill: #1f77b4"/>
   </g>
   <g id="patch_274">
    <path d="M 256.216169 465.838125 
L 256.703462 465.838125 
L 256.703462 465.832085 
L 256.216169 465.832085 
z
" clip-path="url(#pd5f84b246c)" style="fill: #1f77b4"/>
   </g>
   <g id="patch_275">
    <path d="M 256.825286 465.838125 
L 257.312579 465.838125 
L 257.312579 465.832085 
L 256.825286 465.832085 
z
" clip-path="url(#pd5f84b246c)" style="fill: #1f77b4"/>
   </g>
   <g id="patch_276">
    <path d="M 257.434403 465.838125 
L 257.921697 465.838125 
L 257.921697 465.813965 
L 257.434403 465.813965 
z
" clip-path="url(#pd5f84b246c)" style="fill: #1f77b4"/>
   </g>
   <g id="patch_277">
    <path d="M 258.04352 465.838125 
L 258.530814 465.838125 
L 258.530814 465.826045 
L 258.04352 465.826045 
z
" clip-path="url(#pd5f84b246c)" style="fill: #1f77b4"/>
   </g>
   <g id="patch_278">
    <path d="M 258.652637 465.838125 
L 259.139931 465.838125 
L 259.139931 465.832085 
L 258.652637 465.832085 
z
" clip-path="url(#pd5f84b246c)" style="fill: #1f77b4"/>
   </g>
   <g id="patch_279">
    <path d="M 259.870871 465.838125 
L 260.358165 465.838125 
L 260.358165 465.832085 
L 259.870871 465.832085 
z
" clip-path="url(#pd5f84b246c)" style="fill: #1f77b4"/>
   </g>
   <g id="patch_280">
    <path d="M 260.479988 465.838125 
L 260.967282 465.838125 
L 260.967282 465.826045 
L 260.479988 465.826045 
z
" clip-path="url(#pd5f84b246c)" style="fill: #1f77b4"/>
   </g>
   <g id="patch_281">
    <path d="M 262.916457 465.838125 
L 263.40375 465.838125 
L 263.40375 465.832085 
L 262.916457 465.832085 
z
" clip-path="url(#pd5f84b246c)" style="fill: #1f77b4"/>
   </g>
   <g id="patch_282">
    <path d="M 264.134691 465.838125 
L 264.621985 465.838125 
L 264.621985 465.832085 
L 264.134691 465.832085 
z
" clip-path="url(#pd5f84b246c)" style="fill: #1f77b4"/>
   </g>
   <g id="patch_283">
    <path d="M 265.352925 465.838125 
L 265.840219 465.838125 
L 265.840219 465.832085 
L 265.352925 465.832085 
z
" clip-path="url(#pd5f84b246c)" style="fill: #1f77b4"/>
   </g>
   <g id="patch_284">
    <path d="M 266.571159 465.838125 
L 267.058453 465.838125 
L 267.058453 465.826045 
L 266.571159 465.826045 
z
" clip-path="url(#pd5f84b246c)" style="fill: #1f77b4"/>
   </g>
   <g id="patch_285">
    <path d="M 267.789394 465.838125 
L 268.276687 465.838125 
L 268.276687 465.832085 
L 267.789394 465.832085 
z
" clip-path="url(#pd5f84b246c)" style="fill: #1f77b4"/>
   </g>
   <g id="patch_286">
    <path d="M 269.616745 465.838125 
L 270.104039 465.838125 
L 270.104039 465.826045 
L 269.616745 465.826045 
z
" clip-path="url(#pd5f84b246c)" style="fill: #1f77b4"/>
   </g>
   <g id="patch_287">
    <path d="M 270.834979 465.838125 
L 271.322273 465.838125 
L 271.322273 465.826045 
L 270.834979 465.826045 
z
" clip-path="url(#pd5f84b246c)" style="fill: #1f77b4"/>
   </g>
   <g id="patch_288">
    <path d="M 271.444096 465.838125 
L 271.93139 465.838125 
L 271.93139 465.832085 
L 271.444096 465.832085 
z
" clip-path="url(#pd5f84b246c)" style="fill: #1f77b4"/>
   </g>
   <g id="patch_289">
    <path d="M 275.098799 465.838125 
L 275.586093 465.838125 
L 275.586093 465.826045 
L 275.098799 465.826045 
z
" clip-path="url(#pd5f84b246c)" style="fill: #1f77b4"/>
   </g>
   <g id="patch_290">
    <path d="M 275.707916 465.838125 
L 276.19521 465.838125 
L 276.19521 465.832085 
L 275.707916 465.832085 
z
" clip-path="url(#pd5f84b246c)" style="fill: #1f77b4"/>
   </g>
   <g id="patch_291">
    <path d="M 276.317033 465.838125 
L 276.804327 465.838125 
L 276.804327 465.832085 
L 276.317033 465.832085 
z
" clip-path="url(#pd5f84b246c)" style="fill: #1f77b4"/>
   </g>
   <g id="patch_292">
    <path d="M 277.535267 465.838125 
L 278.022561 465.838125 
L 278.022561 465.832085 
L 277.535267 465.832085 
z
" clip-path="url(#pd5f84b246c)" style="fill: #1f77b4"/>
   </g>
   <g id="patch_293">
    <path d="M 279.971736 465.838125 
L 280.45903 465.838125 
L 280.45903 465.826045 
L 279.971736 465.826045 
z
" clip-path="url(#pd5f84b246c)" style="fill: #1f77b4"/>
   </g>
   <g id="patch_294">
    <path d="M 281.799087 465.838125 
L 282.286381 465.838125 
L 282.286381 465.832085 
L 281.799087 465.832085 
z
" clip-path="url(#pd5f84b246c)" style="fill: #1f77b4"/>
   </g>
   <g id="patch_295">
    <path d="M 282.408204 465.838125 
L 282.895498 465.838125 
L 282.895498 465.832085 
L 282.408204 465.832085 
z
" clip-path="url(#pd5f84b246c)" style="fill: #1f77b4"/>
   </g>
   <g id="patch_296">
    <path d="M 284.235556 465.838125 
L 284.722849 465.838125 
L 284.722849 465.832085 
L 284.235556 465.832085 
z
" clip-path="url(#pd5f84b246c)" style="fill: #1f77b4"/>
   </g>
   <g id="patch_297">
    <path d="M 286.672024 465.838125 
L 287.159318 465.838125 
L 287.159318 465.832085 
L 286.672024 465.832085 
z
" clip-path="url(#pd5f84b246c)" style="fill: #1f77b4"/>
   </g>
   <g id="patch_298">
    <path d="M 287.890258 465.838125 
L 288.377552 465.838125 
L 288.377552 465.826045 
L 287.890258 465.826045 
z
" clip-path="url(#pd5f84b246c)" style="fill: #1f77b4"/>
   </g>
   <g id="patch_299">
    <path d="M 289.71761 465.838125 
L 290.204903 465.838125 
L 290.204903 465.832085 
L 289.71761 465.832085 
z
" clip-path="url(#pd5f84b246c)" style="fill: #1f77b4"/>
   </g>
   <g id="patch_300">
    <path d="M 293.981429 465.838125 
L 294.468723 465.838125 
L 294.468723 465.832085 
L 293.981429 465.832085 
z
" clip-path="url(#pd5f84b246c)" style="fill: #1f77b4"/>
   </g>
   <g id="patch_301">
    <path d="M 296.417898 465.838125 
L 296.905191 465.838125 
L 296.905191 465.820005 
L 296.417898 465.820005 
z
" clip-path="url(#pd5f84b246c)" style="fill: #1f77b4"/>
   </g>
   <g id="patch_302">
    <path d="M 297.636132 465.838125 
L 298.123426 465.838125 
L 298.123426 465.832085 
L 297.636132 465.832085 
z
" clip-path="url(#pd5f84b246c)" style="fill: #1f77b4"/>
   </g>
   <g id="patch_303">
    <path d="M 300.0726 465.838125 
L 300.559894 465.838125 
L 300.559894 465.832085 
L 300.0726 465.832085 
z
" clip-path="url(#pd5f84b246c)" style="fill: #1f77b4"/>
   </g>
   <g id="patch_304">
    <path d="M 303.727303 465.838125 
L 304.214597 465.838125 
L 304.214597 465.832085 
L 303.727303 465.832085 
z
" clip-path="url(#pd5f84b246c)" style="fill: #1f77b4"/>
   </g>
   <g id="patch_305">
    <path d="M 306.772889 465.838125 
L 307.260182 465.838125 
L 307.260182 465.832085 
L 306.772889 465.832085 
z
" clip-path="url(#pd5f84b246c)" style="fill: #1f77b4"/>
   </g>
   <g id="patch_306">
    <path d="M 307.382006 465.838125 
L 307.869299 465.838125 
L 307.869299 465.832085 
L 307.382006 465.832085 
z
" clip-path="url(#pd5f84b246c)" style="fill: #1f77b4"/>
   </g>
   <g id="patch_307">
    <path d="M 307.991123 465.838125 
L 308.478416 465.838125 
L 308.478416 465.832085 
L 307.991123 465.832085 
z
" clip-path="url(#pd5f84b246c)" style="fill: #1f77b4"/>
   </g>
   <g id="patch_308">
    <path d="M 311.036708 465.838125 
L 311.524002 465.838125 
L 311.524002 465.832085 
L 311.036708 465.832085 
z
" clip-path="url(#pd5f84b246c)" style="fill: #1f77b4"/>
   </g>
   <g id="patch_309">
    <path d="M 315.300528 465.838125 
L 315.787822 465.838125 
L 315.787822 465.832085 
L 315.300528 465.832085 
z
" clip-path="url(#pd5f84b246c)" style="fill: #1f77b4"/>
   </g>
   <g id="patch_310">
    <path d="M 320.173465 465.838125 
L 320.660759 465.838125 
L 320.660759 465.826045 
L 320.173465 465.826045 
z
" clip-path="url(#pd5f84b246c)" style="fill: #1f77b4"/>
   </g>
   <g id="patch_311">
    <path d="M 322.000816 465.838125 
L 322.48811 465.838125 
L 322.48811 465.832085 
L 322.000816 465.832085 
z
" clip-path="url(#pd5f84b246c)" style="fill: #1f77b4"/>
   </g>
   <g id="patch_312">
    <path d="M 327.48287 465.838125 
L 327.970164 465.838125 
L 327.970164 465.832085 
L 327.48287 465.832085 
z
" clip-path="url(#pd5f84b246c)" style="fill: #1f77b4"/>
   </g>
   <g id="patch_313">
    <path d="M 330.528456 465.838125 
L 331.015749 465.838125 
L 331.015749 465.832085 
L 330.528456 465.832085 
z
" clip-path="url(#pd5f84b246c)" style="fill: #1f77b4"/>
   </g>
   <g id="patch_314">
    <path d="M 338.446978 465.838125 
L 338.934272 465.838125 
L 338.934272 465.832085 
L 338.446978 465.832085 
z
" clip-path="url(#pd5f84b246c)" style="fill: #1f77b4"/>
   </g>
   <g id="patch_315">
    <path d="M 340.274329 465.838125 
L 340.761623 465.838125 
L 340.761623 465.826045 
L 340.274329 465.826045 
z
" clip-path="url(#pd5f84b246c)" style="fill: #1f77b4"/>
   </g>
   <g id="patch_316">
    <path d="M 345.147266 465.838125 
L 345.63456 465.838125 
L 345.63456 465.832085 
L 345.147266 465.832085 
z
" clip-path="url(#pd5f84b246c)" style="fill: #1f77b4"/>
   </g>
   <g id="patch_317">
    <path d="M 346.365501 465.838125 
L 346.852794 465.838125 
L 346.852794 465.832085 
L 346.365501 465.832085 
z
" clip-path="url(#pd5f84b246c)" style="fill: #1f77b4"/>
   </g>
   <g id="patch_318">
    <path d="M 347.583735 465.838125 
L 348.071028 465.838125 
L 348.071028 465.832085 
L 347.583735 465.832085 
z
" clip-path="url(#pd5f84b246c)" style="fill: #1f77b4"/>
   </g>
   <g id="patch_319">
    <path d="M 360.984311 465.838125 
L 361.471605 465.838125 
L 361.471605 465.832085 
L 360.984311 465.832085 
z
" clip-path="url(#pd5f84b246c)" style="fill: #1f77b4"/>
   </g>
   <g id="patch_320">
    <path d="M 364.029897 465.838125 
L 364.51719 465.838125 
L 364.51719 465.832085 
L 364.029897 465.832085 
z
" clip-path="url(#pd5f84b246c)" style="fill: #1f77b4"/>
   </g>
   <g id="patch_321">
    <path d="M 370.730185 465.838125 
L 371.217479 465.838125 
L 371.217479 465.832085 
L 370.730185 465.832085 
z
" clip-path="url(#pd5f84b246c)" style="fill: #1f77b4"/>
   </g>
   <g id="patch_322">
    <path d="M 380.476059 465.838125 
L 380.963352 465.838125 
L 380.963352 465.832085 
L 380.476059 465.832085 
z
" clip-path="url(#pd5f84b246c)" style="fill: #1f77b4"/>
   </g>
   <g id="patch_323">
    <path d="M 383.521644 465.838125 
L 384.008938 465.838125 
L 384.008938 465.832085 
L 383.521644 465.832085 
z
" clip-path="url(#pd5f84b246c)" style="fill: #1f77b4"/>
   </g>
   <g id="patch_324">
    <path d="M 399.967806 465.838125 
L 400.4551 465.838125 
L 400.4551 465.832085 
L 399.967806 465.832085 
z
" clip-path="url(#pd5f84b246c)" style="fill: #1f77b4"/>
   </g>
   <g id="patch_325">
    <path d="M 400.576923 465.838125 
L 401.064217 465.838125 
L 401.064217 465.832085 
L 400.576923 465.832085 
z
" clip-path="url(#pd5f84b246c)" style="fill: #1f77b4"/>
   </g>
   <g id="patch_326">
    <path d="M 418.241319 465.838125 
L 418.728613 465.838125 
L 418.728613 465.832085 
L 418.241319 465.832085 
z
" clip-path="url(#pd5f84b246c)" style="fill: #1f77b4"/>
   </g>
   <g id="patch_327">
    <path d="M 430.423661 465.838125 
L 430.910955 465.838125 
L 430.910955 465.832085 
L 430.423661 465.832085 
z
" clip-path="url(#pd5f84b246c)" style="fill: #1f77b4"/>
   </g>
   <g id="patch_328">
    <path d="M 446.869823 465.838125 
L 447.357117 465.838125 
L 447.357117 465.832085 
L 446.869823 465.832085 
z
" clip-path="url(#pd5f84b246c)" style="fill: #1f77b4"/>
   </g>
   <g id="patch_329">
    <path d="M 493.162724 465.838125 
L 493.650017 465.838125 
L 493.650017 465.826045 
L 493.162724 465.826045 
z
" clip-path="url(#pd5f84b246c)" style="fill: #1f77b4"/>
   </g>
   <g id="patch_330">
    <path d="M 500.472129 465.838125 
L 500.959422 465.838125 
L 500.959422 465.832085 
L 500.472129 465.832085 
z
" clip-path="url(#pd5f84b246c)" style="fill: #1f77b4"/>
   </g>
   <g id="patch_331">
    <path d="M 591.839695 465.838125 
L 592.326989 465.838125 
L 592.326989 465.832085 
L 591.839695 465.832085 
z
" clip-path="url(#pd5f84b246c)" style="fill: #1f77b4"/>
   </g>
   <g id="matplotlib.axis_1">
    <g id="xtick_1">
     <g id="line2d_1">
      <defs>
       <path id="mb942d38c4b" d="M 0 0 
L 0 3.5 
" style="stroke: #000000; stroke-width: 0.8"/>
      </defs>
      <g>
       <use xlink:href="#mb942d38c4b" x="85.297908" y="465.838125" style="stroke: #000000; stroke-width: 0.8"/>
      </g>
     </g>
     <g id="text_1">
      <!-- 446 -->
      <g transform="translate(82.483348 486.492363) rotate(-50) scale(0.07 -0.07)">
       <defs>
        <path id="DejaVuSans-34" d="M 2419 4116 
L 825 1625 
L 2419 1625 
L 2419 4116 
z
M 2253 4666 
L 3047 4666 
L 3047 1625 
L 3713 1625 
L 3713 1100 
L 3047 1100 
L 3047 0 
L 2419 0 
L 2419 1100 
L 313 1100 
L 313 1709 
L 2253 4666 
z
" transform="scale(0.015625)"/>
        <path id="DejaVuSans-36" d="M 2113 2584 
Q 1688 2584 1439 2293 
Q 1191 2003 1191 1497 
Q 1191 994 1439 701 
Q 1688 409 2113 409 
Q 2538 409 2786 701 
Q 3034 994 3034 1497 
Q 3034 2003 2786 2293 
Q 2538 2584 2113 2584 
z
M 3366 4563 
L 3366 3988 
Q 3128 4100 2886 4159 
Q 2644 4219 2406 4219 
Q 1781 4219 1451 3797 
Q 1122 3375 1075 2522 
Q 1259 2794 1537 2939 
Q 1816 3084 2150 3084 
Q 2853 3084 3261 2657 
Q 3669 2231 3669 1497 
Q 3669 778 3244 343 
Q 2819 -91 2113 -91 
Q 1303 -91 875 529 
Q 447 1150 447 2328 
Q 447 3434 972 4092 
Q 1497 4750 2381 4750 
Q 2619 4750 2861 4703 
Q 3103 4656 3366 4563 
z
" transform="scale(0.015625)"/>
       </defs>
       <use xlink:href="#DejaVuSans-34"/>
       <use xlink:href="#DejaVuSans-34" x="63.623047"/>
       <use xlink:href="#DejaVuSans-36" x="127.246094"/>
      </g>
     </g>
    </g>
    <g id="xtick_2">
     <g id="line2d_2">
      <g>
       <use xlink:href="#mb942d38c4b" x="146.209619" y="465.838125" style="stroke: #000000; stroke-width: 0.8"/>
      </g>
     </g>
     <g id="text_2">
      <!-- 546 -->
      <g transform="translate(143.395059 486.492363) rotate(-50) scale(0.07 -0.07)">
       <defs>
        <path id="DejaVuSans-35" d="M 691 4666 
L 3169 4666 
L 3169 4134 
L 1269 4134 
L 1269 2991 
Q 1406 3038 1543 3061 
Q 1681 3084 1819 3084 
Q 2600 3084 3056 2656 
Q 3513 2228 3513 1497 
Q 3513 744 3044 326 
Q 2575 -91 1722 -91 
Q 1428 -91 1123 -41 
Q 819 9 494 109 
L 494 744 
Q 775 591 1075 516 
Q 1375 441 1709 441 
Q 2250 441 2565 725 
Q 2881 1009 2881 1497 
Q 2881 1984 2565 2268 
Q 2250 2553 1709 2553 
Q 1456 2553 1204 2497 
Q 953 2441 691 2322 
L 691 4666 
z
" transform="scale(0.015625)"/>
       </defs>
       <use xlink:href="#DejaVuSans-35"/>
       <use xlink:href="#DejaVuSans-34" x="63.623047"/>
       <use xlink:href="#DejaVuSans-36" x="127.246094"/>
      </g>
     </g>
    </g>
    <g id="xtick_3">
     <g id="line2d_3">
      <g>
       <use xlink:href="#mb942d38c4b" x="207.12133" y="465.838125" style="stroke: #000000; stroke-width: 0.8"/>
      </g>
     </g>
     <g id="text_3">
      <!-- 646 -->
      <g transform="translate(204.306769 486.492363) rotate(-50) scale(0.07 -0.07)">
       <use xlink:href="#DejaVuSans-36"/>
       <use xlink:href="#DejaVuSans-34" x="63.623047"/>
       <use xlink:href="#DejaVuSans-36" x="127.246094"/>
      </g>
     </g>
    </g>
    <g id="xtick_4">
     <g id="line2d_4">
      <g>
       <use xlink:href="#mb942d38c4b" x="268.033041" y="465.838125" style="stroke: #000000; stroke-width: 0.8"/>
      </g>
     </g>
     <g id="text_4">
      <!-- 746 -->
      <g transform="translate(265.21848 486.492363) rotate(-50) scale(0.07 -0.07)">
       <defs>
        <path id="DejaVuSans-37" d="M 525 4666 
L 3525 4666 
L 3525 4397 
L 1831 0 
L 1172 0 
L 2766 4134 
L 525 4134 
L 525 4666 
z
" transform="scale(0.015625)"/>
       </defs>
       <use xlink:href="#DejaVuSans-37"/>
       <use xlink:href="#DejaVuSans-34" x="63.623047"/>
       <use xlink:href="#DejaVuSans-36" x="127.246094"/>
      </g>
     </g>
    </g>
    <g id="xtick_5">
     <g id="line2d_5">
      <g>
       <use xlink:href="#mb942d38c4b" x="328.944751" y="465.838125" style="stroke: #000000; stroke-width: 0.8"/>
      </g>
     </g>
     <g id="text_5">
      <!-- 846 -->
      <g transform="translate(326.130191 486.492363) rotate(-50) scale(0.07 -0.07)">
       <defs>
        <path id="DejaVuSans-38" d="M 2034 2216 
Q 1584 2216 1326 1975 
Q 1069 1734 1069 1313 
Q 1069 891 1326 650 
Q 1584 409 2034 409 
Q 2484 409 2743 651 
Q 3003 894 3003 1313 
Q 3003 1734 2745 1975 
Q 2488 2216 2034 2216 
z
M 1403 2484 
Q 997 2584 770 2862 
Q 544 3141 544 3541 
Q 544 4100 942 4425 
Q 1341 4750 2034 4750 
Q 2731 4750 3128 4425 
Q 3525 4100 3525 3541 
Q 3525 3141 3298 2862 
Q 3072 2584 2669 2484 
Q 3125 2378 3379 2068 
Q 3634 1759 3634 1313 
Q 3634 634 3220 271 
Q 2806 -91 2034 -91 
Q 1263 -91 848 271 
Q 434 634 434 1313 
Q 434 1759 690 2068 
Q 947 2378 1403 2484 
z
M 1172 3481 
Q 1172 3119 1398 2916 
Q 1625 2713 2034 2713 
Q 2441 2713 2670 2916 
Q 2900 3119 2900 3481 
Q 2900 3844 2670 4047 
Q 2441 4250 2034 4250 
Q 1625 4250 1398 4047 
Q 1172 3844 1172 3481 
z
" transform="scale(0.015625)"/>
       </defs>
       <use xlink:href="#DejaVuSans-38"/>
       <use xlink:href="#DejaVuSans-34" x="63.623047"/>
       <use xlink:href="#DejaVuSans-36" x="127.246094"/>
      </g>
     </g>
    </g>
    <g id="xtick_6">
     <g id="line2d_6">
      <g>
       <use xlink:href="#mb942d38c4b" x="389.856462" y="465.838125" style="stroke: #000000; stroke-width: 0.8"/>
      </g>
     </g>
     <g id="text_6">
      <!-- 946 -->
      <g transform="translate(387.041902 486.492363) rotate(-50) scale(0.07 -0.07)">
       <defs>
        <path id="DejaVuSans-39" d="M 703 97 
L 703 672 
Q 941 559 1184 500 
Q 1428 441 1663 441 
Q 2288 441 2617 861 
Q 2947 1281 2994 2138 
Q 2813 1869 2534 1725 
Q 2256 1581 1919 1581 
Q 1219 1581 811 2004 
Q 403 2428 403 3163 
Q 403 3881 828 4315 
Q 1253 4750 1959 4750 
Q 2769 4750 3195 4129 
Q 3622 3509 3622 2328 
Q 3622 1225 3098 567 
Q 2575 -91 1691 -91 
Q 1453 -91 1209 -44 
Q 966 3 703 97 
z
M 1959 2075 
Q 2384 2075 2632 2365 
Q 2881 2656 2881 3163 
Q 2881 3666 2632 3958 
Q 2384 4250 1959 4250 
Q 1534 4250 1286 3958 
Q 1038 3666 1038 3163 
Q 1038 2656 1286 2365 
Q 1534 2075 1959 2075 
z
" transform="scale(0.015625)"/>
       </defs>
       <use xlink:href="#DejaVuSans-39"/>
       <use xlink:href="#DejaVuSans-34" x="63.623047"/>
       <use xlink:href="#DejaVuSans-36" x="127.246094"/>
      </g>
     </g>
    </g>
    <g id="xtick_7">
     <g id="line2d_7">
      <g>
       <use xlink:href="#mb942d38c4b" x="450.768173" y="465.838125" style="stroke: #000000; stroke-width: 0.8"/>
      </g>
     </g>
     <g id="text_7">
      <!-- 1046 -->
      <g transform="translate(446.522205 489.904134) rotate(-50) scale(0.07 -0.07)">
       <defs>
        <path id="DejaVuSans-31" d="M 794 531 
L 1825 531 
L 1825 4091 
L 703 3866 
L 703 4441 
L 1819 4666 
L 2450 4666 
L 2450 531 
L 3481 531 
L 3481 0 
L 794 0 
L 794 531 
z
" transform="scale(0.015625)"/>
        <path id="DejaVuSans-30" d="M 2034 4250 
Q 1547 4250 1301 3770 
Q 1056 3291 1056 2328 
Q 1056 1369 1301 889 
Q 1547 409 2034 409 
Q 2525 409 2770 889 
Q 3016 1369 3016 2328 
Q 3016 3291 2770 3770 
Q 2525 4250 2034 4250 
z
M 2034 4750 
Q 2819 4750 3233 4129 
Q 3647 3509 3647 2328 
Q 3647 1150 3233 529 
Q 2819 -91 2034 -91 
Q 1250 -91 836 529 
Q 422 1150 422 2328 
Q 422 3509 836 4129 
Q 1250 4750 2034 4750 
z
" transform="scale(0.015625)"/>
       </defs>
       <use xlink:href="#DejaVuSans-31"/>
       <use xlink:href="#DejaVuSans-30" x="63.623047"/>
       <use xlink:href="#DejaVuSans-34" x="127.246094"/>
       <use xlink:href="#DejaVuSans-36" x="190.869141"/>
      </g>
     </g>
    </g>
    <g id="xtick_8">
     <g id="line2d_8">
      <g>
       <use xlink:href="#mb942d38c4b" x="511.679884" y="465.838125" style="stroke: #000000; stroke-width: 0.8"/>
      </g>
     </g>
     <g id="text_8">
      <!-- 1146 -->
      <g transform="translate(507.433916 489.904134) rotate(-50) scale(0.07 -0.07)">
       <use xlink:href="#DejaVuSans-31"/>
       <use xlink:href="#DejaVuSans-31" x="63.623047"/>
       <use xlink:href="#DejaVuSans-34" x="127.246094"/>
       <use xlink:href="#DejaVuSans-36" x="190.869141"/>
      </g>
     </g>
    </g>
    <g id="xtick_9">
     <g id="line2d_9">
      <g>
       <use xlink:href="#mb942d38c4b" x="572.591594" y="465.838125" style="stroke: #000000; stroke-width: 0.8"/>
      </g>
     </g>
     <g id="text_9">
      <!-- 1246 -->
      <g transform="translate(568.345626 489.904134) rotate(-50) scale(0.07 -0.07)">
       <defs>
        <path id="DejaVuSans-32" d="M 1228 531 
L 3431 531 
L 3431 0 
L 469 0 
L 469 531 
Q 828 903 1448 1529 
Q 2069 2156 2228 2338 
Q 2531 2678 2651 2914 
Q 2772 3150 2772 3378 
Q 2772 3750 2511 3984 
Q 2250 4219 1831 4219 
Q 1534 4219 1204 4116 
Q 875 4013 500 3803 
L 500 4441 
Q 881 4594 1212 4672 
Q 1544 4750 1819 4750 
Q 2544 4750 2975 4387 
Q 3406 4025 3406 3419 
Q 3406 3131 3298 2873 
Q 3191 2616 2906 2266 
Q 2828 2175 2409 1742 
Q 1991 1309 1228 531 
z
" transform="scale(0.015625)"/>
       </defs>
       <use xlink:href="#DejaVuSans-31"/>
       <use xlink:href="#DejaVuSans-32" x="63.623047"/>
       <use xlink:href="#DejaVuSans-34" x="127.246094"/>
       <use xlink:href="#DejaVuSans-36" x="190.869141"/>
      </g>
     </g>
    </g>
    <g id="text_10">
     <!-- Latency (us) -->
     <g transform="translate(307.6625 502.438329) scale(0.1 -0.1)">
      <defs>
       <path id="DejaVuSans-4c" d="M 628 4666 
L 1259 4666 
L 1259 531 
L 3531 531 
L 3531 0 
L 628 0 
L 628 4666 
z
" transform="scale(0.015625)"/>
       <path id="DejaVuSans-61" d="M 2194 1759 
Q 1497 1759 1228 1600 
Q 959 1441 959 1056 
Q 959 750 1161 570 
Q 1363 391 1709 391 
Q 2188 391 2477 730 
Q 2766 1069 2766 1631 
L 2766 1759 
L 2194 1759 
z
M 3341 1997 
L 3341 0 
L 2766 0 
L 2766 531 
Q 2569 213 2275 61 
Q 1981 -91 1556 -91 
Q 1019 -91 701 211 
Q 384 513 384 1019 
Q 384 1609 779 1909 
Q 1175 2209 1959 2209 
L 2766 2209 
L 2766 2266 
Q 2766 2663 2505 2880 
Q 2244 3097 1772 3097 
Q 1472 3097 1187 3025 
Q 903 2953 641 2809 
L 641 3341 
Q 956 3463 1253 3523 
Q 1550 3584 1831 3584 
Q 2591 3584 2966 3190 
Q 3341 2797 3341 1997 
z
" transform="scale(0.015625)"/>
       <path id="DejaVuSans-74" d="M 1172 4494 
L 1172 3500 
L 2356 3500 
L 2356 3053 
L 1172 3053 
L 1172 1153 
Q 1172 725 1289 603 
Q 1406 481 1766 481 
L 2356 481 
L 2356 0 
L 1766 0 
Q 1100 0 847 248 
Q 594 497 594 1153 
L 594 3053 
L 172 3053 
L 172 3500 
L 594 3500 
L 594 4494 
L 1172 4494 
z
" transform="scale(0.015625)"/>
       <path id="DejaVuSans-65" d="M 3597 1894 
L 3597 1613 
L 953 1613 
Q 991 1019 1311 708 
Q 1631 397 2203 397 
Q 2534 397 2845 478 
Q 3156 559 3463 722 
L 3463 178 
Q 3153 47 2828 -22 
Q 2503 -91 2169 -91 
Q 1331 -91 842 396 
Q 353 884 353 1716 
Q 353 2575 817 3079 
Q 1281 3584 2069 3584 
Q 2775 3584 3186 3129 
Q 3597 2675 3597 1894 
z
M 3022 2063 
Q 3016 2534 2758 2815 
Q 2500 3097 2075 3097 
Q 1594 3097 1305 2825 
Q 1016 2553 972 2059 
L 3022 2063 
z
" transform="scale(0.015625)"/>
       <path id="DejaVuSans-6e" d="M 3513 2113 
L 3513 0 
L 2938 0 
L 2938 2094 
Q 2938 2591 2744 2837 
Q 2550 3084 2163 3084 
Q 1697 3084 1428 2787 
Q 1159 2491 1159 1978 
L 1159 0 
L 581 0 
L 581 3500 
L 1159 3500 
L 1159 2956 
Q 1366 3272 1645 3428 
Q 1925 3584 2291 3584 
Q 2894 3584 3203 3211 
Q 3513 2838 3513 2113 
z
" transform="scale(0.015625)"/>
       <path id="DejaVuSans-63" d="M 3122 3366 
L 3122 2828 
Q 2878 2963 2633 3030 
Q 2388 3097 2138 3097 
Q 1578 3097 1268 2742 
Q 959 2388 959 1747 
Q 959 1106 1268 751 
Q 1578 397 2138 397 
Q 2388 397 2633 464 
Q 2878 531 3122 666 
L 3122 134 
Q 2881 22 2623 -34 
Q 2366 -91 2075 -91 
Q 1284 -91 818 406 
Q 353 903 353 1747 
Q 353 2603 823 3093 
Q 1294 3584 2113 3584 
Q 2378 3584 2631 3529 
Q 2884 3475 3122 3366 
z
" transform="scale(0.015625)"/>
       <path id="DejaVuSans-79" d="M 2059 -325 
Q 1816 -950 1584 -1140 
Q 1353 -1331 966 -1331 
L 506 -1331 
L 506 -850 
L 844 -850 
Q 1081 -850 1212 -737 
Q 1344 -625 1503 -206 
L 1606 56 
L 191 3500 
L 800 3500 
L 1894 763 
L 2988 3500 
L 3597 3500 
L 2059 -325 
z
" transform="scale(0.015625)"/>
       <path id="DejaVuSans-20" transform="scale(0.015625)"/>
       <path id="DejaVuSans-28" d="M 1984 4856 
Q 1566 4138 1362 3434 
Q 1159 2731 1159 2009 
Q 1159 1288 1364 580 
Q 1569 -128 1984 -844 
L 1484 -844 
Q 1016 -109 783 600 
Q 550 1309 550 2009 
Q 550 2706 781 3412 
Q 1013 4119 1484 4856 
L 1984 4856 
z
" transform="scale(0.015625)"/>
       <path id="DejaVuSans-75" d="M 544 1381 
L 544 3500 
L 1119 3500 
L 1119 1403 
Q 1119 906 1312 657 
Q 1506 409 1894 409 
Q 2359 409 2629 706 
Q 2900 1003 2900 1516 
L 2900 3500 
L 3475 3500 
L 3475 0 
L 2900 0 
L 2900 538 
Q 2691 219 2414 64 
Q 2138 -91 1772 -91 
Q 1169 -91 856 284 
Q 544 659 544 1381 
z
M 1991 3584 
L 1991 3584 
z
" transform="scale(0.015625)"/>
       <path id="DejaVuSans-73" d="M 2834 3397 
L 2834 2853 
Q 2591 2978 2328 3040 
Q 2066 3103 1784 3103 
Q 1356 3103 1142 2972 
Q 928 2841 928 2578 
Q 928 2378 1081 2264 
Q 1234 2150 1697 2047 
L 1894 2003 
Q 2506 1872 2764 1633 
Q 3022 1394 3022 966 
Q 3022 478 2636 193 
Q 2250 -91 1575 -91 
Q 1294 -91 989 -36 
Q 684 19 347 128 
L 347 722 
Q 666 556 975 473 
Q 1284 391 1588 391 
Q 1994 391 2212 530 
Q 2431 669 2431 922 
Q 2431 1156 2273 1281 
Q 2116 1406 1581 1522 
L 1381 1569 
Q 847 1681 609 1914 
Q 372 2147 372 2553 
Q 372 3047 722 3315 
Q 1072 3584 1716 3584 
Q 2034 3584 2315 3537 
Q 2597 3491 2834 3397 
z
" transform="scale(0.015625)"/>
       <path id="DejaVuSans-29" d="M 513 4856 
L 1013 4856 
Q 1481 4119 1714 3412 
Q 1947 2706 1947 2009 
Q 1947 1309 1714 600 
Q 1481 -109 1013 -844 
L 513 -844 
Q 928 -128 1133 580 
Q 1338 1288 1338 2009 
Q 1338 2731 1133 3434 
Q 928 4138 513 4856 
z
" transform="scale(0.015625)"/>
      </defs>
      <use xlink:href="#DejaVuSans-4c"/>
      <use xlink:href="#DejaVuSans-61" x="55.712891"/>
      <use xlink:href="#DejaVuSans-74" x="116.992188"/>
      <use xlink:href="#DejaVuSans-65" x="156.201172"/>
      <use xlink:href="#DejaVuSans-6e" x="217.724609"/>
      <use xlink:href="#DejaVuSans-63" x="281.103516"/>
      <use xlink:href="#DejaVuSans-79" x="336.083984"/>
      <use xlink:href="#DejaVuSans-20" x="395.263672"/>
      <use xlink:href="#DejaVuSans-28" x="427.050781"/>
      <use xlink:href="#DejaVuSans-75" x="466.064453"/>
      <use xlink:href="#DejaVuSans-73" x="529.443359"/>
      <use xlink:href="#DejaVuSans-29" x="581.542969"/>
     </g>
    </g>
   </g>
   <g id="matplotlib.axis_2">
    <g id="ytick_1">
     <g id="line2d_10">
      <defs>
       <path id="m769de1ab5e" d="M 0 0 
L -3.5 0 
" style="stroke: #000000; stroke-width: 0.8"/>
      </defs>
      <g>
       <use xlink:href="#m769de1ab5e" x="59.690625" y="465.838125" style="stroke: #000000; stroke-width: 0.8"/>
      </g>
     </g>
     <g id="text_11">
      <!-- 0 -->
      <g transform="translate(46.328125 469.637344) scale(0.1 -0.1)">
       <use xlink:href="#DejaVuSans-30"/>
      </g>
     </g>
    </g>
    <g id="ytick_2">
     <g id="line2d_11">
      <g>
       <use xlink:href="#m769de1ab5e" x="59.690625" y="405.437456" style="stroke: #000000; stroke-width: 0.8"/>
      </g>
     </g>
     <g id="text_12">
      <!-- 10000 -->
      <g transform="translate(20.878125 409.236675) scale(0.1 -0.1)">
       <use xlink:href="#DejaVuSans-31"/>
       <use xlink:href="#DejaVuSans-30" x="63.623047"/>
       <use xlink:href="#DejaVuSans-30" x="127.246094"/>
       <use xlink:href="#DejaVuSans-30" x="190.869141"/>
       <use xlink:href="#DejaVuSans-30" x="254.492188"/>
      </g>
     </g>
    </g>
    <g id="ytick_3">
     <g id="line2d_12">
      <g>
       <use xlink:href="#m769de1ab5e" x="59.690625" y="345.036787" style="stroke: #000000; stroke-width: 0.8"/>
      </g>
     </g>
     <g id="text_13">
      <!-- 20000 -->
      <g transform="translate(20.878125 348.836005) scale(0.1 -0.1)">
       <use xlink:href="#DejaVuSans-32"/>
       <use xlink:href="#DejaVuSans-30" x="63.623047"/>
       <use xlink:href="#DejaVuSans-30" x="127.246094"/>
       <use xlink:href="#DejaVuSans-30" x="190.869141"/>
       <use xlink:href="#DejaVuSans-30" x="254.492188"/>
      </g>
     </g>
    </g>
    <g id="ytick_4">
     <g id="line2d_13">
      <g>
       <use xlink:href="#m769de1ab5e" x="59.690625" y="284.636117" style="stroke: #000000; stroke-width: 0.8"/>
      </g>
     </g>
     <g id="text_14">
      <!-- 30000 -->
      <g transform="translate(20.878125 288.435336) scale(0.1 -0.1)">
       <defs>
        <path id="DejaVuSans-33" d="M 2597 2516 
Q 3050 2419 3304 2112 
Q 3559 1806 3559 1356 
Q 3559 666 3084 287 
Q 2609 -91 1734 -91 
Q 1441 -91 1130 -33 
Q 819 25 488 141 
L 488 750 
Q 750 597 1062 519 
Q 1375 441 1716 441 
Q 2309 441 2620 675 
Q 2931 909 2931 1356 
Q 2931 1769 2642 2001 
Q 2353 2234 1838 2234 
L 1294 2234 
L 1294 2753 
L 1863 2753 
Q 2328 2753 2575 2939 
Q 2822 3125 2822 3475 
Q 2822 3834 2567 4026 
Q 2313 4219 1838 4219 
Q 1578 4219 1281 4162 
Q 984 4106 628 3988 
L 628 4550 
Q 988 4650 1302 4700 
Q 1616 4750 1894 4750 
Q 2613 4750 3031 4423 
Q 3450 4097 3450 3541 
Q 3450 3153 3228 2886 
Q 3006 2619 2597 2516 
z
" transform="scale(0.015625)"/>
       </defs>
       <use xlink:href="#DejaVuSans-33"/>
       <use xlink:href="#DejaVuSans-30" x="63.623047"/>
       <use xlink:href="#DejaVuSans-30" x="127.246094"/>
       <use xlink:href="#DejaVuSans-30" x="190.869141"/>
       <use xlink:href="#DejaVuSans-30" x="254.492188"/>
      </g>
     </g>
    </g>
    <g id="ytick_5">
     <g id="line2d_14">
      <g>
       <use xlink:href="#m769de1ab5e" x="59.690625" y="224.235448" style="stroke: #000000; stroke-width: 0.8"/>
      </g>
     </g>
     <g id="text_15">
      <!-- 40000 -->
      <g transform="translate(20.878125 228.034667) scale(0.1 -0.1)">
       <use xlink:href="#DejaVuSans-34"/>
       <use xlink:href="#DejaVuSans-30" x="63.623047"/>
       <use xlink:href="#DejaVuSans-30" x="127.246094"/>
       <use xlink:href="#DejaVuSans-30" x="190.869141"/>
       <use xlink:href="#DejaVuSans-30" x="254.492188"/>
      </g>
     </g>
    </g>
    <g id="ytick_6">
     <g id="line2d_15">
      <g>
       <use xlink:href="#m769de1ab5e" x="59.690625" y="163.834779" style="stroke: #000000; stroke-width: 0.8"/>
      </g>
     </g>
     <g id="text_16">
      <!-- 50000 -->
      <g transform="translate(20.878125 167.633998) scale(0.1 -0.1)">
       <use xlink:href="#DejaVuSans-35"/>
       <use xlink:href="#DejaVuSans-30" x="63.623047"/>
       <use xlink:href="#DejaVuSans-30" x="127.246094"/>
       <use xlink:href="#DejaVuSans-30" x="190.869141"/>
       <use xlink:href="#DejaVuSans-30" x="254.492188"/>
      </g>
     </g>
    </g>
    <g id="ytick_7">
     <g id="line2d_16">
      <g>
       <use xlink:href="#m769de1ab5e" x="59.690625" y="103.43411" style="stroke: #000000; stroke-width: 0.8"/>
      </g>
     </g>
     <g id="text_17">
      <!-- 60000 -->
      <g transform="translate(20.878125 107.233328) scale(0.1 -0.1)">
       <use xlink:href="#DejaVuSans-36"/>
       <use xlink:href="#DejaVuSans-30" x="63.623047"/>
       <use xlink:href="#DejaVuSans-30" x="127.246094"/>
       <use xlink:href="#DejaVuSans-30" x="190.869141"/>
       <use xlink:href="#DejaVuSans-30" x="254.492188"/>
      </g>
     </g>
    </g>
    <g id="ytick_8">
     <g id="line2d_17">
      <g>
       <use xlink:href="#m769de1ab5e" x="59.690625" y="43.033441" style="stroke: #000000; stroke-width: 0.8"/>
      </g>
     </g>
     <g id="text_18">
      <!-- 70000 -->
      <g transform="translate(20.878125 46.832659) scale(0.1 -0.1)">
       <use xlink:href="#DejaVuSans-37"/>
       <use xlink:href="#DejaVuSans-30" x="63.623047"/>
       <use xlink:href="#DejaVuSans-30" x="127.246094"/>
       <use xlink:href="#DejaVuSans-30" x="190.869141"/>
       <use xlink:href="#DejaVuSans-30" x="254.492188"/>
      </g>
     </g>
    </g>
    <g id="text_19">
     <!-- Frequency -->
     <g transform="translate(14.798438 269.907812) rotate(-90) scale(0.1 -0.1)">
      <defs>
       <path id="DejaVuSans-46" d="M 628 4666 
L 3309 4666 
L 3309 4134 
L 1259 4134 
L 1259 2759 
L 3109 2759 
L 3109 2228 
L 1259 2228 
L 1259 0 
L 628 0 
L 628 4666 
z
" transform="scale(0.015625)"/>
       <path id="DejaVuSans-72" d="M 2631 2963 
Q 2534 3019 2420 3045 
Q 2306 3072 2169 3072 
Q 1681 3072 1420 2755 
Q 1159 2438 1159 1844 
L 1159 0 
L 581 0 
L 581 3500 
L 1159 3500 
L 1159 2956 
Q 1341 3275 1631 3429 
Q 1922 3584 2338 3584 
Q 2397 3584 2469 3576 
Q 2541 3569 2628 3553 
L 2631 2963 
z
" transform="scale(0.015625)"/>
       <path id="DejaVuSans-71" d="M 947 1747 
Q 947 1113 1208 752 
Q 1469 391 1925 391 
Q 2381 391 2643 752 
Q 2906 1113 2906 1747 
Q 2906 2381 2643 2742 
Q 2381 3103 1925 3103 
Q 1469 3103 1208 2742 
Q 947 2381 947 1747 
z
M 2906 525 
Q 2725 213 2448 61 
Q 2172 -91 1784 -91 
Q 1150 -91 751 415 
Q 353 922 353 1747 
Q 353 2572 751 3078 
Q 1150 3584 1784 3584 
Q 2172 3584 2448 3432 
Q 2725 3281 2906 2969 
L 2906 3500 
L 3481 3500 
L 3481 -1331 
L 2906 -1331 
L 2906 525 
z
" transform="scale(0.015625)"/>
      </defs>
      <use xlink:href="#DejaVuSans-46"/>
      <use xlink:href="#DejaVuSans-72" x="50.269531"/>
      <use xlink:href="#DejaVuSans-65" x="89.132812"/>
      <use xlink:href="#DejaVuSans-71" x="150.65625"/>
      <use xlink:href="#DejaVuSans-75" x="214.132812"/>
      <use xlink:href="#DejaVuSans-65" x="277.511719"/>
      <use xlink:href="#DejaVuSans-6e" x="339.035156"/>
      <use xlink:href="#DejaVuSans-63" x="402.414062"/>
      <use xlink:href="#DejaVuSans-79" x="457.394531"/>
     </g>
    </g>
   </g>
   <g id="patch_332">
    <path d="M 59.690625 465.838125 
L 59.690625 22.318125 
" style="fill: none; stroke: #000000; stroke-width: 0.8; stroke-linejoin: miter; stroke-linecap: square"/>
   </g>
   <g id="patch_333">
    <path d="M 617.690625 465.838125 
L 617.690625 22.318125 
" style="fill: none; stroke: #000000; stroke-width: 0.8; stroke-linejoin: miter; stroke-linecap: square"/>
   </g>
   <g id="patch_334">
    <path d="M 59.690625 465.838125 
L 617.690625 465.838125 
" style="fill: none; stroke: #000000; stroke-width: 0.8; stroke-linejoin: miter; stroke-linecap: square"/>
   </g>
   <g id="patch_335">
    <path d="M 59.690625 22.318125 
L 617.690625 22.318125 
" style="fill: none; stroke: #000000; stroke-width: 0.8; stroke-linejoin: miter; stroke-linecap: square"/>
   </g>
   <g id="text_20">
    <!-- Lagscope Frequency Table Bar Graph (b_to_c.json) 09-13-2023 15:43:29 -->
    <g transform="translate(121.934063 16.318125) scale(0.12 -0.12)">
     <defs>
      <path id="DejaVuSans-67" d="M 2906 1791 
Q 2906 2416 2648 2759 
Q 2391 3103 1925 3103 
Q 1463 3103 1205 2759 
Q 947 2416 947 1791 
Q 947 1169 1205 825 
Q 1463 481 1925 481 
Q 2391 481 2648 825 
Q 2906 1169 2906 1791 
z
M 3481 434 
Q 3481 -459 3084 -895 
Q 2688 -1331 1869 -1331 
Q 1566 -1331 1297 -1286 
Q 1028 -1241 775 -1147 
L 775 -588 
Q 1028 -725 1275 -790 
Q 1522 -856 1778 -856 
Q 2344 -856 2625 -561 
Q 2906 -266 2906 331 
L 2906 616 
Q 2728 306 2450 153 
Q 2172 0 1784 0 
Q 1141 0 747 490 
Q 353 981 353 1791 
Q 353 2603 747 3093 
Q 1141 3584 1784 3584 
Q 2172 3584 2450 3431 
Q 2728 3278 2906 2969 
L 2906 3500 
L 3481 3500 
L 3481 434 
z
" transform="scale(0.015625)"/>
      <path id="DejaVuSans-6f" d="M 1959 3097 
Q 1497 3097 1228 2736 
Q 959 2375 959 1747 
Q 959 1119 1226 758 
Q 1494 397 1959 397 
Q 2419 397 2687 759 
Q 2956 1122 2956 1747 
Q 2956 2369 2687 2733 
Q 2419 3097 1959 3097 
z
M 1959 3584 
Q 2709 3584 3137 3096 
Q 3566 2609 3566 1747 
Q 3566 888 3137 398 
Q 2709 -91 1959 -91 
Q 1206 -91 779 398 
Q 353 888 353 1747 
Q 353 2609 779 3096 
Q 1206 3584 1959 3584 
z
" transform="scale(0.015625)"/>
      <path id="DejaVuSans-70" d="M 1159 525 
L 1159 -1331 
L 581 -1331 
L 581 3500 
L 1159 3500 
L 1159 2969 
Q 1341 3281 1617 3432 
Q 1894 3584 2278 3584 
Q 2916 3584 3314 3078 
Q 3713 2572 3713 1747 
Q 3713 922 3314 415 
Q 2916 -91 2278 -91 
Q 1894 -91 1617 61 
Q 1341 213 1159 525 
z
M 3116 1747 
Q 3116 2381 2855 2742 
Q 2594 3103 2138 3103 
Q 1681 3103 1420 2742 
Q 1159 2381 1159 1747 
Q 1159 1113 1420 752 
Q 1681 391 2138 391 
Q 2594 391 2855 752 
Q 3116 1113 3116 1747 
z
" transform="scale(0.015625)"/>
      <path id="DejaVuSans-54" d="M -19 4666 
L 3928 4666 
L 3928 4134 
L 2272 4134 
L 2272 0 
L 1638 0 
L 1638 4134 
L -19 4134 
L -19 4666 
z
" transform="scale(0.015625)"/>
      <path id="DejaVuSans-62" d="M 3116 1747 
Q 3116 2381 2855 2742 
Q 2594 3103 2138 3103 
Q 1681 3103 1420 2742 
Q 1159 2381 1159 1747 
Q 1159 1113 1420 752 
Q 1681 391 2138 391 
Q 2594 391 2855 752 
Q 3116 1113 3116 1747 
z
M 1159 2969 
Q 1341 3281 1617 3432 
Q 1894 3584 2278 3584 
Q 2916 3584 3314 3078 
Q 3713 2572 3713 1747 
Q 3713 922 3314 415 
Q 2916 -91 2278 -91 
Q 1894 -91 1617 61 
Q 1341 213 1159 525 
L 1159 0 
L 581 0 
L 581 4863 
L 1159 4863 
L 1159 2969 
z
" transform="scale(0.015625)"/>
      <path id="DejaVuSans-6c" d="M 603 4863 
L 1178 4863 
L 1178 0 
L 603 0 
L 603 4863 
z
" transform="scale(0.015625)"/>
      <path id="DejaVuSans-42" d="M 1259 2228 
L 1259 519 
L 2272 519 
Q 2781 519 3026 730 
Q 3272 941 3272 1375 
Q 3272 1813 3026 2020 
Q 2781 2228 2272 2228 
L 1259 2228 
z
M 1259 4147 
L 1259 2741 
L 2194 2741 
Q 2656 2741 2882 2914 
Q 3109 3088 3109 3444 
Q 3109 3797 2882 3972 
Q 2656 4147 2194 4147 
L 1259 4147 
z
M 628 4666 
L 2241 4666 
Q 2963 4666 3353 4366 
Q 3744 4066 3744 3513 
Q 3744 3084 3544 2831 
Q 3344 2578 2956 2516 
Q 3422 2416 3680 2098 
Q 3938 1781 3938 1306 
Q 3938 681 3513 340 
Q 3088 0 2303 0 
L 628 0 
L 628 4666 
z
" transform="scale(0.015625)"/>
      <path id="DejaVuSans-47" d="M 3809 666 
L 3809 1919 
L 2778 1919 
L 2778 2438 
L 4434 2438 
L 4434 434 
Q 4069 175 3628 42 
Q 3188 -91 2688 -91 
Q 1594 -91 976 548 
Q 359 1188 359 2328 
Q 359 3472 976 4111 
Q 1594 4750 2688 4750 
Q 3144 4750 3555 4637 
Q 3966 4525 4313 4306 
L 4313 3634 
Q 3963 3931 3569 4081 
Q 3175 4231 2741 4231 
Q 1884 4231 1454 3753 
Q 1025 3275 1025 2328 
Q 1025 1384 1454 906 
Q 1884 428 2741 428 
Q 3075 428 3337 486 
Q 3600 544 3809 666 
z
" transform="scale(0.015625)"/>
      <path id="DejaVuSans-68" d="M 3513 2113 
L 3513 0 
L 2938 0 
L 2938 2094 
Q 2938 2591 2744 2837 
Q 2550 3084 2163 3084 
Q 1697 3084 1428 2787 
Q 1159 2491 1159 1978 
L 1159 0 
L 581 0 
L 581 4863 
L 1159 4863 
L 1159 2956 
Q 1366 3272 1645 3428 
Q 1925 3584 2291 3584 
Q 2894 3584 3203 3211 
Q 3513 2838 3513 2113 
z
" transform="scale(0.015625)"/>
      <path id="DejaVuSans-5f" d="M 3263 -1063 
L 3263 -1509 
L -63 -1509 
L -63 -1063 
L 3263 -1063 
z
" transform="scale(0.015625)"/>
      <path id="DejaVuSans-2e" d="M 684 794 
L 1344 794 
L 1344 0 
L 684 0 
L 684 794 
z
" transform="scale(0.015625)"/>
      <path id="DejaVuSans-6a" d="M 603 3500 
L 1178 3500 
L 1178 -63 
Q 1178 -731 923 -1031 
Q 669 -1331 103 -1331 
L -116 -1331 
L -116 -844 
L 38 -844 
Q 366 -844 484 -692 
Q 603 -541 603 -63 
L 603 3500 
z
M 603 4863 
L 1178 4863 
L 1178 4134 
L 603 4134 
L 603 4863 
z
" transform="scale(0.015625)"/>
      <path id="DejaVuSans-2d" d="M 313 2009 
L 1997 2009 
L 1997 1497 
L 313 1497 
L 313 2009 
z
" transform="scale(0.015625)"/>
      <path id="DejaVuSans-3a" d="M 750 794 
L 1409 794 
L 1409 0 
L 750 0 
L 750 794 
z
M 750 3309 
L 1409 3309 
L 1409 2516 
L 750 2516 
L 750 3309 
z
" transform="scale(0.015625)"/>
     </defs>
     <use xlink:href="#DejaVuSans-4c"/>
     <use xlink:href="#DejaVuSans-61" x="55.712891"/>
     <use xlink:href="#DejaVuSans-67" x="116.992188"/>
     <use xlink:href="#DejaVuSans-73" x="180.46875"/>
     <use xlink:href="#DejaVuSans-63" x="232.568359"/>
     <use xlink:href="#DejaVuSans-6f" x="287.548828"/>
     <use xlink:href="#DejaVuSans-70" x="348.730469"/>
     <use xlink:href="#DejaVuSans-65" x="412.207031"/>
     <use xlink:href="#DejaVuSans-20" x="473.730469"/>
     <use xlink:href="#DejaVuSans-46" x="505.517578"/>
     <use xlink:href="#DejaVuSans-72" x="555.787109"/>
     <use xlink:href="#DejaVuSans-65" x="594.650391"/>
     <use xlink:href="#DejaVuSans-71" x="656.173828"/>
     <use xlink:href="#DejaVuSans-75" x="719.650391"/>
     <use xlink:href="#DejaVuSans-65" x="783.029297"/>
     <use xlink:href="#DejaVuSans-6e" x="844.552734"/>
     <use xlink:href="#DejaVuSans-63" x="907.931641"/>
     <use xlink:href="#DejaVuSans-79" x="962.912109"/>
     <use xlink:href="#DejaVuSans-20" x="1022.091797"/>
     <use xlink:href="#DejaVuSans-54" x="1053.878906"/>
     <use xlink:href="#DejaVuSans-61" x="1098.462891"/>
     <use xlink:href="#DejaVuSans-62" x="1159.742188"/>
     <use xlink:href="#DejaVuSans-6c" x="1223.21875"/>
     <use xlink:href="#DejaVuSans-65" x="1251.001953"/>
     <use xlink:href="#DejaVuSans-20" x="1312.525391"/>
     <use xlink:href="#DejaVuSans-42" x="1344.3125"/>
     <use xlink:href="#DejaVuSans-61" x="1412.916016"/>
     <use xlink:href="#DejaVuSans-72" x="1474.195312"/>
     <use xlink:href="#DejaVuSans-20" x="1515.308594"/>
     <use xlink:href="#DejaVuSans-47" x="1547.095703"/>
     <use xlink:href="#DejaVuSans-72" x="1624.585938"/>
     <use xlink:href="#DejaVuSans-61" x="1665.699219"/>
     <use xlink:href="#DejaVuSans-70" x="1726.978516"/>
     <use xlink:href="#DejaVuSans-68" x="1790.455078"/>
     <use xlink:href="#DejaVuSans-20" x="1853.833984"/>
     <use xlink:href="#DejaVuSans-28" x="1885.621094"/>
     <use xlink:href="#DejaVuSans-62" x="1924.634766"/>
     <use xlink:href="#DejaVuSans-5f" x="1988.111328"/>
     <use xlink:href="#DejaVuSans-74" x="2038.111328"/>
     <use xlink:href="#DejaVuSans-6f" x="2077.320312"/>
     <use xlink:href="#DejaVuSans-5f" x="2138.501953"/>
     <use xlink:href="#DejaVuSans-63" x="2188.501953"/>
     <use xlink:href="#DejaVuSans-2e" x="2243.482422"/>
     <use xlink:href="#DejaVuSans-6a" x="2275.269531"/>
     <use xlink:href="#DejaVuSans-73" x="2303.052734"/>
     <use xlink:href="#DejaVuSans-6f" x="2355.152344"/>
     <use xlink:href="#DejaVuSans-6e" x="2416.333984"/>
     <use xlink:href="#DejaVuSans-29" x="2479.712891"/>
     <use xlink:href="#DejaVuSans-20" x="2518.726562"/>
     <use xlink:href="#DejaVuSans-30" x="2550.513672"/>
     <use xlink:href="#DejaVuSans-39" x="2614.136719"/>
     <use xlink:href="#DejaVuSans-2d" x="2677.759766"/>
     <use xlink:href="#DejaVuSans-31" x="2713.84375"/>
     <use xlink:href="#DejaVuSans-33" x="2777.466797"/>
     <use xlink:href="#DejaVuSans-2d" x="2841.089844"/>
     <use xlink:href="#DejaVuSans-32" x="2877.173828"/>
     <use xlink:href="#DejaVuSans-30" x="2940.796875"/>
     <use xlink:href="#DejaVuSans-32" x="3004.419922"/>
     <use xlink:href="#DejaVuSans-33" x="3068.042969"/>
     <use xlink:href="#DejaVuSans-20" x="3131.666016"/>
     <use xlink:href="#DejaVuSans-31" x="3163.453125"/>
     <use xlink:href="#DejaVuSans-35" x="3227.076172"/>
     <use xlink:href="#DejaVuSans-3a" x="3290.699219"/>
     <use xlink:href="#DejaVuSans-34" x="3324.390625"/>
     <use xlink:href="#DejaVuSans-33" x="3388.013672"/>
     <use xlink:href="#DejaVuSans-3a" x="3451.636719"/>
     <use xlink:href="#DejaVuSans-32" x="3485.328125"/>
     <use xlink:href="#DejaVuSans-39" x="3548.951172"/>
    </g>
   </g>
  </g>
 </g>
 <defs>
  <clipPath id="pd5f84b246c">
   <rect x="59.690625" y="22.318125" width="558" height="443.52"/>
  </clipPath>
 </defs>
</svg>
