<?xml version="1.0" encoding="utf-8" standalone="no"?>
<!DOCTYPE svg PUBLIC "-//W3C//DTD SVG 1.1//EN"
  "http://www.w3.org/Graphics/SVG/1.1/DTD/svg11.dtd">
<svg xmlns:xlink="http://www.w3.org/1999/xlink" width="624.890625pt" height="511.718017pt" viewBox="0 0 624.890625 511.718017" xmlns="http://www.w3.org/2000/svg" version="1.1">
 <metadata>
  <rdf:RDF xmlns:dc="http://purl.org/dc/elements/1.1/" xmlns:cc="http://creativecommons.org/ns#" xmlns:rdf="http://www.w3.org/1999/02/22-rdf-syntax-ns#">
   <cc:Work>
    <dc:type rdf:resource="http://purl.org/dc/dcmitype/StillImage"/>
    <dc:date>2023-09-13T15:43:41.748956</dc:date>
    <dc:format>image/svg+xml</dc:format>
    <dc:creator>
     <cc:Agent>
      <dc:title>Matplotlib v3.7.3, https://matplotlib.org/</dc:title>
     </cc:Agent>
    </dc:creator>
   </cc:Work>
  </rdf:RDF>
 </metadata>
 <defs>
  <style type="text/css">*{stroke-linejoin: round; stroke-linecap: butt}</style>
 </defs>
 <g id="figure_1">
  <g id="patch_1">
   <path d="M 0 511.718017 
L 624.890625 511.718017 
L 624.890625 0 
L 0 0 
z
" style="fill: #ffffff"/>
  </g>
  <g id="axes_1">
   <g id="patch_2">
    <path d="M 59.690625 465.838125 
L 617.690625 465.838125 
L 617.690625 22.318125 
L 59.690625 22.318125 
z
" style="fill: #ffffff"/>
   </g>
   <g id="patch_3">
    <path d="M 85.054261 465.838125 
L 85.524067 465.838125 
L 85.524067 465.795311 
L 85.054261 465.795311 
z
" clip-path="url(#pf6a444f3ef)" style="fill: #1f77b4"/>
   </g>
   <g id="patch_4">
    <path d="M 85.641519 465.838125 
L 86.111324 465.838125 
L 86.111324 464.177886 
L 85.641519 464.177886 
z
" clip-path="url(#pf6a444f3ef)" style="fill: #1f77b4"/>
   </g>
   <g id="patch_5">
    <path d="M 86.228776 465.838125 
L 86.698581 465.838125 
L 86.698581 457.070731 
L 86.228776 457.070731 
z
" clip-path="url(#pf6a444f3ef)" style="fill: #1f77b4"/>
   </g>
   <g id="patch_6">
    <path d="M 86.816033 465.838125 
L 87.285839 465.838125 
L 87.285839 445.391973 
L 86.816033 445.391973 
z
" clip-path="url(#pf6a444f3ef)" style="fill: #1f77b4"/>
   </g>
   <g id="patch_7">
    <path d="M 87.40329 465.838125 
L 87.873096 465.838125 
L 87.873096 431.386977 
L 87.40329 431.386977 
z
" clip-path="url(#pf6a444f3ef)" style="fill: #1f77b4"/>
   </g>
   <g id="patch_8">
    <path d="M 87.990547 465.838125 
L 88.460353 465.838125 
L 88.460353 403.595813 
L 87.990547 403.595813 
z
" clip-path="url(#pf6a444f3ef)" style="fill: #1f77b4"/>
   </g>
   <g id="patch_9">
    <path d="M 88.577804 465.838125 
L 89.04761 465.838125 
L 89.04761 351.200764 
L 88.577804 351.200764 
z
" clip-path="url(#pf6a444f3ef)" style="fill: #1f77b4"/>
   </g>
   <g id="patch_10">
    <path d="M 89.165061 465.838125 
L 89.634867 465.838125 
L 89.634867 297.264404 
L 89.165061 297.264404 
z
" clip-path="url(#pf6a444f3ef)" style="fill: #1f77b4"/>
   </g>
   <g id="patch_11">
    <path d="M 89.752319 465.838125 
L 90.222124 465.838125 
L 90.222124 256.557628 
L 89.752319 256.557628 
z
" clip-path="url(#pf6a444f3ef)" style="fill: #1f77b4"/>
   </g>
   <g id="patch_12">
    <path d="M 90.339576 465.838125 
L 90.809381 465.838125 
L 90.809381 199.238947 
L 90.339576 199.238947 
z
" clip-path="url(#pf6a444f3ef)" style="fill: #1f77b4"/>
   </g>
   <g id="patch_13">
    <path d="M 90.926833 465.838125 
L 91.396639 465.838125 
L 91.396639 115.384986 
L 90.926833 115.384986 
z
" clip-path="url(#pf6a444f3ef)" style="fill: #1f77b4"/>
   </g>
   <g id="patch_14">
    <path d="M 91.51409 465.838125 
L 91.983896 465.838125 
L 91.983896 60.1975 
L 91.51409 60.1975 
z
" clip-path="url(#pf6a444f3ef)" style="fill: #1f77b4"/>
   </g>
   <g id="patch_15">
    <path d="M 92.101347 465.838125 
L 92.571153 465.838125 
L 92.571153 43.438125 
L 92.101347 43.438125 
z
" clip-path="url(#pf6a444f3ef)" style="fill: #1f77b4"/>
   </g>
   <g id="patch_16">
    <path d="M 92.688604 465.838125 
L 93.15841 465.838125 
L 93.15841 54.089343 
L 92.688604 54.089343 
z
" clip-path="url(#pf6a444f3ef)" style="fill: #1f77b4"/>
   </g>
   <g id="patch_17">
    <path d="M 93.275861 465.838125 
L 93.745667 465.838125 
L 93.745667 89.943845 
L 93.275861 89.943845 
z
" clip-path="url(#pf6a444f3ef)" style="fill: #1f77b4"/>
   </g>
   <g id="patch_18">
    <path d="M 93.863119 465.838125 
L 94.332924 465.838125 
L 94.332924 139.536944 
L 93.863119 139.536944 
z
" clip-path="url(#pf6a444f3ef)" style="fill: #1f77b4"/>
   </g>
   <g id="patch_19">
    <path d="M 94.450376 465.838125 
L 94.920182 465.838125 
L 94.920182 198.45402 
L 94.450376 198.45402 
z
" clip-path="url(#pf6a444f3ef)" style="fill: #1f77b4"/>
   </g>
   <g id="patch_20">
    <path d="M 95.037633 465.838125 
L 95.507439 465.838125 
L 95.507439 248.622732 
L 95.037633 248.622732 
z
" clip-path="url(#pf6a444f3ef)" style="fill: #1f77b4"/>
   </g>
   <g id="patch_21">
    <path d="M 95.62489 465.838125 
L 96.094696 465.838125 
L 96.094696 293.268413 
L 95.62489 293.268413 
z
" clip-path="url(#pf6a444f3ef)" style="fill: #1f77b4"/>
   </g>
   <g id="patch_22">
    <path d="M 96.212147 465.838125 
L 96.681953 465.838125 
L 96.681953 328.723316 
L 96.212147 328.723316 
z
" clip-path="url(#pf6a444f3ef)" style="fill: #1f77b4"/>
   </g>
   <g id="patch_23">
    <path d="M 96.799404 465.838125 
L 97.26921 465.838125 
L 97.26921 356.457395 
L 96.799404 356.457395 
z
" clip-path="url(#pf6a444f3ef)" style="fill: #1f77b4"/>
   </g>
   <g id="patch_24">
    <path d="M 97.386662 465.838125 
L 97.856467 465.838125 
L 97.856467 378.050016 
L 97.386662 378.050016 
z
" clip-path="url(#pf6a444f3ef)" style="fill: #1f77b4"/>
   </g>
   <g id="patch_25">
    <path d="M 97.973919 465.838125 
L 98.443724 465.838125 
L 98.443724 394.010193 
L 97.973919 394.010193 
z
" clip-path="url(#pf6a444f3ef)" style="fill: #1f77b4"/>
   </g>
   <g id="patch_26">
    <path d="M 98.561176 465.838125 
L 99.030982 465.838125 
L 99.030982 407.701218 
L 98.561176 407.701218 
z
" clip-path="url(#pf6a444f3ef)" style="fill: #1f77b4"/>
   </g>
   <g id="patch_27">
    <path d="M 99.148433 465.838125 
L 99.618239 465.838125 
L 99.618239 417.862451 
L 99.148433 417.862451 
z
" clip-path="url(#pf6a444f3ef)" style="fill: #1f77b4"/>
   </g>
   <g id="patch_28">
    <path d="M 99.73569 465.838125 
L 100.205496 465.838125 
L 100.205496 425.649876 
L 99.73569 425.649876 
z
" clip-path="url(#pf6a444f3ef)" style="fill: #1f77b4"/>
   </g>
   <g id="patch_29">
    <path d="M 100.322947 465.838125 
L 100.792753 465.838125 
L 100.792753 431.834147 
L 100.322947 431.834147 
z
" clip-path="url(#pf6a444f3ef)" style="fill: #1f77b4"/>
   </g>
   <g id="patch_30">
    <path d="M 100.910204 465.838125 
L 101.38001 465.838125 
L 101.38001 436.753021 
L 100.910204 436.753021 
z
" clip-path="url(#pf6a444f3ef)" style="fill: #1f77b4"/>
   </g>
   <g id="patch_31">
    <path d="M 101.497462 465.838125 
L 101.967267 465.838125 
L 101.967267 441.020169 
L 101.497462 441.020169 
z
" clip-path="url(#pf6a444f3ef)" style="fill: #1f77b4"/>
   </g>
   <g id="patch_32">
    <path d="M 102.084719 465.838125 
L 102.554524 465.838125 
L 102.554524 444.364432 
L 102.084719 444.364432 
z
" clip-path="url(#pf6a444f3ef)" style="fill: #1f77b4"/>
   </g>
   <g id="patch_33">
    <path d="M 102.671976 465.838125 
L 103.141782 465.838125 
L 103.141782 446.509899 
L 102.671976 446.509899 
z
" clip-path="url(#pf6a444f3ef)" style="fill: #1f77b4"/>
   </g>
   <g id="patch_34">
    <path d="M 103.259233 465.838125 
L 103.729039 465.838125 
L 103.729039 448.427023 
L 103.259233 448.427023 
z
" clip-path="url(#pf6a444f3ef)" style="fill: #1f77b4"/>
   </g>
   <g id="patch_35">
    <path d="M 103.84649 465.838125 
L 104.316296 465.838125 
L 104.316296 450.715203 
L 103.84649 450.715203 
z
" clip-path="url(#pf6a444f3ef)" style="fill: #1f77b4"/>
   </g>
   <g id="patch_36">
    <path d="M 104.433747 465.838125 
L 104.903553 465.838125 
L 104.903553 452.023414 
L 104.433747 452.023414 
z
" clip-path="url(#pf6a444f3ef)" style="fill: #1f77b4"/>
   </g>
   <g id="patch_37">
    <path d="M 105.021005 465.838125 
L 105.49081 465.838125 
L 105.49081 453.745496 
L 105.021005 453.745496 
z
" clip-path="url(#pf6a444f3ef)" style="fill: #1f77b4"/>
   </g>
   <g id="patch_38">
    <path d="M 105.608262 465.838125 
L 106.078067 465.838125 
L 106.078067 454.573237 
L 105.608262 454.573237 
z
" clip-path="url(#pf6a444f3ef)" style="fill: #1f77b4"/>
   </g>
   <g id="patch_39">
    <path d="M 106.195519 465.838125 
L 106.665325 465.838125 
L 106.665325 455.638835 
L 106.195519 455.638835 
z
" clip-path="url(#pf6a444f3ef)" style="fill: #1f77b4"/>
   </g>
   <g id="patch_40">
    <path d="M 106.782776 465.838125 
L 107.252582 465.838125 
L 107.252582 456.628318 
L 106.782776 456.628318 
z
" clip-path="url(#pf6a444f3ef)" style="fill: #1f77b4"/>
   </g>
   <g id="patch_41">
    <path d="M 107.370033 465.838125 
L 107.839839 465.838125 
L 107.839839 457.151602 
L 107.370033 457.151602 
z
" clip-path="url(#pf6a444f3ef)" style="fill: #1f77b4"/>
   </g>
   <g id="patch_42">
    <path d="M 107.95729 465.838125 
L 108.427096 465.838125 
L 108.427096 458.240986 
L 107.95729 458.240986 
z
" clip-path="url(#pf6a444f3ef)" style="fill: #1f77b4"/>
   </g>
   <g id="patch_43">
    <path d="M 108.544547 465.838125 
L 109.014353 465.838125 
L 109.014353 458.450299 
L 108.544547 458.450299 
z
" clip-path="url(#pf6a444f3ef)" style="fill: #1f77b4"/>
   </g>
   <g id="patch_44">
    <path d="M 109.131805 465.838125 
L 109.60161 465.838125 
L 109.60161 459.159112 
L 109.131805 459.159112 
z
" clip-path="url(#pf6a444f3ef)" style="fill: #1f77b4"/>
   </g>
   <g id="patch_45">
    <path d="M 109.719062 465.838125 
L 110.188867 465.838125 
L 110.188867 459.116298 
L 109.719062 459.116298 
z
" clip-path="url(#pf6a444f3ef)" style="fill: #1f77b4"/>
   </g>
   <g id="patch_46">
    <path d="M 110.306319 465.838125 
L 110.776125 465.838125 
L 110.776125 459.848896 
L 110.306319 459.848896 
z
" clip-path="url(#pf6a444f3ef)" style="fill: #1f77b4"/>
   </g>
   <g id="patch_47">
    <path d="M 110.893576 465.838125 
L 111.363382 465.838125 
L 111.363382 460.02491 
L 110.893576 460.02491 
z
" clip-path="url(#pf6a444f3ef)" style="fill: #1f77b4"/>
   </g>
   <g id="patch_48">
    <path d="M 111.480833 465.838125 
L 111.950639 465.838125 
L 111.950639 460.381695 
L 111.480833 460.381695 
z
" clip-path="url(#pf6a444f3ef)" style="fill: #1f77b4"/>
   </g>
   <g id="patch_49">
    <path d="M 112.06809 465.838125 
L 112.537896 465.838125 
L 112.537896 461.066722 
L 112.06809 461.066722 
z
" clip-path="url(#pf6a444f3ef)" style="fill: #1f77b4"/>
   </g>
   <g id="patch_50">
    <path d="M 112.655347 465.838125 
L 113.125153 465.838125 
L 113.125153 461.000122 
L 112.655347 461.000122 
z
" clip-path="url(#pf6a444f3ef)" style="fill: #1f77b4"/>
   </g>
   <g id="patch_51">
    <path d="M 113.242605 465.838125 
L 113.71241 465.838125 
L 113.71241 461.399721 
L 113.242605 461.399721 
z
" clip-path="url(#pf6a444f3ef)" style="fill: #1f77b4"/>
   </g>
   <g id="patch_52">
    <path d="M 113.829862 465.838125 
L 114.299667 465.838125 
L 114.299667 461.79932 
L 113.829862 461.79932 
z
" clip-path="url(#pf6a444f3ef)" style="fill: #1f77b4"/>
   </g>
   <g id="patch_53">
    <path d="M 114.417119 465.838125 
L 114.886925 465.838125 
L 114.886925 461.856406 
L 114.417119 461.856406 
z
" clip-path="url(#pf6a444f3ef)" style="fill: #1f77b4"/>
   </g>
   <g id="patch_54">
    <path d="M 115.004376 465.838125 
L 115.474182 465.838125 
L 115.474182 462.198919 
L 115.004376 462.198919 
z
" clip-path="url(#pf6a444f3ef)" style="fill: #1f77b4"/>
   </g>
   <g id="patch_55">
    <path d="M 115.591633 465.838125 
L 116.061439 465.838125 
L 116.061439 462.403476 
L 115.591633 462.403476 
z
" clip-path="url(#pf6a444f3ef)" style="fill: #1f77b4"/>
   </g>
   <g id="patch_56">
    <path d="M 116.17889 465.838125 
L 116.648696 465.838125 
L 116.648696 462.569975 
L 116.17889 462.569975 
z
" clip-path="url(#pf6a444f3ef)" style="fill: #1f77b4"/>
   </g>
   <g id="patch_57">
    <path d="M 116.766148 465.838125 
L 117.235953 465.838125 
L 117.235953 462.745989 
L 116.766148 462.745989 
z
" clip-path="url(#pf6a444f3ef)" style="fill: #1f77b4"/>
   </g>
   <g id="patch_58">
    <path d="M 117.353405 465.838125 
L 117.82321 465.838125 
L 117.82321 462.955303 
L 117.353405 462.955303 
z
" clip-path="url(#pf6a444f3ef)" style="fill: #1f77b4"/>
   </g>
   <g id="patch_59">
    <path d="M 117.940662 465.838125 
L 118.410468 465.838125 
L 118.410468 463.012389 
L 117.940662 463.012389 
z
" clip-path="url(#pf6a444f3ef)" style="fill: #1f77b4"/>
   </g>
   <g id="patch_60">
    <path d="M 118.527919 465.838125 
L 118.997725 465.838125 
L 118.997725 463.107531 
L 118.527919 463.107531 
z
" clip-path="url(#pf6a444f3ef)" style="fill: #1f77b4"/>
   </g>
   <g id="patch_61">
    <path d="M 119.115176 465.838125 
L 119.584982 465.838125 
L 119.584982 463.231217 
L 119.115176 463.231217 
z
" clip-path="url(#pf6a444f3ef)" style="fill: #1f77b4"/>
   </g>
   <g id="patch_62">
    <path d="M 119.702433 465.838125 
L 120.172239 465.838125 
L 120.172239 463.450045 
L 119.702433 463.450045 
z
" clip-path="url(#pf6a444f3ef)" style="fill: #1f77b4"/>
   </g>
   <g id="patch_63">
    <path d="M 120.28969 465.838125 
L 120.759496 465.838125 
L 120.759496 463.469073 
L 120.28969 463.469073 
z
" clip-path="url(#pf6a444f3ef)" style="fill: #1f77b4"/>
   </g>
   <g id="patch_64">
    <path d="M 120.876948 465.838125 
L 121.346753 465.838125 
L 121.346753 463.526159 
L 120.876948 463.526159 
z
" clip-path="url(#pf6a444f3ef)" style="fill: #1f77b4"/>
   </g>
   <g id="patch_65">
    <path d="M 121.464205 465.838125 
L 121.93401 465.838125 
L 121.93401 463.735473 
L 121.464205 463.735473 
z
" clip-path="url(#pf6a444f3ef)" style="fill: #1f77b4"/>
   </g>
   <g id="patch_66">
    <path d="M 122.051462 465.838125 
L 122.521268 465.838125 
L 122.521268 463.982844 
L 122.051462 463.982844 
z
" clip-path="url(#pf6a444f3ef)" style="fill: #1f77b4"/>
   </g>
   <g id="patch_67">
    <path d="M 122.638719 465.838125 
L 123.108525 465.838125 
L 123.108525 464.049443 
L 122.638719 464.049443 
z
" clip-path="url(#pf6a444f3ef)" style="fill: #1f77b4"/>
   </g>
   <g id="patch_68">
    <path d="M 123.225976 465.838125 
L 123.695782 465.838125 
L 123.695782 464.054201 
L 123.225976 464.054201 
z
" clip-path="url(#pf6a444f3ef)" style="fill: #1f77b4"/>
   </g>
   <g id="patch_69">
    <path d="M 123.813233 465.838125 
L 124.283039 465.838125 
L 124.283039 464.215943 
L 123.813233 464.215943 
z
" clip-path="url(#pf6a444f3ef)" style="fill: #1f77b4"/>
   </g>
   <g id="patch_70">
    <path d="M 124.40049 465.838125 
L 124.870296 465.838125 
L 124.870296 464.382443 
L 124.40049 464.382443 
z
" clip-path="url(#pf6a444f3ef)" style="fill: #1f77b4"/>
   </g>
   <g id="patch_71">
    <path d="M 124.987748 465.838125 
L 125.457553 465.838125 
L 125.457553 464.3539 
L 124.987748 464.3539 
z
" clip-path="url(#pf6a444f3ef)" style="fill: #1f77b4"/>
   </g>
   <g id="patch_72">
    <path d="M 125.575005 465.838125 
L 126.044811 465.838125 
L 126.044811 464.410985 
L 125.575005 464.410985 
z
" clip-path="url(#pf6a444f3ef)" style="fill: #1f77b4"/>
   </g>
   <g id="patch_73">
    <path d="M 126.162262 465.838125 
L 126.632068 465.838125 
L 126.632068 464.525157 
L 126.162262 464.525157 
z
" clip-path="url(#pf6a444f3ef)" style="fill: #1f77b4"/>
   </g>
   <g id="patch_74">
    <path d="M 126.749519 465.838125 
L 127.219325 465.838125 
L 127.219325 464.667871 
L 126.749519 464.667871 
z
" clip-path="url(#pf6a444f3ef)" style="fill: #1f77b4"/>
   </g>
   <g id="patch_75">
    <path d="M 127.336776 465.838125 
L 127.806582 465.838125 
L 127.806582 464.634571 
L 127.336776 464.634571 
z
" clip-path="url(#pf6a444f3ef)" style="fill: #1f77b4"/>
   </g>
   <g id="patch_76">
    <path d="M 127.924033 465.838125 
L 128.393839 465.838125 
L 128.393839 464.672628 
L 127.924033 464.672628 
z
" clip-path="url(#pf6a444f3ef)" style="fill: #1f77b4"/>
   </g>
   <g id="patch_77">
    <path d="M 128.511291 465.838125 
L 128.981096 465.838125 
L 128.981096 464.820099 
L 128.511291 464.820099 
z
" clip-path="url(#pf6a444f3ef)" style="fill: #1f77b4"/>
   </g>
   <g id="patch_78">
    <path d="M 129.098548 465.838125 
L 129.568353 465.838125 
L 129.568353 464.891456 
L 129.098548 464.891456 
z
" clip-path="url(#pf6a444f3ef)" style="fill: #1f77b4"/>
   </g>
   <g id="patch_79">
    <path d="M 129.685805 465.838125 
L 130.155611 465.838125 
L 130.155611 464.943784 
L 129.685805 464.943784 
z
" clip-path="url(#pf6a444f3ef)" style="fill: #1f77b4"/>
   </g>
   <g id="patch_80">
    <path d="M 130.273062 465.838125 
L 130.742868 465.838125 
L 130.742868 465.015141 
L 130.273062 465.015141 
z
" clip-path="url(#pf6a444f3ef)" style="fill: #1f77b4"/>
   </g>
   <g id="patch_81">
    <path d="M 130.860319 465.838125 
L 131.330125 465.838125 
L 131.330125 464.962813 
L 130.860319 464.962813 
z
" clip-path="url(#pf6a444f3ef)" style="fill: #1f77b4"/>
   </g>
   <g id="patch_82">
    <path d="M 131.447576 465.838125 
L 131.917382 465.838125 
L 131.917382 465.043684 
L 131.447576 465.043684 
z
" clip-path="url(#pf6a444f3ef)" style="fill: #1f77b4"/>
   </g>
   <g id="patch_83">
    <path d="M 132.034833 465.838125 
L 132.504639 465.838125 
L 132.504639 465.224455 
L 132.034833 465.224455 
z
" clip-path="url(#pf6a444f3ef)" style="fill: #1f77b4"/>
   </g>
   <g id="patch_84">
    <path d="M 132.622091 465.838125 
L 133.091896 465.838125 
L 133.091896 465.191155 
L 132.622091 465.191155 
z
" clip-path="url(#pf6a444f3ef)" style="fill: #1f77b4"/>
   </g>
   <g id="patch_85">
    <path d="M 133.209348 465.838125 
L 133.679153 465.838125 
L 133.679153 465.119798 
L 133.209348 465.119798 
z
" clip-path="url(#pf6a444f3ef)" style="fill: #1f77b4"/>
   </g>
   <g id="patch_86">
    <path d="M 133.796605 465.838125 
L 134.266411 465.838125 
L 134.266411 465.390955 
L 133.796605 465.390955 
z
" clip-path="url(#pf6a444f3ef)" style="fill: #1f77b4"/>
   </g>
   <g id="patch_87">
    <path d="M 134.383862 465.838125 
L 134.853668 465.838125 
L 134.853668 465.233969 
L 134.383862 465.233969 
z
" clip-path="url(#pf6a444f3ef)" style="fill: #1f77b4"/>
   </g>
   <g id="patch_88">
    <path d="M 134.971119 465.838125 
L 135.440925 465.838125 
L 135.440925 465.281541 
L 134.971119 465.281541 
z
" clip-path="url(#pf6a444f3ef)" style="fill: #1f77b4"/>
   </g>
   <g id="patch_89">
    <path d="M 135.558376 465.838125 
L 136.028182 465.838125 
L 136.028182 465.314841 
L 135.558376 465.314841 
z
" clip-path="url(#pf6a444f3ef)" style="fill: #1f77b4"/>
   </g>
   <g id="patch_90">
    <path d="M 136.145634 465.838125 
L 136.615439 465.838125 
L 136.615439 465.314841 
L 136.145634 465.314841 
z
" clip-path="url(#pf6a444f3ef)" style="fill: #1f77b4"/>
   </g>
   <g id="patch_91">
    <path d="M 136.732891 465.838125 
L 137.202696 465.838125 
L 137.202696 465.267269 
L 136.732891 465.267269 
z
" clip-path="url(#pf6a444f3ef)" style="fill: #1f77b4"/>
   </g>
   <g id="patch_92">
    <path d="M 137.320148 465.838125 
L 137.789954 465.838125 
L 137.789954 465.343383 
L 137.320148 465.343383 
z
" clip-path="url(#pf6a444f3ef)" style="fill: #1f77b4"/>
   </g>
   <g id="patch_93">
    <path d="M 137.907405 465.838125 
L 138.377211 465.838125 
L 138.377211 465.343383 
L 137.907405 465.343383 
z
" clip-path="url(#pf6a444f3ef)" style="fill: #1f77b4"/>
   </g>
   <g id="patch_94">
    <path d="M 138.494662 465.838125 
L 138.964468 465.838125 
L 138.964468 465.433769 
L 138.494662 465.433769 
z
" clip-path="url(#pf6a444f3ef)" style="fill: #1f77b4"/>
   </g>
   <g id="patch_95">
    <path d="M 139.081919 465.838125 
L 139.551725 465.838125 
L 139.551725 465.371926 
L 139.081919 465.371926 
z
" clip-path="url(#pf6a444f3ef)" style="fill: #1f77b4"/>
   </g>
   <g id="patch_96">
    <path d="M 139.669176 465.838125 
L 140.138982 465.838125 
L 140.138982 465.400469 
L 139.669176 465.400469 
z
" clip-path="url(#pf6a444f3ef)" style="fill: #1f77b4"/>
   </g>
   <g id="patch_97">
    <path d="M 140.256434 465.838125 
L 140.726239 465.838125 
L 140.726239 465.467069 
L 140.256434 465.467069 
z
" clip-path="url(#pf6a444f3ef)" style="fill: #1f77b4"/>
   </g>
   <g id="patch_98">
    <path d="M 140.843691 465.838125 
L 141.313496 465.838125 
L 141.313496 465.505126 
L 140.843691 465.505126 
z
" clip-path="url(#pf6a444f3ef)" style="fill: #1f77b4"/>
   </g>
   <g id="patch_99">
    <path d="M 141.430948 465.838125 
L 141.900754 465.838125 
L 141.900754 465.452797 
L 141.430948 465.452797 
z
" clip-path="url(#pf6a444f3ef)" style="fill: #1f77b4"/>
   </g>
   <g id="patch_100">
    <path d="M 142.018205 465.838125 
L 142.488011 465.838125 
L 142.488011 465.528911 
L 142.018205 465.528911 
z
" clip-path="url(#pf6a444f3ef)" style="fill: #1f77b4"/>
   </g>
   <g id="patch_101">
    <path d="M 142.605462 465.838125 
L 143.075268 465.838125 
L 143.075268 465.538426 
L 142.605462 465.538426 
z
" clip-path="url(#pf6a444f3ef)" style="fill: #1f77b4"/>
   </g>
   <g id="patch_102">
    <path d="M 143.192719 465.838125 
L 143.662525 465.838125 
L 143.662525 465.552697 
L 143.192719 465.552697 
z
" clip-path="url(#pf6a444f3ef)" style="fill: #1f77b4"/>
   </g>
   <g id="patch_103">
    <path d="M 143.779976 465.838125 
L 144.249782 465.838125 
L 144.249782 465.571726 
L 143.779976 465.571726 
z
" clip-path="url(#pf6a444f3ef)" style="fill: #1f77b4"/>
   </g>
   <g id="patch_104">
    <path d="M 144.367234 465.838125 
L 144.837039 465.838125 
L 144.837039 465.562211 
L 144.367234 465.562211 
z
" clip-path="url(#pf6a444f3ef)" style="fill: #1f77b4"/>
   </g>
   <g id="patch_105">
    <path d="M 144.954491 465.838125 
L 145.424297 465.838125 
L 145.424297 465.600268 
L 144.954491 465.600268 
z
" clip-path="url(#pf6a444f3ef)" style="fill: #1f77b4"/>
   </g>
   <g id="patch_106">
    <path d="M 145.541748 465.838125 
L 146.011554 465.838125 
L 146.011554 465.624054 
L 145.541748 465.624054 
z
" clip-path="url(#pf6a444f3ef)" style="fill: #1f77b4"/>
   </g>
   <g id="patch_107">
    <path d="M 146.129005 465.838125 
L 146.598811 465.838125 
L 146.598811 465.600268 
L 146.129005 465.600268 
z
" clip-path="url(#pf6a444f3ef)" style="fill: #1f77b4"/>
   </g>
   <g id="patch_108">
    <path d="M 146.716262 465.838125 
L 147.186068 465.838125 
L 147.186068 465.657354 
L 146.716262 465.657354 
z
" clip-path="url(#pf6a444f3ef)" style="fill: #1f77b4"/>
   </g>
   <g id="patch_109">
    <path d="M 147.303519 465.838125 
L 147.773325 465.838125 
L 147.773325 465.58124 
L 147.303519 465.58124 
z
" clip-path="url(#pf6a444f3ef)" style="fill: #1f77b4"/>
   </g>
   <g id="patch_110">
    <path d="M 147.890777 465.838125 
L 148.360582 465.838125 
L 148.360582 465.619297 
L 147.890777 465.619297 
z
" clip-path="url(#pf6a444f3ef)" style="fill: #1f77b4"/>
   </g>
   <g id="patch_111">
    <path d="M 148.478034 465.838125 
L 148.947839 465.838125 
L 148.947839 465.633568 
L 148.478034 465.633568 
z
" clip-path="url(#pf6a444f3ef)" style="fill: #1f77b4"/>
   </g>
   <g id="patch_112">
    <path d="M 149.065291 465.838125 
L 149.535097 465.838125 
L 149.535097 465.643083 
L 149.065291 465.643083 
z
" clip-path="url(#pf6a444f3ef)" style="fill: #1f77b4"/>
   </g>
   <g id="patch_113">
    <path d="M 149.652548 465.838125 
L 150.122354 465.838125 
L 150.122354 465.657354 
L 149.652548 465.657354 
z
" clip-path="url(#pf6a444f3ef)" style="fill: #1f77b4"/>
   </g>
   <g id="patch_114">
    <path d="M 150.239805 465.838125 
L 150.709611 465.838125 
L 150.709611 465.638325 
L 150.239805 465.638325 
z
" clip-path="url(#pf6a444f3ef)" style="fill: #1f77b4"/>
   </g>
   <g id="patch_115">
    <path d="M 150.827062 465.838125 
L 151.296868 465.838125 
L 151.296868 465.638325 
L 150.827062 465.638325 
z
" clip-path="url(#pf6a444f3ef)" style="fill: #1f77b4"/>
   </g>
   <g id="patch_116">
    <path d="M 151.414319 465.838125 
L 151.884125 465.838125 
L 151.884125 465.723954 
L 151.414319 465.723954 
z
" clip-path="url(#pf6a444f3ef)" style="fill: #1f77b4"/>
   </g>
   <g id="patch_117">
    <path d="M 152.001577 465.838125 
L 152.471382 465.838125 
L 152.471382 465.662111 
L 152.001577 465.662111 
z
" clip-path="url(#pf6a444f3ef)" style="fill: #1f77b4"/>
   </g>
   <g id="patch_118">
    <path d="M 152.588834 465.838125 
L 153.058639 465.838125 
L 153.058639 465.666868 
L 152.588834 465.666868 
z
" clip-path="url(#pf6a444f3ef)" style="fill: #1f77b4"/>
   </g>
   <g id="patch_119">
    <path d="M 153.176091 465.838125 
L 153.645897 465.838125 
L 153.645897 465.700168 
L 153.176091 465.700168 
z
" clip-path="url(#pf6a444f3ef)" style="fill: #1f77b4"/>
   </g>
   <g id="patch_120">
    <path d="M 153.763348 465.838125 
L 154.233154 465.838125 
L 154.233154 465.685897 
L 153.763348 465.685897 
z
" clip-path="url(#pf6a444f3ef)" style="fill: #1f77b4"/>
   </g>
   <g id="patch_121">
    <path d="M 154.350605 465.838125 
L 154.820411 465.838125 
L 154.820411 465.700168 
L 154.350605 465.700168 
z
" clip-path="url(#pf6a444f3ef)" style="fill: #1f77b4"/>
   </g>
   <g id="patch_122">
    <path d="M 154.937862 465.838125 
L 155.407668 465.838125 
L 155.407668 465.666868 
L 154.937862 465.666868 
z
" clip-path="url(#pf6a444f3ef)" style="fill: #1f77b4"/>
   </g>
   <g id="patch_123">
    <path d="M 155.52512 465.838125 
L 155.994925 465.838125 
L 155.994925 465.695411 
L 155.52512 465.695411 
z
" clip-path="url(#pf6a444f3ef)" style="fill: #1f77b4"/>
   </g>
   <g id="patch_124">
    <path d="M 156.112377 465.838125 
L 156.582182 465.838125 
L 156.582182 465.723954 
L 156.112377 465.723954 
z
" clip-path="url(#pf6a444f3ef)" style="fill: #1f77b4"/>
   </g>
   <g id="patch_125">
    <path d="M 156.699634 465.838125 
L 157.16944 465.838125 
L 157.16944 465.700168 
L 156.699634 465.700168 
z
" clip-path="url(#pf6a444f3ef)" style="fill: #1f77b4"/>
   </g>
   <g id="patch_126">
    <path d="M 157.286891 465.838125 
L 157.756697 465.838125 
L 157.756697 465.719197 
L 157.286891 465.719197 
z
" clip-path="url(#pf6a444f3ef)" style="fill: #1f77b4"/>
   </g>
   <g id="patch_127">
    <path d="M 157.874148 465.838125 
L 158.343954 465.838125 
L 158.343954 465.662111 
L 157.874148 465.662111 
z
" clip-path="url(#pf6a444f3ef)" style="fill: #1f77b4"/>
   </g>
   <g id="patch_128">
    <path d="M 158.461405 465.838125 
L 158.931211 465.838125 
L 158.931211 465.709682 
L 158.461405 465.709682 
z
" clip-path="url(#pf6a444f3ef)" style="fill: #1f77b4"/>
   </g>
   <g id="patch_129">
    <path d="M 159.048662 465.838125 
L 159.518468 465.838125 
L 159.518468 465.723954 
L 159.048662 465.723954 
z
" clip-path="url(#pf6a444f3ef)" style="fill: #1f77b4"/>
   </g>
   <g id="patch_130">
    <path d="M 159.63592 465.838125 
L 160.105725 465.838125 
L 160.105725 465.728711 
L 159.63592 465.728711 
z
" clip-path="url(#pf6a444f3ef)" style="fill: #1f77b4"/>
   </g>
   <g id="patch_131">
    <path d="M 160.223177 465.838125 
L 160.692982 465.838125 
L 160.692982 465.762011 
L 160.223177 465.762011 
z
" clip-path="url(#pf6a444f3ef)" style="fill: #1f77b4"/>
   </g>
   <g id="patch_132">
    <path d="M 160.810434 465.838125 
L 161.28024 465.838125 
L 161.28024 465.728711 
L 160.810434 465.728711 
z
" clip-path="url(#pf6a444f3ef)" style="fill: #1f77b4"/>
   </g>
   <g id="patch_133">
    <path d="M 161.397691 465.838125 
L 161.867497 465.838125 
L 161.867497 465.747739 
L 161.397691 465.747739 
z
" clip-path="url(#pf6a444f3ef)" style="fill: #1f77b4"/>
   </g>
   <g id="patch_134">
    <path d="M 161.984948 465.838125 
L 162.454754 465.838125 
L 162.454754 465.742982 
L 161.984948 465.742982 
z
" clip-path="url(#pf6a444f3ef)" style="fill: #1f77b4"/>
   </g>
   <g id="patch_135">
    <path d="M 162.572205 465.838125 
L 163.042011 465.838125 
L 163.042011 465.766768 
L 162.572205 465.766768 
z
" clip-path="url(#pf6a444f3ef)" style="fill: #1f77b4"/>
   </g>
   <g id="patch_136">
    <path d="M 163.159462 465.838125 
L 163.629268 465.838125 
L 163.629268 465.752497 
L 163.159462 465.752497 
z
" clip-path="url(#pf6a444f3ef)" style="fill: #1f77b4"/>
   </g>
   <g id="patch_137">
    <path d="M 163.74672 465.838125 
L 164.216525 465.838125 
L 164.216525 465.723954 
L 163.74672 465.723954 
z
" clip-path="url(#pf6a444f3ef)" style="fill: #1f77b4"/>
   </g>
   <g id="patch_138">
    <path d="M 164.333977 465.838125 
L 164.803783 465.838125 
L 164.803783 465.728711 
L 164.333977 465.728711 
z
" clip-path="url(#pf6a444f3ef)" style="fill: #1f77b4"/>
   </g>
   <g id="patch_139">
    <path d="M 164.921234 465.838125 
L 165.39104 465.838125 
L 165.39104 465.723954 
L 164.921234 465.723954 
z
" clip-path="url(#pf6a444f3ef)" style="fill: #1f77b4"/>
   </g>
   <g id="patch_140">
    <path d="M 165.508491 465.838125 
L 165.978297 465.838125 
L 165.978297 465.742982 
L 165.508491 465.742982 
z
" clip-path="url(#pf6a444f3ef)" style="fill: #1f77b4"/>
   </g>
   <g id="patch_141">
    <path d="M 166.095748 465.838125 
L 166.565554 465.838125 
L 166.565554 465.733468 
L 166.095748 465.733468 
z
" clip-path="url(#pf6a444f3ef)" style="fill: #1f77b4"/>
   </g>
   <g id="patch_142">
    <path d="M 166.683005 465.838125 
L 167.152811 465.838125 
L 167.152811 465.747739 
L 166.683005 465.747739 
z
" clip-path="url(#pf6a444f3ef)" style="fill: #1f77b4"/>
   </g>
   <g id="patch_143">
    <path d="M 167.270263 465.838125 
L 167.740068 465.838125 
L 167.740068 465.771525 
L 167.270263 465.771525 
z
" clip-path="url(#pf6a444f3ef)" style="fill: #1f77b4"/>
   </g>
   <g id="patch_144">
    <path d="M 167.85752 465.838125 
L 168.327325 465.838125 
L 168.327325 465.757254 
L 167.85752 465.757254 
z
" clip-path="url(#pf6a444f3ef)" style="fill: #1f77b4"/>
   </g>
   <g id="patch_145">
    <path d="M 168.444777 465.838125 
L 168.914583 465.838125 
L 168.914583 465.766768 
L 168.444777 465.766768 
z
" clip-path="url(#pf6a444f3ef)" style="fill: #1f77b4"/>
   </g>
   <g id="patch_146">
    <path d="M 169.032034 465.838125 
L 169.50184 465.838125 
L 169.50184 465.771525 
L 169.032034 465.771525 
z
" clip-path="url(#pf6a444f3ef)" style="fill: #1f77b4"/>
   </g>
   <g id="patch_147">
    <path d="M 169.619291 465.838125 
L 170.089097 465.838125 
L 170.089097 465.762011 
L 169.619291 465.762011 
z
" clip-path="url(#pf6a444f3ef)" style="fill: #1f77b4"/>
   </g>
   <g id="patch_148">
    <path d="M 170.206548 465.838125 
L 170.676354 465.838125 
L 170.676354 465.742982 
L 170.206548 465.742982 
z
" clip-path="url(#pf6a444f3ef)" style="fill: #1f77b4"/>
   </g>
   <g id="patch_149">
    <path d="M 170.793805 465.838125 
L 171.263611 465.838125 
L 171.263611 465.733468 
L 170.793805 465.733468 
z
" clip-path="url(#pf6a444f3ef)" style="fill: #1f77b4"/>
   </g>
   <g id="patch_150">
    <path d="M 171.381063 465.838125 
L 171.850868 465.838125 
L 171.850868 465.747739 
L 171.381063 465.747739 
z
" clip-path="url(#pf6a444f3ef)" style="fill: #1f77b4"/>
   </g>
   <g id="patch_151">
    <path d="M 171.96832 465.838125 
L 172.438125 465.838125 
L 172.438125 465.781039 
L 171.96832 465.781039 
z
" clip-path="url(#pf6a444f3ef)" style="fill: #1f77b4"/>
   </g>
   <g id="patch_152">
    <path d="M 172.555577 465.838125 
L 173.025383 465.838125 
L 173.025383 465.762011 
L 172.555577 465.762011 
z
" clip-path="url(#pf6a444f3ef)" style="fill: #1f77b4"/>
   </g>
   <g id="patch_153">
    <path d="M 173.142834 465.838125 
L 173.61264 465.838125 
L 173.61264 465.738225 
L 173.142834 465.738225 
z
" clip-path="url(#pf6a444f3ef)" style="fill: #1f77b4"/>
   </g>
   <g id="patch_154">
    <path d="M 173.730091 465.838125 
L 174.199897 465.838125 
L 174.199897 465.776282 
L 173.730091 465.776282 
z
" clip-path="url(#pf6a444f3ef)" style="fill: #1f77b4"/>
   </g>
   <g id="patch_155">
    <path d="M 174.317348 465.838125 
L 174.787154 465.838125 
L 174.787154 465.776282 
L 174.317348 465.776282 
z
" clip-path="url(#pf6a444f3ef)" style="fill: #1f77b4"/>
   </g>
   <g id="patch_156">
    <path d="M 174.904606 465.838125 
L 175.374411 465.838125 
L 175.374411 465.762011 
L 174.904606 465.762011 
z
" clip-path="url(#pf6a444f3ef)" style="fill: #1f77b4"/>
   </g>
   <g id="patch_157">
    <path d="M 175.491863 465.838125 
L 175.961668 465.838125 
L 175.961668 465.800068 
L 175.491863 465.800068 
z
" clip-path="url(#pf6a444f3ef)" style="fill: #1f77b4"/>
   </g>
   <g id="patch_158">
    <path d="M 176.07912 465.838125 
L 176.548926 465.838125 
L 176.548926 465.762011 
L 176.07912 465.762011 
z
" clip-path="url(#pf6a444f3ef)" style="fill: #1f77b4"/>
   </g>
   <g id="patch_159">
    <path d="M 176.666377 465.838125 
L 177.136183 465.838125 
L 177.136183 465.785797 
L 176.666377 465.785797 
z
" clip-path="url(#pf6a444f3ef)" style="fill: #1f77b4"/>
   </g>
   <g id="patch_160">
    <path d="M 177.253634 465.838125 
L 177.72344 465.838125 
L 177.72344 465.809582 
L 177.253634 465.809582 
z
" clip-path="url(#pf6a444f3ef)" style="fill: #1f77b4"/>
   </g>
   <g id="patch_161">
    <path d="M 177.840891 465.838125 
L 178.310697 465.838125 
L 178.310697 465.785797 
L 177.840891 465.785797 
z
" clip-path="url(#pf6a444f3ef)" style="fill: #1f77b4"/>
   </g>
   <g id="patch_162">
    <path d="M 178.428148 465.838125 
L 178.897954 465.838125 
L 178.897954 465.785797 
L 178.428148 465.785797 
z
" clip-path="url(#pf6a444f3ef)" style="fill: #1f77b4"/>
   </g>
   <g id="patch_163">
    <path d="M 179.015406 465.838125 
L 179.485211 465.838125 
L 179.485211 465.766768 
L 179.015406 465.766768 
z
" clip-path="url(#pf6a444f3ef)" style="fill: #1f77b4"/>
   </g>
   <g id="patch_164">
    <path d="M 179.602663 465.838125 
L 180.072468 465.838125 
L 180.072468 465.804825 
L 179.602663 465.804825 
z
" clip-path="url(#pf6a444f3ef)" style="fill: #1f77b4"/>
   </g>
   <g id="patch_165">
    <path d="M 180.18992 465.838125 
L 180.659726 465.838125 
L 180.659726 465.785797 
L 180.18992 465.785797 
z
" clip-path="url(#pf6a444f3ef)" style="fill: #1f77b4"/>
   </g>
   <g id="patch_166">
    <path d="M 180.777177 465.838125 
L 181.246983 465.838125 
L 181.246983 465.785797 
L 180.777177 465.785797 
z
" clip-path="url(#pf6a444f3ef)" style="fill: #1f77b4"/>
   </g>
   <g id="patch_167">
    <path d="M 181.364434 465.838125 
L 181.83424 465.838125 
L 181.83424 465.781039 
L 181.364434 465.781039 
z
" clip-path="url(#pf6a444f3ef)" style="fill: #1f77b4"/>
   </g>
   <g id="patch_168">
    <path d="M 181.951691 465.838125 
L 182.421497 465.838125 
L 182.421497 465.785797 
L 181.951691 465.785797 
z
" clip-path="url(#pf6a444f3ef)" style="fill: #1f77b4"/>
   </g>
   <g id="patch_169">
    <path d="M 182.538948 465.838125 
L 183.008754 465.838125 
L 183.008754 465.800068 
L 182.538948 465.800068 
z
" clip-path="url(#pf6a444f3ef)" style="fill: #1f77b4"/>
   </g>
   <g id="patch_170">
    <path d="M 183.126206 465.838125 
L 183.596011 465.838125 
L 183.596011 465.819096 
L 183.126206 465.819096 
z
" clip-path="url(#pf6a444f3ef)" style="fill: #1f77b4"/>
   </g>
   <g id="patch_171">
    <path d="M 183.713463 465.838125 
L 184.183268 465.838125 
L 184.183268 465.814339 
L 183.713463 465.814339 
z
" clip-path="url(#pf6a444f3ef)" style="fill: #1f77b4"/>
   </g>
   <g id="patch_172">
    <path d="M 184.30072 465.838125 
L 184.770526 465.838125 
L 184.770526 465.804825 
L 184.30072 465.804825 
z
" clip-path="url(#pf6a444f3ef)" style="fill: #1f77b4"/>
   </g>
   <g id="patch_173">
    <path d="M 184.887977 465.838125 
L 185.357783 465.838125 
L 185.357783 465.800068 
L 184.887977 465.800068 
z
" clip-path="url(#pf6a444f3ef)" style="fill: #1f77b4"/>
   </g>
   <g id="patch_174">
    <path d="M 185.475234 465.838125 
L 185.94504 465.838125 
L 185.94504 465.823854 
L 185.475234 465.823854 
z
" clip-path="url(#pf6a444f3ef)" style="fill: #1f77b4"/>
   </g>
   <g id="patch_175">
    <path d="M 186.062491 465.838125 
L 186.532297 465.838125 
L 186.532297 465.809582 
L 186.062491 465.809582 
z
" clip-path="url(#pf6a444f3ef)" style="fill: #1f77b4"/>
   </g>
   <g id="patch_176">
    <path d="M 186.649749 465.838125 
L 187.119554 465.838125 
L 187.119554 465.785797 
L 186.649749 465.785797 
z
" clip-path="url(#pf6a444f3ef)" style="fill: #1f77b4"/>
   </g>
   <g id="patch_177">
    <path d="M 187.237006 465.838125 
L 187.706811 465.838125 
L 187.706811 465.795311 
L 187.237006 465.795311 
z
" clip-path="url(#pf6a444f3ef)" style="fill: #1f77b4"/>
   </g>
   <g id="patch_178">
    <path d="M 187.824263 465.838125 
L 188.294069 465.838125 
L 188.294069 465.819096 
L 187.824263 465.819096 
z
" clip-path="url(#pf6a444f3ef)" style="fill: #1f77b4"/>
   </g>
   <g id="patch_179">
    <path d="M 188.41152 465.838125 
L 188.881326 465.838125 
L 188.881326 465.776282 
L 188.41152 465.776282 
z
" clip-path="url(#pf6a444f3ef)" style="fill: #1f77b4"/>
   </g>
   <g id="patch_180">
    <path d="M 188.998777 465.838125 
L 189.468583 465.838125 
L 189.468583 465.809582 
L 188.998777 465.809582 
z
" clip-path="url(#pf6a444f3ef)" style="fill: #1f77b4"/>
   </g>
   <g id="patch_181">
    <path d="M 189.586034 465.838125 
L 190.05584 465.838125 
L 190.05584 465.800068 
L 189.586034 465.800068 
z
" clip-path="url(#pf6a444f3ef)" style="fill: #1f77b4"/>
   </g>
   <g id="patch_182">
    <path d="M 190.173291 465.838125 
L 190.643097 465.838125 
L 190.643097 465.823854 
L 190.173291 465.823854 
z
" clip-path="url(#pf6a444f3ef)" style="fill: #1f77b4"/>
   </g>
   <g id="patch_183">
    <path d="M 190.760549 465.838125 
L 191.230354 465.838125 
L 191.230354 465.819096 
L 190.760549 465.819096 
z
" clip-path="url(#pf6a444f3ef)" style="fill: #1f77b4"/>
   </g>
   <g id="patch_184">
    <path d="M 191.347806 465.838125 
L 191.817611 465.838125 
L 191.817611 465.809582 
L 191.347806 465.809582 
z
" clip-path="url(#pf6a444f3ef)" style="fill: #1f77b4"/>
   </g>
   <g id="patch_185">
    <path d="M 191.935063 465.838125 
L 192.404869 465.838125 
L 192.404869 465.823854 
L 191.935063 465.823854 
z
" clip-path="url(#pf6a444f3ef)" style="fill: #1f77b4"/>
   </g>
   <g id="patch_186">
    <path d="M 192.52232 465.838125 
L 192.992126 465.838125 
L 192.992126 465.833368 
L 192.52232 465.833368 
z
" clip-path="url(#pf6a444f3ef)" style="fill: #1f77b4"/>
   </g>
   <g id="patch_187">
    <path d="M 193.109577 465.838125 
L 193.579383 465.838125 
L 193.579383 465.814339 
L 193.109577 465.814339 
z
" clip-path="url(#pf6a444f3ef)" style="fill: #1f77b4"/>
   </g>
   <g id="patch_188">
    <path d="M 193.696834 465.838125 
L 194.16664 465.838125 
L 194.16664 465.828611 
L 193.696834 465.828611 
z
" clip-path="url(#pf6a444f3ef)" style="fill: #1f77b4"/>
   </g>
   <g id="patch_189">
    <path d="M 194.284092 465.838125 
L 194.753897 465.838125 
L 194.753897 465.823854 
L 194.284092 465.823854 
z
" clip-path="url(#pf6a444f3ef)" style="fill: #1f77b4"/>
   </g>
   <g id="patch_190">
    <path d="M 194.871349 465.838125 
L 195.341154 465.838125 
L 195.341154 465.809582 
L 194.871349 465.809582 
z
" clip-path="url(#pf6a444f3ef)" style="fill: #1f77b4"/>
   </g>
   <g id="patch_191">
    <path d="M 195.458606 465.838125 
L 195.928412 465.838125 
L 195.928412 465.833368 
L 195.458606 465.833368 
z
" clip-path="url(#pf6a444f3ef)" style="fill: #1f77b4"/>
   </g>
   <g id="patch_192">
    <path d="M 196.045863 465.838125 
L 196.515669 465.838125 
L 196.515669 465.828611 
L 196.045863 465.828611 
z
" clip-path="url(#pf6a444f3ef)" style="fill: #1f77b4"/>
   </g>
   <g id="patch_193">
    <path d="M 196.63312 465.838125 
L 197.102926 465.838125 
L 197.102926 465.828611 
L 196.63312 465.828611 
z
" clip-path="url(#pf6a444f3ef)" style="fill: #1f77b4"/>
   </g>
   <g id="patch_194">
    <path d="M 197.220377 465.838125 
L 197.690183 465.838125 
L 197.690183 465.800068 
L 197.220377 465.800068 
z
" clip-path="url(#pf6a444f3ef)" style="fill: #1f77b4"/>
   </g>
   <g id="patch_195">
    <path d="M 197.807634 465.838125 
L 198.27744 465.838125 
L 198.27744 465.823854 
L 197.807634 465.823854 
z
" clip-path="url(#pf6a444f3ef)" style="fill: #1f77b4"/>
   </g>
   <g id="patch_196">
    <path d="M 198.982149 465.838125 
L 199.451954 465.838125 
L 199.451954 465.823854 
L 198.982149 465.823854 
z
" clip-path="url(#pf6a444f3ef)" style="fill: #1f77b4"/>
   </g>
   <g id="patch_197">
    <path d="M 199.569406 465.838125 
L 200.039212 465.838125 
L 200.039212 465.819096 
L 199.569406 465.819096 
z
" clip-path="url(#pf6a444f3ef)" style="fill: #1f77b4"/>
   </g>
   <g id="patch_198">
    <path d="M 200.156663 465.838125 
L 200.626469 465.838125 
L 200.626469 465.809582 
L 200.156663 465.809582 
z
" clip-path="url(#pf6a444f3ef)" style="fill: #1f77b4"/>
   </g>
   <g id="patch_199">
    <path d="M 200.74392 465.838125 
L 201.213726 465.838125 
L 201.213726 465.819096 
L 200.74392 465.819096 
z
" clip-path="url(#pf6a444f3ef)" style="fill: #1f77b4"/>
   </g>
   <g id="patch_200">
    <path d="M 201.918434 465.838125 
L 202.38824 465.838125 
L 202.38824 465.809582 
L 201.918434 465.809582 
z
" clip-path="url(#pf6a444f3ef)" style="fill: #1f77b4"/>
   </g>
   <g id="patch_201">
    <path d="M 202.505692 465.838125 
L 202.975497 465.838125 
L 202.975497 465.833368 
L 202.505692 465.833368 
z
" clip-path="url(#pf6a444f3ef)" style="fill: #1f77b4"/>
   </g>
   <g id="patch_202">
    <path d="M 203.092949 465.838125 
L 203.562754 465.838125 
L 203.562754 465.833368 
L 203.092949 465.833368 
z
" clip-path="url(#pf6a444f3ef)" style="fill: #1f77b4"/>
   </g>
   <g id="patch_203">
    <path d="M 203.680206 465.838125 
L 204.150012 465.838125 
L 204.150012 465.828611 
L 203.680206 465.828611 
z
" clip-path="url(#pf6a444f3ef)" style="fill: #1f77b4"/>
   </g>
   <g id="patch_204">
    <path d="M 204.267463 465.838125 
L 204.737269 465.838125 
L 204.737269 465.823854 
L 204.267463 465.823854 
z
" clip-path="url(#pf6a444f3ef)" style="fill: #1f77b4"/>
   </g>
   <g id="patch_205">
    <path d="M 204.85472 465.838125 
L 205.324526 465.838125 
L 205.324526 465.823854 
L 204.85472 465.823854 
z
" clip-path="url(#pf6a444f3ef)" style="fill: #1f77b4"/>
   </g>
   <g id="patch_206">
    <path d="M 205.441977 465.838125 
L 205.911783 465.838125 
L 205.911783 465.823854 
L 205.441977 465.823854 
z
" clip-path="url(#pf6a444f3ef)" style="fill: #1f77b4"/>
   </g>
   <g id="patch_207">
    <path d="M 206.029235 465.838125 
L 206.49904 465.838125 
L 206.49904 465.823854 
L 206.029235 465.823854 
z
" clip-path="url(#pf6a444f3ef)" style="fill: #1f77b4"/>
   </g>
   <g id="patch_208">
    <path d="M 206.616492 465.838125 
L 207.086297 465.838125 
L 207.086297 465.819096 
L 206.616492 465.819096 
z
" clip-path="url(#pf6a444f3ef)" style="fill: #1f77b4"/>
   </g>
   <g id="patch_209">
    <path d="M 207.203749 465.838125 
L 207.673555 465.838125 
L 207.673555 465.828611 
L 207.203749 465.828611 
z
" clip-path="url(#pf6a444f3ef)" style="fill: #1f77b4"/>
   </g>
   <g id="patch_210">
    <path d="M 208.378263 465.838125 
L 208.848069 465.838125 
L 208.848069 465.823854 
L 208.378263 465.823854 
z
" clip-path="url(#pf6a444f3ef)" style="fill: #1f77b4"/>
   </g>
   <g id="patch_211">
    <path d="M 208.96552 465.838125 
L 209.435326 465.838125 
L 209.435326 465.809582 
L 208.96552 465.809582 
z
" clip-path="url(#pf6a444f3ef)" style="fill: #1f77b4"/>
   </g>
   <g id="patch_212">
    <path d="M 209.552777 465.838125 
L 210.022583 465.838125 
L 210.022583 465.809582 
L 209.552777 465.809582 
z
" clip-path="url(#pf6a444f3ef)" style="fill: #1f77b4"/>
   </g>
   <g id="patch_213">
    <path d="M 210.727292 465.838125 
L 211.197097 465.838125 
L 211.197097 465.823854 
L 210.727292 465.823854 
z
" clip-path="url(#pf6a444f3ef)" style="fill: #1f77b4"/>
   </g>
   <g id="patch_214">
    <path d="M 211.314549 465.838125 
L 211.784355 465.838125 
L 211.784355 465.828611 
L 211.314549 465.828611 
z
" clip-path="url(#pf6a444f3ef)" style="fill: #1f77b4"/>
   </g>
   <g id="patch_215">
    <path d="M 211.901806 465.838125 
L 212.371612 465.838125 
L 212.371612 465.800068 
L 211.901806 465.800068 
z
" clip-path="url(#pf6a444f3ef)" style="fill: #1f77b4"/>
   </g>
   <g id="patch_216">
    <path d="M 212.489063 465.838125 
L 212.958869 465.838125 
L 212.958869 465.833368 
L 212.489063 465.833368 
z
" clip-path="url(#pf6a444f3ef)" style="fill: #1f77b4"/>
   </g>
   <g id="patch_217">
    <path d="M 213.07632 465.838125 
L 213.546126 465.838125 
L 213.546126 465.828611 
L 213.07632 465.828611 
z
" clip-path="url(#pf6a444f3ef)" style="fill: #1f77b4"/>
   </g>
   <g id="patch_218">
    <path d="M 214.838092 465.838125 
L 215.307898 465.838125 
L 215.307898 465.833368 
L 214.838092 465.833368 
z
" clip-path="url(#pf6a444f3ef)" style="fill: #1f77b4"/>
   </g>
   <g id="patch_219">
    <path d="M 215.425349 465.838125 
L 215.895155 465.838125 
L 215.895155 465.828611 
L 215.425349 465.828611 
z
" clip-path="url(#pf6a444f3ef)" style="fill: #1f77b4"/>
   </g>
   <g id="patch_220">
    <path d="M 216.012606 465.838125 
L 216.482412 465.838125 
L 216.482412 465.833368 
L 216.012606 465.833368 
z
" clip-path="url(#pf6a444f3ef)" style="fill: #1f77b4"/>
   </g>
   <g id="patch_221">
    <path d="M 216.599863 465.838125 
L 217.069669 465.838125 
L 217.069669 465.833368 
L 216.599863 465.833368 
z
" clip-path="url(#pf6a444f3ef)" style="fill: #1f77b4"/>
   </g>
   <g id="patch_222">
    <path d="M 217.18712 465.838125 
L 217.656926 465.838125 
L 217.656926 465.828611 
L 217.18712 465.828611 
z
" clip-path="url(#pf6a444f3ef)" style="fill: #1f77b4"/>
   </g>
   <g id="patch_223">
    <path d="M 217.774378 465.838125 
L 218.244183 465.838125 
L 218.244183 465.828611 
L 217.774378 465.828611 
z
" clip-path="url(#pf6a444f3ef)" style="fill: #1f77b4"/>
   </g>
   <g id="patch_224">
    <path d="M 218.361635 465.838125 
L 218.83144 465.838125 
L 218.83144 465.814339 
L 218.361635 465.814339 
z
" clip-path="url(#pf6a444f3ef)" style="fill: #1f77b4"/>
   </g>
   <g id="patch_225">
    <path d="M 219.536149 465.838125 
L 220.005955 465.838125 
L 220.005955 465.828611 
L 219.536149 465.828611 
z
" clip-path="url(#pf6a444f3ef)" style="fill: #1f77b4"/>
   </g>
   <g id="patch_226">
    <path d="M 222.472435 465.838125 
L 222.94224 465.838125 
L 222.94224 465.828611 
L 222.472435 465.828611 
z
" clip-path="url(#pf6a444f3ef)" style="fill: #1f77b4"/>
   </g>
   <g id="patch_227">
    <path d="M 223.059692 465.838125 
L 223.529498 465.838125 
L 223.529498 465.819096 
L 223.059692 465.819096 
z
" clip-path="url(#pf6a444f3ef)" style="fill: #1f77b4"/>
   </g>
   <g id="patch_228">
    <path d="M 223.646949 465.838125 
L 224.116755 465.838125 
L 224.116755 465.828611 
L 223.646949 465.828611 
z
" clip-path="url(#pf6a444f3ef)" style="fill: #1f77b4"/>
   </g>
   <g id="patch_229">
    <path d="M 224.234206 465.838125 
L 224.704012 465.838125 
L 224.704012 465.819096 
L 224.234206 465.819096 
z
" clip-path="url(#pf6a444f3ef)" style="fill: #1f77b4"/>
   </g>
   <g id="patch_230">
    <path d="M 225.995978 465.838125 
L 226.465783 465.838125 
L 226.465783 465.828611 
L 225.995978 465.828611 
z
" clip-path="url(#pf6a444f3ef)" style="fill: #1f77b4"/>
   </g>
   <g id="patch_231">
    <path d="M 226.583235 465.838125 
L 227.053041 465.838125 
L 227.053041 465.833368 
L 226.583235 465.833368 
z
" clip-path="url(#pf6a444f3ef)" style="fill: #1f77b4"/>
   </g>
   <g id="patch_232">
    <path d="M 227.170492 465.838125 
L 227.640298 465.838125 
L 227.640298 465.833368 
L 227.170492 465.833368 
z
" clip-path="url(#pf6a444f3ef)" style="fill: #1f77b4"/>
   </g>
   <g id="patch_233">
    <path d="M 227.757749 465.838125 
L 228.227555 465.838125 
L 228.227555 465.828611 
L 227.757749 465.828611 
z
" clip-path="url(#pf6a444f3ef)" style="fill: #1f77b4"/>
   </g>
   <g id="patch_234">
    <path d="M 228.932263 465.838125 
L 229.402069 465.838125 
L 229.402069 465.814339 
L 228.932263 465.814339 
z
" clip-path="url(#pf6a444f3ef)" style="fill: #1f77b4"/>
   </g>
   <g id="patch_235">
    <path d="M 229.519521 465.838125 
L 229.989326 465.838125 
L 229.989326 465.823854 
L 229.519521 465.823854 
z
" clip-path="url(#pf6a444f3ef)" style="fill: #1f77b4"/>
   </g>
   <g id="patch_236">
    <path d="M 230.106778 465.838125 
L 230.576583 465.838125 
L 230.576583 465.833368 
L 230.106778 465.833368 
z
" clip-path="url(#pf6a444f3ef)" style="fill: #1f77b4"/>
   </g>
   <g id="patch_237">
    <path d="M 230.694035 465.838125 
L 231.163841 465.838125 
L 231.163841 465.828611 
L 230.694035 465.828611 
z
" clip-path="url(#pf6a444f3ef)" style="fill: #1f77b4"/>
   </g>
   <g id="patch_238">
    <path d="M 232.455806 465.838125 
L 232.925612 465.838125 
L 232.925612 465.833368 
L 232.455806 465.833368 
z
" clip-path="url(#pf6a444f3ef)" style="fill: #1f77b4"/>
   </g>
   <g id="patch_239">
    <path d="M 233.630321 465.838125 
L 234.100126 465.838125 
L 234.100126 465.828611 
L 233.630321 465.828611 
z
" clip-path="url(#pf6a444f3ef)" style="fill: #1f77b4"/>
   </g>
   <g id="patch_240">
    <path d="M 234.217578 465.838125 
L 234.687384 465.838125 
L 234.687384 465.833368 
L 234.217578 465.833368 
z
" clip-path="url(#pf6a444f3ef)" style="fill: #1f77b4"/>
   </g>
   <g id="patch_241">
    <path d="M 235.392092 465.838125 
L 235.861898 465.838125 
L 235.861898 465.833368 
L 235.392092 465.833368 
z
" clip-path="url(#pf6a444f3ef)" style="fill: #1f77b4"/>
   </g>
   <g id="patch_242">
    <path d="M 236.566606 465.838125 
L 237.036412 465.838125 
L 237.036412 465.833368 
L 236.566606 465.833368 
z
" clip-path="url(#pf6a444f3ef)" style="fill: #1f77b4"/>
   </g>
   <g id="patch_243">
    <path d="M 237.741121 465.838125 
L 238.210926 465.838125 
L 238.210926 465.828611 
L 237.741121 465.828611 
z
" clip-path="url(#pf6a444f3ef)" style="fill: #1f77b4"/>
   </g>
   <g id="patch_244">
    <path d="M 238.915635 465.838125 
L 239.385441 465.838125 
L 239.385441 465.833368 
L 238.915635 465.833368 
z
" clip-path="url(#pf6a444f3ef)" style="fill: #1f77b4"/>
   </g>
   <g id="patch_245">
    <path d="M 240.677406 465.838125 
L 241.147212 465.838125 
L 241.147212 465.828611 
L 240.677406 465.828611 
z
" clip-path="url(#pf6a444f3ef)" style="fill: #1f77b4"/>
   </g>
   <g id="patch_246">
    <path d="M 241.851921 465.838125 
L 242.321726 465.838125 
L 242.321726 465.833368 
L 241.851921 465.833368 
z
" clip-path="url(#pf6a444f3ef)" style="fill: #1f77b4"/>
   </g>
   <g id="patch_247">
    <path d="M 243.026435 465.838125 
L 243.496241 465.838125 
L 243.496241 465.833368 
L 243.026435 465.833368 
z
" clip-path="url(#pf6a444f3ef)" style="fill: #1f77b4"/>
   </g>
   <g id="patch_248">
    <path d="M 244.200949 465.838125 
L 244.670755 465.838125 
L 244.670755 465.833368 
L 244.200949 465.833368 
z
" clip-path="url(#pf6a444f3ef)" style="fill: #1f77b4"/>
   </g>
   <g id="patch_249">
    <path d="M 244.788207 465.838125 
L 245.258012 465.838125 
L 245.258012 465.833368 
L 244.788207 465.833368 
z
" clip-path="url(#pf6a444f3ef)" style="fill: #1f77b4"/>
   </g>
   <g id="patch_250">
    <path d="M 245.962721 465.838125 
L 246.432527 465.838125 
L 246.432527 465.833368 
L 245.962721 465.833368 
z
" clip-path="url(#pf6a444f3ef)" style="fill: #1f77b4"/>
   </g>
   <g id="patch_251">
    <path d="M 247.137235 465.838125 
L 247.607041 465.838125 
L 247.607041 465.823854 
L 247.137235 465.823854 
z
" clip-path="url(#pf6a444f3ef)" style="fill: #1f77b4"/>
   </g>
   <g id="patch_252">
    <path d="M 247.724492 465.838125 
L 248.194298 465.838125 
L 248.194298 465.833368 
L 247.724492 465.833368 
z
" clip-path="url(#pf6a444f3ef)" style="fill: #1f77b4"/>
   </g>
   <g id="patch_253">
    <path d="M 250.073521 465.838125 
L 250.543327 465.838125 
L 250.543327 465.833368 
L 250.073521 465.833368 
z
" clip-path="url(#pf6a444f3ef)" style="fill: #1f77b4"/>
   </g>
   <g id="patch_254">
    <path d="M 251.248035 465.838125 
L 251.717841 465.838125 
L 251.717841 465.828611 
L 251.248035 465.828611 
z
" clip-path="url(#pf6a444f3ef)" style="fill: #1f77b4"/>
   </g>
   <g id="patch_255">
    <path d="M 253.597064 465.838125 
L 254.06687 465.838125 
L 254.06687 465.833368 
L 253.597064 465.833368 
z
" clip-path="url(#pf6a444f3ef)" style="fill: #1f77b4"/>
   </g>
   <g id="patch_256">
    <path d="M 254.184321 465.838125 
L 254.654127 465.838125 
L 254.654127 465.833368 
L 254.184321 465.833368 
z
" clip-path="url(#pf6a444f3ef)" style="fill: #1f77b4"/>
   </g>
   <g id="patch_257">
    <path d="M 255.946092 465.838125 
L 256.415898 465.838125 
L 256.415898 465.833368 
L 255.946092 465.833368 
z
" clip-path="url(#pf6a444f3ef)" style="fill: #1f77b4"/>
   </g>
   <g id="patch_258">
    <path d="M 256.53335 465.838125 
L 257.003155 465.838125 
L 257.003155 465.833368 
L 256.53335 465.833368 
z
" clip-path="url(#pf6a444f3ef)" style="fill: #1f77b4"/>
   </g>
   <g id="patch_259">
    <path d="M 257.120607 465.838125 
L 257.590412 465.838125 
L 257.590412 465.833368 
L 257.120607 465.833368 
z
" clip-path="url(#pf6a444f3ef)" style="fill: #1f77b4"/>
   </g>
   <g id="patch_260">
    <path d="M 258.295121 465.838125 
L 258.764927 465.838125 
L 258.764927 465.828611 
L 258.295121 465.828611 
z
" clip-path="url(#pf6a444f3ef)" style="fill: #1f77b4"/>
   </g>
   <g id="patch_261">
    <path d="M 258.882378 465.838125 
L 259.352184 465.838125 
L 259.352184 465.833368 
L 258.882378 465.833368 
z
" clip-path="url(#pf6a444f3ef)" style="fill: #1f77b4"/>
   </g>
   <g id="patch_262">
    <path d="M 261.231407 465.838125 
L 261.701212 465.838125 
L 261.701212 465.833368 
L 261.231407 465.833368 
z
" clip-path="url(#pf6a444f3ef)" style="fill: #1f77b4"/>
   </g>
   <g id="patch_263">
    <path d="M 262.405921 465.838125 
L 262.875727 465.838125 
L 262.875727 465.828611 
L 262.405921 465.828611 
z
" clip-path="url(#pf6a444f3ef)" style="fill: #1f77b4"/>
   </g>
   <g id="patch_264">
    <path d="M 263.580435 465.838125 
L 264.050241 465.838125 
L 264.050241 465.828611 
L 263.580435 465.828611 
z
" clip-path="url(#pf6a444f3ef)" style="fill: #1f77b4"/>
   </g>
   <g id="patch_265">
    <path d="M 264.75495 465.838125 
L 265.224755 465.838125 
L 265.224755 465.828611 
L 264.75495 465.828611 
z
" clip-path="url(#pf6a444f3ef)" style="fill: #1f77b4"/>
   </g>
   <g id="patch_266">
    <path d="M 267.691235 465.838125 
L 268.161041 465.838125 
L 268.161041 465.833368 
L 267.691235 465.833368 
z
" clip-path="url(#pf6a444f3ef)" style="fill: #1f77b4"/>
   </g>
   <g id="patch_267">
    <path d="M 270.040264 465.838125 
L 270.51007 465.838125 
L 270.51007 465.833368 
L 270.040264 465.833368 
z
" clip-path="url(#pf6a444f3ef)" style="fill: #1f77b4"/>
   </g>
   <g id="patch_268">
    <path d="M 270.627521 465.838125 
L 271.097327 465.838125 
L 271.097327 465.833368 
L 270.627521 465.833368 
z
" clip-path="url(#pf6a444f3ef)" style="fill: #1f77b4"/>
   </g>
   <g id="patch_269">
    <path d="M 272.389293 465.838125 
L 272.859098 465.838125 
L 272.859098 465.833368 
L 272.389293 465.833368 
z
" clip-path="url(#pf6a444f3ef)" style="fill: #1f77b4"/>
   </g>
   <g id="patch_270">
    <path d="M 272.97655 465.838125 
L 273.446355 465.838125 
L 273.446355 465.833368 
L 272.97655 465.833368 
z
" clip-path="url(#pf6a444f3ef)" style="fill: #1f77b4"/>
   </g>
   <g id="patch_271">
    <path d="M 274.151064 465.838125 
L 274.62087 465.838125 
L 274.62087 465.833368 
L 274.151064 465.833368 
z
" clip-path="url(#pf6a444f3ef)" style="fill: #1f77b4"/>
   </g>
   <g id="patch_272">
    <path d="M 281.19815 465.838125 
L 281.667956 465.838125 
L 281.667956 465.833368 
L 281.19815 465.833368 
z
" clip-path="url(#pf6a444f3ef)" style="fill: #1f77b4"/>
   </g>
   <g id="patch_273">
    <path d="M 287.657979 465.838125 
L 288.127784 465.838125 
L 288.127784 465.833368 
L 287.657979 465.833368 
z
" clip-path="url(#pf6a444f3ef)" style="fill: #1f77b4"/>
   </g>
   <g id="patch_274">
    <path d="M 288.832493 465.838125 
L 289.302299 465.838125 
L 289.302299 465.828611 
L 288.832493 465.828611 
z
" clip-path="url(#pf6a444f3ef)" style="fill: #1f77b4"/>
   </g>
   <g id="patch_275">
    <path d="M 292.943293 465.838125 
L 293.413099 465.838125 
L 293.413099 465.833368 
L 292.943293 465.833368 
z
" clip-path="url(#pf6a444f3ef)" style="fill: #1f77b4"/>
   </g>
   <g id="patch_276">
    <path d="M 293.53055 465.838125 
L 294.000356 465.838125 
L 294.000356 465.833368 
L 293.53055 465.833368 
z
" clip-path="url(#pf6a444f3ef)" style="fill: #1f77b4"/>
   </g>
   <g id="patch_277">
    <path d="M 300.577636 465.838125 
L 301.047442 465.838125 
L 301.047442 465.833368 
L 300.577636 465.833368 
z
" clip-path="url(#pf6a444f3ef)" style="fill: #1f77b4"/>
   </g>
   <g id="patch_278">
    <path d="M 323.480665 465.838125 
L 323.950471 465.838125 
L 323.950471 465.833368 
L 323.480665 465.833368 
z
" clip-path="url(#pf6a444f3ef)" style="fill: #1f77b4"/>
   </g>
   <g id="patch_279">
    <path d="M 328.178722 465.838125 
L 328.648528 465.838125 
L 328.648528 465.833368 
L 328.178722 465.833368 
z
" clip-path="url(#pf6a444f3ef)" style="fill: #1f77b4"/>
   </g>
   <g id="patch_280">
    <path d="M 335.813065 465.838125 
L 336.282871 465.838125 
L 336.282871 465.833368 
L 335.813065 465.833368 
z
" clip-path="url(#pf6a444f3ef)" style="fill: #1f77b4"/>
   </g>
   <g id="patch_281">
    <path d="M 348.145465 465.838125 
L 348.615271 465.838125 
L 348.615271 465.833368 
L 348.145465 465.833368 
z
" clip-path="url(#pf6a444f3ef)" style="fill: #1f77b4"/>
   </g>
   <g id="patch_282">
    <path d="M 349.907237 465.838125 
L 350.377042 465.838125 
L 350.377042 465.833368 
L 349.907237 465.833368 
z
" clip-path="url(#pf6a444f3ef)" style="fill: #1f77b4"/>
   </g>
   <g id="patch_283">
    <path d="M 351.669008 465.838125 
L 352.138814 465.838125 
L 352.138814 465.833368 
L 351.669008 465.833368 
z
" clip-path="url(#pf6a444f3ef)" style="fill: #1f77b4"/>
   </g>
   <g id="patch_284">
    <path d="M 358.716094 465.838125 
L 359.1859 465.838125 
L 359.1859 465.833368 
L 358.716094 465.833368 
z
" clip-path="url(#pf6a444f3ef)" style="fill: #1f77b4"/>
   </g>
   <g id="patch_285">
    <path d="M 364.001408 465.838125 
L 364.471214 465.838125 
L 364.471214 465.833368 
L 364.001408 465.833368 
z
" clip-path="url(#pf6a444f3ef)" style="fill: #1f77b4"/>
   </g>
   <g id="patch_286">
    <path d="M 405.109409 465.838125 
L 405.579215 465.838125 
L 405.579215 465.833368 
L 405.109409 465.833368 
z
" clip-path="url(#pf6a444f3ef)" style="fill: #1f77b4"/>
   </g>
   <g id="patch_287">
    <path d="M 427.425181 465.838125 
L 427.894986 465.838125 
L 427.894986 465.833368 
L 427.425181 465.833368 
z
" clip-path="url(#pf6a444f3ef)" style="fill: #1f77b4"/>
   </g>
   <g id="patch_288">
    <path d="M 430.948723 465.838125 
L 431.418529 465.838125 
L 431.418529 465.833368 
L 430.948723 465.833368 
z
" clip-path="url(#pf6a444f3ef)" style="fill: #1f77b4"/>
   </g>
   <g id="patch_289">
    <path d="M 445.042895 465.838125 
L 445.512701 465.838125 
L 445.512701 465.833368 
L 445.042895 465.833368 
z
" clip-path="url(#pf6a444f3ef)" style="fill: #1f77b4"/>
   </g>
   <g id="patch_290">
    <path d="M 449.153695 465.838125 
L 449.623501 465.838125 
L 449.623501 465.833368 
L 449.153695 465.833368 
z
" clip-path="url(#pf6a444f3ef)" style="fill: #1f77b4"/>
   </g>
   <g id="patch_291">
    <path d="M 455.613524 465.838125 
L 456.08333 465.838125 
L 456.08333 465.833368 
L 455.613524 465.833368 
z
" clip-path="url(#pf6a444f3ef)" style="fill: #1f77b4"/>
   </g>
   <g id="patch_292">
    <path d="M 458.54981 465.838125 
L 459.019615 465.838125 
L 459.019615 465.833368 
L 458.54981 465.833368 
z
" clip-path="url(#pf6a444f3ef)" style="fill: #1f77b4"/>
   </g>
   <g id="patch_293">
    <path d="M 459.724324 465.838125 
L 460.19413 465.838125 
L 460.19413 465.833368 
L 459.724324 465.833368 
z
" clip-path="url(#pf6a444f3ef)" style="fill: #1f77b4"/>
   </g>
   <g id="patch_294">
    <path d="M 528.433411 465.838125 
L 528.903216 465.838125 
L 528.903216 465.833368 
L 528.433411 465.833368 
z
" clip-path="url(#pf6a444f3ef)" style="fill: #1f77b4"/>
   </g>
   <g id="patch_295">
    <path d="M 539.004039 465.838125 
L 539.473845 465.838125 
L 539.473845 465.833368 
L 539.004039 465.833368 
z
" clip-path="url(#pf6a444f3ef)" style="fill: #1f77b4"/>
   </g>
   <g id="patch_296">
    <path d="M 567.77964 465.838125 
L 568.249445 465.838125 
L 568.249445 465.833368 
L 567.77964 465.833368 
z
" clip-path="url(#pf6a444f3ef)" style="fill: #1f77b4"/>
   </g>
   <g id="patch_297">
    <path d="M 583.635583 465.838125 
L 584.105389 465.838125 
L 584.105389 465.833368 
L 583.635583 465.833368 
z
" clip-path="url(#pf6a444f3ef)" style="fill: #1f77b4"/>
   </g>
   <g id="patch_298">
    <path d="M 584.810097 465.838125 
L 585.279903 465.838125 
L 585.279903 465.833368 
L 584.810097 465.833368 
z
" clip-path="url(#pf6a444f3ef)" style="fill: #1f77b4"/>
   </g>
   <g id="patch_299">
    <path d="M 588.920897 465.838125 
L 589.390703 465.838125 
L 589.390703 465.833368 
L 588.920897 465.833368 
z
" clip-path="url(#pf6a444f3ef)" style="fill: #1f77b4"/>
   </g>
   <g id="patch_300">
    <path d="M 591.857183 465.838125 
L 592.326989 465.838125 
L 592.326989 465.833368 
L 591.857183 465.833368 
z
" clip-path="url(#pf6a444f3ef)" style="fill: #1f77b4"/>
   </g>
   <g id="matplotlib.axis_1">
    <g id="xtick_1">
     <g id="line2d_1">
      <defs>
       <path id="m9ddffe58bf" d="M 0 0 
L 0 3.5 
" style="stroke: #000000; stroke-width: 0.8"/>
      </defs>
      <g>
       <use xlink:href="#m9ddffe58bf" x="85.289164" y="465.838125" style="stroke: #000000; stroke-width: 0.8"/>
      </g>
     </g>
     <g id="text_1">
      <!-- 250 -->
      <g transform="translate(82.474604 486.492363) rotate(-50) scale(0.07 -0.07)">
       <defs>
        <path id="DejaVuSans-32" d="M 1228 531 
L 3431 531 
L 3431 0 
L 469 0 
L 469 531 
Q 828 903 1448 1529 
Q 2069 2156 2228 2338 
Q 2531 2678 2651 2914 
Q 2772 3150 2772 3378 
Q 2772 3750 2511 3984 
Q 2250 4219 1831 4219 
Q 1534 4219 1204 4116 
Q 875 4013 500 3803 
L 500 4441 
Q 881 4594 1212 4672 
Q 1544 4750 1819 4750 
Q 2544 4750 2975 4387 
Q 3406 4025 3406 3419 
Q 3406 3131 3298 2873 
Q 3191 2616 2906 2266 
Q 2828 2175 2409 1742 
Q 1991 1309 1228 531 
z
" transform="scale(0.015625)"/>
        <path id="DejaVuSans-35" d="M 691 4666 
L 3169 4666 
L 3169 4134 
L 1269 4134 
L 1269 2991 
Q 1406 3038 1543 3061 
Q 1681 3084 1819 3084 
Q 2600 3084 3056 2656 
Q 3513 2228 3513 1497 
Q 3513 744 3044 326 
Q 2575 -91 1722 -91 
Q 1428 -91 1123 -41 
Q 819 9 494 109 
L 494 744 
Q 775 591 1075 516 
Q 1375 441 1709 441 
Q 2250 441 2565 725 
Q 2881 1009 2881 1497 
Q 2881 1984 2565 2268 
Q 2250 2553 1709 2553 
Q 1456 2553 1204 2497 
Q 953 2441 691 2322 
L 691 4666 
z
" transform="scale(0.015625)"/>
        <path id="DejaVuSans-30" d="M 2034 4250 
Q 1547 4250 1301 3770 
Q 1056 3291 1056 2328 
Q 1056 1369 1301 889 
Q 1547 409 2034 409 
Q 2525 409 2770 889 
Q 3016 1369 3016 2328 
Q 3016 3291 2770 3770 
Q 2525 4250 2034 4250 
z
M 2034 4750 
Q 2819 4750 3233 4129 
Q 3647 3509 3647 2328 
Q 3647 1150 3233 529 
Q 2819 -91 2034 -91 
Q 1250 -91 836 529 
Q 422 1150 422 2328 
Q 422 3509 836 4129 
Q 1250 4750 2034 4750 
z
" transform="scale(0.015625)"/>
       </defs>
       <use xlink:href="#DejaVuSans-32"/>
       <use xlink:href="#DejaVuSans-35" x="63.623047"/>
       <use xlink:href="#DejaVuSans-30" x="127.246094"/>
      </g>
     </g>
    </g>
    <g id="xtick_2">
     <g id="line2d_2">
      <g>
       <use xlink:href="#m9ddffe58bf" x="144.014879" y="465.838125" style="stroke: #000000; stroke-width: 0.8"/>
      </g>
     </g>
     <g id="text_2">
      <!-- 350 -->
      <g transform="translate(141.200319 486.492363) rotate(-50) scale(0.07 -0.07)">
       <defs>
        <path id="DejaVuSans-33" d="M 2597 2516 
Q 3050 2419 3304 2112 
Q 3559 1806 3559 1356 
Q 3559 666 3084 287 
Q 2609 -91 1734 -91 
Q 1441 -91 1130 -33 
Q 819 25 488 141 
L 488 750 
Q 750 597 1062 519 
Q 1375 441 1716 441 
Q 2309 441 2620 675 
Q 2931 909 2931 1356 
Q 2931 1769 2642 2001 
Q 2353 2234 1838 2234 
L 1294 2234 
L 1294 2753 
L 1863 2753 
Q 2328 2753 2575 2939 
Q 2822 3125 2822 3475 
Q 2822 3834 2567 4026 
Q 2313 4219 1838 4219 
Q 1578 4219 1281 4162 
Q 984 4106 628 3988 
L 628 4550 
Q 988 4650 1302 4700 
Q 1616 4750 1894 4750 
Q 2613 4750 3031 4423 
Q 3450 4097 3450 3541 
Q 3450 3153 3228 2886 
Q 3006 2619 2597 2516 
z
" transform="scale(0.015625)"/>
       </defs>
       <use xlink:href="#DejaVuSans-33"/>
       <use xlink:href="#DejaVuSans-35" x="63.623047"/>
       <use xlink:href="#DejaVuSans-30" x="127.246094"/>
      </g>
     </g>
    </g>
    <g id="xtick_3">
     <g id="line2d_3">
      <g>
       <use xlink:href="#m9ddffe58bf" x="202.740594" y="465.838125" style="stroke: #000000; stroke-width: 0.8"/>
      </g>
     </g>
     <g id="text_3">
      <!-- 450 -->
      <g transform="translate(199.926034 486.492363) rotate(-50) scale(0.07 -0.07)">
       <defs>
        <path id="DejaVuSans-34" d="M 2419 4116 
L 825 1625 
L 2419 1625 
L 2419 4116 
z
M 2253 4666 
L 3047 4666 
L 3047 1625 
L 3713 1625 
L 3713 1100 
L 3047 1100 
L 3047 0 
L 2419 0 
L 2419 1100 
L 313 1100 
L 313 1709 
L 2253 4666 
z
" transform="scale(0.015625)"/>
       </defs>
       <use xlink:href="#DejaVuSans-34"/>
       <use xlink:href="#DejaVuSans-35" x="63.623047"/>
       <use xlink:href="#DejaVuSans-30" x="127.246094"/>
      </g>
     </g>
    </g>
    <g id="xtick_4">
     <g id="line2d_4">
      <g>
       <use xlink:href="#m9ddffe58bf" x="261.46631" y="465.838125" style="stroke: #000000; stroke-width: 0.8"/>
      </g>
     </g>
     <g id="text_4">
      <!-- 550 -->
      <g transform="translate(258.651749 486.492363) rotate(-50) scale(0.07 -0.07)">
       <use xlink:href="#DejaVuSans-35"/>
       <use xlink:href="#DejaVuSans-35" x="63.623047"/>
       <use xlink:href="#DejaVuSans-30" x="127.246094"/>
      </g>
     </g>
    </g>
    <g id="xtick_5">
     <g id="line2d_5">
      <g>
       <use xlink:href="#m9ddffe58bf" x="320.192025" y="465.838125" style="stroke: #000000; stroke-width: 0.8"/>
      </g>
     </g>
     <g id="text_5">
      <!-- 650 -->
      <g transform="translate(317.377464 486.492363) rotate(-50) scale(0.07 -0.07)">
       <defs>
        <path id="DejaVuSans-36" d="M 2113 2584 
Q 1688 2584 1439 2293 
Q 1191 2003 1191 1497 
Q 1191 994 1439 701 
Q 1688 409 2113 409 
Q 2538 409 2786 701 
Q 3034 994 3034 1497 
Q 3034 2003 2786 2293 
Q 2538 2584 2113 2584 
z
M 3366 4563 
L 3366 3988 
Q 3128 4100 2886 4159 
Q 2644 4219 2406 4219 
Q 1781 4219 1451 3797 
Q 1122 3375 1075 2522 
Q 1259 2794 1537 2939 
Q 1816 3084 2150 3084 
Q 2853 3084 3261 2657 
Q 3669 2231 3669 1497 
Q 3669 778 3244 343 
Q 2819 -91 2113 -91 
Q 1303 -91 875 529 
Q 447 1150 447 2328 
Q 447 3434 972 4092 
Q 1497 4750 2381 4750 
Q 2619 4750 2861 4703 
Q 3103 4656 3366 4563 
z
" transform="scale(0.015625)"/>
       </defs>
       <use xlink:href="#DejaVuSans-36"/>
       <use xlink:href="#DejaVuSans-35" x="63.623047"/>
       <use xlink:href="#DejaVuSans-30" x="127.246094"/>
      </g>
     </g>
    </g>
    <g id="xtick_6">
     <g id="line2d_6">
      <g>
       <use xlink:href="#m9ddffe58bf" x="378.91774" y="465.838125" style="stroke: #000000; stroke-width: 0.8"/>
      </g>
     </g>
     <g id="text_6">
      <!-- 750 -->
      <g transform="translate(376.10318 486.492363) rotate(-50) scale(0.07 -0.07)">
       <defs>
        <path id="DejaVuSans-37" d="M 525 4666 
L 3525 4666 
L 3525 4397 
L 1831 0 
L 1172 0 
L 2766 4134 
L 525 4134 
L 525 4666 
z
" transform="scale(0.015625)"/>
       </defs>
       <use xlink:href="#DejaVuSans-37"/>
       <use xlink:href="#DejaVuSans-35" x="63.623047"/>
       <use xlink:href="#DejaVuSans-30" x="127.246094"/>
      </g>
     </g>
    </g>
    <g id="xtick_7">
     <g id="line2d_7">
      <g>
       <use xlink:href="#m9ddffe58bf" x="437.643455" y="465.838125" style="stroke: #000000; stroke-width: 0.8"/>
      </g>
     </g>
     <g id="text_7">
      <!-- 850 -->
      <g transform="translate(434.828895 486.492363) rotate(-50) scale(0.07 -0.07)">
       <defs>
        <path id="DejaVuSans-38" d="M 2034 2216 
Q 1584 2216 1326 1975 
Q 1069 1734 1069 1313 
Q 1069 891 1326 650 
Q 1584 409 2034 409 
Q 2484 409 2743 651 
Q 3003 894 3003 1313 
Q 3003 1734 2745 1975 
Q 2488 2216 2034 2216 
z
M 1403 2484 
Q 997 2584 770 2862 
Q 544 3141 544 3541 
Q 544 4100 942 4425 
Q 1341 4750 2034 4750 
Q 2731 4750 3128 4425 
Q 3525 4100 3525 3541 
Q 3525 3141 3298 2862 
Q 3072 2584 2669 2484 
Q 3125 2378 3379 2068 
Q 3634 1759 3634 1313 
Q 3634 634 3220 271 
Q 2806 -91 2034 -91 
Q 1263 -91 848 271 
Q 434 634 434 1313 
Q 434 1759 690 2068 
Q 947 2378 1403 2484 
z
M 1172 3481 
Q 1172 3119 1398 2916 
Q 1625 2713 2034 2713 
Q 2441 2713 2670 2916 
Q 2900 3119 2900 3481 
Q 2900 3844 2670 4047 
Q 2441 4250 2034 4250 
Q 1625 4250 1398 4047 
Q 1172 3844 1172 3481 
z
" transform="scale(0.015625)"/>
       </defs>
       <use xlink:href="#DejaVuSans-38"/>
       <use xlink:href="#DejaVuSans-35" x="63.623047"/>
       <use xlink:href="#DejaVuSans-30" x="127.246094"/>
      </g>
     </g>
    </g>
    <g id="xtick_8">
     <g id="line2d_8">
      <g>
       <use xlink:href="#m9ddffe58bf" x="496.36917" y="465.838125" style="stroke: #000000; stroke-width: 0.8"/>
      </g>
     </g>
     <g id="text_8">
      <!-- 950 -->
      <g transform="translate(493.55461 486.492363) rotate(-50) scale(0.07 -0.07)">
       <defs>
        <path id="DejaVuSans-39" d="M 703 97 
L 703 672 
Q 941 559 1184 500 
Q 1428 441 1663 441 
Q 2288 441 2617 861 
Q 2947 1281 2994 2138 
Q 2813 1869 2534 1725 
Q 2256 1581 1919 1581 
Q 1219 1581 811 2004 
Q 403 2428 403 3163 
Q 403 3881 828 4315 
Q 1253 4750 1959 4750 
Q 2769 4750 3195 4129 
Q 3622 3509 3622 2328 
Q 3622 1225 3098 567 
Q 2575 -91 1691 -91 
Q 1453 -91 1209 -44 
Q 966 3 703 97 
z
M 1959 2075 
Q 2384 2075 2632 2365 
Q 2881 2656 2881 3163 
Q 2881 3666 2632 3958 
Q 2384 4250 1959 4250 
Q 1534 4250 1286 3958 
Q 1038 3666 1038 3163 
Q 1038 2656 1286 2365 
Q 1534 2075 1959 2075 
z
" transform="scale(0.015625)"/>
       </defs>
       <use xlink:href="#DejaVuSans-39"/>
       <use xlink:href="#DejaVuSans-35" x="63.623047"/>
       <use xlink:href="#DejaVuSans-30" x="127.246094"/>
      </g>
     </g>
    </g>
    <g id="xtick_9">
     <g id="line2d_9">
      <g>
       <use xlink:href="#m9ddffe58bf" x="555.094885" y="465.838125" style="stroke: #000000; stroke-width: 0.8"/>
      </g>
     </g>
     <g id="text_9">
      <!-- 1050 -->
      <g transform="translate(550.848917 489.904134) rotate(-50) scale(0.07 -0.07)">
       <defs>
        <path id="DejaVuSans-31" d="M 794 531 
L 1825 531 
L 1825 4091 
L 703 3866 
L 703 4441 
L 1819 4666 
L 2450 4666 
L 2450 531 
L 3481 531 
L 3481 0 
L 794 0 
L 794 531 
z
" transform="scale(0.015625)"/>
       </defs>
       <use xlink:href="#DejaVuSans-31"/>
       <use xlink:href="#DejaVuSans-30" x="63.623047"/>
       <use xlink:href="#DejaVuSans-35" x="127.246094"/>
       <use xlink:href="#DejaVuSans-30" x="190.869141"/>
      </g>
     </g>
    </g>
    <g id="text_10">
     <!-- Latency (us) -->
     <g transform="translate(307.6625 502.438329) scale(0.1 -0.1)">
      <defs>
       <path id="DejaVuSans-4c" d="M 628 4666 
L 1259 4666 
L 1259 531 
L 3531 531 
L 3531 0 
L 628 0 
L 628 4666 
z
" transform="scale(0.015625)"/>
       <path id="DejaVuSans-61" d="M 2194 1759 
Q 1497 1759 1228 1600 
Q 959 1441 959 1056 
Q 959 750 1161 570 
Q 1363 391 1709 391 
Q 2188 391 2477 730 
Q 2766 1069 2766 1631 
L 2766 1759 
L 2194 1759 
z
M 3341 1997 
L 3341 0 
L 2766 0 
L 2766 531 
Q 2569 213 2275 61 
Q 1981 -91 1556 -91 
Q 1019 -91 701 211 
Q 384 513 384 1019 
Q 384 1609 779 1909 
Q 1175 2209 1959 2209 
L 2766 2209 
L 2766 2266 
Q 2766 2663 2505 2880 
Q 2244 3097 1772 3097 
Q 1472 3097 1187 3025 
Q 903 2953 641 2809 
L 641 3341 
Q 956 3463 1253 3523 
Q 1550 3584 1831 3584 
Q 2591 3584 2966 3190 
Q 3341 2797 3341 1997 
z
" transform="scale(0.015625)"/>
       <path id="DejaVuSans-74" d="M 1172 4494 
L 1172 3500 
L 2356 3500 
L 2356 3053 
L 1172 3053 
L 1172 1153 
Q 1172 725 1289 603 
Q 1406 481 1766 481 
L 2356 481 
L 2356 0 
L 1766 0 
Q 1100 0 847 248 
Q 594 497 594 1153 
L 594 3053 
L 172 3053 
L 172 3500 
L 594 3500 
L 594 4494 
L 1172 4494 
z
" transform="scale(0.015625)"/>
       <path id="DejaVuSans-65" d="M 3597 1894 
L 3597 1613 
L 953 1613 
Q 991 1019 1311 708 
Q 1631 397 2203 397 
Q 2534 397 2845 478 
Q 3156 559 3463 722 
L 3463 178 
Q 3153 47 2828 -22 
Q 2503 -91 2169 -91 
Q 1331 -91 842 396 
Q 353 884 353 1716 
Q 353 2575 817 3079 
Q 1281 3584 2069 3584 
Q 2775 3584 3186 3129 
Q 3597 2675 3597 1894 
z
M 3022 2063 
Q 3016 2534 2758 2815 
Q 2500 3097 2075 3097 
Q 1594 3097 1305 2825 
Q 1016 2553 972 2059 
L 3022 2063 
z
" transform="scale(0.015625)"/>
       <path id="DejaVuSans-6e" d="M 3513 2113 
L 3513 0 
L 2938 0 
L 2938 2094 
Q 2938 2591 2744 2837 
Q 2550 3084 2163 3084 
Q 1697 3084 1428 2787 
Q 1159 2491 1159 1978 
L 1159 0 
L 581 0 
L 581 3500 
L 1159 3500 
L 1159 2956 
Q 1366 3272 1645 3428 
Q 1925 3584 2291 3584 
Q 2894 3584 3203 3211 
Q 3513 2838 3513 2113 
z
" transform="scale(0.015625)"/>
       <path id="DejaVuSans-63" d="M 3122 3366 
L 3122 2828 
Q 2878 2963 2633 3030 
Q 2388 3097 2138 3097 
Q 1578 3097 1268 2742 
Q 959 2388 959 1747 
Q 959 1106 1268 751 
Q 1578 397 2138 397 
Q 2388 397 2633 464 
Q 2878 531 3122 666 
L 3122 134 
Q 2881 22 2623 -34 
Q 2366 -91 2075 -91 
Q 1284 -91 818 406 
Q 353 903 353 1747 
Q 353 2603 823 3093 
Q 1294 3584 2113 3584 
Q 2378 3584 2631 3529 
Q 2884 3475 3122 3366 
z
" transform="scale(0.015625)"/>
       <path id="DejaVuSans-79" d="M 2059 -325 
Q 1816 -950 1584 -1140 
Q 1353 -1331 966 -1331 
L 506 -1331 
L 506 -850 
L 844 -850 
Q 1081 -850 1212 -737 
Q 1344 -625 1503 -206 
L 1606 56 
L 191 3500 
L 800 3500 
L 1894 763 
L 2988 3500 
L 3597 3500 
L 2059 -325 
z
" transform="scale(0.015625)"/>
       <path id="DejaVuSans-20" transform="scale(0.015625)"/>
       <path id="DejaVuSans-28" d="M 1984 4856 
Q 1566 4138 1362 3434 
Q 1159 2731 1159 2009 
Q 1159 1288 1364 580 
Q 1569 -128 1984 -844 
L 1484 -844 
Q 1016 -109 783 600 
Q 550 1309 550 2009 
Q 550 2706 781 3412 
Q 1013 4119 1484 4856 
L 1984 4856 
z
" transform="scale(0.015625)"/>
       <path id="DejaVuSans-75" d="M 544 1381 
L 544 3500 
L 1119 3500 
L 1119 1403 
Q 1119 906 1312 657 
Q 1506 409 1894 409 
Q 2359 409 2629 706 
Q 2900 1003 2900 1516 
L 2900 3500 
L 3475 3500 
L 3475 0 
L 2900 0 
L 2900 538 
Q 2691 219 2414 64 
Q 2138 -91 1772 -91 
Q 1169 -91 856 284 
Q 544 659 544 1381 
z
M 1991 3584 
L 1991 3584 
z
" transform="scale(0.015625)"/>
       <path id="DejaVuSans-73" d="M 2834 3397 
L 2834 2853 
Q 2591 2978 2328 3040 
Q 2066 3103 1784 3103 
Q 1356 3103 1142 2972 
Q 928 2841 928 2578 
Q 928 2378 1081 2264 
Q 1234 2150 1697 2047 
L 1894 2003 
Q 2506 1872 2764 1633 
Q 3022 1394 3022 966 
Q 3022 478 2636 193 
Q 2250 -91 1575 -91 
Q 1294 -91 989 -36 
Q 684 19 347 128 
L 347 722 
Q 666 556 975 473 
Q 1284 391 1588 391 
Q 1994 391 2212 530 
Q 2431 669 2431 922 
Q 2431 1156 2273 1281 
Q 2116 1406 1581 1522 
L 1381 1569 
Q 847 1681 609 1914 
Q 372 2147 372 2553 
Q 372 3047 722 3315 
Q 1072 3584 1716 3584 
Q 2034 3584 2315 3537 
Q 2597 3491 2834 3397 
z
" transform="scale(0.015625)"/>
       <path id="DejaVuSans-29" d="M 513 4856 
L 1013 4856 
Q 1481 4119 1714 3412 
Q 1947 2706 1947 2009 
Q 1947 1309 1714 600 
Q 1481 -109 1013 -844 
L 513 -844 
Q 928 -128 1133 580 
Q 1338 1288 1338 2009 
Q 1338 2731 1133 3434 
Q 928 4138 513 4856 
z
" transform="scale(0.015625)"/>
      </defs>
      <use xlink:href="#DejaVuSans-4c"/>
      <use xlink:href="#DejaVuSans-61" x="55.712891"/>
      <use xlink:href="#DejaVuSans-74" x="116.992188"/>
      <use xlink:href="#DejaVuSans-65" x="156.201172"/>
      <use xlink:href="#DejaVuSans-6e" x="217.724609"/>
      <use xlink:href="#DejaVuSans-63" x="281.103516"/>
      <use xlink:href="#DejaVuSans-79" x="336.083984"/>
      <use xlink:href="#DejaVuSans-20" x="395.263672"/>
      <use xlink:href="#DejaVuSans-28" x="427.050781"/>
      <use xlink:href="#DejaVuSans-75" x="466.064453"/>
      <use xlink:href="#DejaVuSans-73" x="529.443359"/>
      <use xlink:href="#DejaVuSans-29" x="581.542969"/>
     </g>
    </g>
   </g>
   <g id="matplotlib.axis_2">
    <g id="ytick_1">
     <g id="line2d_10">
      <defs>
       <path id="m34a3a4a50e" d="M 0 0 
L -3.5 0 
" style="stroke: #000000; stroke-width: 0.8"/>
      </defs>
      <g>
       <use xlink:href="#m34a3a4a50e" x="59.690625" y="465.838125" style="stroke: #000000; stroke-width: 0.8"/>
      </g>
     </g>
     <g id="text_11">
      <!-- 0 -->
      <g transform="translate(46.328125 469.637344) scale(0.1 -0.1)">
       <use xlink:href="#DejaVuSans-30"/>
      </g>
     </g>
    </g>
    <g id="ytick_2">
     <g id="line2d_11">
      <g>
       <use xlink:href="#m34a3a4a50e" x="59.690625" y="370.69549" style="stroke: #000000; stroke-width: 0.8"/>
      </g>
     </g>
     <g id="text_12">
      <!-- 20000 -->
      <g transform="translate(20.878125 374.494709) scale(0.1 -0.1)">
       <use xlink:href="#DejaVuSans-32"/>
       <use xlink:href="#DejaVuSans-30" x="63.623047"/>
       <use xlink:href="#DejaVuSans-30" x="127.246094"/>
       <use xlink:href="#DejaVuSans-30" x="190.869141"/>
       <use xlink:href="#DejaVuSans-30" x="254.492188"/>
      </g>
     </g>
    </g>
    <g id="ytick_3">
     <g id="line2d_12">
      <g>
       <use xlink:href="#m34a3a4a50e" x="59.690625" y="275.552855" style="stroke: #000000; stroke-width: 0.8"/>
      </g>
     </g>
     <g id="text_13">
      <!-- 40000 -->
      <g transform="translate(20.878125 279.352074) scale(0.1 -0.1)">
       <use xlink:href="#DejaVuSans-34"/>
       <use xlink:href="#DejaVuSans-30" x="63.623047"/>
       <use xlink:href="#DejaVuSans-30" x="127.246094"/>
       <use xlink:href="#DejaVuSans-30" x="190.869141"/>
       <use xlink:href="#DejaVuSans-30" x="254.492188"/>
      </g>
     </g>
    </g>
    <g id="ytick_4">
     <g id="line2d_13">
      <g>
       <use xlink:href="#m34a3a4a50e" x="59.690625" y="180.41022" style="stroke: #000000; stroke-width: 0.8"/>
      </g>
     </g>
     <g id="text_14">
      <!-- 60000 -->
      <g transform="translate(20.878125 184.209438) scale(0.1 -0.1)">
       <use xlink:href="#DejaVuSans-36"/>
       <use xlink:href="#DejaVuSans-30" x="63.623047"/>
       <use xlink:href="#DejaVuSans-30" x="127.246094"/>
       <use xlink:href="#DejaVuSans-30" x="190.869141"/>
       <use xlink:href="#DejaVuSans-30" x="254.492188"/>
      </g>
     </g>
    </g>
    <g id="ytick_5">
     <g id="line2d_14">
      <g>
       <use xlink:href="#m34a3a4a50e" x="59.690625" y="85.267585" style="stroke: #000000; stroke-width: 0.8"/>
      </g>
     </g>
     <g id="text_15">
      <!-- 80000 -->
      <g transform="translate(20.878125 89.066803) scale(0.1 -0.1)">
       <use xlink:href="#DejaVuSans-38"/>
       <use xlink:href="#DejaVuSans-30" x="63.623047"/>
       <use xlink:href="#DejaVuSans-30" x="127.246094"/>
       <use xlink:href="#DejaVuSans-30" x="190.869141"/>
       <use xlink:href="#DejaVuSans-30" x="254.492188"/>
      </g>
     </g>
    </g>
    <g id="text_16">
     <!-- Frequency -->
     <g transform="translate(14.798438 269.907812) rotate(-90) scale(0.1 -0.1)">
      <defs>
       <path id="DejaVuSans-46" d="M 628 4666 
L 3309 4666 
L 3309 4134 
L 1259 4134 
L 1259 2759 
L 3109 2759 
L 3109 2228 
L 1259 2228 
L 1259 0 
L 628 0 
L 628 4666 
z
" transform="scale(0.015625)"/>
       <path id="DejaVuSans-72" d="M 2631 2963 
Q 2534 3019 2420 3045 
Q 2306 3072 2169 3072 
Q 1681 3072 1420 2755 
Q 1159 2438 1159 1844 
L 1159 0 
L 581 0 
L 581 3500 
L 1159 3500 
L 1159 2956 
Q 1341 3275 1631 3429 
Q 1922 3584 2338 3584 
Q 2397 3584 2469 3576 
Q 2541 3569 2628 3553 
L 2631 2963 
z
" transform="scale(0.015625)"/>
       <path id="DejaVuSans-71" d="M 947 1747 
Q 947 1113 1208 752 
Q 1469 391 1925 391 
Q 2381 391 2643 752 
Q 2906 1113 2906 1747 
Q 2906 2381 2643 2742 
Q 2381 3103 1925 3103 
Q 1469 3103 1208 2742 
Q 947 2381 947 1747 
z
M 2906 525 
Q 2725 213 2448 61 
Q 2172 -91 1784 -91 
Q 1150 -91 751 415 
Q 353 922 353 1747 
Q 353 2572 751 3078 
Q 1150 3584 1784 3584 
Q 2172 3584 2448 3432 
Q 2725 3281 2906 2969 
L 2906 3500 
L 3481 3500 
L 3481 -1331 
L 2906 -1331 
L 2906 525 
z
" transform="scale(0.015625)"/>
      </defs>
      <use xlink:href="#DejaVuSans-46"/>
      <use xlink:href="#DejaVuSans-72" x="50.269531"/>
      <use xlink:href="#DejaVuSans-65" x="89.132812"/>
      <use xlink:href="#DejaVuSans-71" x="150.65625"/>
      <use xlink:href="#DejaVuSans-75" x="214.132812"/>
      <use xlink:href="#DejaVuSans-65" x="277.511719"/>
      <use xlink:href="#DejaVuSans-6e" x="339.035156"/>
      <use xlink:href="#DejaVuSans-63" x="402.414062"/>
      <use xlink:href="#DejaVuSans-79" x="457.394531"/>
     </g>
    </g>
   </g>
   <g id="patch_301">
    <path d="M 59.690625 465.838125 
L 59.690625 22.318125 
" style="fill: none; stroke: #000000; stroke-width: 0.8; stroke-linejoin: miter; stroke-linecap: square"/>
   </g>
   <g id="patch_302">
    <path d="M 617.690625 465.838125 
L 617.690625 22.318125 
" style="fill: none; stroke: #000000; stroke-width: 0.8; stroke-linejoin: miter; stroke-linecap: square"/>
   </g>
   <g id="patch_303">
    <path d="M 59.690625 465.838125 
L 617.690625 465.838125 
" style="fill: none; stroke: #000000; stroke-width: 0.8; stroke-linejoin: miter; stroke-linecap: square"/>
   </g>
   <g id="patch_304">
    <path d="M 59.690625 22.318125 
L 617.690625 22.318125 
" style="fill: none; stroke: #000000; stroke-width: 0.8; stroke-linejoin: miter; stroke-linecap: square"/>
   </g>
   <g id="text_17">
    <!-- Lagscope Frequency Table Bar Graph (c_to_a.json) 09-13-2023 15:43:41 -->
    <g transform="translate(122.06625 16.318125) scale(0.12 -0.12)">
     <defs>
      <path id="DejaVuSans-67" d="M 2906 1791 
Q 2906 2416 2648 2759 
Q 2391 3103 1925 3103 
Q 1463 3103 1205 2759 
Q 947 2416 947 1791 
Q 947 1169 1205 825 
Q 1463 481 1925 481 
Q 2391 481 2648 825 
Q 2906 1169 2906 1791 
z
M 3481 434 
Q 3481 -459 3084 -895 
Q 2688 -1331 1869 -1331 
Q 1566 -1331 1297 -1286 
Q 1028 -1241 775 -1147 
L 775 -588 
Q 1028 -725 1275 -790 
Q 1522 -856 1778 -856 
Q 2344 -856 2625 -561 
Q 2906 -266 2906 331 
L 2906 616 
Q 2728 306 2450 153 
Q 2172 0 1784 0 
Q 1141 0 747 490 
Q 353 981 353 1791 
Q 353 2603 747 3093 
Q 1141 3584 1784 3584 
Q 2172 3584 2450 3431 
Q 2728 3278 2906 2969 
L 2906 3500 
L 3481 3500 
L 3481 434 
z
" transform="scale(0.015625)"/>
      <path id="DejaVuSans-6f" d="M 1959 3097 
Q 1497 3097 1228 2736 
Q 959 2375 959 1747 
Q 959 1119 1226 758 
Q 1494 397 1959 397 
Q 2419 397 2687 759 
Q 2956 1122 2956 1747 
Q 2956 2369 2687 2733 
Q 2419 3097 1959 3097 
z
M 1959 3584 
Q 2709 3584 3137 3096 
Q 3566 2609 3566 1747 
Q 3566 888 3137 398 
Q 2709 -91 1959 -91 
Q 1206 -91 779 398 
Q 353 888 353 1747 
Q 353 2609 779 3096 
Q 1206 3584 1959 3584 
z
" transform="scale(0.015625)"/>
      <path id="DejaVuSans-70" d="M 1159 525 
L 1159 -1331 
L 581 -1331 
L 581 3500 
L 1159 3500 
L 1159 2969 
Q 1341 3281 1617 3432 
Q 1894 3584 2278 3584 
Q 2916 3584 3314 3078 
Q 3713 2572 3713 1747 
Q 3713 922 3314 415 
Q 2916 -91 2278 -91 
Q 1894 -91 1617 61 
Q 1341 213 1159 525 
z
M 3116 1747 
Q 3116 2381 2855 2742 
Q 2594 3103 2138 3103 
Q 1681 3103 1420 2742 
Q 1159 2381 1159 1747 
Q 1159 1113 1420 752 
Q 1681 391 2138 391 
Q 2594 391 2855 752 
Q 3116 1113 3116 1747 
z
" transform="scale(0.015625)"/>
      <path id="DejaVuSans-54" d="M -19 4666 
L 3928 4666 
L 3928 4134 
L 2272 4134 
L 2272 0 
L 1638 0 
L 1638 4134 
L -19 4134 
L -19 4666 
z
" transform="scale(0.015625)"/>
      <path id="DejaVuSans-62" d="M 3116 1747 
Q 3116 2381 2855 2742 
Q 2594 3103 2138 3103 
Q 1681 3103 1420 2742 
Q 1159 2381 1159 1747 
Q 1159 1113 1420 752 
Q 1681 391 2138 391 
Q 2594 391 2855 752 
Q 3116 1113 3116 1747 
z
M 1159 2969 
Q 1341 3281 1617 3432 
Q 1894 3584 2278 3584 
Q 2916 3584 3314 3078 
Q 3713 2572 3713 1747 
Q 3713 922 3314 415 
Q 2916 -91 2278 -91 
Q 1894 -91 1617 61 
Q 1341 213 1159 525 
L 1159 0 
L 581 0 
L 581 4863 
L 1159 4863 
L 1159 2969 
z
" transform="scale(0.015625)"/>
      <path id="DejaVuSans-6c" d="M 603 4863 
L 1178 4863 
L 1178 0 
L 603 0 
L 603 4863 
z
" transform="scale(0.015625)"/>
      <path id="DejaVuSans-42" d="M 1259 2228 
L 1259 519 
L 2272 519 
Q 2781 519 3026 730 
Q 3272 941 3272 1375 
Q 3272 1813 3026 2020 
Q 2781 2228 2272 2228 
L 1259 2228 
z
M 1259 4147 
L 1259 2741 
L 2194 2741 
Q 2656 2741 2882 2914 
Q 3109 3088 3109 3444 
Q 3109 3797 2882 3972 
Q 2656 4147 2194 4147 
L 1259 4147 
z
M 628 4666 
L 2241 4666 
Q 2963 4666 3353 4366 
Q 3744 4066 3744 3513 
Q 3744 3084 3544 2831 
Q 3344 2578 2956 2516 
Q 3422 2416 3680 2098 
Q 3938 1781 3938 1306 
Q 3938 681 3513 340 
Q 3088 0 2303 0 
L 628 0 
L 628 4666 
z
" transform="scale(0.015625)"/>
      <path id="DejaVuSans-47" d="M 3809 666 
L 3809 1919 
L 2778 1919 
L 2778 2438 
L 4434 2438 
L 4434 434 
Q 4069 175 3628 42 
Q 3188 -91 2688 -91 
Q 1594 -91 976 548 
Q 359 1188 359 2328 
Q 359 3472 976 4111 
Q 1594 4750 2688 4750 
Q 3144 4750 3555 4637 
Q 3966 4525 4313 4306 
L 4313 3634 
Q 3963 3931 3569 4081 
Q 3175 4231 2741 4231 
Q 1884 4231 1454 3753 
Q 1025 3275 1025 2328 
Q 1025 1384 1454 906 
Q 1884 428 2741 428 
Q 3075 428 3337 486 
Q 3600 544 3809 666 
z
" transform="scale(0.015625)"/>
      <path id="DejaVuSans-68" d="M 3513 2113 
L 3513 0 
L 2938 0 
L 2938 2094 
Q 2938 2591 2744 2837 
Q 2550 3084 2163 3084 
Q 1697 3084 1428 2787 
Q 1159 2491 1159 1978 
L 1159 0 
L 581 0 
L 581 4863 
L 1159 4863 
L 1159 2956 
Q 1366 3272 1645 3428 
Q 1925 3584 2291 3584 
Q 2894 3584 3203 3211 
Q 3513 2838 3513 2113 
z
" transform="scale(0.015625)"/>
      <path id="DejaVuSans-5f" d="M 3263 -1063 
L 3263 -1509 
L -63 -1509 
L -63 -1063 
L 3263 -1063 
z
" transform="scale(0.015625)"/>
      <path id="DejaVuSans-2e" d="M 684 794 
L 1344 794 
L 1344 0 
L 684 0 
L 684 794 
z
" transform="scale(0.015625)"/>
      <path id="DejaVuSans-6a" d="M 603 3500 
L 1178 3500 
L 1178 -63 
Q 1178 -731 923 -1031 
Q 669 -1331 103 -1331 
L -116 -1331 
L -116 -844 
L 38 -844 
Q 366 -844 484 -692 
Q 603 -541 603 -63 
L 603 3500 
z
M 603 4863 
L 1178 4863 
L 1178 4134 
L 603 4134 
L 603 4863 
z
" transform="scale(0.015625)"/>
      <path id="DejaVuSans-2d" d="M 313 2009 
L 1997 2009 
L 1997 1497 
L 313 1497 
L 313 2009 
z
" transform="scale(0.015625)"/>
      <path id="DejaVuSans-3a" d="M 750 794 
L 1409 794 
L 1409 0 
L 750 0 
L 750 794 
z
M 750 3309 
L 1409 3309 
L 1409 2516 
L 750 2516 
L 750 3309 
z
" transform="scale(0.015625)"/>
     </defs>
     <use xlink:href="#DejaVuSans-4c"/>
     <use xlink:href="#DejaVuSans-61" x="55.712891"/>
     <use xlink:href="#DejaVuSans-67" x="116.992188"/>
     <use xlink:href="#DejaVuSans-73" x="180.46875"/>
     <use xlink:href="#DejaVuSans-63" x="232.568359"/>
     <use xlink:href="#DejaVuSans-6f" x="287.548828"/>
     <use xlink:href="#DejaVuSans-70" x="348.730469"/>
     <use xlink:href="#DejaVuSans-65" x="412.207031"/>
     <use xlink:href="#DejaVuSans-20" x="473.730469"/>
     <use xlink:href="#DejaVuSans-46" x="505.517578"/>
     <use xlink:href="#DejaVuSans-72" x="555.787109"/>
     <use xlink:href="#DejaVuSans-65" x="594.650391"/>
     <use xlink:href="#DejaVuSans-71" x="656.173828"/>
     <use xlink:href="#DejaVuSans-75" x="719.650391"/>
     <use xlink:href="#DejaVuSans-65" x="783.029297"/>
     <use xlink:href="#DejaVuSans-6e" x="844.552734"/>
     <use xlink:href="#DejaVuSans-63" x="907.931641"/>
     <use xlink:href="#DejaVuSans-79" x="962.912109"/>
     <use xlink:href="#DejaVuSans-20" x="1022.091797"/>
     <use xlink:href="#DejaVuSans-54" x="1053.878906"/>
     <use xlink:href="#DejaVuSans-61" x="1098.462891"/>
     <use xlink:href="#DejaVuSans-62" x="1159.742188"/>
     <use xlink:href="#DejaVuSans-6c" x="1223.21875"/>
     <use xlink:href="#DejaVuSans-65" x="1251.001953"/>
     <use xlink:href="#DejaVuSans-20" x="1312.525391"/>
     <use xlink:href="#DejaVuSans-42" x="1344.3125"/>
     <use xlink:href="#DejaVuSans-61" x="1412.916016"/>
     <use xlink:href="#DejaVuSans-72" x="1474.195312"/>
     <use xlink:href="#DejaVuSans-20" x="1515.308594"/>
     <use xlink:href="#DejaVuSans-47" x="1547.095703"/>
     <use xlink:href="#DejaVuSans-72" x="1624.585938"/>
     <use xlink:href="#DejaVuSans-61" x="1665.699219"/>
     <use xlink:href="#DejaVuSans-70" x="1726.978516"/>
     <use xlink:href="#DejaVuSans-68" x="1790.455078"/>
     <use xlink:href="#DejaVuSans-20" x="1853.833984"/>
     <use xlink:href="#DejaVuSans-28" x="1885.621094"/>
     <use xlink:href="#DejaVuSans-63" x="1924.634766"/>
     <use xlink:href="#DejaVuSans-5f" x="1979.615234"/>
     <use xlink:href="#DejaVuSans-74" x="2029.615234"/>
     <use xlink:href="#DejaVuSans-6f" x="2068.824219"/>
     <use xlink:href="#DejaVuSans-5f" x="2130.005859"/>
     <use xlink:href="#DejaVuSans-61" x="2180.005859"/>
     <use xlink:href="#DejaVuSans-2e" x="2241.285156"/>
     <use xlink:href="#DejaVuSans-6a" x="2273.072266"/>
     <use xlink:href="#DejaVuSans-73" x="2300.855469"/>
     <use xlink:href="#DejaVuSans-6f" x="2352.955078"/>
     <use xlink:href="#DejaVuSans-6e" x="2414.136719"/>
     <use xlink:href="#DejaVuSans-29" x="2477.515625"/>
     <use xlink:href="#DejaVuSans-20" x="2516.529297"/>
     <use xlink:href="#DejaVuSans-30" x="2548.316406"/>
     <use xlink:href="#DejaVuSans-39" x="2611.939453"/>
     <use xlink:href="#DejaVuSans-2d" x="2675.5625"/>
     <use xlink:href="#DejaVuSans-31" x="2711.646484"/>
     <use xlink:href="#DejaVuSans-33" x="2775.269531"/>
     <use xlink:href="#DejaVuSans-2d" x="2838.892578"/>
     <use xlink:href="#DejaVuSans-32" x="2874.976562"/>
     <use xlink:href="#DejaVuSans-30" x="2938.599609"/>
     <use xlink:href="#DejaVuSans-32" x="3002.222656"/>
     <use xlink:href="#DejaVuSans-33" x="3065.845703"/>
     <use xlink:href="#DejaVuSans-20" x="3129.46875"/>
     <use xlink:href="#DejaVuSans-31" x="3161.255859"/>
     <use xlink:href="#DejaVuSans-35" x="3224.878906"/>
     <use xlink:href="#DejaVuSans-3a" x="3288.501953"/>
     <use xlink:href="#DejaVuSans-34" x="3322.193359"/>
     <use xlink:href="#DejaVuSans-33" x="3385.816406"/>
     <use xlink:href="#DejaVuSans-3a" x="3449.439453"/>
     <use xlink:href="#DejaVuSans-34" x="3483.130859"/>
     <use xlink:href="#DejaVuSans-31" x="3546.753906"/>
    </g>
   </g>
  </g>
 </g>
 <defs>
  <clipPath id="pf6a444f3ef">
   <rect x="59.690625" y="22.318125" width="558" height="443.52"/>
  </clipPath>
 </defs>
</svg>
